<?xml version="1.0" encoding="UTF-8"?>
<svg width="419px" height="104px" viewBox="0 0 419 104" version="1.1" xmlns="http://www.w3.org/2000/svg" xmlns:xlink="http://www.w3.org/1999/xlink">
    <title>Combined Shape</title>
    <g id="Assets" stroke="none" stroke-width="1" fill="none" fill-rule="evenodd">
        <g id="Veggie-Twist" transform="translate(-830.000000, -397.000000)" fill="#FCC517">
            <g id="add-ons" transform="translate(830.000000, 397.000000)">
                <path d="M368.063358,0.414877493 C368.292527,0.54040696 369.185956,0.786086059 369.008267,0.411290937 C368.830577,0.0364958155 369.855198,0.353906038 370.046173,0.318040476 C370.238808,0.283968192 370.994403,0.359285872 371.281696,0.579859078 C371.570649,0.802225561 372.668338,0.768153278 372.591948,0.669522982 C372.515558,0.570892687 373.470431,0.344939648 374.881983,0.387978322 L375.400106,0.734080994 L376.363282,1.37428127 C376.447976,0.69104232 376.86812,0.475848948 377.298228,0.895476022 L378.194979,0.608551527 C379.136567,0.309074086 380.312306,0.434603552 381.373461,0.886509632 C381.772017,1.05507777 382.344941,1.40656028 383.045735,0.990519761 C383.362919,0.802225561 384.214832,1.22005936 384.766168,1.46394518 C385.035193,1.58409481 384.090283,1.86563947 384.699742,2.08979923 C384.872449,2.15256397 385.204579,1.80825457 385.43873,1.83336047 C385.812377,1.87101931 386.380319,1.98220255 386.488261,2.20277575 L386.832015,2.91470716 C387.590932,3.12631397 388.613892,3.4347578 389.107105,3.59973939 C389.600317,3.76651425 391.186237,4.0408858 391.481833,3.98888073 C391.779089,3.93866895 392.684143,4.21304049 392.896706,4.13592954 C393.107609,4.05881858 393.542699,3.9996404 393.497861,4.32243046 C393.453024,4.64342724 394.549052,4.18076149 394.735045,4.11799676 C394.85904,4.0761536 395.242096,4.08850729 395.660826,4.10245501 L395.978072,4.11239276 C396.083723,4.11525703 396.188113,4.117399 396.287752,4.11799676 C396.883925,4.12337659 398.375188,4.8102021 398.53295,4.76178359 C398.690711,4.7115718 399.222119,4.6792928 399.233744,4.85682733 C399.245368,5.03436186 399.790061,5.55261923 400.40118,5.42170993 C401.012299,5.29080063 402.887172,6.02604465 403.607894,6.22330524 L403.832081,7.03386694 C403.945006,7.43556123 405.012803,7.48756629 405.215402,8.27122882 L405.306738,8.62629788 C405.995907,8.89708287 406.671792,9.15890148 406.811286,9.21090654 C406.950781,9.26470488 407.203199,9.63950001 407.058723,9.93180433 L407.070347,9.93718417 L407.678145,10.1954162 C407.440672,10.6275962 407.264643,11.3108352 407.286232,11.7125295 L407.346015,12.0944977 L407.473885,12.8978863 C407.658217,13.7765926 407.928903,14.5190097 408.078362,14.5494954 L408.224499,14.5602551 L408.378939,14.5710148 C408.548325,14.5692215 408.699444,14.6409526 408.71273,14.7288232 C408.727675,14.8202804 408.397206,15.0713394 408.070058,15.2273545 L407.801033,15.4013025 C407.739589,15.4407546 407.786087,15.6541547 407.842549,15.7635447 C407.867459,15.8101699 408.043488,15.817343 408.146448,15.8065834 C408.204571,15.7994103 408.246087,15.6900203 408.307531,15.6792606 L408.657928,15.623669 C409.04652,15.5752505 409.348758,15.6416018 409.32883,15.7707178 C409.310563,15.8980406 409.60948,16.5077551 410.039588,16.8377183 L410.321899,17.2017537 L410.502909,17.4348799 C410.532801,17.906512 410.140888,18.1199121 409.632729,17.9118919 C409.124571,17.7038716 407.89569,17.8706465 408.312513,18.8659158 C408.729336,19.8629784 408.819011,22.5636552 408.403849,22.6891847 C407.987026,22.8147142 406.854463,23.2289614 407.0006,23.2684135 C407.146737,23.3096589 407.696412,23.652175 408.07338,23.9157869 L408.216195,24.226024 C408.424607,24.6815167 408.595239,24.561367 408.767323,24.3849533 L408.861568,24.2862694 C409.003858,24.139239 409.151896,24.0177592 409.32717,24.206298 L409.572946,24.4734964 C410.087747,24.6779301 410.361754,25.0832109 410.184065,25.3719287 C410.006375,25.6606465 410.527819,27.1670001 410.630779,27.8753449 L410.296989,28.533478 C409.934967,29.2418228 410.604209,30.4540788 411.45114,30.5240167 L412.168541,30.5849881 C412.970634,30.7302437 413.312728,30.8683261 412.929118,30.8952252 C412.545508,30.9203311 411.459443,31.1893229 411.459443,31.4332087 C411.459443,31.6770945 411.846375,32.4302713 412.31966,32.3477805 L412.768035,32.286809 L413.020454,32.2509435 C413.294461,32.2491502 413.734533,32.2975687 414.000237,32.3621267 C414.14106,32.3965577 414.585139,32.3728386 415.063922,32.3459229 L415.42532,32.3259955 C415.724913,32.3103209 416.011836,32.2987642 416.220525,32.3047418 C416.846589,32.3262612 417.593882,33.8164753 417.51251,33.943798 L417.18038,33.8971728 C416.522763,33.8039223 416.174027,34.2755545 416.428106,34.7597395 C416.602474,35.0950825 416.760236,35.5200894 417.074098,35.6922441 L417.763268,36.0706258 C417.806445,36.7197925 417.984134,37.1071406 418.158502,36.929606 L418.332871,36.8901539 C418.512221,36.8471152 418.806156,36.8829808 418.914098,36.9905775 C419.018719,37.0910011 419.028683,37.3761323 418.939008,37.4998685 C418.640091,37.8961829 418.226589,38.1311024 417.627095,38.0557847 C417.51417,38.0414384 417.263412,38.2655982 417.253449,38.392921 C417.240163,38.5292101 417.392943,38.74799 417.542402,38.8143413 L418.02565,39.031328 C418.590271,39.2267953 418.572004,39.6284896 417.984134,39.9261737 L417.466012,39.9566595 L417.045867,39.9799721 C416.441391,39.657182 415.949839,39.8329233 415.954821,40.3709067 L415.865146,40.7295623 L415.733954,41.249613 C415.15937,41.4092147 414.415399,41.5634366 414.081609,41.5903358 C413.746157,41.617235 413.82919,42.7380338 414.046735,43.3441618 C414.26428,43.9484965 414.661175,45.9336553 414.31576,46.0896705 C413.968684,46.2456857 414.277565,47.2929601 414.483486,47.4758745 C414.687745,47.6605821 415.026518,48.2828496 414.755832,48.4532111 L414.413738,48.5859136 C414.123125,48.6988902 413.766085,48.1106949 413.443919,48.6343321 L413.404064,48.6988902 C413.116771,48.6468851 412.588685,48.4729371 412.231645,48.3151286 C411.874606,48.1555269 410.469696,48.433485 409.876845,48.5733607 C409.666305,48.6223979 409.283399,48.5805174 408.85561,48.4966326 L408.836622,48.8110027 C408.572513,48.7836004 407.870403,48.4858782 407.421816,48.1235972 C407.168468,48.0429863 406.962078,47.9688633 406.844499,47.9170209 C406.364572,47.7036208 404.594319,47.827357 404.222334,47.7520393 C403.852009,47.6785149 402.905439,47.1602576 402.789194,47.3736576 C402.672948,47.5852645 402.435475,48.3348547 402.481974,48.6343321 C402.528472,48.9338096 403.670998,49.0952046 403.941684,49.0916181 L404.062912,49.1992147 C404.142311,49.2703855 404.176303,49.3760558 404.207963,49.4850316 L404.247593,49.6153927 C404.313631,49.8073252 404.427943,49.9695398 404.841756,49.9201125 L404.961323,49.9057663 C405.15894,50.3236001 405.607315,50.3702253 405.954391,50.0079832 L406.032442,50.8203381 L406.047388,50.9853197 C406.484138,51.1305753 407.22977,51.2345854 407.704715,51.2166526 L407.79273,51.7151839 L407.865798,52.1204648 C407.980383,52.5849238 407.872441,52.8341894 407.628326,52.6745877 C407.38421,52.5149859 406.484138,52.4091825 406.338001,52.5365053 C406.191864,52.6656213 405.487749,52.8126701 405.110781,52.566991 C405.040411,52.5205899 404.95241,52.4563471 404.854987,52.3837194 L404.650012,52.2300859 L404.650012,52.2300859 L404.434509,52.0709044 C404.110655,51.8363773 403.800529,51.6398662 403.7258,51.7367032 L403.759013,51.8174008 C403.969915,52.3517976 404.471431,52.9077138 404.388399,53.3918989 L404.295403,53.9514017 C403.699229,54.5880154 403.3671,55.2425619 403.558074,55.4057502 C403.747388,55.5689385 404.557785,55.5312797 404.866666,55.2694611 L405.079229,54.9628105 L405.217063,54.7637567 C405.255258,54.4804187 405.341612,54.2706052 405.411359,54.2939178 L405.441251,54.3351632 L405.886305,54.9430845 C406.424355,54.6274675 407.0006,54.4337935 407.165004,54.5126977 C407.329409,54.5933952 407.277929,55.1188257 406.66681,55.5115536 L407.060384,56.1481674 L407.224788,56.4153658 C407.658217,56.2934229 408.216195,56.6664247 408.463632,57.242067 C408.709408,57.8177093 409.026592,58.4650827 408.910347,58.5672995 C408.794101,58.6677231 408.194607,58.7089685 407.84421,58.4238373 L407.517062,58.1745716 L407.473885,58.1404993 C407.292874,58.1566388 407.05208,58.3162406 406.937495,58.4955684 C406.82125,58.6731029 406.69338,59.2828175 406.995618,59.3115099 C407.297856,59.3384091 408.191286,59.5876747 407.923921,59.7652093 C407.656557,59.9409505 406.983994,60.6259828 407.091936,60.846556 C407.201539,61.0689224 407.651575,61.6158723 407.79439,61.452684 L407.9206,61.4221982 C408.349047,61.3146015 408.986737,61.7700942 409.460022,62.6236946 L409.655978,62.9787636 C409.385292,63.3804579 409.091358,63.7821522 409.005004,63.8682295 C408.916989,63.9543069 408.895401,64.3147558 409.14782,64.4689777 L409.380311,64.470771 C409.994751,64.4779441 410.192368,64.6662383 409.929985,65.1701494 C409.858577,65.3118184 409.689191,65.5323916 409.73735,65.5772236 L410.011357,65.8372489 C409.928325,66.1367263 409.569625,66.3321936 409.214246,66.2730155 L409.054823,65.8587682 L408.990058,65.6937866 C408.109914,65.618469 408.136484,65.8551817 409.053163,66.2210104 L408.694462,66.959841 L408.505148,67.3507756 C408.360672,67.804475 408.375618,68.2976264 408.540022,68.4464685 C408.706087,68.5953106 409.036556,69.3556605 408.802405,69.6407917 C408.566592,69.9223364 407.453957,70.3168576 407.437351,70.5822627 L407.546954,70.7669704 L407.759517,71.1202462 C407.938867,71.5739455 407.932224,71.8052784 407.744571,71.6331237 C407.556918,71.460969 406.819589,71.3031605 406.603705,71.3856513 C406.387821,71.4681421 405.603994,71.4591757 405.334969,71.3910312 C405.064283,71.3228866 404.302045,71.4806951 404.436558,71.590085 C404.57107,71.699475 405.069265,72.1334483 405.288471,72.2822904 C405.509337,72.4311324 406.211792,72.0563373 406.288182,72.0491642 C406.367893,72.0419911 406.519012,72.2356651 406.477496,72.5459022 C406.443764,72.7979699 407.186204,72.6285892 407.580709,72.5350484 L407.73399,72.4990717 C407.754055,72.4945767 407.771038,72.4909831 407.784427,72.4885173 C407.99865,72.4508585 408.344065,72.7216435 407.968759,72.8920049 C407.593452,73.0623663 406.560528,73.3690169 406.480817,73.2094151 C406.399445,73.0498134 405.980962,72.8184805 405.858073,72.8399998 C405.733525,72.8597259 405.228687,73.776091 405.022767,73.7581582 C404.815186,73.7384322 404.144283,74.0988811 403.978219,74.6027922 L404.177496,75.1102899 C404.363489,75.5855086 404.625872,75.8903659 405.217063,75.942371 L405.333308,75.9531306 C405.479445,76.0876265 405.434608,76.4426955 405.23533,76.7385864 C405.036052,77.0344773 404.079518,77.606533 403.968255,77.7338558 C403.855331,77.8629718 403.87858,78.3722628 403.739085,78.4027485 C403.601251,78.4368208 403.480024,78.7380915 403.433526,78.7757503 C403.387027,78.8169957 403.486666,79.0626748 403.719157,79.2689018 C403.953309,79.4715422 404.456486,80.3681813 404.423273,80.8936118 L404.167533,81.1841228 C403.466739,81.9821316 403.632804,82.3963788 404.627532,82.8787706 L405.396413,83.2535657 C404.899879,83.796929 404.331937,84.5142402 404.13598,84.8442034 C403.938363,85.1759599 403.337208,85.5973802 403.883562,85.635039 L403.812154,86.3792495 L403.782262,86.6859 C403.798394,86.8124542 403.816831,86.9573072 403.836061,87.1083712 L403.894624,87.5681092 C403.923587,87.7952072 403.950936,88.0090831 403.971576,88.168941 L404.26385,88.4199999 L404.612587,88.7212706 C404.498002,89.0870994 404.272153,89.7344728 404.10941,90.1594797 L404.456486,90.5952463 L405.316702,91.6730064 C404.589337,92.1249125 403.971576,92.5140538 403.941684,92.5391597 C403.911793,92.5660589 404.434897,93.6007803 405.313381,94.6570211 L405.957712,95.7114687 L406.142045,96.0109461 C405.783344,95.9141091 405.444572,95.8280317 405.386449,95.8208586 C405.331648,95.8118922 405.009482,95.9087292 404.803561,96.0503982 C404.597641,96.1920672 403.85367,96.5381699 403.679302,96.5578959 C403.504934,96.577622 402.686233,96.7157044 402.295981,96.9057919 L401.922335,97.0707734 L401.472299,97.268034 C400.949194,97.1873365 399.655549,97.3684576 398.597715,97.6679351 C397.538221,97.9674125 394.105659,98.1915723 393.51945,98.3475874 L392.973096,98.4229051 L392.411797,98.4982228 C391.822266,98.6398918 390.339306,98.7887339 389.117069,98.8263927 L387.99447,98.8317725 L387.419885,98.8353591 C386.848622,99.0487592 386.049849,99.5723964 385.64133,99.9938167 L385.116565,99.3034047 C385.045157,99.2101542 384.125157,99.5221846 384.116854,99.4970787 C383.841186,98.763628 383.28985,100.035062 382.897937,99.3500299 L382.761764,99.1133172 C382.168912,99.4845258 381.458154,99.7230317 381.184147,99.6423342 L381.126024,99.6871662 L380.57801,100.126519 C379.873895,100.058375 379.06848,100.124726 378.789491,100.275361 C378.510502,100.425997 377.364654,100.106793 377.080683,100.158798 C376.795051,100.20901 375.441622,100.413444 374.715918,100.409857 C373.990215,100.408064 372.063862,100.922735 371.872887,100.757753 C371.683573,100.590978 370.497869,101.08951 369.953176,101.270631 L369.521408,101.166621 L368.784079,100.983706 C368.030145,101.103856 367.050361,101.240145 366.605308,101.288564 C366.45751,101.305301 366.245869,101.349734 366.026294,101.396625 L365.762575,101.452459 C365.415412,101.524168 365.105188,101.576325 365.060904,101.50555 C364.977871,101.372848 364.205669,101.577281 363.785525,101.907244 C363.365381,102.235414 361.67484,101.756609 361.292891,101.926971 L361.158378,101.837307 L360.553902,101.430232 C360.052386,101.754816 359.085888,101.952076 358.408343,101.869586 L357.865311,102.020221 L357.308993,102.176236 C356.787549,102.016634 355.8443,101.903658 355.213254,101.925177 L354.632027,102.002288 L354.085673,102.074019 C353.502785,102.251554 352.632605,102.176236 352.152677,101.905451 L351.511667,102.221068 L351.050006,102.448814 C350.360837,102.414742 349.053906,102.516959 348.145531,102.672974 L347.230513,102.432675 L346.622715,102.273073 C345.804015,102.504406 344.92221,102.724979 344.66647,102.762638 C344.40907,102.800297 343.545532,102.542065 343.299756,102.656835 C343.05398,102.769811 342.198746,102.730359 341.627482,102.71422 C341.05788,102.696287 339.588205,103.008317 339.533404,102.882788 C339.476942,102.757258 339.320841,102.744705 339.302573,103.115914 C339.284306,103.487122 338.130155,102.80209 337.894343,102.793124 C337.65687,102.785951 336.610661,102.830783 336.117448,102.898927 C335.927751,102.924447 335.613751,102.912032 335.279002,102.891169 L334.873971,102.863965 C334.472236,102.836481 334.10027,102.813816 333.937016,102.846922 C333.581637,102.918653 332.289652,102.721393 331.827991,102.655041 C331.36467,102.586897 329.712324,102.685527 329.219111,102.590483 C328.725898,102.493646 327.417307,103.169712 327.19478,103.196611 C326.970592,103.221717 326.278101,103.02087 326.009076,103.047769 C325.847661,103.063909 325.50032,103.049706 325.121293,103.02569 L324.737418,102.999164 C324.609747,102.989739 324.484268,102.979983 324.366694,102.970658 C323.780485,102.92224 322.07998,102.773398 321.870738,102.773398 C321.663157,102.771605 321.140053,102.972452 320.973988,102.735739 C320.807923,102.497233 319.401353,102.766225 318.943014,102.82361 C318.486335,102.882788 316.833989,103.01011 316.199621,103.347247 L315.420777,102.836163 L314.851174,102.461367 C313.912907,102.438055 312.48641,102.58869 311.679334,102.798504 L310.862295,102.477507 L310.739407,102.430882 C310.380706,102.820023 309.734714,102.898927 309.304606,102.610209 C308.872837,102.321492 306.753848,102.861268 305.820564,102.963485 C304.888939,103.063909 302.38302,102.448814 302.248507,102.420122 C302.113994,102.39143 301.198977,102.558204 300.33876,102.681941 L299.526703,102.407569 L299.051757,102.246174 C298.776089,102.782364 298.248003,103.051356 297.881,102.848715 C297.512335,102.644282 296.496018,102.351977 296.263527,102.554618 C296.032697,102.759052 295.130964,103.236064 294.93999,103.02087 C294.747354,102.803884 293.76425,102.49006 292.97046,102.567171 L292.427427,102.805677 C291.809666,103.072875 291.251688,103.013697 290.776742,102.755465 L290.240352,102.463161 C289.821869,102.71422 289.280497,102.839749 289.038042,102.748292 C288.795588,102.655041 287.925407,102.447021 287.677971,102.398603 C287.430534,102.351977 286.596888,102.561791 286.307935,102.750085 C286.018982,102.940173 285.062448,102.748292 284.806708,102.827196 C284.549307,102.9061 283.518044,102.803884 283.1992,102.794917 C282.882016,102.785951 282.016817,102.610209 281.991908,102.409362 C281.965337,102.206722 281.787648,101.645426 281.66642,101.717157 C281.545193,101.790681 281.206421,101.810407 281.126709,101.63108 C281.048659,101.455338 280.522233,101.322636 280.256529,101.437406 L280.112053,101.765575 C279.994147,102.032774 279.426205,102.134991 279.087432,102.346598 C278.119274,102.950932 278.094364,102.954519 277.071404,102.237208 L276.910321,102.126024 C276.682812,102.007668 276.322451,102.048913 276.109888,102.217482 C275.895664,102.382463 274.992271,102.707046 274.695015,102.468541 C274.397759,102.231828 273.519275,101.726123 273.477759,101.935937 C273.434582,102.14575 272.959636,102.748292 272.514582,102.79671 C272.071189,102.843336 269.786136,102.631729 268.298194,102.938379 L266.853429,102.443435 L266.405054,102.291006 C265.644477,102.724979 264.900506,102.898927 264.752708,102.678354 C264.606571,102.455988 263.915741,102.873821 263.83603,102.945552 C263.757979,103.01549 263.078773,103.040596 262.391265,103.029837 C262.124546,103.025652 261.665197,102.97238 261.188142,102.905246 L260.778982,102.845129 C260.170977,102.752327 259.61632,102.653248 259.486789,102.622762 C259.226067,102.561791 258.259569,102.925826 257.944046,103.115914 C257.630183,103.302415 256.059209,103.236064 255.406574,103.698729 L254.642675,103.056736 L254.187657,102.674767 C253.649607,102.834369 252.950474,102.82361 252.631629,102.651455 C252.312785,102.4793 251.371196,103.193025 251.030763,103.243237 C250.691991,103.295242 249.674013,102.972452 249.639139,102.780571 C249.604266,102.58869 249.124338,102.199549 248.689248,102.565378 L248.372064,102.880994 L248.00506,103.243237 C247.588237,103.085428 247.088382,103.035216 246.894086,103.132053 C246.698129,103.230684 246.073725,103.377733 246.038852,103.169712 C246.003978,102.963485 245.819646,102.891754 245.700079,103.451257 L244.956108,103.148193 L244.567516,102.990384 C244.240369,103.085428 243.780369,103.194818 243.542896,103.23427 C243.307084,103.271929 242.42694,102.920447 242.142969,102.983211 C241.858998,103.047769 240.860947,102.972452 240.552067,102.782364 C240.243186,102.592277 239.142175,102.69808 238.653945,102.563584 L238.225497,102.4793 C238.042826,102.443435 237.652573,102.716013 237.61936,102.674767 C237.252357,102.244381 237.077988,102.617383 236.784053,102.741119 C236.64788,102.79671 236.337339,102.49544 236.08326,102.398603 C236.038422,102.382463 235.810913,102.581517 235.807592,102.680147 L235.805931,102.771605 C235.970335,102.875615 236.051707,103.008317 235.988603,103.067495 C235.925498,103.128467 235.614956,103.090808 235.395751,103.006524 C235.178206,102.92224 234.263188,102.986798 233.844704,103.151779 L233.466076,103.149986 C232.874885,103.148193 232.056185,102.748292 231.743983,102.970658 L231.136185,103.393872 C230.644633,103.14102 230.028532,102.959899 229.764489,102.988591 C229.498785,103.017284 228.633587,103.332901 228.399436,103.505055 C228.166945,103.679003 227.952721,102.907894 227.914526,102.870235 C227.87467,102.830783 227.326656,102.861268 226.702252,102.92762 C226.076187,102.993971 224.060159,103.200198 223.605141,103.243237 C223.150123,103.284482 221.876405,102.16189 221.71034,102.325078 C221.544275,102.486473 221.14738,103.275516 220.451568,103.356213 C219.754096,103.438704 217.097057,102.610209 215.969476,102.299972 L214.98305,103.137433 L214.712365,103.366973 C214.031498,103.237857 213.329044,103.049563 213.149694,102.952726 C212.972004,102.852302 212.242979,103.017284 211.944062,102.868442 C211.643485,102.717806 210.650416,103.117707 210.495976,103.139227 C210.339875,103.164332 209.464713,103.108741 208.905074,103.03701 C208.343775,102.965279 206.058721,103.157159 205.044065,103.366973 L204.190491,102.778778 C204.168903,102.764431 202.121322,103.236064 202.094752,103.259376 C201.98847,103.34904 201.897134,103.501469 201.774246,103.526575 L201.254463,103.632378 C200.774535,103.392079 200.419157,103.029837 200.462333,102.825403 C200.50551,102.620969 200.357713,102.03636 200.160095,102.03636 C199.962478,102.03636 199.543994,102.194169 199.695113,102.38605 L199.713381,102.592277 L199.73829,102.852302 C199.728326,103.24503 199.298218,103.47457 198.783417,103.3598 L198.335042,103.35442 L197.976342,103.34904 C197.597713,103.456637 196.850421,103.574993 196.317353,103.618032 C195.784285,103.659277 194.214971,103.34904 193.899448,103.481743 C193.583924,103.614445 192.536055,103.323934 192.237138,103.479949 C191.939882,103.635965 190.93851,103.366973 190.775766,103.44767 L190.609701,103.470983 C189.829196,103.57858 189.12176,103.558854 188.308042,103.311381 L187.598944,103.094395 C186.865823,103.110175 186.093407,103.118241 185.610462,103.119299 L185.377721,103.119185 C185.311027,103.118919 185.255879,103.118424 185.214252,103.117707 C185.110738,103.115316 185.006671,103.036611 184.899528,102.949737 L184.76932,102.845928 C184.59331,102.713917 184.406844,102.630772 184.199595,102.875615 L183.993675,103.132053 L183.880751,103.271929 C183.771148,103.435117 183.23974,103.668244 182.70169,103.793773 C182.163639,103.917509 180.551149,103.307795 180.282124,103.253996 C180.011438,103.198405 179.468406,103.25579 179.285734,103.167919 C179.104724,103.081842 178.349128,103.182265 178.116637,103.212751 C177.885807,103.24503 176.867829,103.302415 176.362992,103.24503 C175.859815,103.189438 174.541259,102.845129 174.51801,102.753672 C174.493101,102.662215 174.207469,102.861268 173.925159,103.388492 L173.063282,102.931206 C172.825809,102.805677 172.181477,103.417185 171.689925,103.478156 L171.263138,103.531954 C170.75664,103.327521 169.959528,103.537334 169.489565,104 L168.772164,103.449464 L168.363644,103.13564 C167.691081,102.870235 167.040107,102.80209 166.915558,102.985005 C166.79101,103.169712 166.208122,103.626998 166.030432,103.399252 C165.852743,103.173299 165.178519,102.947346 164.846389,103.293448 L164.535848,103.451257 C164.358158,103.540921 163.820108,103.426151 163.815126,103.381319 L163.740397,102.499026 C162.875199,102.249761 162.122925,102.273073 162.068123,102.549238 C162.014982,102.825403 161.528412,103.332901 161.068412,103.246823 L160.698087,103.345453 C160.410795,103.420771 160.216499,103.668244 160.181626,103.218131 C160.145091,102.741119 159.748196,102.628142 159.462564,102.845129 C158.662132,103.45843 157.752096,103.044183 156.910147,103.169712 L156.325598,103.257583 C155.677945,103.350833 155.056862,103.431531 154.943938,103.436911 L154.840978,103.420771 L154.141844,103.304208 C153.18531,103.139227 152.660545,102.913273 152.974408,102.803884 C153.288271,102.6927 152.64726,102.113471 152.590798,101.926971 C152.534336,101.74047 152.152386,101.550382 152.127477,101.950283 C152.102567,102.353771 151.77874,103.332901 151.464878,103.182265 L151.255636,103.01011 L151.006539,102.805677 C150.760762,102.402189 150.201124,102.273073 149.762712,102.516959 C149.32264,102.760845 148.107045,102.952726 147.949283,102.647868 C147.791522,102.343011 147.065818,101.796061 146.725385,102.195962 L146.722063,102.516959 L146.7121,103.467396 C146.144158,103.503262 145.220837,103.420771 144.662858,103.280895 C144.10488,103.142813 142.487408,103.363386 142.374484,103.318554 C142.26156,103.271929 141.705242,103.096188 141.411307,102.995764 C141.115712,102.898927 139.818745,102.981418 139.189359,103.196611 L138.780839,103.051356 L138.380622,102.907894 C138.126543,102.357357 137.63167,102.04174 137.282933,102.212102 C136.932536,102.378877 136.14871,102.933 136.185244,103.080048 L136.171959,103.216337 L136.160334,103.336487 C136.083944,103.46381 135.924522,103.546301 135.808277,103.517608 C135.690371,103.492502 135.25362,103.137433 135.007844,102.877408 C134.763728,102.613796 133.727483,103.167919 133.5664,103.184058 C133.406978,103.198405 132.712827,103.085428 132.377375,102.995764 L132.340841,102.854095 L132.217953,102.382463 C132.661346,102.382463 133.343873,102.346598 133.734126,102.299972 C134.124378,102.25514 134.300407,101.293943 133.920119,101.225799 C133.53983,101.159448 132.41391,101.216832 132.408928,101.530656 L132.246184,101.819374 C132.048567,102.174443 131.711455,102.712426 131.402574,102.730359 C130.549001,102.776984 131.221564,101.995115 130.864524,101.704604 L130.813044,101.663359 C130.730011,101.61494 130.382936,101.919797 130.040842,102.343011 C129.697088,102.764431 127.895283,102.751878 127.333984,102.785951 C126.772684,102.821816 126.159905,101.803234 125.990518,102.183409 C125.821132,102.565378 127.030085,102.845129 127.103153,102.904307 C127.176222,102.967072 127.212756,103.307795 127.023442,103.517608 L126.824164,103.544507 L126.571746,103.576786 C126.274489,103.45843 125.6368,103.008317 125.156873,102.576137 L125.038966,101.048264 C125.02236,100.843831 124.432829,100.474415 124.404598,100.495935 C123.393263,101.229027 123.327468,100.831224 123.325469,100.358643 L123.325176,100.087756 C123.32287,99.9775776 123.314659,99.8745637 123.288642,99.7929696 L123.272036,99.737378 C123.117595,99.6208149 122.966476,99.8234553 122.933263,100.185697 C122.90005,100.546146 122.554635,101.209659 122.230809,100.919148 C121.908643,100.63043 121.412108,101.930557 121.302506,102.179823 C121.194563,102.429088 120.689726,103.198405 120.490448,103.232477 C120.29117,103.266549 119.178535,103.196611 118.336586,103.25041 L117.57933,103.289862 L117.418247,103.297035 C117.243879,103.372353 117.097742,103.318554 117.09276,103.178679 C117.089439,103.040596 117.116009,102.705253 117.104384,102.445228 C117.09442,102.183409 117.695576,101.627493 118.036009,101.670532 L118.306694,101.731503 L118.555792,101.787095 C118.779979,101.973596 119.276514,102.213895 119.660124,102.319698 L120.03377,102.36991 C120.21312,102.39143 120.540268,102.301766 120.590087,102.190582 L120.796008,101.744056 C120.970376,101.236558 121.405466,100.813345 121.764166,100.806172 L121.878751,100.653743 C122.136152,100.30764 122.134491,99.769657 122.450014,99.5096317 L123.047848,99.0128936 C122.704094,98.58968 122.247415,98.2077118 122.031531,98.1646731 C121.815646,98.1198411 121.148065,98.4175253 121.148065,98.9447491 C121.148065,99.4719728 120.711315,100.834864 120.219762,100.851004 L119.925827,101.215039 C119.560485,101.663359 119.208427,101.711777 118.662073,101.306496 L118.384745,101.102063 C117.853337,101.371054 117.210666,101.962836 116.956587,102.414742 C116.704168,102.866648 115.415504,103.282689 115.613121,102.990384 C115.810739,102.696287 116.461713,101.82834 116.579619,101.634666 C116.699186,101.442785 115.983446,100.940668 115.853916,100.619671 L115.66128,100.474415 L115.196298,100.121139 C114.902363,99.627988 114.563591,99.0810382 114.440703,98.8999171 C114.319476,98.7170027 113.708357,99.3159576 113.535649,99.6118485 L113.542292,99.8826335 L113.545613,100.051202 C113.598754,100.273568 113.465902,100.838451 113.250018,101.310083 C113.034133,101.781715 112.97435,103.187645 112.891317,103.216337 C112.806624,103.248616 112.512689,103.201991 112.421354,103.047769 C112.331678,102.897134 111.855072,102.360944 111.64417,102.138577 C111.433267,101.918004 112.408068,101.385401 112.524314,101.200693 C112.637238,101.017779 112.630595,100.707541 112.260271,100.951427 C111.889946,101.19352 110.810524,100.495935 110.576372,100.562286 C110.342221,100.628637 110.601282,101.430232 110.6976,101.688465 L110.732473,101.928764 L110.767347,102.174443 C110.752401,102.432675 110.229297,102.561791 109.606553,102.463161 L109.098394,102.49006 L109.012041,102.493646 C108.930669,103.056736 108.747997,103.44767 108.606842,103.361593 C108.465687,103.273722 107.718395,103.307795 107.265038,103.444084 L107.251752,103.418978 L106.977745,102.900721 C107.452691,102.82361 107.788142,102.590483 107.723377,102.384256 C107.660272,102.179823 107.203594,101.722537 106.919623,102.034567 C106.635652,102.346598 105.601067,103.103361 105.179262,103.103361 C104.757457,103.103361 103.603306,103.071082 103.598324,103.035216 C103.596663,102.995764 103.820851,102.872028 104.106483,102.841542 C104.392114,102.811057 105.220778,102.441641 105.222439,102.097332 C105.222439,101.754816 106.416446,101.360295 106.642294,101.317256 C106.866482,101.272424 107.520778,101.010605 107.612113,100.881489 L107.57724,100.790032 C107.535723,100.677056 107.334785,100.499521 107.266698,100.519247 C106.125832,100.84921 105.001573,101.241938 103.769371,101.195313 L102.940707,101.164827 C102.540491,101.72433 102.045617,102.273073 101.839697,102.382463 C101.635437,102.493646 101.197025,101.909038 101.094065,101.83372 C100.992765,101.760196 100.509517,101.52169 100.28699,101.426646 C100.066123,101.333395 99.5330548,100.976533 99.6625855,100.863557 C99.7921161,100.75058 100.283668,100.517454 100.46634,100.601738 L100.51948,100.723681 L100.810094,101.372848 C101.444462,101.270631 102.072187,101.112822 102.2067,101.024952 C102.339552,100.935288 102.580346,100.456482 102.573704,100.22515 C102.568722,99.9938167 101.671971,99.5777762 101.369733,99.5275644 L101.351466,99.4414871 C101.087422,98.1234277 100.293632,98.8712247 100.142513,99.3213375 C99.8751486,100.130106 99.006629,100.200044 98.4752213,100.634017 L98.0019362,101.021365 C97.6897342,101.523483 97.3742108,101.722537 97.2994816,101.464305 L97.2629473,101.225799 L97.1948607,100.797205 C96.6352219,100.560493 95.7982547,100.157005 95.3365942,99.9023596 L95.2535617,99.5939157 C95.0493019,98.8317725 94.5145728,98.8066666 93.8187608,98.8120465 C93.5181833,98.8138398 93.1677863,98.4767035 92.9269922,98.5412615 C92.69118,98.6040262 92.5865591,98.9985474 92.3839599,99.2173273 L92.3142126,99.2944383 C92.0501694,99.3231307 92.0418661,99.466593 92.2942848,99.6100552 C92.5467035,99.7553108 93.0116853,100.273568 92.7991222,100.461862 C92.5865591,100.65195 91.0155849,99.9687108 91.2015776,99.7445511 L91.289592,99.5239779 C91.5536352,98.8712247 91.1965956,98.4892564 90.4360183,98.751075 C89.8381846,98.9555087 89.6771016,98.4910497 89.3100981,98.4569774 L88.8451163,98.4121455 C88.2954414,98.4551841 87.2591963,98.6524447 86.5417958,98.8532919 L86.1498826,98.6470649 L85.6550092,98.3906261 C85.2049732,98.4444245 84.5257677,98.5932665 84.1438183,98.7205893 C83.7602084,98.847912 82.4333496,98.4498043 82.1394147,98.3888328 C81.8454798,98.3278614 81.0981876,98.4390446 80.7295235,98.4085589 C80.5460218,98.393316 80.1669786,98.3659686 79.7933325,98.377849 L79.714,98.381 L79.770881,98.4151884 C79.9891982,98.5608055 80.2406465,98.8157019 80.3633432,98.9769051 L80.4132128,99.0487592 C80.4341931,99.0832356 79.8281228,99.0992552 78.8247179,99.1013643 L78.435,99.101 L78.412782,99.1155336 C78.3344718,99.1409125 78.2221695,99.126463 78.1084116,99.1051281 L78.084,99.1 L78.0693965,99.1006579 C77.979046,99.1003449 77.8866581,99.0999558 77.7923373,99.0994926 L77.745,99.099 L77.7862118,99.0885226 L77.7862118,99.0885226 L77.884,99.063 L77.7953075,99.0534109 C77.739219,99.0519694 77.6969442,99.0621091 77.6781235,99.0935911 L77.675,99.098 L77.5036809,99.0978832 L77.5036809,99.0978832 L77.479,99.097 L77.4771926,99.078232 C77.475432,99.0395437 77.478292,98.9907765 77.4871488,98.9304028 L77.487,98.925 C77.382257,98.9189507 77.2809922,98.9049739 77.1845867,98.8819551 L77.138,98.868 L77.1017481,98.8809756 C76.9749306,98.9284414 76.8363783,98.9942884 76.7182922,99.0543071 L76.646,99.091 L76.5744024,99.0905138 C76.3581809,99.0884692 76.135901,99.0861615 75.9083991,99.0836074 L75.85,99.082 L75.8292186,99.0633091 C75.7824736,99.0174715 75.73765,98.9670028 75.6923003,98.9165808 L75.672,98.894 L75.2792727,98.9985474 C74.6797784,98.9196432 73.7265657,98.8640515 73.1602843,98.8766045 C72.9431225,98.8821223 72.5743896,98.9391039 72.1646317,99.0178588 L72.117,99.026 L72.208778,99.0288798 C72.5969935,99.0357872 72.9828697,99.0423264 73.3635836,99.0484413 L73.371,99.048 C73.3479395,99.0569903 73.3286925,99.0679473 73.3105915,99.0828315 C73.1295807,99.2316735 72.4819275,99.4235543 72.2510973,99.2011878 L72.019,99.046 L71.9147384,99.067487 C71.3242941,99.1882741 70.696775,99.3400979 70.33552,99.4414871 C70.2097258,99.4761198 70.0347154,99.489128 69.8280363,99.4881719 L69.613,99.482 L69.6570785,99.4596907 C69.8373452,99.374058 70.2715187,99.220826 70.4570995,99.2671787 L70.5140582,99.2944383 C70.6585346,99.4199677 71.1035886,99.1922214 71.229798,99.0702785 C71.2480651,99.0528581 71.2694502,99.0367186 71.2933239,99.0219907 L71.311,99.012 L71.0399371,99.0071084 L71.0399371,99.0071084 L70.2612771,98.9915319 C70.1318868,98.9888719 70.0027593,98.9861813 69.8739993,98.9834622 L69.592,98.977 L69.68874,98.9214364 C69.7197388,98.8815061 69.7691007,98.8529252 69.8323973,98.8333219 L69.867,98.825 L68.445,98.856 L68.3813637,98.8224506 C68.2644791,98.7569306 68.1540629,98.6885665 68.0596431,98.621959 L68.029,98.608 L68.2421945,98.5990157 C69.2278375,98.5553543 70.4327165,98.5137467 71.6776303,98.4786905 L72.3595675,98.4602458 C72.4735264,98.4572889 72.5875469,98.454393 72.7014944,98.4515614 L73.3832255,98.4353699 C74.5143928,98.4097599 75.6113286,98.3912539 76.5393963,98.383231 L76.658,98.382 L76.6692975,98.2274378 C77.1093695,98.015831 77.3053261,97.7593922 77.1043876,97.6607619 C76.903449,97.5603384 76.2574565,97.4688812 76.1046768,97.6751082 C75.951897,97.8831284 75.2793341,98.3924194 75.2876373,97.8903015 L75.2643882,97.648209 C75.2527637,97.5316459 75.1464821,97.3200391 75.1165905,97.3254189 L74.749587,97.377424 C74.3526918,97.4563282 74.1085764,97.2124424 74.204894,96.8340607 L73.5539195,96.9936625 L73.4310315,97.0241482 C73.3214286,97.1425046 72.8963024,97.1281583 72.4828008,96.9936625 C72.0692991,96.8573734 70.4867004,96.8519935 70.0300218,96.8753061 C69.5716827,96.8968255 68.1219359,96.2835244 67.7416472,96.3283563 C67.3630192,96.3731883 66.3566657,96.5614825 66.208868,96.1705478 C66.0594095,95.7778199 64.3223704,95.5411072 64.1662694,95.5823526 L64.1430203,95.5536602 L63.3342841,94.4723135 C61.9028045,94.3073319 60.6191226,94.1423503 60.4829494,94.0993116 C60.3467762,94.0598595 59.7007836,94.0795856 59.1909643,94.04372 C58.681145,94.0060612 56.578763,94.1351772 55.660424,94.2087016 L55.4777526,93.1883264 C55.4594855,93.0771431 55.0958033,92.8870557 55.0194134,92.9265078 L54.4929876,93.1972928 C53.9599192,92.985686 53.4085836,92.6682757 53.2674285,92.496121 C53.1262733,92.3203798 52.2062736,91.9904166 51.9355878,91.870267 C51.6632413,91.7483241 50.831256,91.5151979 50.7166712,91.5510635 C50.6020864,91.5887223 50.2234584,91.4757458 50.1337834,91.2085474 L49.9610758,91.0363927 C49.8647582,90.9431422 49.5309677,90.928796 49.378188,91.0005271 C48.7836755,91.2784852 48.1227371,91.328697 47.6976109,91.3520096 C46.7776112,91.4004281 47.2276472,91.0561187 47.2791273,90.6651841 C47.2853792,90.6170821 47.258533,90.5666965 47.2232716,90.516714 L47.1671537,90.4423781 C47.0640129,90.3078812 46.9905651,90.1865898 47.4601381,90.1343738 C47.7955892,90.0967149 48.1277191,89.9640124 48.4349392,89.82593 C48.7820149,89.671708 48.7222315,89.510313 48.4565276,89.2628406 L48.1692353,88.9974355 C48.4615096,88.7571362 49.0311123,88.2765377 49.4379713,87.930435 C49.8448304,87.5825391 50.3363826,86.2447536 49.8880073,86.1748158 L49.5608594,86.2124746 L49.1772494,86.2555133 C48.7703903,86.3935957 48.1393436,86.3595234 47.7773221,86.176609 C47.4153006,85.9936947 47.5016543,84.4299562 47.6394882,83.8094819 C47.7773221,83.1872144 48.0878635,81.5284322 48.0297408,81.5087062 C47.9749393,81.4871868 47.531546,81.7579718 47.2110407,82.1184207 L46.7759506,81.5230524 L46.5550843,81.2199884 C46.6381167,80.9330639 46.8938567,80.4219796 47.1246869,80.0848433 L46.7211492,79.9198618 L46.5069254,79.8319911 C46.0087307,80.0722904 45.7114744,80.0131122 45.8493083,79.7010818 L45.8775394,79.4410565 L45.9539292,78.7237453 C45.6002109,78.0207803 45.278045,77.1886992 45.2415107,76.8748756 C45.2033158,76.5610519 45.656673,75.5263304 46.3275753,75.2411992 C46.9968169,74.9542747 46.991835,73.3152185 46.5036041,73.4461278 L46.2196331,73.6541481 L45.9173949,73.8765146 C45.5703193,74.079155 44.899417,73.743812 44.4277926,73.1287176 L44.6735687,72.6068737 C44.7549405,72.4383056 44.7449766,72.2338719 44.8462762,72.0778567 C45.0870703,71.7012683 45.3693807,71.3479925 45.6317633,70.9821637 C45.9256982,70.5697098 46.2661313,71.5111808 46.6098857,70.9445049 L46.707864,70.7813166 C47.1180443,70.7024124 47.0715462,70.5248778 46.608225,70.3832089 L46.5866366,70.2307802 C46.551763,69.977928 46.7792719,69.6676909 46.9735679,69.4327715 C47.0765281,69.3090353 47.3671417,69.319795 47.5332067,69.2175781 C47.9350838,68.971899 48.0546505,68.2276886 47.6577553,68.1182986 C47.1662032,67.9802162 47.0350119,67.8062682 46.8523405,67.4207135 L46.7560228,67.218073 C46.0602108,67.1499285 46.1282974,66.8845233 46.9054812,66.6316711 C47.6843257,66.3788189 49.7800651,65.3136117 50.7532055,65.8874607 L51.9372484,65.7117194 C52.1714,65.6776471 52.6712554,66.1385196 52.7692337,66.4415836 L53.0116885,67.1911739 C53.5796305,66.9741872 53.8835293,66.4989685 53.6892334,66.1349331 L53.724107,65.8282825 C53.8303886,64.8975712 54.0097387,63.9686531 54.2339263,63.0558746 L54.2854064,62.8514409 C54.5976085,62.6828727 54.9911824,62.4856121 55.1605686,62.4192608 C55.3126103,62.3586879 55.6667181,61.914132 55.9593021,61.8123112 L56.0656224,61.7916135 C56.0747892,61.7915059 56.0544566,61.7912805 56.0063893,61.7909426 L55.8737978,61.7901186 C53.20548,61.7747477 23.9051142,61.6502135 24.009237,61.5871798 C24.1205005,61.5226218 24.4792007,61.201625 24.6087313,61.0671292 C24.7399226,60.9344266 25.3593448,61.4383377 25.4556624,61.5208285 C25.5503194,61.6033193 26.0701027,61.7073294 26.1132795,61.3379142 C26.1597777,60.9702921 26.5649761,60.3336784 26.9386222,60.5650113 C27.3122683,60.7963442 28.3385495,60.3013994 28.2621596,60.2260817 C28.1857698,60.1525573 28.1724846,59.8494933 28.4016542,59.7167908 L28.5278635,59.7670025 C29.050968,59.9678497 29.6537837,60.7210265 29.8248306,59.5159436 L29.8281519,59.4908377 C29.9892349,59.4854579 30.3844694,59.5589823 30.7049747,59.654026 C31.02548,59.750863 32.0683677,59.3653083 32.3706059,59.3473755 C32.6711834,59.3294427 33.6144321,59.4101402 34.0760926,59.4101402 C34.5377531,59.4083469 35.3265615,58.6533769 34.9977529,58.506328 C34.6689444,58.3610725 33.9598472,57.5702369 34.1375366,57.0699123 C34.3152261,56.5695877 32.5017971,55.1511047 32.6562375,55.1044795 C32.8139992,55.0596476 32.9817248,54.6185011 32.5067791,54.2777783 L32.516743,53.9908538 L32.5416527,53.3452737 C32.0650464,53.3309275 31.4954437,53.1533929 31.2745774,52.9489592 L31.1234583,52.7355591 L30.7846858,52.2549606 C31.0005702,51.7044242 31.0105341,50.7844726 30.8062743,50.2142101 L30.6800649,49.6744334 L30.6402094,49.5058653 C30.7116173,49.2817055 31.1666352,49.3229509 31.6515447,49.5991158 C32.1347937,49.8734873 33.6343599,49.3803358 33.6742155,49.2870854 C33.7140711,49.1956282 33.5596307,48.8315927 33.2507499,48.6881305 L33.1062735,48.7634482 L32.772483,48.9373961 C32.3407142,49.1669357 32.0584038,49.1651425 32.1430969,48.9338096 L32.2111835,48.7204095 L32.2809308,48.498043 C32.3473568,48.2505706 32.3058405,48.0820025 32.1895951,48.1250412 C32.071689,48.1662866 31.560209,48.2164983 31.3111116,48.1411807 C31.0603536,48.0676563 31.5552271,46.9881029 31.7478624,46.4572925 L32.4320499,46.3263832 C32.5665625,46.2994841 32.8106779,46.2403059 32.8090173,46.2098202 L32.7010751,44.9921843 C33.7821577,44.5223455 34.4347929,44.0058814 34.1524825,43.8444864 C33.8701721,43.6812981 32.7774649,43.8893183 32.6014361,43.8408998 C32.5289536,43.8209628 32.2638818,43.7386954 31.906507,43.621015 L31.5799198,43.5121014 C31.1205679,43.3569939 30.5780815,43.1656779 30.102159,42.978333 L29.0443254,43.164834 C28.5693798,43.2473248 28.5129177,42.9926793 28.3850477,42.6250573 L28.1957337,42.0763142 C27.8968168,42.4242101 27.2973224,42.5999514 26.863893,42.4744219 C26.4288029,42.3470992 25.083677,41.7822166 24.8163125,41.552677 L24.8511861,41.5096383 L25.2231715,41.0559389 C24.9906807,40.6022396 24.7116916,40.1467469 24.60541,40.0463234 C24.4991285,39.9423132 24.1404282,39.7952644 24.0474319,39.9458998 L23.9212225,40.0409435 L23.7352298,40.1826125 C23.497757,40.3009688 23.0161687,40.501816 22.6641111,40.6237589 C22.3137141,40.7457018 21.2044004,40.9555153 21.0283716,40.8030867 C20.8540034,40.6488648 20.4903212,39.972799 20.6729926,39.6930476 C20.8540034,39.4168827 22.1725589,39.8705821 22.6940028,39.883135 L22.7753746,39.5872442 C22.863389,39.2698339 22.5827393,38.5579025 22.4349415,38.5525227 L20.1050506,38.4610655 C20.4106101,37.038996 20.3857003,35.8392929 20.0485885,35.7926677 C19.7131374,35.7460425 19.1352314,36.4023823 19.0488777,36.323478 C18.9608633,36.2463671 18.7101052,36.020414 18.6802136,35.9953081 C18.6519825,35.968409 18.4626685,35.6599651 18.3264953,35.3658675 C18.190322,35.0717699 18.6519825,34.0711207 18.8064229,33.8308215 L18.8512604,33.5994886 L18.8927767,33.3842952 C18.8329933,33.1332363 18.6005024,32.9539085 18.3763147,32.9843942 L18.1753762,33.0256396 L18.0142932,33.0597119 C17.8415857,33.1135102 17.6489504,33.0292262 17.589167,32.8696244 L17.6472897,32.7943067 L17.9594918,32.3854393 C18.4958815,31.7757248 18.4327768,31.4601078 17.8199973,31.6824743 L17.4762429,31.7075802 L16.8219471,31.7559987 C16.0746549,31.7362727 15.4253411,31.5121129 15.3805035,31.2556741 L15.3937887,31.0727598 L15.5316226,29.1916111 C14.6415146,28.4115351 13.7929229,27.7157432 13.6451251,27.6422188 L13.6002875,27.5453818 L13.4209374,27.1508606 C13.4823814,26.682815 13.3163165,25.9009458 13.0539339,25.4149674 L12.6753059,25.276885 C11.7220933,24.9325756 11.742021,24.3192745 11.7901799,23.6270691 L11.808447,23.3670438 C11.8001438,22.8774789 11.3102522,22.678425 10.7207218,22.9223108 L11.107653,22.2928702 C11.4663533,21.7100549 10.8203607,21.7244011 10.6293861,21.4876884 C10.5762453,21.4213371 10.2125631,22.2354853 10.0249097,21.4805153 L10,21.3782984 C10.3005775,21.2061437 10.5978337,21.033989 10.6609384,20.9981234 C10.7240431,20.9586713 10.5463536,20.3561299 10.1145848,19.7446221 L10.2706858,19.0488302 C10.3105414,18.8677091 10.4483753,18.6883813 10.4284475,18.5216064 L10.4068591,18.3261391 C10.2723465,18.1217054 10.3072201,17.9872095 10.4815883,18.0284549 C10.6576171,18.0697003 11.4049093,17.9585171 11.7204326,17.6841455 C12.0376166,17.4115673 11.5742955,16.371466 11.8001438,16.2907685 L11.8566058,16.3356004 C12.447797,16.803646 12.9659195,16.8933099 13.4790601,16.2351768 L13.9207928,15.668501 C14.3973992,16.0701952 14.824186,16.2208306 14.8690236,16.0056372 C14.9155217,15.7904439 15.6594926,15.0480267 16.4217306,14.8328334 L16.9431745,15.8065834 L17.2138603,16.3104945 C17.9462066,15.7491985 18.4244736,15.2506672 18.2766758,15.2058352 C18.1305387,15.1610033 17.7618745,14.9189107 17.8067121,14.7754485 L17.839925,14.7772417 C18.1919827,14.791588 18.545701,14.8256603 18.896098,14.8722855 L19.0588416,14.8920115 C19.2315491,14.9511897 19.4441122,14.8507661 19.5288053,14.6732316 C19.6151591,14.4974904 20.2163141,14.5907408 20.2744368,14.4687979 C20.3325595,14.3450617 20.6696713,14.0025456 20.7825955,14.217739 C20.8971803,14.4311391 21.556458,14.6911644 21.8869272,14.1137288 L22.1459885,13.8393573 L22.2888043,13.6923085 C22.5860606,13.6510631 23.1456994,13.7568665 23.5293093,13.9290212 C23.9145799,14.1011759 25.3178286,13.7048614 25.5968176,13.8877758 C25.8758067,14.0671036 26.6961674,14.4813509 27.0050482,13.9577137 L27.2690914,13.5972648 L27.5298133,13.2421957 C28.0114016,13.2081234 28.6241812,13.2995806 28.8898851,13.4466294 C29.1555889,13.5954715 29.6936393,12.8781602 30.0141446,12.8889199 C30.3329892,12.8996796 31.243025,13.10232 31.3625918,13.199157 C31.4804979,13.295994 32.0368154,13.4412496 32.1696673,13.1435654 C32.3008586,12.8458812 32.9152988,12.1178103 33.2241796,12.2325801 C33.5330603,12.3437634 34.2803525,12.1823683 34.5228073,12.0855313 C34.7669227,11.986901 35.4610741,12.2809986 35.5839621,12.1895415 L35.6005686,12.096291 L35.6620126,11.7519816 C35.9476443,11.8004001 36.7032397,12.0801515 37.340929,12.3778357 L37.4206402,11.4381579 L37.4272828,11.3664268 C37.5651167,11.3036621 38.1994847,11.1261275 38.837174,10.9701124 C39.4732026,10.8140972 41.6121189,11.1691662 42.1667757,11.142267 L42.5669922,11.2462772 C42.9788332,11.3556671 43.2511796,11.8470253 43.2744287,11.0382569 C43.2760894,10.9539728 43.7510351,10.7925778 43.7659809,10.8123039 C44.2658363,11.4507109 45.0181104,10.9342468 45.1592656,10.7656786 C45.6126229,10.2223154 46.2486515,10.961146 46.7352217,10.4482684 L46.9195538,10.2545944 C47.7017196,10.5020668 48.4357266,10.7244333 48.5503114,10.7495391 C48.6665568,10.7728518 49.280997,10.4410953 49.7111052,10.0860263 C50.142874,9.72916391 51.6241731,10.355018 51.7055449,10.3137726 L51.7055449,10.2761137 L51.6723319,9.31670995 C52.3930537,9.51397054 53.4674937,9.42072008 54.0620062,9.10510313 L54.5768074,9.84572699 L54.8308868,10.2115557 C55.3656158,9.96229006 56.0713917,9.63591345 56.4002003,9.48348481 L56.7406334,9.40996041 L56.8485756,9.38485452 C56.9598391,9.34898895 57.3384671,9.34181584 57.6905248,9.37050829 C58.044243,9.40099402 59.2830874,9.29160406 59.6517515,9.36333518 C60.0204156,9.4350663 60.942076,9.02799218 61.0334117,9.13020903 C61.126408,9.23242588 61.5133393,9.48169153 61.5947111,9.34898895 L61.6794042,9.23959899 L61.7707399,9.12124264 C61.8853247,8.99571317 62.0098734,8.97240055 62.0480683,9.06744429 C62.0846026,9.16428131 62.2705953,9.48707137 62.3652524,9.53728315 L62.4532668,9.51397054 L63.1158658,9.3454024 C63.8664793,9.20552671 64.5888617,9.03695857 64.7233743,8.96522744 L64.8196919,8.8701837 L65.4939155,8.18694475 C66.0053955,8.81817864 66.5301606,9.17683426 66.6613519,8.9849535 C66.7925432,8.79307275 67.2259727,8.40034484 67.3555033,8.50435497 C67.4585822,8.58607722 67.6549539,8.35781853 67.7456572,7.89525539 L67.754,7.842 L67.896265,7.8307134 L67.896265,7.8307134 L68.144,7.81 L68.7554306,8.40751796 L68.9231562,8.57070626 C69.421351,8.47924908 70.0673435,8.42365746 70.3629391,8.44697007 C70.6552133,8.46848941 71.3360795,8.61912477 71.3560073,8.38599862 C71.3759351,8.15287247 72.3789672,8.12059346 72.5350683,8.28736832 C72.6674457,8.42878111 72.8864481,8.23291123 72.9327236,7.73137892 L72.938,7.637 L72.8414396,7.63640838 C72.7256094,7.62295879 72.5670433,7.58529995 72.390875,7.53203749 L72.282,7.497 L72.5180227,7.48051531 C73.1093415,7.43798141 73.6818316,7.3979581 74.2085738,7.36274634 L74.345,7.353 L74.4151793,7.32525618 C74.7221147,7.20345348 74.9980695,7.10360553 75.1530634,7.06076611 C75.4337131,6.98365515 76.8170339,6.86709207 77.5560228,6.8652988 L78.2302464,6.84377946 L78.4278637,6.83660635 C78.6404268,6.74156261 78.8463473,6.80432734 78.8845422,6.97468876 C78.9227371,7.14684346 79.7198488,7.05359299 79.8327729,6.9137173 C79.9456971,6.77563489 80.433928,6.48153728 80.6116174,6.63755248 C80.7909675,6.79536095 81.4120504,7.05359299 81.664469,6.92447697 C81.9168877,6.79715423 83.0012917,6.42773894 83.5144323,6.3900801 L83.6821579,6.6196197 C84.050822,7.12353084 84.4809301,6.12288166 84.8844679,6.75949539 L85.0555148,7.03207366 C85.6865615,6.73618277 86.3474999,6.60527347 86.5251893,6.73797605 C86.7012182,6.87426519 87.2425898,7.14863673 87.2924093,7.02310727 C87.3422288,6.89578452 87.5697377,6.59810036 87.6859832,6.64113903 C87.8022286,6.68417771 88.1841779,6.62858609 88.2755136,6.42415238 C88.3668494,6.2179254 89.8481485,6.28427669 90.7249713,6.10674216 L91.6881478,6.38290699 C92.4620104,6.60527347 93.5065587,6.69493738 94.4348617,6.11032872 L94.8799157,5.83057734 C95.7218648,5.97583286 96.497388,6.19102623 96.6003483,6.30758931 C96.7049692,6.42594566 97.2131278,6.47077761 97.4705285,6.0870161 C97.7262684,5.70146131 98.9003475,6.35780109 98.9817193,6.20716573 C99.0614304,6.05653037 99.3935603,5.70325459 99.4417191,5.94893369 C99.4882173,6.19461279 99.7505999,6.47795073 99.9399139,6.15336739 C100.129228,5.83057734 101.510888,6.30758931 102.07883,6.15874723 L102.754714,6.26275736 L103.643162,6.39904649 C104.715941,6.0134917 105.654208,5.81085128 105.728937,5.94893369 C105.802006,6.0870161 106.089298,6.36676749 106.173991,6.21075229 C106.260345,6.05294382 106.645615,5.64945625 106.859839,5.62973019 L106.93789,5.69787476 L107.570597,6.25737752 C108.415868,6.16950689 109.561716,6.13543461 110.116372,6.18026656 C110.671029,6.22330524 112.408068,5.96148664 112.814927,6.28965653 L113.294855,5.69070164 C113.376227,5.59027807 113.974061,5.87002945 114.327779,5.85747651 L115.370667,5.82699078 C116.516515,5.74987982 118.120702,5.56158562 118.932759,5.40915698 L119.540557,6.04397743 L119.663445,6.17130017 C120.062001,6.09777577 120.663156,6.04039087 121.001928,6.04577071 C121.340701,6.05115054 122.171025,6.23227163 122.205899,6.02425137 C122.242433,5.81802439 123.350086,5.93100091 123.735357,6.34345487 L124.334851,5.82699078 L124.529147,5.66021592 C125.070519,5.76601932 125.71319,5.8825824 125.957305,5.91486141 C126.203082,5.94893369 127.098171,6.05653037 127.42698,6.06191021 L127.725897,6.06191021 C127.951745,6.06191021 128.185897,6.09956905 128.396799,6.05294382 C128.630951,5.99914548 128.831889,5.83237061 129.066041,5.78753866 L129.205535,5.76243277 C129.388207,5.84851012 129.746907,5.84492356 130.002647,5.75346638 C130.260048,5.66200919 131.050517,5.9561068 131.444091,6.24123802 L131.430805,5.49523433 L131.430805,5.4898545 C131.669939,5.48447466 132.521852,5.7104277 133.323945,5.99017909 L134.064595,6.02245809 L134.644162,6.04577071 C135.298457,5.76243277 135.954414,5.47371499 136.100551,5.40377715 C136.246688,5.33204603 136.784738,5.66918231 137.015569,6.10494888 L137.721345,5.87182273 C138.088348,5.74987982 138.754268,5.63152347 138.890442,5.78574538 C139.180225,6.11122536 139.37203,6.00721523 139.55823,5.85545907 L139.682547,5.75140405 C139.82898,5.631529 139.984441,5.53408869 140.192391,5.63869658 L140.657372,5.87361601 C141.318311,5.90410174 142.166903,6.02604465 142.542209,6.144401 L142.660115,6.04218415 L143.367552,5.42170993 C144.124808,5.73194704 144.865458,5.8825824 145.011595,5.75705293 C145.159393,5.62793691 145.728995,5.39839731 145.880114,5.59386463 C146.029573,5.78753866 146.481269,6.33807504 146.511161,6.33628176 C146.539392,6.33448848 146.987767,6.13005478 147.396287,5.93638074 C147.804807,5.74270671 149.505312,5.71760082 150.048344,5.79471177 C150.593037,5.87361601 152.049426,5.72836048 152.469571,5.89334207 C152.891375,6.05832365 153.969137,5.45219566 154.341122,5.66380247 L154.352747,5.64945625 L155.379028,4.39954142 C156.7391,4.92855845 158.124081,5.35356536 158.457872,5.34639225 C158.791662,5.33742586 159.414406,5.22265606 159.372889,5.57055201 C159.333034,5.92024124 160.633322,5.24238212 160.967113,5.10609299 C161.302564,4.96980385 162.026607,5.07381398 162.274044,5.12402577 C162.52148,5.17423755 163.15917,4.99311647 163.217292,5.11685265 C163.275415,5.23879556 163.574332,5.55082595 163.690577,5.40019059 C163.806823,5.24955523 164.569061,4.87834667 165.148627,4.88193322 L165.626894,5.12761232 L167.055053,5.59386463 L167.382201,5.3750847 C167.810648,5.08636693 168.220829,4.93931812 168.295558,5.05229464 C168.368626,5.16527116 168.946532,5.57593185 169.306893,5.78933194 L170.06747,5.13299216 L170.153824,5.05767448 C170.341478,5.06126103 170.670286,5.17603083 170.882849,5.31411324 C171.095412,5.45219566 172.405665,5.39839731 173.209419,5.07381398 L173.274184,5.0146358 L173.576422,4.72950459 C173.956711,4.87655339 174.175917,5.46295533 174.064653,6.03321776 L175.039454,5.47550827 L175.778443,5.05229464 C175.728624,5.58669151 175.74357,5.71580754 175.814977,5.34101242 C175.886385,4.96442402 176.955843,5.53827301 177.012306,5.52392678 C177.068768,5.50778728 177.547035,5.42708976 177.947251,5.33742586 C178.349128,5.24776195 179.847034,5.68711509 180.248911,5.78574538 C180.650788,5.88437568 181.642196,5.38046453 181.789993,5.51137383 C181.939452,5.64048986 182.354614,5.98838581 182.389488,5.99914548 C182.424361,6.00990514 182.623639,5.87361601 182.799668,5.71939409 C182.974036,5.56517218 183.756202,5.38943092 184.068404,5.49702761 L184.36566,5.51854695 C184.538368,5.53289317 184.845588,5.24955523 184.895407,5.28900735 L185.398584,5.69608148 C185.915046,5.48806122 186.853313,5.49164778 187.48436,5.70325459 L188.072229,5.88437568 L188.306381,5.9561068 C188.596995,5.95431352 188.975623,5.84492356 189.14833,5.71580754 C189.319377,5.58669151 190.041759,5.55261923 190.269268,5.40019059 C190.496777,5.24776195 191.941542,5.58131168 192.648979,5.62614363 L193.309917,5.67276886 L193.871217,5.7104277 C194.462408,5.87540929 195.040314,5.91844796 195.156559,5.80367816 C195.272805,5.68711509 195.960313,5.45398894 196.425295,5.53468645 L196.782335,5.69070164 C197.157641,5.85568323 197.469843,6.37573388 197.491432,5.5221335 C197.493093,5.49702761 197.7671,5.45219566 197.908255,5.46295533 C198.775114,5.52392678 199.666882,5.74091343 200.498868,5.6207638 L201.139878,5.52930662 C201.646376,5.73912015 202.172802,5.9238278 202.312297,5.94355386 C202.451791,5.96148664 203.084499,5.83595717 203.434896,5.74808654 C203.783632,5.65662936 205.945797,5.81802439 206.545292,6.00093875 C207.143125,6.18743968 208.803775,5.29080063 209.187384,5.30514685 C209.572655,5.31949308 210.99085,5.13657871 211.475759,4.91779879 C211.962329,4.70081214 213.08825,5.62793691 213.21612,5.61179741 C213.34565,5.59386463 214.066372,5.12223249 214.373592,5.48268139 L214.690776,5.5472394 C215.021245,5.61179741 215.49287,5.21727623 215.791787,5.30694013 L216.412869,5.49164778 C216.741678,5.15989133 217.211642,4.90165928 217.455757,4.91959206 L217.608537,5.01642908 L217.892508,5.20113672 C218.15489,5.45757549 218.498645,5.55441251 218.656406,5.4163301 C218.812507,5.27824768 219.234312,5.10609299 219.264204,5.32307963 C219.292435,5.53827301 220.247308,5.57593185 220.403409,5.40377715 C220.55951,5.23341573 221.245359,5.00746269 221.393156,5.20472328 C221.539294,5.40019059 222.032506,5.94714041 222.128824,5.9399673 L222.162037,5.87720257 C222.638643,4.98594335 223.354383,5.72477393 223.945574,5.68352853 L224.231206,5.66200919 C224.648029,5.52392678 225.139581,5.44502255 225.323913,5.48447466 C225.509906,5.52572006 226.014743,5.57234529 226.343552,5.70504787 C226.67236,5.83595717 228.087233,5.4486091 228.686728,5.61359069 L229.350988,5.4647486 C229.717991,5.38405109 230.222828,5.7355336 230.569904,5.63511002 L231.164416,5.46295533 C231.752286,5.57593185 232.65734,5.70504787 233.175463,5.75525966 L233.658712,5.67635542 L234.505643,5.53827301 C235.455534,5.46295533 236.360588,5.38763765 236.515028,5.37149814 C236.669469,5.35535864 237.167663,5.69249492 237.403476,5.98300597 C237.639288,6.27351702 238.6938,5.81623111 238.869829,5.94893369 C239.045858,6.08342955 239.605497,6.33986831 239.723403,6.22151196 L239.701814,6.13364133 C239.635388,5.8664429 239.377988,5.40377715 239.416183,5.38763765 L239.9725,5.12761232 C240.097049,5.53289317 240.321236,5.90589502 240.469034,5.95431352 C240.618493,6.00273203 241.040297,5.85747651 241.189756,5.73732687 C241.339214,5.61359069 241.86564,5.39660404 242.036687,5.53827301 C242.207734,5.6781487 242.686001,5.55620579 242.724196,4.96442402 L243.592715,5.35715192 L243.619286,5.36970487 C243.481452,5.67456214 243.83351,5.84671684 244.401452,5.75525966 C244.969394,5.66200919 246.326144,6.35959437 246.449032,6.25020441 L246.445711,6.15336739 L246.425783,5.47550827 C246.945566,5.60103774 247.476974,5.80547144 247.608165,5.93279419 C247.737696,6.06011693 248.179429,6.3165557 248.215963,6.09956905 C248.254158,5.88078912 248.641089,5.5472394 248.999789,5.81085128 C249.35849,6.07266988 250.823182,5.66021592 251.223399,5.65124953 C251.623615,5.64407641 252.669824,6.13184805 252.751196,6.29862292 C252.834228,6.46898434 253.916972,6.15157411 254.059787,5.98121269 C254.205925,5.809058 254.984769,5.64048986 255.240509,6.2591708 L256.012711,6.06549677 C256.398943,5.96865975 256.30637,5.8134791 256.164945,5.66876007 L256.068144,5.57458565 C255.942007,5.45309975 255.852764,5.35196085 256.102386,5.31949308 L256.703541,5.24238212 C257.3037,5.25636969 258.619827,5.26901031 259.817375,5.27213247 L261.557619,5.27286785 C262.157113,5.27286785 262.756608,5.24955523 263.354441,5.28004096 L263.854297,5.30335358 C264.389026,5.39481076 265.237618,5.16885772 265.740794,4.79944243 L266.278845,5.47012844 L266.601011,5.87002945 C266.645848,5.50958056 266.924837,4.99670302 267.222093,4.73309114 L267.474512,5.0146358 L267.87971,5.46833516 C268.367941,5.33025275 269.078699,5.14733838 269.460649,5.06305431 C269.842598,4.97877024 271.10137,4.74743737 271.403608,4.56272972 C271.705846,4.3762288 272.825124,4.89807273 273.220358,4.92317862 C273.613932,4.94828451 274.778047,5.12581904 274.980647,5.02001564 C275.183246,4.91600551 276.000285,4.67391296 276.531693,4.55914317 L276.930249,4.33677668 L277.685844,3.91714961 C278.00801,4.41388764 278.300284,4.65598018 278.333497,4.45692632 C278.368371,4.25607917 278.835013,3.75037475 279.275085,3.91176978 C279.716818,4.0731648 281.194796,4.48561877 281.643171,4.48561877 C282.089886,4.48741204 283.675806,3.77189408 284.534362,3.75037475 L285.24678,3.78624031 C285.974145,3.82210587 286.65335,3.68223018 287.350823,3.70374952 L287.83075,3.71988902 C288.221003,3.5082822 288.900208,3.45089731 289.343602,3.59615283 L289.566129,3.4760032 C290.263601,3.09762152 290.469522,3.26977622 290.547573,3.90101011 L290.554215,3.95480845 C290.944468,3.9673614 291.836236,3.57822005 292.533709,3.09224169 L293.581579,3.8364521 L293.68786,3.91176978 C293.804106,3.99426057 293.907066,3.79699998 293.91869,3.47062336 C293.930315,3.14604003 295.278762,3.51724859 295.592625,3.61408561 C295.908148,3.71271591 297.032408,3.61229233 297.364538,3.52980154 C297.698328,3.44731075 298.741216,3.19087198 299.00858,3.25722327 C299.277606,3.32357456 300.323815,2.95953911 300.918327,3.0258904 C301.511179,3.09224169 303.261503,2.97926517 303.5106,3.08148202 C303.759698,3.18728543 304.291106,3.62484528 304.344246,3.48676287 C304.399048,3.35047373 304.719553,3.11914086 304.842441,3.51724859 L305.025113,3.58539316 L305.327351,3.69836968 C305.717603,3.64995117 306.599408,3.57104694 307.281935,3.52262843 L307.677169,3.26080983 L308.205256,2.9111206 C308.593848,3.1155543 309.050526,3.28412244 309.221573,3.28412244 C309.390959,3.28412244 309.849299,3.08148202 309.993775,2.99719795 C310.138252,2.91291388 311.113053,3.14245347 311.637818,3.26798294 C312.160922,3.39171913 313.675434,2.95774583 313.811608,2.91470716 C313.947781,2.8698752 314.633629,3.67147051 314.676806,3.44193091 C314.721643,3.20880476 315.19991,2.67978773 315.65991,2.67799445 L316.066769,2.70489362 L316.589874,2.7389659 C317.146191,2.98643828 317.931678,3.12810725 318.335216,3.05637612 C318.737093,2.984645 319.985902,2.60267677 320.291461,2.53991203 C320.59702,2.47535402 321.385829,2.80173064 321.432327,2.58653726 C321.480486,2.37134389 321.709655,1.81901424 321.844168,1.82977391 L321.910594,1.88715881 C322.442002,2.34444472 322.888716,2.88242815 323.79211,2.32651194 L324.052831,2.16691019 C324.56099,2.2727136 325.177091,2.33189177 325.422867,2.29781949 C325.668643,2.26374721 326.410953,2.51659942 326.575358,2.53632548 L326.716513,2.50404647 L327.256224,2.38569012 C327.847415,2.2476077 328.715935,2.18663625 329.184238,2.25119426 L329.616006,2.2888531 L329.948136,2.31575227 C330.398172,1.95171682 330.891385,1.82798063 331.044165,2.03600089 C331.196944,2.2476077 331.685175,2.50763303 331.907702,2.31216572 C332.130229,2.11490513 333.015355,1.70603772 333.249507,1.95171682 C333.485319,2.19560264 334.292395,2.41617585 334.994849,2.47356074 L335.556149,2.57039776 L336.109145,2.66723478 C336.516004,2.49508008 337.181924,2.3300985 337.588783,2.30319933 L337.942502,2.12925135 L338.113549,2.04496728 C338.375931,2.09159251 339.257736,1.93737059 340.073115,1.70245116 L340.875208,2.27450688 L341.298674,2.57757087 C342.105749,2.53273892 342.803222,2.24940098 342.846399,1.94813026 C342.889576,1.64865282 343.880983,1.85308652 344.123438,1.97144288 C344.365893,2.08979923 345.360622,2.16332363 345.68943,2.22967492 C346.0199,2.29602621 346.828636,1.87639914 346.896722,1.91047142 C346.964809,1.94454371 347.258744,2.17587658 347.429791,2.31575227 C347.600838,2.45562796 348.877877,2.74255246 348.683581,2.53991203 C348.489285,2.33727161 348.529141,2.11311185 349.103725,2.38569012 L349.724808,1.76342262 C349.98553,1.5033973 350.868995,1.69348477 351.465168,1.72755706 L351.90524,1.75445623 C352.240692,2.05214039 352.597731,2.31037244 352.699031,2.32471866 C352.80033,2.34265144 353.633976,2.35699767 354.449355,2.43948846 L355.012315,1.77418229 L355.10199,1.66837888 C355.890799,1.96426977 356.462062,2.04138072 356.369066,1.84232686 C356.27773,1.64327299 356.129932,1.13756856 356.198019,1.06583744 C356.266105,0.992313039 356.845672,0.877543241 357.372098,0.798639005 C357.900184,0.719734769 359.361556,1.20391985 359.600689,1.07480383 L359.711953,1.12860217 L360.225093,1.38145439 C360.839533,1.35276194 361.580183,1.46035862 361.869136,1.61816709 C362.159749,1.77597557 363.20928,0.870370129 363.87354,0.429223718 L364.522853,0.673109539 L365.276788,0.954654199 C365.721842,0.579859078 366.143647,0.266035411 366.213394,0.258862299 C366.283142,0.251689187 366.552167,0.176371507 366.758087,0.0311159812 C366.965668,-0.114139544 367.835849,0.289348027 368.063358,0.414877493 Z M66.073,98.958 L66.7850519,99.3123711 C67.138874,99.2613747 67.7342686,99.315068 68.3483176,99.376141 L68.8740144,99.428027 C69.1339478,99.452604 69.3856091,99.4734299 69.6114509,99.4828446 L69.613,99.482 L69.6023617,99.4881123 L69.6023617,99.4881123 C69.4661885,99.5688098 68.7521093,99.7068922 68.052976,99.8324217 L67.4335538,99.6154351 C67.1113879,99.5042518 66.8058284,99.3589963 66.495287,99.2245004 C66.4234883,99.1934873 66.3539652,99.1505789 66.2851387,99.1040734 L66.1479466,99.0087249 C66.1250802,98.9928537 66.1021742,98.9771974 66.0791701,98.9620635 L66.073,98.958 Z M62.276,98.738 L62.3060599,98.7415967 C62.5349241,98.7608471 62.9201242,98.7814383 63.4257965,98.8026605 L63.476,98.804 L63.4265361,98.8660001 C63.3732777,98.9340707 63.3175161,99.0115273 63.2586816,99.098971 L62.8435193,99.7140654 C62.666162,99.2761468 62.469674,98.9363565 62.3125234,98.7725513 L62.276,98.738 Z M73.527,99.051 L73.7424721,99.0544127 C74.3707366,99.0641226 74.9820472,99.0726024 75.5633343,99.0795935 L75.85,99.082 L75.9010828,99.1280073 C75.9257218,99.1480257 75.951147,99.1663016 75.9776643,99.1822502 L76.035,99.21 L75.8999098,99.2085259 C75.8522612,99.2081492 75.8065473,99.2080621 75.7633704,99.2083609 C75.2435872,99.2119475 73.89514,99.4450736 73.8419992,99.3123711 C73.8091184,99.2316735 73.6895516,99.1115956 73.5600608,99.0605948 L73.527,99.051 Z M76.646,99.091 L76.8940861,99.0933813 C76.999063,99.09427 77.1024207,99.0950909 77.2040547,99.0958419 L77.479,99.097 L77.4831269,99.1288963 L77.4831269,99.1288963 L77.494,99.164 C77.4374346,99.1796124 77.3984871,99.190204 77.3725395,99.1976013 C77.2514505,99.2321219 76.9003731,99.2288093 76.5259861,99.2207676 L76.389,99.217 L76.4342972,99.2047744 C76.4509037,99.1971529 76.5282277,99.1534418 76.6340681,99.0978502 L76.646,99.091 Z M68.639,98.956 L68.7279032,98.9582766 C68.9791319,98.9640196 69.233085,98.9696734 69.4889262,98.9752215 L69.592,98.977 L69.3981264,99.0900046 L69.2304008,99.1886349 C69.0958882,99.1548188 68.9223335,99.0887237 68.741894,99.0058774 L68.639,98.956 Z M64.646,98.847 L64.6807064,98.8488436 C64.8691286,98.8550611 65.0652941,98.8612888 65.2683664,98.86751 L65.449,98.872 L65.3916127,98.9044206 C65.3326027,98.9427448 65.2710955,98.9942224 65.2066232,99.0613121 C65.1617857,99.1061441 64.8462623,99.0415861 64.7549266,98.9519222 L64.6713937,98.8707264 L64.6713937,98.8707264 L64.646,98.847 Z M74.7,98.72 L70.448,98.813 L70.4992033,98.817565 C70.8677272,98.854175 71.2713314,98.9281202 71.5201483,98.9377051 L71.529,98.937 L71.4613932,98.9516085 C71.4300829,98.9601671 71.4000024,98.9703987 71.3717811,98.9821726 L71.311,99.012 L71.4300647,99.0145904 L71.4300647,99.0145904 L71.986,99.024 L71.8558627,98.9375759 L71.77,98.925 L71.9290652,98.9075847 C72.260293,98.8672912 72.6249797,98.8049472 72.8135147,98.8002536 L72.8921324,98.8030801 C73.0797858,98.828186 73.7473668,98.8586717 74.3767528,98.8676381 L74.3767528,98.8676381 L74.7,98.72 Z M68.445,98.856 L68.5603507,98.9180224 L68.5603507,98.9180224 L68.639,98.956 L68.3532081,98.9495972 C67.7324703,98.9350269 67.1313744,98.9199509 66.5629902,98.9046277 L66.423,98.9 L68.445,98.856 Z M78.824,98.631 L77.799,98.653 L77.7619417,98.7037649 C77.711948,98.7665192 77.6642636,98.8115341 77.6208495,98.8084599 C77.5554981,98.803713 77.4816653,98.8088508 77.4046443,98.816896 L77.399,98.817 L77.414795,98.8179307 C77.4503685,98.8246835 77.4749579,98.8420839 77.4845383,98.873158 L77.487,98.925 L77.641492,98.9293947 C78.1117583,98.9255774 78.5929487,98.7826543 78.8226365,98.6326059 L78.824,98.631 Z M63.5046175,98.7708586 C63.9117977,98.3001797 64.1769938,98.4109714 64.5917942,98.7954955 L64.646,98.847 L64.4039852,98.8395269 C64.1332805,98.830222 63.8809392,98.8209585 63.6497845,98.8117922 L63.476,98.804 Z M77.9984591,98.3808414 C77.6599807,98.3779548 77.2590898,98.3781958 76.8126159,98.381142 L76.658,98.382 L76.6560123,98.4103522 C76.6503466,98.4882015 76.6542425,98.5528713 76.6661317,98.6064287 L76.673,98.627 L76.6875033,98.6237523 L76.6875033,98.6237523 L76.75,98.676 L77.799,98.653 L77.8126327,98.6362216 C77.846843,98.5887494 77.8817893,98.5378893 77.9168905,98.4926338 L77.9695858,98.4300782 L78.016,98.38 Z M0.345605724,74.1454912 C0.748078249,73.7970571 0.856436237,74.1706558 1.10217667,74.2732503 L1.10217667,74.2732503 L1.37694157,74.3874592 C1.70201553,74.4590818 1.98258532,74.6913711 2,74.9023673 L2,74.9023673 L1.91873151,75.0010902 C1.86314527,75.0669055 1.80711127,75.1408478 1.75043179,75.2179372 L1.57825924,75.4536676 C1.37467079,75.7280823 1.16075331,75.980049 0.928029907,75.9960629 C-0.0762164428,76.0657497 0.69583422,75.1907932 0.285621838,74.919789 C-0.213598891,74.5907124 0.0302065808,74.4223026 0.345605724,74.1454912 Z M6.13408959,65.4529994 C6.43808959,64.9489002 6.78408959,64.8512065 6.90808959,65.2322118 L6.90808959,65.2322118 L6.87408959,65.4998924 C6.80408959,66.0704233 6.99408959,66.4006278 7.78408959,66.4475207 L7.78408959,66.4475207 L7.88408959,66.4533824 C8.01008959,66.8343876 7.77208959,67.0708062 7.35808959,66.9809281 C6.94208959,66.889096 5.83008959,65.9570986 6.13408959,65.4529994 Z M74.468008,7.34555208 L74.345,7.353 L74.2280203,7.40069193 C74.1017289,7.45236491 73.97336,7.50642892 73.8486724,7.56064053 L73.6651217,7.64178821 L73.16,7.638 L74.0014215,8.33937339 C74.1077031,8.42903729 74.6939123,8.08293462 75.0509519,7.9287127 L75.2386052,7.84801519 C75.4229373,7.74400506 76.1951392,7.4785999 76.9540559,7.25623342 C77.1989876,7.18520137 76.0853677,7.23932942 74.468008,7.34555208 Z M67.776,7.682 L67.7676251,7.76334946 L67.7676251,7.76334946 L67.754,7.842 L67.6506466,7.85018142 C66.7671408,7.92037831 66.0767063,7.97710143 65.7452205,8.0061723 L65.74,8.006 L65.8320668,7.99319229 C66.0160817,7.96550889 66.2605554,7.9235786 66.5171481,7.87704094 L66.8277827,7.81960114 C66.9829149,7.79039241 67.1354489,7.76091311 67.2749434,7.73324539 C67.3898213,7.71046021 67.5584317,7.69415317 67.7608704,7.68307266 L67.776,7.682 Z M69.7245994,7.68219373 L69.781,7.684 L69.5291502,7.70345401 C69.046396,7.74054657 68.581723,7.77671948 68.1507094,7.81064118 L68.144,7.81 L68.003,7.672 L68.2049543,7.6675095 C68.6823472,7.65817336 69.2419741,7.66640572 69.7245994,7.68219373 Z M71.4797073,7.17553591 C71.6997433,7.28402923 71.9629562,7.39028096 72.2097702,7.47389255 L72.282,7.497 L72.2209189,7.50198083 C71.8230208,7.53085206 71.4187484,7.56066868 71.0160779,7.59074892 L70.965,7.594 L70.9881551,7.57543692 L71.4797073,7.17553591 Z" id="Combined-Shape"></path>
            </g>
        </g>
    </g>
</svg>