<?xml version="1.0" encoding="UTF-8"?>
<svg width="810px" height="15px" viewBox="0 0 810 15" version="1.1" xmlns="http://www.w3.org/2000/svg" xmlns:xlink="http://www.w3.org/1999/xlink">
    <title>Combined Shape</title>
    <g id="Design-v3" stroke="none" stroke-width="1" fill="none" fill-rule="evenodd">
        <g id="ipad-3" transform="translate(0.000000, -3634.000000)" fill="#FFF1BE">
            <g id="recipes" transform="translate(-255.000000, 3634.000000)">
                <path d="M321.632391,0 L344.537275,14.5758355 L255,14.5758355 L277.904884,0 L299.768,13.913 L321.632391,0 Z M456.979434,0 L479.884319,14.5758355 L434.07455,14.5758355 L456.979434,0 Z M411.169666,0 L434.07455,14.5758355 L344.537275,14.5758355 L367.442159,0 L389.306,13.912 L411.169666,0 Z M592.326478,0 L615.231362,14.5758355 L525.694087,14.5758355 L548.598972,0 L570.462,13.913 L592.326478,0 Z M502.789203,0 L525.694087,14.5758355 L479.884319,14.5758355 L502.789203,0 Z M681.863753,0 L704.768638,14.5758355 L615.231362,14.5758355 L638.136247,0 L660,13.912 L681.863753,0 Z M771.401028,0 L794.305913,14.5758355 L704.768638,14.5758355 L727.673522,0 L749.537,13.913 L771.401028,0 Z M906.748072,0 L929.652956,14.5758355 L883.843188,14.5758355 L906.748072,0 Z M860.938303,0 L883.843188,14.5758355 L794.305913,14.5758355 L817.210797,0 L839.074,13.913 L860.938303,0 Z M975.462725,14.5758355 L998.367609,0 L1020.231,13.913 L1042.09512,0 L1065,14.5758355 L975.462725,14.5758355 Z M952.557841,0 L975.462725,14.5758355 L929.652956,14.5758355 L952.557841,0 Z" id="Combined-Shape" transform="translate(660.000000, 7.287918) scale(1, -1) translate(-660.000000, -7.287918) "></path>
            </g>
        </g>
    </g>
</svg>