<?xml version="1.0" encoding="UTF-8"?>
<svg width="419px" height="104px" viewBox="0 0 419 104" version="1.1" xmlns="http://www.w3.org/2000/svg" xmlns:xlink="http://www.w3.org/1999/xlink">
    <title>Combined Shape</title>
    <g id="Assets" stroke="none" stroke-width="1" fill="none" fill-rule="evenodd">
        <g id="Peppy-Tomato" transform="translate(-830.000000, -397.000000)" fill="#FCC517">
            <g id="Group" transform="translate(768.000000, 130.000000)">
                <g id="add-ons" transform="translate(44.000000, 267.000000)">
                    <path d="M386.063358,0.414877493 C386.292527,0.54040696 387.185956,0.786086059 387.008267,0.411290937 C386.830577,0.0364958155 387.855198,0.353906038 388.046173,0.318040476 C388.238808,0.283968192 388.994403,0.359285872 389.281696,0.579859078 C389.570649,0.802225561 390.668338,0.768153278 390.591948,0.669522982 C390.515558,0.570892687 391.470431,0.344939648 392.881983,0.387978322 L393.400106,0.734080994 L394.363282,1.37428127 C394.447976,0.69104232 394.86812,0.475848948 395.298228,0.895476022 L396.194979,0.608551527 C397.136567,0.309074086 398.312306,0.434603552 399.373461,0.886509632 C399.772017,1.05507777 400.344941,1.40656028 401.045735,0.990519761 C401.362919,0.802225561 402.214832,1.22005936 402.766168,1.46394518 C403.035193,1.58409481 402.090283,1.86563947 402.699742,2.08979923 C402.872449,2.15256397 403.204579,1.80825457 403.43873,1.83336047 C403.812377,1.87101931 404.380319,1.98220255 404.488261,2.20277575 L404.832015,2.91470716 C405.590932,3.12631397 406.613892,3.4347578 407.107105,3.59973939 C407.600317,3.76651425 409.186237,4.0408858 409.481833,3.98888073 C409.779089,3.93866895 410.684143,4.21304049 410.896706,4.13592954 C411.107609,4.05881858 411.542699,3.9996404 411.497861,4.32243046 C411.453024,4.64342724 412.549052,4.18076149 412.735045,4.11799676 C412.85904,4.0761536 413.242096,4.08850729 413.660826,4.10245501 L413.978072,4.11239276 C414.083723,4.11525703 414.188113,4.117399 414.287752,4.11799676 C414.883925,4.12337659 416.375188,4.8102021 416.53295,4.76178359 C416.690711,4.7115718 417.222119,4.6792928 417.233744,4.85682733 C417.245368,5.03436186 417.790061,5.55261923 418.40118,5.42170993 C419.012299,5.29080063 420.887172,6.02604465 421.607894,6.22330524 L421.832081,7.03386694 C421.945006,7.43556123 423.012803,7.48756629 423.215402,8.27122882 L423.306738,8.62629788 C423.995907,8.89708287 424.671792,9.15890148 424.811286,9.21090654 C424.950781,9.26470488 425.203199,9.63950001 425.058723,9.93180433 L425.070347,9.93718417 L425.678145,10.1954162 C425.440672,10.6275962 425.264643,11.3108352 425.286232,11.7125295 L425.346015,12.0944977 L425.473885,12.8978863 C425.658217,13.7765926 425.928903,14.5190097 426.078362,14.5494954 L426.224499,14.5602551 L426.378939,14.5710148 C426.548325,14.5692215 426.699444,14.6409526 426.71273,14.7288232 C426.727675,14.8202804 426.397206,15.0713394 426.070058,15.2273545 L425.801033,15.4013025 C425.739589,15.4407546 425.786087,15.6541547 425.842549,15.7635447 C425.867459,15.8101699 426.043488,15.817343 426.146448,15.8065834 C426.204571,15.7994103 426.246087,15.6900203 426.307531,15.6792606 L426.657928,15.623669 C427.04652,15.5752505 427.348758,15.6416018 427.32883,15.7707178 C427.310563,15.8980406 427.60948,16.5077551 428.039588,16.8377183 L428.321899,17.2017537 L428.502909,17.4348799 C428.532801,17.906512 428.140888,18.1199121 427.632729,17.9118919 C427.124571,17.7038716 425.89569,17.8706465 426.312513,18.8659158 C426.729336,19.8629784 426.819011,22.5636552 426.403849,22.6891847 C425.987026,22.8147142 424.854463,23.2289614 425.0006,23.2684135 C425.146737,23.3096589 425.696412,23.652175 426.07338,23.9157869 L426.216195,24.226024 C426.424607,24.6815167 426.595239,24.561367 426.767323,24.3849533 L426.861568,24.2862694 C427.003858,24.139239 427.151896,24.0177592 427.32717,24.206298 L427.572946,24.4734964 C428.087747,24.6779301 428.361754,25.0832109 428.184065,25.3719287 C428.006375,25.6606465 428.527819,27.1670001 428.630779,27.8753449 L428.296989,28.533478 C427.934967,29.2418228 428.604209,30.4540788 429.45114,30.5240167 L430.168541,30.5849881 C430.970634,30.7302437 431.312728,30.8683261 430.929118,30.8952252 C430.545508,30.9203311 429.459443,31.1893229 429.459443,31.4332087 C429.459443,31.6770945 429.846375,32.4302713 430.31966,32.3477805 L430.768035,32.286809 L431.020454,32.2509435 C431.294461,32.2491502 431.734533,32.2975687 432.000237,32.3621267 C432.14106,32.3965577 432.585139,32.3728386 433.063922,32.3459229 L433.42532,32.3259955 C433.724913,32.3103209 434.011836,32.2987642 434.220525,32.3047418 C434.846589,32.3262612 435.593882,33.8164753 435.51251,33.943798 L435.18038,33.8971728 C434.522763,33.8039223 434.174027,34.2755545 434.428106,34.7597395 C434.602474,35.0950825 434.760236,35.5200894 435.074098,35.6922441 L435.763268,36.0706258 C435.806445,36.7197925 435.984134,37.1071406 436.158502,36.929606 L436.332871,36.8901539 C436.512221,36.8471152 436.806156,36.8829808 436.914098,36.9905775 C437.018719,37.0910011 437.028683,37.3761323 436.939008,37.4998685 C436.640091,37.8961829 436.226589,38.1311024 435.627095,38.0557847 C435.51417,38.0414384 435.263412,38.2655982 435.253449,38.392921 C435.240163,38.5292101 435.392943,38.74799 435.542402,38.8143413 L436.02565,39.031328 C436.590271,39.2267953 436.572004,39.6284896 435.984134,39.9261737 L435.466012,39.9566595 L435.045867,39.9799721 C434.441391,39.657182 433.949839,39.8329233 433.954821,40.3709067 L433.865146,40.7295623 L433.733954,41.249613 C433.15937,41.4092147 432.415399,41.5634366 432.081609,41.5903358 C431.746157,41.617235 431.82919,42.7380338 432.046735,43.3441618 C432.26428,43.9484965 432.661175,45.9336553 432.31576,46.0896705 C431.968684,46.2456857 432.277565,47.2929601 432.483486,47.4758745 C432.687745,47.6605821 433.026518,48.2828496 432.755832,48.4532111 L432.413738,48.5859136 C432.123125,48.6988902 431.766085,48.1106949 431.443919,48.6343321 L431.404064,48.6988902 C431.116771,48.6468851 430.588685,48.4729371 430.231645,48.3151286 C429.874606,48.1555269 428.469696,48.433485 427.876845,48.5733607 C427.666305,48.6223979 427.283399,48.5805174 426.85561,48.4966326 L426.836622,48.8110027 C426.572513,48.7836004 425.870403,48.4858782 425.421816,48.1235972 C425.168468,48.0429863 424.962078,47.9688633 424.844499,47.9170209 C424.364572,47.7036208 422.594319,47.827357 422.222334,47.7520393 C421.852009,47.6785149 420.905439,47.1602576 420.789194,47.3736576 C420.672948,47.5852645 420.435475,48.3348547 420.481974,48.6343321 C420.528472,48.9338096 421.670998,49.0952046 421.941684,49.0916181 L422.062912,49.1992147 C422.142311,49.2703855 422.176303,49.3760558 422.207963,49.4850316 L422.247593,49.6153927 C422.313631,49.8073252 422.427943,49.9695398 422.841756,49.9201125 L422.961323,49.9057663 C423.15894,50.3236001 423.607315,50.3702253 423.954391,50.0079832 L424.032442,50.8203381 L424.047388,50.9853197 C424.484138,51.1305753 425.22977,51.2345854 425.704715,51.2166526 L425.79273,51.7151839 L425.865798,52.1204648 C425.980383,52.5849238 425.872441,52.8341894 425.628326,52.6745877 C425.38421,52.5149859 424.484138,52.4091825 424.338001,52.5365053 C424.191864,52.6656213 423.487749,52.8126701 423.110781,52.566991 C423.040411,52.5205899 422.95241,52.4563471 422.854987,52.3837194 L422.650012,52.2300859 L422.650012,52.2300859 L422.434509,52.0709044 C422.110655,51.8363773 421.800529,51.6398662 421.7258,51.7367032 L421.759013,51.8174008 C421.969915,52.3517976 422.471431,52.9077138 422.388399,53.3918989 L422.295403,53.9514017 C421.699229,54.5880154 421.3671,55.2425619 421.558074,55.4057502 C421.747388,55.5689385 422.557785,55.5312797 422.866666,55.2694611 L423.079229,54.9628105 L423.217063,54.7637567 C423.255258,54.4804187 423.341612,54.2706052 423.411359,54.2939178 L423.441251,54.3351632 L423.886305,54.9430845 C424.424355,54.6274675 425.0006,54.4337935 425.165004,54.5126977 C425.329409,54.5933952 425.277929,55.1188257 424.66681,55.5115536 L425.060384,56.1481674 L425.224788,56.4153658 C425.658217,56.2934229 426.216195,56.6664247 426.463632,57.242067 C426.709408,57.8177093 427.026592,58.4650827 426.910347,58.5672995 C426.794101,58.6677231 426.194607,58.7089685 425.84421,58.4238373 L425.517062,58.1745716 L425.473885,58.1404993 C425.292874,58.1566388 425.05208,58.3162406 424.937495,58.4955684 C424.82125,58.6731029 424.69338,59.2828175 424.995618,59.3115099 C425.297856,59.3384091 426.191286,59.5876747 425.923921,59.7652093 C425.656557,59.9409505 424.983994,60.6259828 425.091936,60.846556 C425.201539,61.0689224 425.651575,61.6158723 425.79439,61.452684 L425.9206,61.4221982 C426.349047,61.3146015 426.986737,61.7700942 427.460022,62.6236946 L427.655978,62.9787636 C427.385292,63.3804579 427.091358,63.7821522 427.005004,63.8682295 C426.916989,63.9543069 426.895401,64.3147558 427.14782,64.4689777 L427.380311,64.470771 C427.994751,64.4779441 428.192368,64.6662383 427.929985,65.1701494 C427.858577,65.3118184 427.689191,65.5323916 427.73735,65.5772236 L428.011357,65.8372489 C427.928325,66.1367263 427.569625,66.3321936 427.214246,66.2730155 L427.054823,65.8587682 L426.990058,65.6937866 C426.109914,65.618469 426.136484,65.8551817 427.053163,66.2210104 L426.694462,66.959841 L426.505148,67.3507756 C426.360672,67.804475 426.375618,68.2976264 426.540022,68.4464685 C426.706087,68.5953106 427.036556,69.3556605 426.802405,69.6407917 C426.566592,69.9223364 425.453957,70.3168576 425.437351,70.5822627 L425.546954,70.7669704 L425.759517,71.1202462 C425.938867,71.5739455 425.932224,71.8052784 425.744571,71.6331237 C425.556918,71.460969 424.819589,71.3031605 424.603705,71.3856513 C424.387821,71.4681421 423.603994,71.4591757 423.334969,71.3910312 C423.064283,71.3228866 422.302045,71.4806951 422.436558,71.590085 C422.57107,71.699475 423.069265,72.1334483 423.288471,72.2822904 C423.509337,72.4311324 424.211792,72.0563373 424.288182,72.0491642 C424.367893,72.0419911 424.519012,72.2356651 424.477496,72.5459022 C424.443764,72.7979699 425.186204,72.6285892 425.580709,72.5350484 L425.73399,72.4990717 C425.754055,72.4945767 425.771038,72.4909831 425.784427,72.4885173 C425.99865,72.4508585 426.344065,72.7216435 425.968759,72.8920049 C425.593452,73.0623663 424.560528,73.3690169 424.480817,73.2094151 C424.399445,73.0498134 423.980962,72.8184805 423.858073,72.8399998 C423.733525,72.8597259 423.228687,73.776091 423.022767,73.7581582 C422.815186,73.7384322 422.144283,74.0988811 421.978219,74.6027922 L422.177496,75.1102899 C422.363489,75.5855086 422.625872,75.8903659 423.217063,75.942371 L423.333308,75.9531306 C423.479445,76.0876265 423.434608,76.4426955 423.23533,76.7385864 C423.036052,77.0344773 422.079518,77.606533 421.968255,77.7338558 C421.855331,77.8629718 421.87858,78.3722628 421.739085,78.4027485 C421.601251,78.4368208 421.480024,78.7380915 421.433526,78.7757503 C421.387027,78.8169957 421.486666,79.0626748 421.719157,79.2689018 C421.953309,79.4715422 422.456486,80.3681813 422.423273,80.8936118 L422.167533,81.1841228 C421.466739,81.9821316 421.632804,82.3963788 422.627532,82.8787706 L423.396413,83.2535657 C422.899879,83.796929 422.331937,84.5142402 422.13598,84.8442034 C421.938363,85.1759599 421.337208,85.5973802 421.883562,85.635039 L421.812154,86.3792495 L421.782262,86.6859 C421.798394,86.8124542 421.816831,86.9573072 421.836061,87.1083712 L421.894624,87.5681092 C421.923587,87.7952072 421.950936,88.0090831 421.971576,88.168941 L422.26385,88.4199999 L422.612587,88.7212706 C422.498002,89.0870994 422.272153,89.7344728 422.10941,90.1594797 L422.456486,90.5952463 L423.316702,91.6730064 C422.589337,92.1249125 421.971576,92.5140538 421.941684,92.5391597 C421.911793,92.5660589 422.434897,93.6007803 423.313381,94.6570211 L423.957712,95.7114687 L424.142045,96.0109461 C423.783344,95.9141091 423.444572,95.8280317 423.386449,95.8208586 C423.331648,95.8118922 423.009482,95.9087292 422.803561,96.0503982 C422.597641,96.1920672 421.85367,96.5381699 421.679302,96.5578959 C421.504934,96.577622 420.686233,96.7157044 420.295981,96.9057919 L419.922335,97.0707734 L419.472299,97.268034 C418.949194,97.1873365 417.655549,97.3684576 416.597715,97.6679351 C415.538221,97.9674125 412.105659,98.1915723 411.51945,98.3475874 L410.973096,98.4229051 L410.411797,98.4982228 C409.822266,98.6398918 408.339306,98.7887339 407.117069,98.8263927 L405.99447,98.8317725 L405.419885,98.8353591 C404.848622,99.0487592 404.049849,99.5723964 403.64133,99.9938167 L403.116565,99.3034047 C403.045157,99.2101542 402.125157,99.5221846 402.116854,99.4970787 C401.841186,98.763628 401.28985,100.035062 400.897937,99.3500299 L400.761764,99.1133172 C400.168912,99.4845258 399.458154,99.7230317 399.184147,99.6423342 L399.126024,99.6871662 L398.57801,100.126519 C397.873895,100.058375 397.06848,100.124726 396.789491,100.275361 C396.510502,100.425997 395.364654,100.106793 395.080683,100.158798 C394.795051,100.20901 393.441622,100.413444 392.715918,100.409857 C391.990215,100.408064 390.063862,100.922735 389.872887,100.757753 C389.683573,100.590978 388.497869,101.08951 387.953176,101.270631 L387.521408,101.166621 L386.784079,100.983706 C386.030145,101.103856 385.050361,101.240145 384.605308,101.288564 C384.45751,101.305301 384.245869,101.349734 384.026294,101.396625 L383.762575,101.452459 C383.415412,101.524168 383.105188,101.576325 383.060904,101.50555 C382.977871,101.372848 382.205669,101.577281 381.785525,101.907244 C381.365381,102.235414 379.67484,101.756609 379.292891,101.926971 L379.158378,101.837307 L378.553902,101.430232 C378.052386,101.754816 377.085888,101.952076 376.408343,101.869586 L375.865311,102.020221 L375.308993,102.176236 C374.787549,102.016634 373.8443,101.903658 373.213254,101.925177 L372.632027,102.002288 L372.085673,102.074019 C371.502785,102.251554 370.632605,102.176236 370.152677,101.905451 L369.511667,102.221068 L369.050006,102.448814 C368.360837,102.414742 367.053906,102.516959 366.145531,102.672974 L365.230513,102.432675 L364.622715,102.273073 C363.804015,102.504406 362.92221,102.724979 362.66647,102.762638 C362.40907,102.800297 361.545532,102.542065 361.299756,102.656835 C361.05398,102.769811 360.198746,102.730359 359.627482,102.71422 C359.05788,102.696287 357.588205,103.008317 357.533404,102.882788 C357.476942,102.757258 357.320841,102.744705 357.302573,103.115914 C357.284306,103.487122 356.130155,102.80209 355.894343,102.793124 C355.65687,102.785951 354.610661,102.830783 354.117448,102.898927 C353.927751,102.924447 353.613751,102.912032 353.279002,102.891169 L352.873971,102.863965 C352.472236,102.836481 352.10027,102.813816 351.937016,102.846922 C351.581637,102.918653 350.289652,102.721393 349.827991,102.655041 C349.36467,102.586897 347.712324,102.685527 347.219111,102.590483 C346.725898,102.493646 345.417307,103.169712 345.19478,103.196611 C344.970592,103.221717 344.278101,103.02087 344.009076,103.047769 C343.847661,103.063909 343.50032,103.049706 343.121293,103.02569 L342.737418,102.999164 C342.609747,102.989739 342.484268,102.979983 342.366694,102.970658 C341.780485,102.92224 340.07998,102.773398 339.870738,102.773398 C339.663157,102.771605 339.140053,102.972452 338.973988,102.735739 C338.807923,102.497233 337.401353,102.766225 336.943014,102.82361 C336.486335,102.882788 334.833989,103.01011 334.199621,103.347247 L333.420777,102.836163 L332.851174,102.461367 C331.912907,102.438055 330.48641,102.58869 329.679334,102.798504 L328.862295,102.477507 L328.739407,102.430882 C328.380706,102.820023 327.734714,102.898927 327.304606,102.610209 C326.872837,102.321492 324.753848,102.861268 323.820564,102.963485 C322.888939,103.063909 320.38302,102.448814 320.248507,102.420122 C320.113994,102.39143 319.198977,102.558204 318.33876,102.681941 L317.526703,102.407569 L317.051757,102.246174 C316.776089,102.782364 316.248003,103.051356 315.881,102.848715 C315.512335,102.644282 314.496018,102.351977 314.263527,102.554618 C314.032697,102.759052 313.130964,103.236064 312.93999,103.02087 C312.747354,102.803884 311.76425,102.49006 310.97046,102.567171 L310.427427,102.805677 C309.809666,103.072875 309.251688,103.013697 308.776742,102.755465 L308.240352,102.463161 C307.821869,102.71422 307.280497,102.839749 307.038042,102.748292 C306.795588,102.655041 305.925407,102.447021 305.677971,102.398603 C305.430534,102.351977 304.596888,102.561791 304.307935,102.750085 C304.018982,102.940173 303.062448,102.748292 302.806708,102.827196 C302.549307,102.9061 301.518044,102.803884 301.1992,102.794917 C300.882016,102.785951 300.016817,102.610209 299.991908,102.409362 C299.965337,102.206722 299.787648,101.645426 299.66642,101.717157 C299.545193,101.790681 299.206421,101.810407 299.126709,101.63108 C299.048659,101.455338 298.522233,101.322636 298.256529,101.437406 L298.112053,101.765575 C297.994147,102.032774 297.426205,102.134991 297.087432,102.346598 C296.119274,102.950932 296.094364,102.954519 295.071404,102.237208 L294.910321,102.126024 C294.682812,102.007668 294.322451,102.048913 294.109888,102.217482 C293.895664,102.382463 292.992271,102.707046 292.695015,102.468541 C292.397759,102.231828 291.519275,101.726123 291.477759,101.935937 C291.434582,102.14575 290.959636,102.748292 290.514582,102.79671 C290.071189,102.843336 287.786136,102.631729 286.298194,102.938379 L284.853429,102.443435 L284.405054,102.291006 C283.644477,102.724979 282.900506,102.898927 282.752708,102.678354 C282.606571,102.455988 281.915741,102.873821 281.83603,102.945552 C281.757979,103.01549 281.078773,103.040596 280.391265,103.029837 C280.124546,103.025652 279.665197,102.97238 279.188142,102.905246 L278.778982,102.845129 C278.170977,102.752327 277.61632,102.653248 277.486789,102.622762 C277.226067,102.561791 276.259569,102.925826 275.944046,103.115914 C275.630183,103.302415 274.059209,103.236064 273.406574,103.698729 L272.642675,103.056736 L272.187657,102.674767 C271.649607,102.834369 270.950474,102.82361 270.631629,102.651455 C270.312785,102.4793 269.371196,103.193025 269.030763,103.243237 C268.691991,103.295242 267.674013,102.972452 267.639139,102.780571 C267.604266,102.58869 267.124338,102.199549 266.689248,102.565378 L266.372064,102.880994 L266.00506,103.243237 C265.588237,103.085428 265.088382,103.035216 264.894086,103.132053 C264.698129,103.230684 264.073725,103.377733 264.038852,103.169712 C264.003978,102.963485 263.819646,102.891754 263.700079,103.451257 L262.956108,103.148193 L262.567516,102.990384 C262.240369,103.085428 261.780369,103.194818 261.542896,103.23427 C261.307084,103.271929 260.42694,102.920447 260.142969,102.983211 C259.858998,103.047769 258.860947,102.972452 258.552067,102.782364 C258.243186,102.592277 257.142175,102.69808 256.653945,102.563584 L256.225497,102.4793 C256.042826,102.443435 255.652573,102.716013 255.61936,102.674767 C255.252357,102.244381 255.077988,102.617383 254.784053,102.741119 C254.64788,102.79671 254.337339,102.49544 254.08326,102.398603 C254.038422,102.382463 253.810913,102.581517 253.807592,102.680147 L253.805931,102.771605 C253.970335,102.875615 254.051707,103.008317 253.988603,103.067495 C253.925498,103.128467 253.614956,103.090808 253.395751,103.006524 C253.178206,102.92224 252.263188,102.986798 251.844704,103.151779 L251.466076,103.149986 C250.874885,103.148193 250.056185,102.748292 249.743983,102.970658 L249.136185,103.393872 C248.644633,103.14102 248.028532,102.959899 247.764489,102.988591 C247.498785,103.017284 246.633587,103.332901 246.399436,103.505055 C246.166945,103.679003 245.952721,102.907894 245.914526,102.870235 C245.87467,102.830783 245.326656,102.861268 244.702252,102.92762 C244.076187,102.993971 242.060159,103.200198 241.605141,103.243237 C241.150123,103.284482 239.876405,102.16189 239.71034,102.325078 C239.544275,102.486473 239.14738,103.275516 238.451568,103.356213 C237.754096,103.438704 235.097057,102.610209 233.969476,102.299972 L232.98305,103.137433 L232.712365,103.366973 C232.031498,103.237857 231.329044,103.049563 231.149694,102.952726 C230.972004,102.852302 230.242979,103.017284 229.944062,102.868442 C229.643485,102.717806 228.650416,103.117707 228.495976,103.139227 C228.339875,103.164332 227.464713,103.108741 226.905074,103.03701 C226.343775,102.965279 224.058721,103.157159 223.044065,103.366973 L222.190491,102.778778 C222.168903,102.764431 220.121322,103.236064 220.094752,103.259376 C219.98847,103.34904 219.897134,103.501469 219.774246,103.526575 L219.254463,103.632378 C218.774535,103.392079 218.419157,103.029837 218.462333,102.825403 C218.50551,102.620969 218.357713,102.03636 218.160095,102.03636 C217.962478,102.03636 217.543994,102.194169 217.695113,102.38605 L217.713381,102.592277 L217.73829,102.852302 C217.728326,103.24503 217.298218,103.47457 216.783417,103.3598 L216.335042,103.35442 L215.976342,103.34904 C215.597713,103.456637 214.850421,103.574993 214.317353,103.618032 C213.784285,103.659277 212.214971,103.34904 211.899448,103.481743 C211.583924,103.614445 210.536055,103.323934 210.237138,103.479949 C209.939882,103.635965 208.93851,103.366973 208.775766,103.44767 L208.609701,103.470983 C207.829196,103.57858 207.12176,103.558854 206.308042,103.311381 L205.598944,103.094395 C204.865823,103.110175 204.093407,103.118241 203.610462,103.119299 L203.377721,103.119185 C203.311027,103.118919 203.255879,103.118424 203.214252,103.117707 C203.110738,103.115316 203.006671,103.036611 202.899528,102.949737 L202.76932,102.845928 C202.59331,102.713917 202.406844,102.630772 202.199595,102.875615 L201.993675,103.132053 L201.880751,103.271929 C201.771148,103.435117 201.23974,103.668244 200.70169,103.793773 C200.163639,103.917509 198.551149,103.307795 198.282124,103.253996 C198.011438,103.198405 197.468406,103.25579 197.285734,103.167919 C197.104724,103.081842 196.349128,103.182265 196.116637,103.212751 C195.885807,103.24503 194.867829,103.302415 194.362992,103.24503 C193.859815,103.189438 192.541259,102.845129 192.51801,102.753672 C192.493101,102.662215 192.207469,102.861268 191.925159,103.388492 L191.063282,102.931206 C190.825809,102.805677 190.181477,103.417185 189.689925,103.478156 L189.263138,103.531954 C188.75664,103.327521 187.959528,103.537334 187.489565,104 L186.772164,103.449464 L186.363644,103.13564 C185.691081,102.870235 185.040107,102.80209 184.915558,102.985005 C184.79101,103.169712 184.208122,103.626998 184.030432,103.399252 C183.852743,103.173299 183.178519,102.947346 182.846389,103.293448 L182.535848,103.451257 C182.358158,103.540921 181.820108,103.426151 181.815126,103.381319 L181.740397,102.499026 C180.875199,102.249761 180.122925,102.273073 180.068123,102.549238 C180.014982,102.825403 179.528412,103.332901 179.068412,103.246823 L178.698087,103.345453 C178.410795,103.420771 178.216499,103.668244 178.181626,103.218131 C178.145091,102.741119 177.748196,102.628142 177.462564,102.845129 C176.662132,103.45843 175.752096,103.044183 174.910147,103.169712 L174.325598,103.257583 C173.677945,103.350833 173.056862,103.431531 172.943938,103.436911 L172.840978,103.420771 L172.141844,103.304208 C171.18531,103.139227 170.660545,102.913273 170.974408,102.803884 C171.288271,102.6927 170.64726,102.113471 170.590798,101.926971 C170.534336,101.74047 170.152386,101.550382 170.127477,101.950283 C170.102567,102.353771 169.77874,103.332901 169.464878,103.182265 L169.255636,103.01011 L169.006539,102.805677 C168.760762,102.402189 168.201124,102.273073 167.762712,102.516959 C167.32264,102.760845 166.107045,102.952726 165.949283,102.647868 C165.791522,102.343011 165.065818,101.796061 164.725385,102.195962 L164.722063,102.516959 L164.7121,103.467396 C164.144158,103.503262 163.220837,103.420771 162.662858,103.280895 C162.10488,103.142813 160.487408,103.363386 160.374484,103.318554 C160.26156,103.271929 159.705242,103.096188 159.411307,102.995764 C159.115712,102.898927 157.818745,102.981418 157.189359,103.196611 L156.780839,103.051356 L156.380622,102.907894 C156.126543,102.357357 155.63167,102.04174 155.282933,102.212102 C154.932536,102.378877 154.14871,102.933 154.185244,103.080048 L154.171959,103.216337 L154.160334,103.336487 C154.083944,103.46381 153.924522,103.546301 153.808277,103.517608 C153.690371,103.492502 153.25362,103.137433 153.007844,102.877408 C152.763728,102.613796 151.727483,103.167919 151.5664,103.184058 C151.406978,103.198405 150.712827,103.085428 150.377375,102.995764 L150.340841,102.854095 L150.217953,102.382463 C150.661346,102.382463 151.343873,102.346598 151.734126,102.299972 C152.124378,102.25514 152.300407,101.293943 151.920119,101.225799 C151.53983,101.159448 150.41391,101.216832 150.408928,101.530656 L150.246184,101.819374 C150.048567,102.174443 149.711455,102.712426 149.402574,102.730359 C148.549001,102.776984 149.221564,101.995115 148.864524,101.704604 L148.813044,101.663359 C148.730011,101.61494 148.382936,101.919797 148.040842,102.343011 C147.697088,102.764431 145.895283,102.751878 145.333984,102.785951 C144.772684,102.821816 144.159905,101.803234 143.990518,102.183409 C143.821132,102.565378 145.030085,102.845129 145.103153,102.904307 C145.176222,102.967072 145.212756,103.307795 145.023442,103.517608 L144.824164,103.544507 L144.571746,103.576786 C144.274489,103.45843 143.6368,103.008317 143.156873,102.576137 L143.038966,101.048264 C143.02236,100.843831 142.432829,100.474415 142.404598,100.495935 C141.393263,101.229027 141.327468,100.831224 141.325469,100.358643 L141.325176,100.087756 C141.32287,99.9775776 141.314659,99.8745637 141.288642,99.7929696 L141.272036,99.737378 C141.117595,99.6208149 140.966476,99.8234553 140.933263,100.185697 C140.90005,100.546146 140.554635,101.209659 140.230809,100.919148 C139.908643,100.63043 139.412108,101.930557 139.302506,102.179823 C139.194563,102.429088 138.689726,103.198405 138.490448,103.232477 C138.29117,103.266549 137.178535,103.196611 136.336586,103.25041 L135.57933,103.289862 L135.418247,103.297035 C135.243879,103.372353 135.097742,103.318554 135.09276,103.178679 C135.089439,103.040596 135.116009,102.705253 135.104384,102.445228 C135.09442,102.183409 135.695576,101.627493 136.036009,101.670532 L136.306694,101.731503 L136.555792,101.787095 C136.779979,101.973596 137.276514,102.213895 137.660124,102.319698 L138.03377,102.36991 C138.21312,102.39143 138.540268,102.301766 138.590087,102.190582 L138.796008,101.744056 C138.970376,101.236558 139.405466,100.813345 139.764166,100.806172 L139.878751,100.653743 C140.136152,100.30764 140.134491,99.769657 140.450014,99.5096317 L141.047848,99.0128936 C140.704094,98.58968 140.247415,98.2077118 140.031531,98.1646731 C139.815646,98.1198411 139.148065,98.4175253 139.148065,98.9447491 C139.148065,99.4719728 138.711315,100.834864 138.219762,100.851004 L137.925827,101.215039 C137.560485,101.663359 137.208427,101.711777 136.662073,101.306496 L136.384745,101.102063 C135.853337,101.371054 135.210666,101.962836 134.956587,102.414742 C134.704168,102.866648 133.415504,103.282689 133.613121,102.990384 C133.810739,102.696287 134.461713,101.82834 134.579619,101.634666 C134.699186,101.442785 133.983446,100.940668 133.853916,100.619671 L133.66128,100.474415 L133.196298,100.121139 C132.902363,99.627988 132.563591,99.0810382 132.440703,98.8999171 C132.319476,98.7170027 131.708357,99.3159576 131.535649,99.6118485 L131.542292,99.8826335 L131.545613,100.051202 C131.598754,100.273568 131.465902,100.838451 131.250018,101.310083 C131.034133,101.781715 130.97435,103.187645 130.891317,103.216337 C130.806624,103.248616 130.512689,103.201991 130.421354,103.047769 C130.331678,102.897134 129.855072,102.360944 129.64417,102.138577 C129.433267,101.918004 130.408068,101.385401 130.524314,101.200693 C130.637238,101.017779 130.630595,100.707541 130.260271,100.951427 C129.889946,101.19352 128.810524,100.495935 128.576372,100.562286 C128.342221,100.628637 128.601282,101.430232 128.6976,101.688465 L128.732473,101.928764 L128.767347,102.174443 C128.752401,102.432675 128.229297,102.561791 127.606553,102.463161 L127.098394,102.49006 L127.012041,102.493646 C126.930669,103.056736 126.747997,103.44767 126.606842,103.361593 C126.465687,103.273722 125.718395,103.307795 125.265038,103.444084 L125.251752,103.418978 L124.977745,102.900721 C125.452691,102.82361 125.788142,102.590483 125.723377,102.384256 C125.660272,102.179823 125.203594,101.722537 124.919623,102.034567 C124.635652,102.346598 123.601067,103.103361 123.179262,103.103361 C122.757457,103.103361 121.603306,103.071082 121.598324,103.035216 C121.596663,102.995764 121.820851,102.872028 122.106483,102.841542 C122.392114,102.811057 123.220778,102.441641 123.222439,102.097332 C123.222439,101.754816 124.416446,101.360295 124.642294,101.317256 C124.866482,101.272424 125.520778,101.010605 125.612113,100.881489 L125.57724,100.790032 C125.535723,100.677056 125.334785,100.499521 125.266698,100.519247 C124.125832,100.84921 123.001573,101.241938 121.769371,101.195313 L120.940707,101.164827 C120.540491,101.72433 120.045617,102.273073 119.839697,102.382463 C119.635437,102.493646 119.197025,101.909038 119.094065,101.83372 C118.992765,101.760196 118.509517,101.52169 118.28699,101.426646 C118.066123,101.333395 117.533055,100.976533 117.662585,100.863557 C117.792116,100.75058 118.283668,100.517454 118.46634,100.601738 L118.51948,100.723681 L118.810094,101.372848 C119.444462,101.270631 120.072187,101.112822 120.2067,101.024952 C120.339552,100.935288 120.580346,100.456482 120.573704,100.22515 C120.568722,99.9938167 119.671971,99.5777762 119.369733,99.5275644 L119.351466,99.4414871 C119.087422,98.1234277 118.293632,98.8712247 118.142513,99.3213375 C117.875149,100.130106 117.006629,100.200044 116.475221,100.634017 L116.001936,101.021365 C115.689734,101.523483 115.374211,101.722537 115.299482,101.464305 L115.262947,101.225799 L115.194861,100.797205 C114.635222,100.560493 113.798255,100.157005 113.336594,99.9023596 L113.253562,99.5939157 C113.049302,98.8317725 112.514573,98.8066666 111.818761,98.8120465 C111.518183,98.8138398 111.167786,98.4767035 110.926992,98.5412615 C110.69118,98.6040262 110.586559,98.9985474 110.38396,99.2173273 L110.314213,99.2944383 C110.050169,99.3231307 110.041866,99.466593 110.294285,99.6100552 C110.546703,99.7553108 111.011685,100.273568 110.799122,100.461862 C110.586559,100.65195 109.015585,99.9687108 109.201578,99.7445511 L109.289592,99.5239779 C109.553635,98.8712247 109.196596,98.4892564 108.436018,98.751075 C107.838185,98.9555087 107.677102,98.4910497 107.310098,98.4569774 L106.845116,98.4121455 C106.295441,98.4551841 105.259196,98.6524447 104.541796,98.8532919 L104.149883,98.6470649 L103.655009,98.3906261 C103.204973,98.4444245 102.525768,98.5932665 102.143818,98.7205893 C101.760208,98.847912 100.43335,98.4498043 100.139415,98.3888328 C99.8454798,98.3278614 99.0981876,98.4390446 98.7295235,98.4085589 C98.5460218,98.393316 98.1669786,98.3659686 97.7933325,98.377849 L97.714,98.381 L97.770881,98.4151884 C97.9891982,98.5608055 98.2406465,98.8157019 98.3633432,98.9769051 L98.4132128,99.0487592 C98.4341931,99.0832356 97.8281228,99.0992552 96.8247179,99.1013643 L96.435,99.101 L96.412782,99.1155336 C96.3344718,99.1409125 96.2221695,99.126463 96.1084116,99.1051281 L96.084,99.1 L96.0693965,99.1006579 C95.979046,99.1003449 95.8866581,99.0999558 95.7923373,99.0994926 L95.745,99.099 L95.7862118,99.0885226 L95.7862118,99.0885226 L95.884,99.063 L95.7953075,99.0534109 C95.739219,99.0519694 95.6969442,99.0621091 95.6781235,99.0935911 L95.675,99.098 L95.5036809,99.0978832 L95.5036809,99.0978832 L95.479,99.097 L95.4771926,99.078232 C95.475432,99.0395437 95.478292,98.9907765 95.4871488,98.9304028 L95.487,98.925 C95.382257,98.9189507 95.2809922,98.9049739 95.1845867,98.8819551 L95.138,98.868 L95.1017481,98.8809756 C94.9749306,98.9284414 94.8363783,98.9942884 94.7182922,99.0543071 L94.646,99.091 L94.5744024,99.0905138 C94.3581809,99.0884692 94.135901,99.0861615 93.9083991,99.0836074 L93.85,99.082 L93.8292186,99.0633091 C93.7824736,99.0174715 93.73765,98.9670028 93.6923003,98.9165808 L93.672,98.894 L93.2792727,98.9985474 C92.6797784,98.9196432 91.7265657,98.8640515 91.1602843,98.8766045 C90.9431225,98.8821223 90.5743896,98.9391039 90.1646317,99.0178588 L90.117,99.026 L90.208778,99.0288798 C90.5969935,99.0357872 90.9828697,99.0423264 91.3635836,99.0484413 L91.371,99.048 C91.3479395,99.0569903 91.3286925,99.0679473 91.3105915,99.0828315 C91.1295807,99.2316735 90.4819275,99.4235543 90.2510973,99.2011878 L90.019,99.046 L89.9147384,99.067487 C89.3242941,99.1882741 88.696775,99.3400979 88.33552,99.4414871 C88.2097258,99.4761198 88.0347154,99.489128 87.8280363,99.4881719 L87.613,99.482 L87.6570785,99.4596907 C87.8373452,99.374058 88.2715187,99.220826 88.4570995,99.2671787 L88.5140582,99.2944383 C88.6585346,99.4199677 89.1035886,99.1922214 89.229798,99.0702785 C89.2480651,99.0528581 89.2694502,99.0367186 89.2933239,99.0219907 L89.311,99.012 L89.0399371,99.0071084 L89.0399371,99.0071084 L88.2612771,98.9915319 C88.1318868,98.9888719 88.0027593,98.9861813 87.8739993,98.9834622 L87.592,98.977 L87.68874,98.9214364 C87.7197388,98.8815061 87.7691007,98.8529252 87.8323973,98.8333219 L87.867,98.825 L86.445,98.856 L86.3813637,98.8224506 C86.2644791,98.7569306 86.1540629,98.6885665 86.0596431,98.621959 L86.029,98.608 L86.2421945,98.5990157 C87.2278375,98.5553543 88.4327165,98.5137467 89.6776303,98.4786905 L90.3595675,98.4602458 C90.4735264,98.4572889 90.5875469,98.454393 90.7014944,98.4515614 L91.3832255,98.4353699 C92.5143928,98.4097599 93.6113286,98.3912539 94.5393963,98.383231 L94.658,98.382 L94.6692975,98.2274378 C95.1093695,98.015831 95.3053261,97.7593922 95.1043876,97.6607619 C94.903449,97.5603384 94.2574565,97.4688812 94.1046768,97.6751082 C93.951897,97.8831284 93.2793341,98.3924194 93.2876373,97.8903015 L93.2643882,97.648209 C93.2527637,97.5316459 93.1464821,97.3200391 93.1165905,97.3254189 L92.749587,97.377424 C92.3526918,97.4563282 92.1085764,97.2124424 92.204894,96.8340607 L91.5539195,96.9936625 L91.4310315,97.0241482 C91.3214286,97.1425046 90.8963024,97.1281583 90.4828008,96.9936625 C90.0692991,96.8573734 88.4867004,96.8519935 88.0300218,96.8753061 C87.5716827,96.8968255 86.1219359,96.2835244 85.7416472,96.3283563 C85.3630192,96.3731883 84.3566657,96.5614825 84.208868,96.1705478 C84.0594095,95.7778199 82.3223704,95.5411072 82.1662694,95.5823526 L82.1430203,95.5536602 L81.3342841,94.4723135 C79.9028045,94.3073319 78.6191226,94.1423503 78.4829494,94.0993116 C78.3467762,94.0598595 77.7007836,94.0795856 77.1909643,94.04372 C76.681145,94.0060612 74.578763,94.1351772 73.660424,94.2087016 L73.4777526,93.1883264 C73.4594855,93.0771431 73.0958033,92.8870557 73.0194134,92.9265078 L72.4929876,93.1972928 C71.9599192,92.985686 71.4085836,92.6682757 71.2674285,92.496121 C71.1262733,92.3203798 70.2062736,91.9904166 69.9355878,91.870267 C69.6632413,91.7483241 68.831256,91.5151979 68.7166712,91.5510635 C68.6020864,91.5887223 68.2234584,91.4757458 68.1337834,91.2085474 L67.9610758,91.0363927 C67.8647582,90.9431422 67.5309677,90.928796 67.378188,91.0005271 C66.7836755,91.2784852 66.1227371,91.328697 65.6976109,91.3520096 C64.7776112,91.4004281 65.2276472,91.0561187 65.2791273,90.6651841 C65.2853792,90.6170821 65.258533,90.5666965 65.2232716,90.516714 L65.1671537,90.4423781 C65.0640129,90.3078812 64.9905651,90.1865898 65.4601381,90.1343738 C65.7955892,90.0967149 66.1277191,89.9640124 66.4349392,89.82593 C66.7820149,89.671708 66.7222315,89.510313 66.4565276,89.2628406 L66.1692353,88.9974355 C66.4615096,88.7571362 67.0311123,88.2765377 67.4379713,87.930435 C67.8448304,87.5825391 68.3363826,86.2447536 67.8880073,86.1748158 L67.5608594,86.2124746 L67.1772494,86.2555133 C66.7703903,86.3935957 66.1393436,86.3595234 65.7773221,86.176609 C65.4153006,85.9936947 65.5016543,84.4299562 65.6394882,83.8094819 C65.7773221,83.1872144 66.0878635,81.5284322 66.0297408,81.5087062 C65.9749393,81.4871868 65.531546,81.7579718 65.2110407,82.1184207 L64.7759506,81.5230524 L64.5550843,81.2199884 C64.6381167,80.9330639 64.8938567,80.4219796 65.1246869,80.0848433 L64.7211492,79.9198618 L64.5069254,79.8319911 C64.0087307,80.0722904 63.7114744,80.0131122 63.8493083,79.7010818 L63.8775394,79.4410565 L63.9539292,78.7237453 C63.6002109,78.0207803 63.278045,77.1886992 63.2415107,76.8748756 C63.2033158,76.5610519 63.656673,75.5263304 64.3275753,75.2411992 C64.9968169,74.9542747 64.991835,73.3152185 64.5036041,73.4461278 L64.2196331,73.6541481 L63.9173949,73.8765146 C63.5703193,74.079155 62.899417,73.743812 62.4277926,73.1287176 L62.6735687,72.6068737 C62.7549405,72.4383056 62.7449766,72.2338719 62.8462762,72.0778567 C63.0870703,71.7012683 63.3693807,71.3479925 63.6317633,70.9821637 C63.9256982,70.5697098 64.2661313,71.5111808 64.6098857,70.9445049 L64.707864,70.7813166 C65.1180443,70.7024124 65.0715462,70.5248778 64.608225,70.3832089 L64.5866366,70.2307802 C64.551763,69.977928 64.7792719,69.6676909 64.9735679,69.4327715 C65.0765281,69.3090353 65.3671417,69.319795 65.5332067,69.2175781 C65.9350838,68.971899 66.0546505,68.2276886 65.6577553,68.1182986 C65.1662032,67.9802162 65.0350119,67.8062682 64.8523405,67.4207135 L64.7560228,67.218073 C64.0602108,67.1499285 64.1282974,66.8845233 64.9054812,66.6316711 C65.6843257,66.3788189 67.7800651,65.3136117 68.7532055,65.8874607 L69.9372484,65.7117194 C70.1714,65.6776471 70.6712554,66.1385196 70.7692337,66.4415836 L71.0116885,67.1911739 C71.5796305,66.9741872 71.8835293,66.4989685 71.6892334,66.1349331 L71.724107,65.8282825 C71.8303886,64.8975712 72.0097387,63.9686531 72.2339263,63.0558746 L72.2854064,62.8514409 C72.5976085,62.6828727 72.9911824,62.4856121 73.1605686,62.4192608 C73.3126103,62.3586879 73.6667181,61.914132 73.9593021,61.8123112 L74.0656224,61.7916135 C74.0747892,61.7915059 74.0544566,61.7912805 74.0063893,61.7909426 L73.8737978,61.7901186 C71.20548,61.7747477 41.9051142,61.6502135 42.009237,61.5871798 C42.1205005,61.5226218 42.4792007,61.201625 42.6087313,61.0671292 C42.7399226,60.9344266 43.3593448,61.4383377 43.4556624,61.5208285 C43.5503194,61.6033193 44.0701027,61.7073294 44.1132795,61.3379142 C44.1597777,60.9702921 44.5649761,60.3336784 44.9386222,60.5650113 C45.3122683,60.7963442 46.3385495,60.3013994 46.2621596,60.2260817 C46.1857698,60.1525573 46.1724846,59.8494933 46.4016542,59.7167908 L46.5278635,59.7670025 C47.050968,59.9678497 47.6537837,60.7210265 47.8248306,59.5159436 L47.8281519,59.4908377 C47.9892349,59.4854579 48.3844694,59.5589823 48.7049747,59.654026 C49.02548,59.750863 50.0683677,59.3653083 50.3706059,59.3473755 C50.6711834,59.3294427 51.6144321,59.4101402 52.0760926,59.4101402 C52.5377531,59.4083469 53.3265615,58.6533769 52.9977529,58.506328 C52.6689444,58.3610725 51.9598472,57.5702369 52.1375366,57.0699123 C52.3152261,56.5695877 50.5017971,55.1511047 50.6562375,55.1044795 C50.8139992,55.0596476 50.9817248,54.6185011 50.5067791,54.2777783 L50.516743,53.9908538 L50.5416527,53.3452737 C50.0650464,53.3309275 49.4954437,53.1533929 49.2745774,52.9489592 L49.1234583,52.7355591 L48.7846858,52.2549606 C49.0005702,51.7044242 49.0105341,50.7844726 48.8062743,50.2142101 L48.6800649,49.6744334 L48.6402094,49.5058653 C48.7116173,49.2817055 49.1666352,49.3229509 49.6515447,49.5991158 C50.1347937,49.8734873 51.6343599,49.3803358 51.6742155,49.2870854 C51.7140711,49.1956282 51.5596307,48.8315927 51.2507499,48.6881305 L51.1062735,48.7634482 L50.772483,48.9373961 C50.3407142,49.1669357 50.0584038,49.1651425 50.1430969,48.9338096 L50.2111835,48.7204095 L50.2809308,48.498043 C50.3473568,48.2505706 50.3058405,48.0820025 50.1895951,48.1250412 C50.071689,48.1662866 49.560209,48.2164983 49.3111116,48.1411807 C49.0603536,48.0676563 49.5552271,46.9881029 49.7478624,46.4572925 L50.4320499,46.3263832 C50.5665625,46.2994841 50.8106779,46.2403059 50.8090173,46.2098202 L50.7010751,44.9921843 C51.7821577,44.5223455 52.4347929,44.0058814 52.1524825,43.8444864 C51.8701721,43.6812981 50.7774649,43.8893183 50.6014361,43.8408998 C50.5289536,43.8209628 50.2638818,43.7386954 49.906507,43.621015 L49.5799198,43.5121014 C49.1205679,43.3569939 48.5780815,43.1656779 48.102159,42.978333 L47.0443254,43.164834 C46.5693798,43.2473248 46.5129177,42.9926793 46.3850477,42.6250573 L46.1957337,42.0763142 C45.8968168,42.4242101 45.2973224,42.5999514 44.863893,42.4744219 C44.4288029,42.3470992 43.083677,41.7822166 42.8163125,41.552677 L42.8511861,41.5096383 L43.2231715,41.0559389 C42.9906807,40.6022396 42.7116916,40.1467469 42.60541,40.0463234 C42.4991285,39.9423132 42.1404282,39.7952644 42.0474319,39.9458998 L41.9212225,40.0409435 L41.7352298,40.1826125 C41.497757,40.3009688 41.0161687,40.501816 40.6641111,40.6237589 C40.3137141,40.7457018 39.2044004,40.9555153 39.0283716,40.8030867 C38.8540034,40.6488648 38.4903212,39.972799 38.6729926,39.6930476 C38.8540034,39.4168827 40.1725589,39.8705821 40.6940028,39.883135 L40.7753746,39.5872442 C40.863389,39.2698339 40.5827393,38.5579025 40.4349415,38.5525227 L38.1050506,38.4610655 C38.4106101,37.038996 38.3857003,35.8392929 38.0485885,35.7926677 C37.7131374,35.7460425 37.1352314,36.4023823 37.0488777,36.323478 C36.9608633,36.2463671 36.7101052,36.020414 36.6802136,35.9953081 C36.6519825,35.968409 36.4626685,35.6599651 36.3264953,35.3658675 C36.190322,35.0717699 36.6519825,34.0711207 36.8064229,33.8308215 L36.8512604,33.5994886 L36.8927767,33.3842952 C36.8329933,33.1332363 36.6005024,32.9539085 36.3763147,32.9843942 L36.1753762,33.0256396 L36.0142932,33.0597119 C35.8415857,33.1135102 35.6489504,33.0292262 35.589167,32.8696244 L35.6472897,32.7943067 L35.9594918,32.3854393 C36.4958815,31.7757248 36.4327768,31.4601078 35.8199973,31.6824743 L35.4762429,31.7075802 L34.8219471,31.7559987 C34.0746549,31.7362727 33.4253411,31.5121129 33.3805035,31.2556741 L33.3937887,31.0727598 L33.5316226,29.1916111 C32.6415146,28.4115351 31.7929229,27.7157432 31.6451251,27.6422188 L31.6002875,27.5453818 L31.4209374,27.1508606 C31.4823814,26.682815 31.3163165,25.9009458 31.0539339,25.4149674 L30.6753059,25.276885 C29.7220933,24.9325756 29.742021,24.3192745 29.7901799,23.6270691 L29.808447,23.3670438 C29.8001438,22.8774789 29.3102522,22.678425 28.7207218,22.9223108 L29.107653,22.2928702 C29.4663533,21.7100549 28.8203607,21.7244011 28.6293861,21.4876884 C28.5762453,21.4213371 28.2125631,22.2354853 28.0249097,21.4805153 L28,21.3782984 C28.3005775,21.2061437 28.5978337,21.033989 28.6609384,20.9981234 C28.7240431,20.9586713 28.5463536,20.3561299 28.1145848,19.7446221 L28.2706858,19.0488302 C28.3105414,18.8677091 28.4483753,18.6883813 28.4284475,18.5216064 L28.4068591,18.3261391 C28.2723465,18.1217054 28.3072201,17.9872095 28.4815883,18.0284549 C28.6576171,18.0697003 29.4049093,17.9585171 29.7204326,17.6841455 C30.0376166,17.4115673 29.5742955,16.371466 29.8001438,16.2907685 L29.8566058,16.3356004 C30.447797,16.803646 30.9659195,16.8933099 31.4790601,16.2351768 L31.9207928,15.668501 C32.3973992,16.0701952 32.824186,16.2208306 32.8690236,16.0056372 C32.9155217,15.7904439 33.6594926,15.0480267 34.4217306,14.8328334 L34.9431745,15.8065834 L35.2138603,16.3104945 C35.9462066,15.7491985 36.4244736,15.2506672 36.2766758,15.2058352 C36.1305387,15.1610033 35.7618745,14.9189107 35.8067121,14.7754485 L35.839925,14.7772417 C36.1919827,14.791588 36.545701,14.8256603 36.896098,14.8722855 L37.0588416,14.8920115 C37.2315491,14.9511897 37.4441122,14.8507661 37.5288053,14.6732316 C37.6151591,14.4974904 38.2163141,14.5907408 38.2744368,14.4687979 C38.3325595,14.3450617 38.6696713,14.0025456 38.7825955,14.217739 C38.8971803,14.4311391 39.556458,14.6911644 39.8869272,14.1137288 L40.1459885,13.8393573 L40.2888043,13.6923085 C40.5860606,13.6510631 41.1456994,13.7568665 41.5293093,13.9290212 C41.9145799,14.1011759 43.3178286,13.7048614 43.5968176,13.8877758 C43.8758067,14.0671036 44.6961674,14.4813509 45.0050482,13.9577137 L45.2690914,13.5972648 L45.5298133,13.2421957 C46.0114016,13.2081234 46.6241812,13.2995806 46.8898851,13.4466294 C47.1555889,13.5954715 47.6936393,12.8781602 48.0141446,12.8889199 C48.3329892,12.8996796 49.243025,13.10232 49.3625918,13.199157 C49.4804979,13.295994 50.0368154,13.4412496 50.1696673,13.1435654 C50.3008586,12.8458812 50.9152988,12.1178103 51.2241796,12.2325801 C51.5330603,12.3437634 52.2803525,12.1823683 52.5228073,12.0855313 C52.7669227,11.986901 53.4610741,12.2809986 53.5839621,12.1895415 L53.6005686,12.096291 L53.6620126,11.7519816 C53.9476443,11.8004001 54.7032397,12.0801515 55.340929,12.3778357 L55.4206402,11.4381579 L55.4272828,11.3664268 C55.5651167,11.3036621 56.1994847,11.1261275 56.837174,10.9701124 C57.4732026,10.8140972 59.6121189,11.1691662 60.1667757,11.142267 L60.5669922,11.2462772 C60.9788332,11.3556671 61.2511796,11.8470253 61.2744287,11.0382569 C61.2760894,10.9539728 61.7510351,10.7925778 61.7659809,10.8123039 C62.2658363,11.4507109 63.0181104,10.9342468 63.1592656,10.7656786 C63.6126229,10.2223154 64.2486515,10.961146 64.7352217,10.4482684 L64.9195538,10.2545944 C65.7017196,10.5020668 66.4357266,10.7244333 66.5503114,10.7495391 C66.6665568,10.7728518 67.280997,10.4410953 67.7111052,10.0860263 C68.142874,9.72916391 69.6241731,10.355018 69.7055449,10.3137726 L69.7055449,10.2761137 L69.6723319,9.31670995 C70.3930537,9.51397054 71.4674937,9.42072008 72.0620062,9.10510313 L72.5768074,9.84572699 L72.8308868,10.2115557 C73.3656158,9.96229006 74.0713917,9.63591345 74.4002003,9.48348481 L74.7406334,9.40996041 L74.8485756,9.38485452 C74.9598391,9.34898895 75.3384671,9.34181584 75.6905248,9.37050829 C76.044243,9.40099402 77.2830874,9.29160406 77.6517515,9.36333518 C78.0204156,9.4350663 78.942076,9.02799218 79.0334117,9.13020903 C79.126408,9.23242588 79.5133393,9.48169153 79.5947111,9.34898895 L79.6794042,9.23959899 L79.7707399,9.12124264 C79.8853247,8.99571317 80.0098734,8.97240055 80.0480683,9.06744429 C80.0846026,9.16428131 80.2705953,9.48707137 80.3652524,9.53728315 L80.4532668,9.51397054 L81.1158658,9.3454024 C81.8664793,9.20552671 82.5888617,9.03695857 82.7233743,8.96522744 L82.8196919,8.8701837 L83.4939155,8.18694475 C84.0053955,8.81817864 84.5301606,9.17683426 84.6613519,8.9849535 C84.7925432,8.79307275 85.2259727,8.40034484 85.3555033,8.50435497 C85.4585822,8.58607722 85.6549539,8.35781853 85.7456572,7.89525539 L85.754,7.842 L85.896265,7.8307134 L85.896265,7.8307134 L86.144,7.81 L86.7554306,8.40751796 L86.9231562,8.57070626 C87.421351,8.47924908 88.0673435,8.42365746 88.3629391,8.44697007 C88.6552133,8.46848941 89.3360795,8.61912477 89.3560073,8.38599862 C89.3759351,8.15287247 90.3789672,8.12059346 90.5350683,8.28736832 C90.6674457,8.42878111 90.8864481,8.23291123 90.9327236,7.73137892 L90.938,7.637 L90.8414396,7.63640838 C90.7256094,7.62295879 90.5670433,7.58529995 90.390875,7.53203749 L90.282,7.497 L90.5180227,7.48051531 C91.1093415,7.43798141 91.6818316,7.3979581 92.2085738,7.36274634 L92.345,7.353 L92.4151793,7.32525618 C92.7221147,7.20345348 92.9980695,7.10360553 93.1530634,7.06076611 C93.4337131,6.98365515 94.8170339,6.86709207 95.5560228,6.8652988 L96.2302464,6.84377946 L96.4278637,6.83660635 C96.6404268,6.74156261 96.8463473,6.80432734 96.8845422,6.97468876 C96.9227371,7.14684346 97.7198488,7.05359299 97.8327729,6.9137173 C97.9456971,6.77563489 98.433928,6.48153728 98.6116174,6.63755248 C98.7909675,6.79536095 99.4120504,7.05359299 99.664469,6.92447697 C99.9168877,6.79715423 101.001292,6.42773894 101.514432,6.3900801 L101.682158,6.6196197 C102.050822,7.12353084 102.48093,6.12288166 102.884468,6.75949539 L103.055515,7.03207366 C103.686561,6.73618277 104.3475,6.60527347 104.525189,6.73797605 C104.701218,6.87426519 105.24259,7.14863673 105.292409,7.02310727 C105.342229,6.89578452 105.569738,6.59810036 105.685983,6.64113903 C105.802229,6.68417771 106.184178,6.62858609 106.275514,6.42415238 C106.366849,6.2179254 107.848148,6.28427669 108.724971,6.10674216 L109.688148,6.38290699 C110.46201,6.60527347 111.506559,6.69493738 112.434862,6.11032872 L112.879916,5.83057734 C113.721865,5.97583286 114.497388,6.19102623 114.600348,6.30758931 C114.704969,6.42594566 115.213128,6.47077761 115.470528,6.0870161 C115.726268,5.70146131 116.900347,6.35780109 116.981719,6.20716573 C117.06143,6.05653037 117.39356,5.70325459 117.441719,5.94893369 C117.488217,6.19461279 117.7506,6.47795073 117.939914,6.15336739 C118.129228,5.83057734 119.510888,6.30758931 120.07883,6.15874723 L120.754714,6.26275736 L121.643162,6.39904649 C122.715941,6.0134917 123.654208,5.81085128 123.728937,5.94893369 C123.802006,6.0870161 124.089298,6.36676749 124.173991,6.21075229 C124.260345,6.05294382 124.645615,5.64945625 124.859839,5.62973019 L124.93789,5.69787476 L125.570597,6.25737752 C126.415868,6.16950689 127.561716,6.13543461 128.116372,6.18026656 C128.671029,6.22330524 130.408068,5.96148664 130.814927,6.28965653 L131.294855,5.69070164 C131.376227,5.59027807 131.974061,5.87002945 132.327779,5.85747651 L133.370667,5.82699078 C134.516515,5.74987982 136.120702,5.56158562 136.932759,5.40915698 L137.540557,6.04397743 L137.663445,6.17130017 C138.062001,6.09777577 138.663156,6.04039087 139.001928,6.04577071 C139.340701,6.05115054 140.171025,6.23227163 140.205899,6.02425137 C140.242433,5.81802439 141.350086,5.93100091 141.735357,6.34345487 L142.334851,5.82699078 L142.529147,5.66021592 C143.070519,5.76601932 143.71319,5.8825824 143.957305,5.91486141 C144.203082,5.94893369 145.098171,6.05653037 145.42698,6.06191021 L145.725897,6.06191021 C145.951745,6.06191021 146.185897,6.09956905 146.396799,6.05294382 C146.630951,5.99914548 146.831889,5.83237061 147.066041,5.78753866 L147.205535,5.76243277 C147.388207,5.84851012 147.746907,5.84492356 148.002647,5.75346638 C148.260048,5.66200919 149.050517,5.9561068 149.444091,6.24123802 L149.430805,5.49523433 L149.430805,5.4898545 C149.669939,5.48447466 150.521852,5.7104277 151.323945,5.99017909 L152.064595,6.02245809 L152.644162,6.04577071 C153.298457,5.76243277 153.954414,5.47371499 154.100551,5.40377715 C154.246688,5.33204603 154.784738,5.66918231 155.015569,6.10494888 L155.721345,5.87182273 C156.088348,5.74987982 156.754268,5.63152347 156.890442,5.78574538 C157.180225,6.11122536 157.37203,6.00721523 157.55823,5.85545907 L157.682547,5.75140405 C157.82898,5.631529 157.984441,5.53408869 158.192391,5.63869658 L158.657372,5.87361601 C159.318311,5.90410174 160.166903,6.02604465 160.542209,6.144401 L160.660115,6.04218415 L161.367552,5.42170993 C162.124808,5.73194704 162.865458,5.8825824 163.011595,5.75705293 C163.159393,5.62793691 163.728995,5.39839731 163.880114,5.59386463 C164.029573,5.78753866 164.481269,6.33807504 164.511161,6.33628176 C164.539392,6.33448848 164.987767,6.13005478 165.396287,5.93638074 C165.804807,5.74270671 167.505312,5.71760082 168.048344,5.79471177 C168.593037,5.87361601 170.049426,5.72836048 170.469571,5.89334207 C170.891375,6.05832365 171.969137,5.45219566 172.341122,5.66380247 L172.352747,5.64945625 L173.379028,4.39954142 C174.7391,4.92855845 176.124081,5.35356536 176.457872,5.34639225 C176.791662,5.33742586 177.414406,5.22265606 177.372889,5.57055201 C177.333034,5.92024124 178.633322,5.24238212 178.967113,5.10609299 C179.302564,4.96980385 180.026607,5.07381398 180.274044,5.12402577 C180.52148,5.17423755 181.15917,4.99311647 181.217292,5.11685265 C181.275415,5.23879556 181.574332,5.55082595 181.690577,5.40019059 C181.806823,5.24955523 182.569061,4.87834667 183.148627,4.88193322 L183.626894,5.12761232 L185.055053,5.59386463 L185.382201,5.3750847 C185.810648,5.08636693 186.220829,4.93931812 186.295558,5.05229464 C186.368626,5.16527116 186.946532,5.57593185 187.306893,5.78933194 L188.06747,5.13299216 L188.153824,5.05767448 C188.341478,5.06126103 188.670286,5.17603083 188.882849,5.31411324 C189.095412,5.45219566 190.405665,5.39839731 191.209419,5.07381398 L191.274184,5.0146358 L191.576422,4.72950459 C191.956711,4.87655339 192.175917,5.46295533 192.064653,6.03321776 L193.039454,5.47550827 L193.778443,5.05229464 C193.728624,5.58669151 193.74357,5.71580754 193.814977,5.34101242 C193.886385,4.96442402 194.955843,5.53827301 195.012306,5.52392678 C195.068768,5.50778728 195.547035,5.42708976 195.947251,5.33742586 C196.349128,5.24776195 197.847034,5.68711509 198.248911,5.78574538 C198.650788,5.88437568 199.642196,5.38046453 199.789993,5.51137383 C199.939452,5.64048986 200.354614,5.98838581 200.389488,5.99914548 C200.424361,6.00990514 200.623639,5.87361601 200.799668,5.71939409 C200.974036,5.56517218 201.756202,5.38943092 202.068404,5.49702761 L202.36566,5.51854695 C202.538368,5.53289317 202.845588,5.24955523 202.895407,5.28900735 L203.398584,5.69608148 C203.915046,5.48806122 204.853313,5.49164778 205.48436,5.70325459 L206.072229,5.88437568 L206.306381,5.9561068 C206.596995,5.95431352 206.975623,5.84492356 207.14833,5.71580754 C207.319377,5.58669151 208.041759,5.55261923 208.269268,5.40019059 C208.496777,5.24776195 209.941542,5.58131168 210.648979,5.62614363 L211.309917,5.67276886 L211.871217,5.7104277 C212.462408,5.87540929 213.040314,5.91844796 213.156559,5.80367816 C213.272805,5.68711509 213.960313,5.45398894 214.425295,5.53468645 L214.782335,5.69070164 C215.157641,5.85568323 215.469843,6.37573388 215.491432,5.5221335 C215.493093,5.49702761 215.7671,5.45219566 215.908255,5.46295533 C216.775114,5.52392678 217.666882,5.74091343 218.498868,5.6207638 L219.139878,5.52930662 C219.646376,5.73912015 220.172802,5.9238278 220.312297,5.94355386 C220.451791,5.96148664 221.084499,5.83595717 221.434896,5.74808654 C221.783632,5.65662936 223.945797,5.81802439 224.545292,6.00093875 C225.143125,6.18743968 226.803775,5.29080063 227.187384,5.30514685 C227.572655,5.31949308 228.99085,5.13657871 229.475759,4.91779879 C229.962329,4.70081214 231.08825,5.62793691 231.21612,5.61179741 C231.34565,5.59386463 232.066372,5.12223249 232.373592,5.48268139 L232.690776,5.5472394 C233.021245,5.61179741 233.49287,5.21727623 233.791787,5.30694013 L234.412869,5.49164778 C234.741678,5.15989133 235.211642,4.90165928 235.455757,4.91959206 L235.608537,5.01642908 L235.892508,5.20113672 C236.15489,5.45757549 236.498645,5.55441251 236.656406,5.4163301 C236.812507,5.27824768 237.234312,5.10609299 237.264204,5.32307963 C237.292435,5.53827301 238.247308,5.57593185 238.403409,5.40377715 C238.55951,5.23341573 239.245359,5.00746269 239.393156,5.20472328 C239.539294,5.40019059 240.032506,5.94714041 240.128824,5.9399673 L240.162037,5.87720257 C240.638643,4.98594335 241.354383,5.72477393 241.945574,5.68352853 L242.231206,5.66200919 C242.648029,5.52392678 243.139581,5.44502255 243.323913,5.48447466 C243.509906,5.52572006 244.014743,5.57234529 244.343552,5.70504787 C244.67236,5.83595717 246.087233,5.4486091 246.686728,5.61359069 L247.350988,5.4647486 C247.717991,5.38405109 248.222828,5.7355336 248.569904,5.63511002 L249.164416,5.46295533 C249.752286,5.57593185 250.65734,5.70504787 251.175463,5.75525966 L251.658712,5.67635542 L252.505643,5.53827301 C253.455534,5.46295533 254.360588,5.38763765 254.515028,5.37149814 C254.669469,5.35535864 255.167663,5.69249492 255.403476,5.98300597 C255.639288,6.27351702 256.6938,5.81623111 256.869829,5.94893369 C257.045858,6.08342955 257.605497,6.33986831 257.723403,6.22151196 L257.701814,6.13364133 C257.635388,5.8664429 257.377988,5.40377715 257.416183,5.38763765 L257.9725,5.12761232 C258.097049,5.53289317 258.321236,5.90589502 258.469034,5.95431352 C258.618493,6.00273203 259.040297,5.85747651 259.189756,5.73732687 C259.339214,5.61359069 259.86564,5.39660404 260.036687,5.53827301 C260.207734,5.6781487 260.686001,5.55620579 260.724196,4.96442402 L261.592715,5.35715192 L261.619286,5.36970487 C261.481452,5.67456214 261.83351,5.84671684 262.401452,5.75525966 C262.969394,5.66200919 264.326144,6.35959437 264.449032,6.25020441 L264.445711,6.15336739 L264.425783,5.47550827 C264.945566,5.60103774 265.476974,5.80547144 265.608165,5.93279419 C265.737696,6.06011693 266.179429,6.3165557 266.215963,6.09956905 C266.254158,5.88078912 266.641089,5.5472394 266.999789,5.81085128 C267.35849,6.07266988 268.823182,5.66021592 269.223399,5.65124953 C269.623615,5.64407641 270.669824,6.13184805 270.751196,6.29862292 C270.834228,6.46898434 271.916972,6.15157411 272.059787,5.98121269 C272.205925,5.809058 272.984769,5.64048986 273.240509,6.2591708 L274.012711,6.06549677 C274.398943,5.96865975 274.30637,5.8134791 274.164945,5.66876007 L274.068144,5.57458565 C273.942007,5.45309975 273.852764,5.35196085 274.102386,5.31949308 L274.703541,5.24238212 C275.3037,5.25636969 276.619827,5.26901031 277.817375,5.27213247 L279.557619,5.27286785 C280.157113,5.27286785 280.756608,5.24955523 281.354441,5.28004096 L281.854297,5.30335358 C282.389026,5.39481076 283.237618,5.16885772 283.740794,4.79944243 L284.278845,5.47012844 L284.601011,5.87002945 C284.645848,5.50958056 284.924837,4.99670302 285.222093,4.73309114 L285.474512,5.0146358 L285.87971,5.46833516 C286.367941,5.33025275 287.078699,5.14733838 287.460649,5.06305431 C287.842598,4.97877024 289.10137,4.74743737 289.403608,4.56272972 C289.705846,4.3762288 290.825124,4.89807273 291.220358,4.92317862 C291.613932,4.94828451 292.778047,5.12581904 292.980647,5.02001564 C293.183246,4.91600551 294.000285,4.67391296 294.531693,4.55914317 L294.930249,4.33677668 L295.685844,3.91714961 C296.00801,4.41388764 296.300284,4.65598018 296.333497,4.45692632 C296.368371,4.25607917 296.835013,3.75037475 297.275085,3.91176978 C297.716818,4.0731648 299.194796,4.48561877 299.643171,4.48561877 C300.089886,4.48741204 301.675806,3.77189408 302.534362,3.75037475 L303.24678,3.78624031 C303.974145,3.82210587 304.65335,3.68223018 305.350823,3.70374952 L305.83075,3.71988902 C306.221003,3.5082822 306.900208,3.45089731 307.343602,3.59615283 L307.566129,3.4760032 C308.263601,3.09762152 308.469522,3.26977622 308.547573,3.90101011 L308.554215,3.95480845 C308.944468,3.9673614 309.836236,3.57822005 310.533709,3.09224169 L311.581579,3.8364521 L311.68786,3.91176978 C311.804106,3.99426057 311.907066,3.79699998 311.91869,3.47062336 C311.930315,3.14604003 313.278762,3.51724859 313.592625,3.61408561 C313.908148,3.71271591 315.032408,3.61229233 315.364538,3.52980154 C315.698328,3.44731075 316.741216,3.19087198 317.00858,3.25722327 C317.277606,3.32357456 318.323815,2.95953911 318.918327,3.0258904 C319.511179,3.09224169 321.261503,2.97926517 321.5106,3.08148202 C321.759698,3.18728543 322.291106,3.62484528 322.344246,3.48676287 C322.399048,3.35047373 322.719553,3.11914086 322.842441,3.51724859 L323.025113,3.58539316 L323.327351,3.69836968 C323.717603,3.64995117 324.599408,3.57104694 325.281935,3.52262843 L325.677169,3.26080983 L326.205256,2.9111206 C326.593848,3.1155543 327.050526,3.28412244 327.221573,3.28412244 C327.390959,3.28412244 327.849299,3.08148202 327.993775,2.99719795 C328.138252,2.91291388 329.113053,3.14245347 329.637818,3.26798294 C330.160922,3.39171913 331.675434,2.95774583 331.811608,2.91470716 C331.947781,2.8698752 332.633629,3.67147051 332.676806,3.44193091 C332.721643,3.20880476 333.19991,2.67978773 333.65991,2.67799445 L334.066769,2.70489362 L334.589874,2.7389659 C335.146191,2.98643828 335.931678,3.12810725 336.335216,3.05637612 C336.737093,2.984645 337.985902,2.60267677 338.291461,2.53991203 C338.59702,2.47535402 339.385829,2.80173064 339.432327,2.58653726 C339.480486,2.37134389 339.709655,1.81901424 339.844168,1.82977391 L339.910594,1.88715881 C340.442002,2.34444472 340.888716,2.88242815 341.79211,2.32651194 L342.052831,2.16691019 C342.56099,2.2727136 343.177091,2.33189177 343.422867,2.29781949 C343.668643,2.26374721 344.410953,2.51659942 344.575358,2.53632548 L344.716513,2.50404647 L345.256224,2.38569012 C345.847415,2.2476077 346.715935,2.18663625 347.184238,2.25119426 L347.616006,2.2888531 L347.948136,2.31575227 C348.398172,1.95171682 348.891385,1.82798063 349.044165,2.03600089 C349.196944,2.2476077 349.685175,2.50763303 349.907702,2.31216572 C350.130229,2.11490513 351.015355,1.70603772 351.249507,1.95171682 C351.485319,2.19560264 352.292395,2.41617585 352.994849,2.47356074 L353.556149,2.57039776 L354.109145,2.66723478 C354.516004,2.49508008 355.181924,2.3300985 355.588783,2.30319933 L355.942502,2.12925135 L356.113549,2.04496728 C356.375931,2.09159251 357.257736,1.93737059 358.073115,1.70245116 L358.875208,2.27450688 L359.298674,2.57757087 C360.105749,2.53273892 360.803222,2.24940098 360.846399,1.94813026 C360.889576,1.64865282 361.880983,1.85308652 362.123438,1.97144288 C362.365893,2.08979923 363.360622,2.16332363 363.68943,2.22967492 C364.0199,2.29602621 364.828636,1.87639914 364.896722,1.91047142 C364.964809,1.94454371 365.258744,2.17587658 365.429791,2.31575227 C365.600838,2.45562796 366.877877,2.74255246 366.683581,2.53991203 C366.489285,2.33727161 366.529141,2.11311185 367.103725,2.38569012 L367.724808,1.76342262 C367.98553,1.5033973 368.868995,1.69348477 369.465168,1.72755706 L369.90524,1.75445623 C370.240692,2.05214039 370.597731,2.31037244 370.699031,2.32471866 C370.80033,2.34265144 371.633976,2.35699767 372.449355,2.43948846 L373.012315,1.77418229 L373.10199,1.66837888 C373.890799,1.96426977 374.462062,2.04138072 374.369066,1.84232686 C374.27773,1.64327299 374.129932,1.13756856 374.198019,1.06583744 C374.266105,0.992313039 374.845672,0.877543241 375.372098,0.798639005 C375.900184,0.719734769 377.361556,1.20391985 377.600689,1.07480383 L377.711953,1.12860217 L378.225093,1.38145439 C378.839533,1.35276194 379.580183,1.46035862 379.869136,1.61816709 C380.159749,1.77597557 381.20928,0.870370129 381.87354,0.429223718 L382.522853,0.673109539 L383.276788,0.954654199 C383.721842,0.579859078 384.143647,0.266035411 384.213394,0.258862299 C384.283142,0.251689187 384.552167,0.176371507 384.758087,0.0311159812 C384.965668,-0.114139544 385.835849,0.289348027 386.063358,0.414877493 Z M84.073,98.958 L84.7850519,99.3123711 C85.138874,99.2613747 85.7342686,99.315068 86.3483176,99.376141 L86.8740144,99.428027 C87.1339478,99.452604 87.3856091,99.4734299 87.6114509,99.4828446 L87.613,99.482 L87.6023617,99.4881123 L87.6023617,99.4881123 C87.4661885,99.5688098 86.7521093,99.7068922 86.052976,99.8324217 L85.4335538,99.6154351 C85.1113879,99.5042518 84.8058284,99.3589963 84.495287,99.2245004 C84.4234883,99.1934873 84.3539652,99.1505789 84.2851387,99.1040734 L84.1479466,99.0087249 C84.1250802,98.9928537 84.1021742,98.9771974 84.0791701,98.9620635 L84.073,98.958 Z M80.276,98.738 L80.3060599,98.7415967 C80.5349241,98.7608471 80.9201242,98.7814383 81.4257965,98.8026605 L81.476,98.804 L81.4265361,98.8660001 C81.3732777,98.9340707 81.3175161,99.0115273 81.2586816,99.098971 L80.8435193,99.7140654 C80.666162,99.2761468 80.469674,98.9363565 80.3125234,98.7725513 L80.276,98.738 Z M91.527,99.051 L91.7424721,99.0544127 C92.3707366,99.0641226 92.9820472,99.0726024 93.5633343,99.0795935 L93.85,99.082 L93.9010828,99.1280073 C93.9257218,99.1480257 93.951147,99.1663016 93.9776643,99.1822502 L94.035,99.21 L93.8999098,99.2085259 C93.8522612,99.2081492 93.8065473,99.2080621 93.7633704,99.2083609 C93.2435872,99.2119475 91.89514,99.4450736 91.8419992,99.3123711 C91.8091184,99.2316735 91.6895516,99.1115956 91.5600608,99.0605948 L91.527,99.051 Z M94.646,99.091 L94.8940861,99.0933813 C94.999063,99.09427 95.1024207,99.0950909 95.2040547,99.0958419 L95.479,99.097 L95.4831269,99.1288963 L95.4831269,99.1288963 L95.494,99.164 C95.4374346,99.1796124 95.3984871,99.190204 95.3725395,99.1976013 C95.2514505,99.2321219 94.9003731,99.2288093 94.5259861,99.2207676 L94.389,99.217 L94.4342972,99.2047744 C94.4509037,99.1971529 94.5282277,99.1534418 94.6340681,99.0978502 L94.646,99.091 Z M86.639,98.956 L86.7279032,98.9582766 C86.9791319,98.9640196 87.233085,98.9696734 87.4889262,98.9752215 L87.592,98.977 L87.3981264,99.0900046 L87.2304008,99.1886349 C87.0958882,99.1548188 86.9223335,99.0887237 86.741894,99.0058774 L86.639,98.956 Z M82.646,98.847 L82.6807064,98.8488436 C82.8691286,98.8550611 83.0652941,98.8612888 83.2683664,98.86751 L83.449,98.872 L83.3916127,98.9044206 C83.3326027,98.9427448 83.2710955,98.9942224 83.2066232,99.0613121 C83.1617857,99.1061441 82.8462623,99.0415861 82.7549266,98.9519222 L82.6713937,98.8707264 L82.6713937,98.8707264 L82.646,98.847 Z M92.7,98.72 L88.448,98.813 L88.4992033,98.817565 C88.8677272,98.854175 89.2713314,98.9281202 89.5201483,98.9377051 L89.529,98.937 L89.4613932,98.9516085 C89.4300829,98.9601671 89.4000024,98.9703987 89.3717811,98.9821726 L89.311,99.012 L89.4300647,99.0145904 L89.4300647,99.0145904 L89.986,99.024 L89.8558627,98.9375759 L89.77,98.925 L89.9290652,98.9075847 C90.260293,98.8672912 90.6249797,98.8049472 90.8135147,98.8002536 L90.8921324,98.8030801 C91.0797858,98.828186 91.7473668,98.8586717 92.3767528,98.8676381 L92.3767528,98.8676381 L92.7,98.72 Z M86.445,98.856 L86.5603507,98.9180224 L86.5603507,98.9180224 L86.639,98.956 L86.3532081,98.9495972 C85.7324703,98.9350269 85.1313744,98.9199509 84.5629902,98.9046277 L84.423,98.9 L86.445,98.856 Z M96.824,98.631 L95.799,98.653 L95.7619417,98.7037649 C95.711948,98.7665192 95.6642636,98.8115341 95.6208495,98.8084599 C95.5554981,98.803713 95.4816653,98.8088508 95.4046443,98.816896 L95.399,98.817 L95.414795,98.8179307 C95.4503685,98.8246835 95.4749579,98.8420839 95.4845383,98.873158 L95.487,98.925 L95.641492,98.9293947 C96.1117583,98.9255774 96.5929487,98.7826543 96.8226365,98.6326059 L96.824,98.631 Z M81.5046175,98.7708586 C81.9117977,98.3001797 82.1769938,98.4109714 82.5917942,98.7954955 L82.646,98.847 L82.4039852,98.8395269 C82.1332805,98.830222 81.8809392,98.8209585 81.6497845,98.8117922 L81.476,98.804 Z M95.9984591,98.3808414 C95.6599807,98.3779548 95.2590898,98.3781958 94.8126159,98.381142 L94.658,98.382 L94.6560123,98.4103522 C94.6503466,98.4882015 94.6542425,98.5528713 94.6661317,98.6064287 L94.673,98.627 L94.6875033,98.6237523 L94.6875033,98.6237523 L94.75,98.676 L95.799,98.653 L95.8126327,98.6362216 C95.846843,98.5887494 95.8817893,98.5378893 95.9168905,98.4926338 L95.9695858,98.4300782 L96.016,98.38 Z M18.3456057,74.1454912 C18.7480782,73.7970571 18.8564362,74.1706558 19.1021767,74.2732503 L19.1021767,74.2732503 L19.3769416,74.3874592 C19.7020155,74.4590818 19.9825853,74.6913711 20,74.9023673 L20,74.9023673 L19.9187315,75.0010902 C19.8631453,75.0669055 19.8071113,75.1408478 19.7504318,75.2179372 L19.5782592,75.4536676 C19.3746708,75.7280823 19.1607533,75.980049 18.9280299,75.9960629 C17.9237836,76.0657497 18.6958342,75.1907932 18.2856218,74.919789 C17.7864011,74.5907124 18.0302066,74.4223026 18.3456057,74.1454912 Z M24.1340896,65.4529994 C24.4380896,64.9489002 24.7840896,64.8512065 24.9080896,65.2322118 L24.9080896,65.2322118 L24.8740896,65.4998924 C24.8040896,66.0704233 24.9940896,66.4006278 25.7840896,66.4475207 L25.7840896,66.4475207 L25.8840896,66.4533824 C26.0100896,66.8343876 25.7720896,67.0708062 25.3580896,66.9809281 C24.9420896,66.889096 23.8300896,65.9570986 24.1340896,65.4529994 Z M92.468008,7.34555208 L92.345,7.353 L92.2280203,7.40069193 C92.1017289,7.45236491 91.97336,7.50642892 91.8486724,7.56064053 L91.6651217,7.64178821 L91.16,7.638 L92.0014215,8.33937339 C92.1077031,8.42903729 92.6939123,8.08293462 93.0509519,7.9287127 L93.2386052,7.84801519 C93.4229373,7.74400506 94.1951392,7.4785999 94.9540559,7.25623342 C95.1989876,7.18520137 94.0853677,7.23932942 92.468008,7.34555208 Z M85.776,7.682 L85.7676251,7.76334946 L85.7676251,7.76334946 L85.754,7.842 L85.6506466,7.85018142 C84.7671408,7.92037831 84.0767063,7.97710143 83.7452205,8.0061723 L83.74,8.006 L83.8320668,7.99319229 C84.0160817,7.96550889 84.2605554,7.9235786 84.5171481,7.87704094 L84.8277827,7.81960114 C84.9829149,7.79039241 85.1354489,7.76091311 85.2749434,7.73324539 C85.3898213,7.71046021 85.5584317,7.69415317 85.7608704,7.68307266 L85.776,7.682 Z M87.7245994,7.68219373 L87.781,7.684 L87.5291502,7.70345401 C87.046396,7.74054657 86.581723,7.77671948 86.1507094,7.81064118 L86.144,7.81 L86.003,7.672 L86.2049543,7.6675095 C86.6823472,7.65817336 87.2419741,7.66640572 87.7245994,7.68219373 Z M89.4797073,7.17553591 C89.6997433,7.28402923 89.9629562,7.39028096 90.2097702,7.47389255 L90.282,7.497 L90.2209189,7.50198083 C89.8230208,7.53085206 89.4187484,7.56066868 89.0160779,7.59074892 L88.965,7.594 L88.9881551,7.57543692 L89.4797073,7.17553591 Z" id="Combined-Shape"></path>
                </g>
            </g>
        </g>
    </g>
</svg>