<?xml version="1.0" encoding="UTF-8"?>
<svg width="419px" height="104px" viewBox="0 0 419 104" version="1.1" xmlns="http://www.w3.org/2000/svg" xmlns:xlink="http://www.w3.org/1999/xlink">
    <title>Combined Shape</title>
    <g id="Assets" stroke="none" stroke-width="1" fill="none" fill-rule="evenodd">
        <g id="Fllavours-of-the-South" transform="translate(-830.000000, -397.000000)" fill="#FCC517">
            <g id="add-ons" transform="translate(820.000000, 397.000000)">
                <path d="M378.063358,0.414877493 C378.292527,0.54040696 379.185956,0.786086059 379.008267,0.411290937 C378.830577,0.0364958155 379.855198,0.353906038 380.046173,0.318040476 C380.238808,0.283968192 380.994403,0.359285872 381.281696,0.579859078 C381.570649,0.802225561 382.668338,0.768153278 382.591948,0.669522982 C382.515558,0.570892687 383.470431,0.344939648 384.881983,0.387978322 L385.400106,0.734080994 L386.363282,1.37428127 C386.447976,0.69104232 386.86812,0.475848948 387.298228,0.895476022 L388.194979,0.608551527 C389.136567,0.309074086 390.312306,0.434603552 391.373461,0.886509632 C391.772017,1.05507777 392.344941,1.40656028 393.045735,0.990519761 C393.362919,0.802225561 394.214832,1.22005936 394.766168,1.46394518 C395.035193,1.58409481 394.090283,1.86563947 394.699742,2.08979923 C394.872449,2.15256397 395.204579,1.80825457 395.43873,1.83336047 C395.812377,1.87101931 396.380319,1.98220255 396.488261,2.20277575 L396.832015,2.91470716 C397.590932,3.12631397 398.613892,3.4347578 399.107105,3.59973939 C399.600317,3.76651425 401.186237,4.0408858 401.481833,3.98888073 C401.779089,3.93866895 402.684143,4.21304049 402.896706,4.13592954 C403.107609,4.05881858 403.542699,3.9996404 403.497861,4.32243046 C403.453024,4.64342724 404.549052,4.18076149 404.735045,4.11799676 C404.85904,4.0761536 405.242096,4.08850729 405.660826,4.10245501 L405.978072,4.11239276 C406.083723,4.11525703 406.188113,4.117399 406.287752,4.11799676 C406.883925,4.12337659 408.375188,4.8102021 408.53295,4.76178359 C408.690711,4.7115718 409.222119,4.6792928 409.233744,4.85682733 C409.245368,5.03436186 409.790061,5.55261923 410.40118,5.42170993 C411.012299,5.29080063 412.887172,6.02604465 413.607894,6.22330524 L413.832081,7.03386694 C413.945006,7.43556123 415.012803,7.48756629 415.215402,8.27122882 L415.306738,8.62629788 C415.995907,8.89708287 416.671792,9.15890148 416.811286,9.21090654 C416.950781,9.26470488 417.203199,9.63950001 417.058723,9.93180433 L417.070347,9.93718417 L417.678145,10.1954162 C417.440672,10.6275962 417.264643,11.3108352 417.286232,11.7125295 L417.346015,12.0944977 L417.473885,12.8978863 C417.658217,13.7765926 417.928903,14.5190097 418.078362,14.5494954 L418.224499,14.5602551 L418.378939,14.5710148 C418.548325,14.5692215 418.699444,14.6409526 418.71273,14.7288232 C418.727675,14.8202804 418.397206,15.0713394 418.070058,15.2273545 L417.801033,15.4013025 C417.739589,15.4407546 417.786087,15.6541547 417.842549,15.7635447 C417.867459,15.8101699 418.043488,15.817343 418.146448,15.8065834 C418.204571,15.7994103 418.246087,15.6900203 418.307531,15.6792606 L418.657928,15.623669 C419.04652,15.5752505 419.348758,15.6416018 419.32883,15.7707178 C419.310563,15.8980406 419.60948,16.5077551 420.039588,16.8377183 L420.321899,17.2017537 L420.502909,17.4348799 C420.532801,17.906512 420.140888,18.1199121 419.632729,17.9118919 C419.124571,17.7038716 417.89569,17.8706465 418.312513,18.8659158 C418.729336,19.8629784 418.819011,22.5636552 418.403849,22.6891847 C417.987026,22.8147142 416.854463,23.2289614 417.0006,23.2684135 C417.146737,23.3096589 417.696412,23.652175 418.07338,23.9157869 L418.216195,24.226024 C418.424607,24.6815167 418.595239,24.561367 418.767323,24.3849533 L418.861568,24.2862694 C419.003858,24.139239 419.151896,24.0177592 419.32717,24.206298 L419.572946,24.4734964 C420.087747,24.6779301 420.361754,25.0832109 420.184065,25.3719287 C420.006375,25.6606465 420.527819,27.1670001 420.630779,27.8753449 L420.296989,28.533478 C419.934967,29.2418228 420.604209,30.4540788 421.45114,30.5240167 L422.168541,30.5849881 C422.970634,30.7302437 423.312728,30.8683261 422.929118,30.8952252 C422.545508,30.9203311 421.459443,31.1893229 421.459443,31.4332087 C421.459443,31.6770945 421.846375,32.4302713 422.31966,32.3477805 L422.768035,32.286809 L423.020454,32.2509435 C423.294461,32.2491502 423.734533,32.2975687 424.000237,32.3621267 C424.14106,32.3965577 424.585139,32.3728386 425.063922,32.3459229 L425.42532,32.3259955 C425.724913,32.3103209 426.011836,32.2987642 426.220525,32.3047418 C426.846589,32.3262612 427.593882,33.8164753 427.51251,33.943798 L427.18038,33.8971728 C426.522763,33.8039223 426.174027,34.2755545 426.428106,34.7597395 C426.602474,35.0950825 426.760236,35.5200894 427.074098,35.6922441 L427.763268,36.0706258 C427.806445,36.7197925 427.984134,37.1071406 428.158502,36.929606 L428.332871,36.8901539 C428.512221,36.8471152 428.806156,36.8829808 428.914098,36.9905775 C429.018719,37.0910011 429.028683,37.3761323 428.939008,37.4998685 C428.640091,37.8961829 428.226589,38.1311024 427.627095,38.0557847 C427.51417,38.0414384 427.263412,38.2655982 427.253449,38.392921 C427.240163,38.5292101 427.392943,38.74799 427.542402,38.8143413 L428.02565,39.031328 C428.590271,39.2267953 428.572004,39.6284896 427.984134,39.9261737 L427.466012,39.9566595 L427.045867,39.9799721 C426.441391,39.657182 425.949839,39.8329233 425.954821,40.3709067 L425.865146,40.7295623 L425.733954,41.249613 C425.15937,41.4092147 424.415399,41.5634366 424.081609,41.5903358 C423.746157,41.617235 423.82919,42.7380338 424.046735,43.3441618 C424.26428,43.9484965 424.661175,45.9336553 424.31576,46.0896705 C423.968684,46.2456857 424.277565,47.2929601 424.483486,47.4758745 C424.687745,47.6605821 425.026518,48.2828496 424.755832,48.4532111 L424.413738,48.5859136 C424.123125,48.6988902 423.766085,48.1106949 423.443919,48.6343321 L423.404064,48.6988902 C423.116771,48.6468851 422.588685,48.4729371 422.231645,48.3151286 C421.874606,48.1555269 420.469696,48.433485 419.876845,48.5733607 C419.666305,48.6223979 419.283399,48.5805174 418.85561,48.4966326 L418.836622,48.8110027 C418.572513,48.7836004 417.870403,48.4858782 417.421816,48.1235972 C417.168468,48.0429863 416.962078,47.9688633 416.844499,47.9170209 C416.364572,47.7036208 414.594319,47.827357 414.222334,47.7520393 C413.852009,47.6785149 412.905439,47.1602576 412.789194,47.3736576 C412.672948,47.5852645 412.435475,48.3348547 412.481974,48.6343321 C412.528472,48.9338096 413.670998,49.0952046 413.941684,49.0916181 L414.062912,49.1992147 C414.142311,49.2703855 414.176303,49.3760558 414.207963,49.4850316 L414.247593,49.6153927 C414.313631,49.8073252 414.427943,49.9695398 414.841756,49.9201125 L414.961323,49.9057663 C415.15894,50.3236001 415.607315,50.3702253 415.954391,50.0079832 L416.032442,50.8203381 L416.047388,50.9853197 C416.484138,51.1305753 417.22977,51.2345854 417.704715,51.2166526 L417.79273,51.7151839 L417.865798,52.1204648 C417.980383,52.5849238 417.872441,52.8341894 417.628326,52.6745877 C417.38421,52.5149859 416.484138,52.4091825 416.338001,52.5365053 C416.191864,52.6656213 415.487749,52.8126701 415.110781,52.566991 C415.040411,52.5205899 414.95241,52.4563471 414.854987,52.3837194 L414.650012,52.2300859 L414.650012,52.2300859 L414.434509,52.0709044 C414.110655,51.8363773 413.800529,51.6398662 413.7258,51.7367032 L413.759013,51.8174008 C413.969915,52.3517976 414.471431,52.9077138 414.388399,53.3918989 L414.295403,53.9514017 C413.699229,54.5880154 413.3671,55.2425619 413.558074,55.4057502 C413.747388,55.5689385 414.557785,55.5312797 414.866666,55.2694611 L415.079229,54.9628105 L415.217063,54.7637567 C415.255258,54.4804187 415.341612,54.2706052 415.411359,54.2939178 L415.441251,54.3351632 L415.886305,54.9430845 C416.424355,54.6274675 417.0006,54.4337935 417.165004,54.5126977 C417.329409,54.5933952 417.277929,55.1188257 416.66681,55.5115536 L417.060384,56.1481674 L417.224788,56.4153658 C417.658217,56.2934229 418.216195,56.6664247 418.463632,57.242067 C418.709408,57.8177093 419.026592,58.4650827 418.910347,58.5672995 C418.794101,58.6677231 418.194607,58.7089685 417.84421,58.4238373 L417.517062,58.1745716 L417.473885,58.1404993 C417.292874,58.1566388 417.05208,58.3162406 416.937495,58.4955684 C416.82125,58.6731029 416.69338,59.2828175 416.995618,59.3115099 C417.297856,59.3384091 418.191286,59.5876747 417.923921,59.7652093 C417.656557,59.9409505 416.983994,60.6259828 417.091936,60.846556 C417.201539,61.0689224 417.651575,61.6158723 417.79439,61.452684 L417.9206,61.4221982 C418.349047,61.3146015 418.986737,61.7700942 419.460022,62.6236946 L419.655978,62.9787636 C419.385292,63.3804579 419.091358,63.7821522 419.005004,63.8682295 C418.916989,63.9543069 418.895401,64.3147558 419.14782,64.4689777 L419.380311,64.470771 C419.994751,64.4779441 420.192368,64.6662383 419.929985,65.1701494 C419.858577,65.3118184 419.689191,65.5323916 419.73735,65.5772236 L420.011357,65.8372489 C419.928325,66.1367263 419.569625,66.3321936 419.214246,66.2730155 L419.054823,65.8587682 L418.990058,65.6937866 C418.109914,65.618469 418.136484,65.8551817 419.053163,66.2210104 L418.694462,66.959841 L418.505148,67.3507756 C418.360672,67.804475 418.375618,68.2976264 418.540022,68.4464685 C418.706087,68.5953106 419.036556,69.3556605 418.802405,69.6407917 C418.566592,69.9223364 417.453957,70.3168576 417.437351,70.5822627 L417.546954,70.7669704 L417.759517,71.1202462 C417.938867,71.5739455 417.932224,71.8052784 417.744571,71.6331237 C417.556918,71.460969 416.819589,71.3031605 416.603705,71.3856513 C416.387821,71.4681421 415.603994,71.4591757 415.334969,71.3910312 C415.064283,71.3228866 414.302045,71.4806951 414.436558,71.590085 C414.57107,71.699475 415.069265,72.1334483 415.288471,72.2822904 C415.509337,72.4311324 416.211792,72.0563373 416.288182,72.0491642 C416.367893,72.0419911 416.519012,72.2356651 416.477496,72.5459022 C416.443764,72.7979699 417.186204,72.6285892 417.580709,72.5350484 L417.73399,72.4990717 C417.754055,72.4945767 417.771038,72.4909831 417.784427,72.4885173 C417.99865,72.4508585 418.344065,72.7216435 417.968759,72.8920049 C417.593452,73.0623663 416.560528,73.3690169 416.480817,73.2094151 C416.399445,73.0498134 415.980962,72.8184805 415.858073,72.8399998 C415.733525,72.8597259 415.228687,73.776091 415.022767,73.7581582 C414.815186,73.7384322 414.144283,74.0988811 413.978219,74.6027922 L414.177496,75.1102899 C414.363489,75.5855086 414.625872,75.8903659 415.217063,75.942371 L415.333308,75.9531306 C415.479445,76.0876265 415.434608,76.4426955 415.23533,76.7385864 C415.036052,77.0344773 414.079518,77.606533 413.968255,77.7338558 C413.855331,77.8629718 413.87858,78.3722628 413.739085,78.4027485 C413.601251,78.4368208 413.480024,78.7380915 413.433526,78.7757503 C413.387027,78.8169957 413.486666,79.0626748 413.719157,79.2689018 C413.953309,79.4715422 414.456486,80.3681813 414.423273,80.8936118 L414.167533,81.1841228 C413.466739,81.9821316 413.632804,82.3963788 414.627532,82.8787706 L415.396413,83.2535657 C414.899879,83.796929 414.331937,84.5142402 414.13598,84.8442034 C413.938363,85.1759599 413.337208,85.5973802 413.883562,85.635039 L413.812154,86.3792495 L413.782262,86.6859 C413.798394,86.8124542 413.816831,86.9573072 413.836061,87.1083712 L413.894624,87.5681092 C413.923587,87.7952072 413.950936,88.0090831 413.971576,88.168941 L414.26385,88.4199999 L414.612587,88.7212706 C414.498002,89.0870994 414.272153,89.7344728 414.10941,90.1594797 L414.456486,90.5952463 L415.316702,91.6730064 C414.589337,92.1249125 413.971576,92.5140538 413.941684,92.5391597 C413.911793,92.5660589 414.434897,93.6007803 415.313381,94.6570211 L415.957712,95.7114687 L416.142045,96.0109461 C415.783344,95.9141091 415.444572,95.8280317 415.386449,95.8208586 C415.331648,95.8118922 415.009482,95.9087292 414.803561,96.0503982 C414.597641,96.1920672 413.85367,96.5381699 413.679302,96.5578959 C413.504934,96.577622 412.686233,96.7157044 412.295981,96.9057919 L411.922335,97.0707734 L411.472299,97.268034 C410.949194,97.1873365 409.655549,97.3684576 408.597715,97.6679351 C407.538221,97.9674125 404.105659,98.1915723 403.51945,98.3475874 L402.973096,98.4229051 L402.411797,98.4982228 C401.822266,98.6398918 400.339306,98.7887339 399.117069,98.8263927 L397.99447,98.8317725 L397.419885,98.8353591 C396.848622,99.0487592 396.049849,99.5723964 395.64133,99.9938167 L395.116565,99.3034047 C395.045157,99.2101542 394.125157,99.5221846 394.116854,99.4970787 C393.841186,98.763628 393.28985,100.035062 392.897937,99.3500299 L392.761764,99.1133172 C392.168912,99.4845258 391.458154,99.7230317 391.184147,99.6423342 L391.126024,99.6871662 L390.57801,100.126519 C389.873895,100.058375 389.06848,100.124726 388.789491,100.275361 C388.510502,100.425997 387.364654,100.106793 387.080683,100.158798 C386.795051,100.20901 385.441622,100.413444 384.715918,100.409857 C383.990215,100.408064 382.063862,100.922735 381.872887,100.757753 C381.683573,100.590978 380.497869,101.08951 379.953176,101.270631 L379.521408,101.166621 L378.784079,100.983706 C378.030145,101.103856 377.050361,101.240145 376.605308,101.288564 C376.45751,101.305301 376.245869,101.349734 376.026294,101.396625 L375.762575,101.452459 C375.415412,101.524168 375.105188,101.576325 375.060904,101.50555 C374.977871,101.372848 374.205669,101.577281 373.785525,101.907244 C373.365381,102.235414 371.67484,101.756609 371.292891,101.926971 L371.158378,101.837307 L370.553902,101.430232 C370.052386,101.754816 369.085888,101.952076 368.408343,101.869586 L367.865311,102.020221 L367.308993,102.176236 C366.787549,102.016634 365.8443,101.903658 365.213254,101.925177 L364.632027,102.002288 L364.085673,102.074019 C363.502785,102.251554 362.632605,102.176236 362.152677,101.905451 L361.511667,102.221068 L361.050006,102.448814 C360.360837,102.414742 359.053906,102.516959 358.145531,102.672974 L357.230513,102.432675 L356.622715,102.273073 C355.804015,102.504406 354.92221,102.724979 354.66647,102.762638 C354.40907,102.800297 353.545532,102.542065 353.299756,102.656835 C353.05398,102.769811 352.198746,102.730359 351.627482,102.71422 C351.05788,102.696287 349.588205,103.008317 349.533404,102.882788 C349.476942,102.757258 349.320841,102.744705 349.302573,103.115914 C349.284306,103.487122 348.130155,102.80209 347.894343,102.793124 C347.65687,102.785951 346.610661,102.830783 346.117448,102.898927 C345.927751,102.924447 345.613751,102.912032 345.279002,102.891169 L344.873971,102.863965 C344.472236,102.836481 344.10027,102.813816 343.937016,102.846922 C343.581637,102.918653 342.289652,102.721393 341.827991,102.655041 C341.36467,102.586897 339.712324,102.685527 339.219111,102.590483 C338.725898,102.493646 337.417307,103.169712 337.19478,103.196611 C336.970592,103.221717 336.278101,103.02087 336.009076,103.047769 C335.847661,103.063909 335.50032,103.049706 335.121293,103.02569 L334.737418,102.999164 C334.609747,102.989739 334.484268,102.979983 334.366694,102.970658 C333.780485,102.92224 332.07998,102.773398 331.870738,102.773398 C331.663157,102.771605 331.140053,102.972452 330.973988,102.735739 C330.807923,102.497233 329.401353,102.766225 328.943014,102.82361 C328.486335,102.882788 326.833989,103.01011 326.199621,103.347247 L325.420777,102.836163 L324.851174,102.461367 C323.912907,102.438055 322.48641,102.58869 321.679334,102.798504 L320.862295,102.477507 L320.739407,102.430882 C320.380706,102.820023 319.734714,102.898927 319.304606,102.610209 C318.872837,102.321492 316.753848,102.861268 315.820564,102.963485 C314.888939,103.063909 312.38302,102.448814 312.248507,102.420122 C312.113994,102.39143 311.198977,102.558204 310.33876,102.681941 L309.526703,102.407569 L309.051757,102.246174 C308.776089,102.782364 308.248003,103.051356 307.881,102.848715 C307.512335,102.644282 306.496018,102.351977 306.263527,102.554618 C306.032697,102.759052 305.130964,103.236064 304.93999,103.02087 C304.747354,102.803884 303.76425,102.49006 302.97046,102.567171 L302.427427,102.805677 C301.809666,103.072875 301.251688,103.013697 300.776742,102.755465 L300.240352,102.463161 C299.821869,102.71422 299.280497,102.839749 299.038042,102.748292 C298.795588,102.655041 297.925407,102.447021 297.677971,102.398603 C297.430534,102.351977 296.596888,102.561791 296.307935,102.750085 C296.018982,102.940173 295.062448,102.748292 294.806708,102.827196 C294.549307,102.9061 293.518044,102.803884 293.1992,102.794917 C292.882016,102.785951 292.016817,102.610209 291.991908,102.409362 C291.965337,102.206722 291.787648,101.645426 291.66642,101.717157 C291.545193,101.790681 291.206421,101.810407 291.126709,101.63108 C291.048659,101.455338 290.522233,101.322636 290.256529,101.437406 L290.112053,101.765575 C289.994147,102.032774 289.426205,102.134991 289.087432,102.346598 C288.119274,102.950932 288.094364,102.954519 287.071404,102.237208 L286.910321,102.126024 C286.682812,102.007668 286.322451,102.048913 286.109888,102.217482 C285.895664,102.382463 284.992271,102.707046 284.695015,102.468541 C284.397759,102.231828 283.519275,101.726123 283.477759,101.935937 C283.434582,102.14575 282.959636,102.748292 282.514582,102.79671 C282.071189,102.843336 279.786136,102.631729 278.298194,102.938379 L276.853429,102.443435 L276.405054,102.291006 C275.644477,102.724979 274.900506,102.898927 274.752708,102.678354 C274.606571,102.455988 273.915741,102.873821 273.83603,102.945552 C273.757979,103.01549 273.078773,103.040596 272.391265,103.029837 C272.124546,103.025652 271.665197,102.97238 271.188142,102.905246 L270.778982,102.845129 C270.170977,102.752327 269.61632,102.653248 269.486789,102.622762 C269.226067,102.561791 268.259569,102.925826 267.944046,103.115914 C267.630183,103.302415 266.059209,103.236064 265.406574,103.698729 L264.642675,103.056736 L264.187657,102.674767 C263.649607,102.834369 262.950474,102.82361 262.631629,102.651455 C262.312785,102.4793 261.371196,103.193025 261.030763,103.243237 C260.691991,103.295242 259.674013,102.972452 259.639139,102.780571 C259.604266,102.58869 259.124338,102.199549 258.689248,102.565378 L258.372064,102.880994 L258.00506,103.243237 C257.588237,103.085428 257.088382,103.035216 256.894086,103.132053 C256.698129,103.230684 256.073725,103.377733 256.038852,103.169712 C256.003978,102.963485 255.819646,102.891754 255.700079,103.451257 L254.956108,103.148193 L254.567516,102.990384 C254.240369,103.085428 253.780369,103.194818 253.542896,103.23427 C253.307084,103.271929 252.42694,102.920447 252.142969,102.983211 C251.858998,103.047769 250.860947,102.972452 250.552067,102.782364 C250.243186,102.592277 249.142175,102.69808 248.653945,102.563584 L248.225497,102.4793 C248.042826,102.443435 247.652573,102.716013 247.61936,102.674767 C247.252357,102.244381 247.077988,102.617383 246.784053,102.741119 C246.64788,102.79671 246.337339,102.49544 246.08326,102.398603 C246.038422,102.382463 245.810913,102.581517 245.807592,102.680147 L245.805931,102.771605 C245.970335,102.875615 246.051707,103.008317 245.988603,103.067495 C245.925498,103.128467 245.614956,103.090808 245.395751,103.006524 C245.178206,102.92224 244.263188,102.986798 243.844704,103.151779 L243.466076,103.149986 C242.874885,103.148193 242.056185,102.748292 241.743983,102.970658 L241.136185,103.393872 C240.644633,103.14102 240.028532,102.959899 239.764489,102.988591 C239.498785,103.017284 238.633587,103.332901 238.399436,103.505055 C238.166945,103.679003 237.952721,102.907894 237.914526,102.870235 C237.87467,102.830783 237.326656,102.861268 236.702252,102.92762 C236.076187,102.993971 234.060159,103.200198 233.605141,103.243237 C233.150123,103.284482 231.876405,102.16189 231.71034,102.325078 C231.544275,102.486473 231.14738,103.275516 230.451568,103.356213 C229.754096,103.438704 227.097057,102.610209 225.969476,102.299972 L224.98305,103.137433 L224.712365,103.366973 C224.031498,103.237857 223.329044,103.049563 223.149694,102.952726 C222.972004,102.852302 222.242979,103.017284 221.944062,102.868442 C221.643485,102.717806 220.650416,103.117707 220.495976,103.139227 C220.339875,103.164332 219.464713,103.108741 218.905074,103.03701 C218.343775,102.965279 216.058721,103.157159 215.044065,103.366973 L214.190491,102.778778 C214.168903,102.764431 212.121322,103.236064 212.094752,103.259376 C211.98847,103.34904 211.897134,103.501469 211.774246,103.526575 L211.254463,103.632378 C210.774535,103.392079 210.419157,103.029837 210.462333,102.825403 C210.50551,102.620969 210.357713,102.03636 210.160095,102.03636 C209.962478,102.03636 209.543994,102.194169 209.695113,102.38605 L209.713381,102.592277 L209.73829,102.852302 C209.728326,103.24503 209.298218,103.47457 208.783417,103.3598 L208.335042,103.35442 L207.976342,103.34904 C207.597713,103.456637 206.850421,103.574993 206.317353,103.618032 C205.784285,103.659277 204.214971,103.34904 203.899448,103.481743 C203.583924,103.614445 202.536055,103.323934 202.237138,103.479949 C201.939882,103.635965 200.93851,103.366973 200.775766,103.44767 L200.609701,103.470983 C199.829196,103.57858 199.12176,103.558854 198.308042,103.311381 L197.598944,103.094395 C196.865823,103.110175 196.093407,103.118241 195.610462,103.119299 L195.377721,103.119185 C195.311027,103.118919 195.255879,103.118424 195.214252,103.117707 C195.110738,103.115316 195.006671,103.036611 194.899528,102.949737 L194.76932,102.845928 C194.59331,102.713917 194.406844,102.630772 194.199595,102.875615 L193.993675,103.132053 L193.880751,103.271929 C193.771148,103.435117 193.23974,103.668244 192.70169,103.793773 C192.163639,103.917509 190.551149,103.307795 190.282124,103.253996 C190.011438,103.198405 189.468406,103.25579 189.285734,103.167919 C189.104724,103.081842 188.349128,103.182265 188.116637,103.212751 C187.885807,103.24503 186.867829,103.302415 186.362992,103.24503 C185.859815,103.189438 184.541259,102.845129 184.51801,102.753672 C184.493101,102.662215 184.207469,102.861268 183.925159,103.388492 L183.063282,102.931206 C182.825809,102.805677 182.181477,103.417185 181.689925,103.478156 L181.263138,103.531954 C180.75664,103.327521 179.959528,103.537334 179.489565,104 L178.772164,103.449464 L178.363644,103.13564 C177.691081,102.870235 177.040107,102.80209 176.915558,102.985005 C176.79101,103.169712 176.208122,103.626998 176.030432,103.399252 C175.852743,103.173299 175.178519,102.947346 174.846389,103.293448 L174.535848,103.451257 C174.358158,103.540921 173.820108,103.426151 173.815126,103.381319 L173.740397,102.499026 C172.875199,102.249761 172.122925,102.273073 172.068123,102.549238 C172.014982,102.825403 171.528412,103.332901 171.068412,103.246823 L170.698087,103.345453 C170.410795,103.420771 170.216499,103.668244 170.181626,103.218131 C170.145091,102.741119 169.748196,102.628142 169.462564,102.845129 C168.662132,103.45843 167.752096,103.044183 166.910147,103.169712 L166.325598,103.257583 C165.677945,103.350833 165.056862,103.431531 164.943938,103.436911 L164.840978,103.420771 L164.141844,103.304208 C163.18531,103.139227 162.660545,102.913273 162.974408,102.803884 C163.288271,102.6927 162.64726,102.113471 162.590798,101.926971 C162.534336,101.74047 162.152386,101.550382 162.127477,101.950283 C162.102567,102.353771 161.77874,103.332901 161.464878,103.182265 L161.255636,103.01011 L161.006539,102.805677 C160.760762,102.402189 160.201124,102.273073 159.762712,102.516959 C159.32264,102.760845 158.107045,102.952726 157.949283,102.647868 C157.791522,102.343011 157.065818,101.796061 156.725385,102.195962 L156.722063,102.516959 L156.7121,103.467396 C156.144158,103.503262 155.220837,103.420771 154.662858,103.280895 C154.10488,103.142813 152.487408,103.363386 152.374484,103.318554 C152.26156,103.271929 151.705242,103.096188 151.411307,102.995764 C151.115712,102.898927 149.818745,102.981418 149.189359,103.196611 L148.780839,103.051356 L148.380622,102.907894 C148.126543,102.357357 147.63167,102.04174 147.282933,102.212102 C146.932536,102.378877 146.14871,102.933 146.185244,103.080048 L146.171959,103.216337 L146.160334,103.336487 C146.083944,103.46381 145.924522,103.546301 145.808277,103.517608 C145.690371,103.492502 145.25362,103.137433 145.007844,102.877408 C144.763728,102.613796 143.727483,103.167919 143.5664,103.184058 C143.406978,103.198405 142.712827,103.085428 142.377375,102.995764 L142.340841,102.854095 L142.217953,102.382463 C142.661346,102.382463 143.343873,102.346598 143.734126,102.299972 C144.124378,102.25514 144.300407,101.293943 143.920119,101.225799 C143.53983,101.159448 142.41391,101.216832 142.408928,101.530656 L142.246184,101.819374 C142.048567,102.174443 141.711455,102.712426 141.402574,102.730359 C140.549001,102.776984 141.221564,101.995115 140.864524,101.704604 L140.813044,101.663359 C140.730011,101.61494 140.382936,101.919797 140.040842,102.343011 C139.697088,102.764431 137.895283,102.751878 137.333984,102.785951 C136.772684,102.821816 136.159905,101.803234 135.990518,102.183409 C135.821132,102.565378 137.030085,102.845129 137.103153,102.904307 C137.176222,102.967072 137.212756,103.307795 137.023442,103.517608 L136.824164,103.544507 L136.571746,103.576786 C136.274489,103.45843 135.6368,103.008317 135.156873,102.576137 L135.038966,101.048264 C135.02236,100.843831 134.432829,100.474415 134.404598,100.495935 C133.393263,101.229027 133.327468,100.831224 133.325469,100.358643 L133.325176,100.087756 C133.32287,99.9775776 133.314659,99.8745637 133.288642,99.7929696 L133.272036,99.737378 C133.117595,99.6208149 132.966476,99.8234553 132.933263,100.185697 C132.90005,100.546146 132.554635,101.209659 132.230809,100.919148 C131.908643,100.63043 131.412108,101.930557 131.302506,102.179823 C131.194563,102.429088 130.689726,103.198405 130.490448,103.232477 C130.29117,103.266549 129.178535,103.196611 128.336586,103.25041 L127.57933,103.289862 L127.418247,103.297035 C127.243879,103.372353 127.097742,103.318554 127.09276,103.178679 C127.089439,103.040596 127.116009,102.705253 127.104384,102.445228 C127.09442,102.183409 127.695576,101.627493 128.036009,101.670532 L128.306694,101.731503 L128.555792,101.787095 C128.779979,101.973596 129.276514,102.213895 129.660124,102.319698 L130.03377,102.36991 C130.21312,102.39143 130.540268,102.301766 130.590087,102.190582 L130.796008,101.744056 C130.970376,101.236558 131.405466,100.813345 131.764166,100.806172 L131.878751,100.653743 C132.136152,100.30764 132.134491,99.769657 132.450014,99.5096317 L133.047848,99.0128936 C132.704094,98.58968 132.247415,98.2077118 132.031531,98.1646731 C131.815646,98.1198411 131.148065,98.4175253 131.148065,98.9447491 C131.148065,99.4719728 130.711315,100.834864 130.219762,100.851004 L129.925827,101.215039 C129.560485,101.663359 129.208427,101.711777 128.662073,101.306496 L128.384745,101.102063 C127.853337,101.371054 127.210666,101.962836 126.956587,102.414742 C126.704168,102.866648 125.415504,103.282689 125.613121,102.990384 C125.810739,102.696287 126.461713,101.82834 126.579619,101.634666 C126.699186,101.442785 125.983446,100.940668 125.853916,100.619671 L125.66128,100.474415 L125.196298,100.121139 C124.902363,99.627988 124.563591,99.0810382 124.440703,98.8999171 C124.319476,98.7170027 123.708357,99.3159576 123.535649,99.6118485 L123.542292,99.8826335 L123.545613,100.051202 C123.598754,100.273568 123.465902,100.838451 123.250018,101.310083 C123.034133,101.781715 122.97435,103.187645 122.891317,103.216337 C122.806624,103.248616 122.512689,103.201991 122.421354,103.047769 C122.331678,102.897134 121.855072,102.360944 121.64417,102.138577 C121.433267,101.918004 122.408068,101.385401 122.524314,101.200693 C122.637238,101.017779 122.630595,100.707541 122.260271,100.951427 C121.889946,101.19352 120.810524,100.495935 120.576372,100.562286 C120.342221,100.628637 120.601282,101.430232 120.6976,101.688465 L120.732473,101.928764 L120.767347,102.174443 C120.752401,102.432675 120.229297,102.561791 119.606553,102.463161 L119.098394,102.49006 L119.012041,102.493646 C118.930669,103.056736 118.747997,103.44767 118.606842,103.361593 C118.465687,103.273722 117.718395,103.307795 117.265038,103.444084 L117.251752,103.418978 L116.977745,102.900721 C117.452691,102.82361 117.788142,102.590483 117.723377,102.384256 C117.660272,102.179823 117.203594,101.722537 116.919623,102.034567 C116.635652,102.346598 115.601067,103.103361 115.179262,103.103361 C114.757457,103.103361 113.603306,103.071082 113.598324,103.035216 C113.596663,102.995764 113.820851,102.872028 114.106483,102.841542 C114.392114,102.811057 115.220778,102.441641 115.222439,102.097332 C115.222439,101.754816 116.416446,101.360295 116.642294,101.317256 C116.866482,101.272424 117.520778,101.010605 117.612113,100.881489 L117.57724,100.790032 C117.535723,100.677056 117.334785,100.499521 117.266698,100.519247 C116.125832,100.84921 115.001573,101.241938 113.769371,101.195313 L112.940707,101.164827 C112.540491,101.72433 112.045617,102.273073 111.839697,102.382463 C111.635437,102.493646 111.197025,101.909038 111.094065,101.83372 C110.992765,101.760196 110.509517,101.52169 110.28699,101.426646 C110.066123,101.333395 109.533055,100.976533 109.662585,100.863557 C109.792116,100.75058 110.283668,100.517454 110.46634,100.601738 L110.51948,100.723681 L110.810094,101.372848 C111.444462,101.270631 112.072187,101.112822 112.2067,101.024952 C112.339552,100.935288 112.580346,100.456482 112.573704,100.22515 C112.568722,99.9938167 111.671971,99.5777762 111.369733,99.5275644 L111.351466,99.4414871 C111.087422,98.1234277 110.293632,98.8712247 110.142513,99.3213375 C109.875149,100.130106 109.006629,100.200044 108.475221,100.634017 L108.001936,101.021365 C107.689734,101.523483 107.374211,101.722537 107.299482,101.464305 L107.262947,101.225799 L107.194861,100.797205 C106.635222,100.560493 105.798255,100.157005 105.336594,99.9023596 L105.253562,99.5939157 C105.049302,98.8317725 104.514573,98.8066666 103.818761,98.8120465 C103.518183,98.8138398 103.167786,98.4767035 102.926992,98.5412615 C102.69118,98.6040262 102.586559,98.9985474 102.38396,99.2173273 L102.314213,99.2944383 C102.050169,99.3231307 102.041866,99.466593 102.294285,99.6100552 C102.546703,99.7553108 103.011685,100.273568 102.799122,100.461862 C102.586559,100.65195 101.015585,99.9687108 101.201578,99.7445511 L101.289592,99.5239779 C101.553635,98.8712247 101.196596,98.4892564 100.436018,98.751075 C99.8381846,98.9555087 99.6771016,98.4910497 99.3100981,98.4569774 L98.8451163,98.4121455 C98.2954414,98.4551841 97.2591963,98.6524447 96.5417958,98.8532919 L96.1498826,98.6470649 L95.6550092,98.3906261 C95.2049732,98.4444245 94.5257677,98.5932665 94.1438183,98.7205893 C93.7602084,98.847912 92.4333496,98.4498043 92.1394147,98.3888328 C91.8454798,98.3278614 91.0981876,98.4390446 90.7295235,98.4085589 C90.5460218,98.393316 90.1669786,98.3659686 89.7933325,98.377849 L89.714,98.381 L89.770881,98.4151884 C89.9891982,98.5608055 90.2406465,98.8157019 90.3633432,98.9769051 L90.4132128,99.0487592 C90.4341931,99.0832356 89.8281228,99.0992552 88.8247179,99.1013643 L88.435,99.101 L88.412782,99.1155336 C88.3344718,99.1409125 88.2221695,99.126463 88.1084116,99.1051281 L88.084,99.1 L88.0693965,99.1006579 C87.979046,99.1003449 87.8866581,99.0999558 87.7923373,99.0994926 L87.745,99.099 L87.7862118,99.0885226 L87.7862118,99.0885226 L87.884,99.063 L87.7953075,99.0534109 C87.739219,99.0519694 87.6969442,99.0621091 87.6781235,99.0935911 L87.675,99.098 L87.5036809,99.0978832 L87.5036809,99.0978832 L87.479,99.097 L87.4771926,99.078232 C87.475432,99.0395437 87.478292,98.9907765 87.4871488,98.9304028 L87.487,98.925 C87.382257,98.9189507 87.2809922,98.9049739 87.1845867,98.8819551 L87.138,98.868 L87.1017481,98.8809756 C86.9749306,98.9284414 86.8363783,98.9942884 86.7182922,99.0543071 L86.646,99.091 L86.5744024,99.0905138 C86.3581809,99.0884692 86.135901,99.0861615 85.9083991,99.0836074 L85.85,99.082 L85.8292186,99.0633091 C85.7824736,99.0174715 85.73765,98.9670028 85.6923003,98.9165808 L85.672,98.894 L85.2792727,98.9985474 C84.6797784,98.9196432 83.7265657,98.8640515 83.1602843,98.8766045 C82.9431225,98.8821223 82.5743896,98.9391039 82.1646317,99.0178588 L82.117,99.026 L82.208778,99.0288798 C82.5969935,99.0357872 82.9828697,99.0423264 83.3635836,99.0484413 L83.371,99.048 C83.3479395,99.0569903 83.3286925,99.0679473 83.3105915,99.0828315 C83.1295807,99.2316735 82.4819275,99.4235543 82.2510973,99.2011878 L82.019,99.046 L81.9147384,99.067487 C81.3242941,99.1882741 80.696775,99.3400979 80.33552,99.4414871 C80.2097258,99.4761198 80.0347154,99.489128 79.8280363,99.4881719 L79.613,99.482 L79.6570785,99.4596907 C79.8373452,99.374058 80.2715187,99.220826 80.4570995,99.2671787 L80.5140582,99.2944383 C80.6585346,99.4199677 81.1035886,99.1922214 81.229798,99.0702785 C81.2480651,99.0528581 81.2694502,99.0367186 81.2933239,99.0219907 L81.311,99.012 L81.0399371,99.0071084 L81.0399371,99.0071084 L80.2612771,98.9915319 C80.1318868,98.9888719 80.0027593,98.9861813 79.8739993,98.9834622 L79.592,98.977 L79.68874,98.9214364 C79.7197388,98.8815061 79.7691007,98.8529252 79.8323973,98.8333219 L79.867,98.825 L78.445,98.856 L78.3813637,98.8224506 C78.2644791,98.7569306 78.1540629,98.6885665 78.0596431,98.621959 L78.029,98.608 L78.2421945,98.5990157 C79.2278375,98.5553543 80.4327165,98.5137467 81.6776303,98.4786905 L82.3595675,98.4602458 C82.4735264,98.4572889 82.5875469,98.454393 82.7014944,98.4515614 L83.3832255,98.4353699 C84.5143928,98.4097599 85.6113286,98.3912539 86.5393963,98.383231 L86.658,98.382 L86.6692975,98.2274378 C87.1093695,98.015831 87.3053261,97.7593922 87.1043876,97.6607619 C86.903449,97.5603384 86.2574565,97.4688812 86.1046768,97.6751082 C85.951897,97.8831284 85.2793341,98.3924194 85.2876373,97.8903015 L85.2643882,97.648209 C85.2527637,97.5316459 85.1464821,97.3200391 85.1165905,97.3254189 L84.749587,97.377424 C84.3526918,97.4563282 84.1085764,97.2124424 84.204894,96.8340607 L83.5539195,96.9936625 L83.4310315,97.0241482 C83.3214286,97.1425046 82.8963024,97.1281583 82.4828008,96.9936625 C82.0692991,96.8573734 80.4867004,96.8519935 80.0300218,96.8753061 C79.5716827,96.8968255 78.1219359,96.2835244 77.7416472,96.3283563 C77.3630192,96.3731883 76.3566657,96.5614825 76.208868,96.1705478 C76.0594095,95.7778199 74.3223704,95.5411072 74.1662694,95.5823526 L74.1430203,95.5536602 L73.3342841,94.4723135 C71.9028045,94.3073319 70.6191226,94.1423503 70.4829494,94.0993116 C70.3467762,94.0598595 69.7007836,94.0795856 69.1909643,94.04372 C68.681145,94.0060612 66.578763,94.1351772 65.660424,94.2087016 L65.4777526,93.1883264 C65.4594855,93.0771431 65.0958033,92.8870557 65.0194134,92.9265078 L64.4929876,93.1972928 C63.9599192,92.985686 63.4085836,92.6682757 63.2674285,92.496121 C63.1262733,92.3203798 62.2062736,91.9904166 61.9355878,91.870267 C61.6632413,91.7483241 60.831256,91.5151979 60.7166712,91.5510635 C60.6020864,91.5887223 60.2234584,91.4757458 60.1337834,91.2085474 L59.9610758,91.0363927 C59.8647582,90.9431422 59.5309677,90.928796 59.378188,91.0005271 C58.7836755,91.2784852 58.1227371,91.328697 57.6976109,91.3520096 C56.7776112,91.4004281 57.2276472,91.0561187 57.2791273,90.6651841 C57.2853792,90.6170821 57.258533,90.5666965 57.2232716,90.516714 L57.1671537,90.4423781 C57.0640129,90.3078812 56.9905651,90.1865898 57.4601381,90.1343738 C57.7955892,90.0967149 58.1277191,89.9640124 58.4349392,89.82593 C58.7820149,89.671708 58.7222315,89.510313 58.4565276,89.2628406 L58.1692353,88.9974355 C58.4615096,88.7571362 59.0311123,88.2765377 59.4379713,87.930435 C59.8448304,87.5825391 60.3363826,86.2447536 59.8880073,86.1748158 L59.5608594,86.2124746 L59.1772494,86.2555133 C58.7703903,86.3935957 58.1393436,86.3595234 57.7773221,86.176609 C57.4153006,85.9936947 57.5016543,84.4299562 57.6394882,83.8094819 C57.7773221,83.1872144 58.0878635,81.5284322 58.0297408,81.5087062 C57.9749393,81.4871868 57.531546,81.7579718 57.2110407,82.1184207 L56.7759506,81.5230524 L56.5550843,81.2199884 C56.6381167,80.9330639 56.8938567,80.4219796 57.1246869,80.0848433 L56.7211492,79.9198618 L56.5069254,79.8319911 C56.0087307,80.0722904 55.7114744,80.0131122 55.8493083,79.7010818 L55.8775394,79.4410565 L55.9539292,78.7237453 C55.6002109,78.0207803 55.278045,77.1886992 55.2415107,76.8748756 C55.2033158,76.5610519 55.656673,75.5263304 56.3275753,75.2411992 C56.9968169,74.9542747 56.991835,73.3152185 56.5036041,73.4461278 L56.2196331,73.6541481 L55.9173949,73.8765146 C55.5703193,74.079155 54.899417,73.743812 54.4277926,73.1287176 L54.6735687,72.6068737 C54.7549405,72.4383056 54.7449766,72.2338719 54.8462762,72.0778567 C55.0870703,71.7012683 55.3693807,71.3479925 55.6317633,70.9821637 C55.9256982,70.5697098 56.2661313,71.5111808 56.6098857,70.9445049 L56.707864,70.7813166 C57.1180443,70.7024124 57.0715462,70.5248778 56.608225,70.3832089 L56.5866366,70.2307802 C56.551763,69.977928 56.7792719,69.6676909 56.9735679,69.4327715 C57.0765281,69.3090353 57.3671417,69.319795 57.5332067,69.2175781 C57.9350838,68.971899 58.0546505,68.2276886 57.6577553,68.1182986 C57.1662032,67.9802162 57.0350119,67.8062682 56.8523405,67.4207135 L56.7560228,67.218073 C56.0602108,67.1499285 56.1282974,66.8845233 56.9054812,66.6316711 C57.6843257,66.3788189 59.7800651,65.3136117 60.7532055,65.8874607 L61.9372484,65.7117194 C62.1714,65.6776471 62.6712554,66.1385196 62.7692337,66.4415836 L63.0116885,67.1911739 C63.5796305,66.9741872 63.8835293,66.4989685 63.6892334,66.1349331 L63.724107,65.8282825 C63.8303886,64.8975712 64.0097387,63.9686531 64.2339263,63.0558746 L64.2854064,62.8514409 C64.5976085,62.6828727 64.9911824,62.4856121 65.1605686,62.4192608 C65.3126103,62.3586879 65.6667181,61.914132 65.9593021,61.8123112 L66.0656224,61.7916135 C66.0747892,61.7915059 66.0544566,61.7912805 66.0063893,61.7909426 L65.8737978,61.7901186 C63.20548,61.7747477 33.9051142,61.6502135 34.009237,61.5871798 C34.1205005,61.5226218 34.4792007,61.201625 34.6087313,61.0671292 C34.7399226,60.9344266 35.3593448,61.4383377 35.4556624,61.5208285 C35.5503194,61.6033193 36.0701027,61.7073294 36.1132795,61.3379142 C36.1597777,60.9702921 36.5649761,60.3336784 36.9386222,60.5650113 C37.3122683,60.7963442 38.3385495,60.3013994 38.2621596,60.2260817 C38.1857698,60.1525573 38.1724846,59.8494933 38.4016542,59.7167908 L38.5278635,59.7670025 C39.050968,59.9678497 39.6537837,60.7210265 39.8248306,59.5159436 L39.8281519,59.4908377 C39.9892349,59.4854579 40.3844694,59.5589823 40.7049747,59.654026 C41.02548,59.750863 42.0683677,59.3653083 42.3706059,59.3473755 C42.6711834,59.3294427 43.6144321,59.4101402 44.0760926,59.4101402 C44.5377531,59.4083469 45.3265615,58.6533769 44.9977529,58.506328 C44.6689444,58.3610725 43.9598472,57.5702369 44.1375366,57.0699123 C44.3152261,56.5695877 42.5017971,55.1511047 42.6562375,55.1044795 C42.8139992,55.0596476 42.9817248,54.6185011 42.5067791,54.2777783 L42.516743,53.9908538 L42.5416527,53.3452737 C42.0650464,53.3309275 41.4954437,53.1533929 41.2745774,52.9489592 L41.1234583,52.7355591 L40.7846858,52.2549606 C41.0005702,51.7044242 41.0105341,50.7844726 40.8062743,50.2142101 L40.6800649,49.6744334 L40.6402094,49.5058653 C40.7116173,49.2817055 41.1666352,49.3229509 41.6515447,49.5991158 C42.1347937,49.8734873 43.6343599,49.3803358 43.6742155,49.2870854 C43.7140711,49.1956282 43.5596307,48.8315927 43.2507499,48.6881305 L43.1062735,48.7634482 L42.772483,48.9373961 C42.3407142,49.1669357 42.0584038,49.1651425 42.1430969,48.9338096 L42.2111835,48.7204095 L42.2809308,48.498043 C42.3473568,48.2505706 42.3058405,48.0820025 42.1895951,48.1250412 C42.071689,48.1662866 41.560209,48.2164983 41.3111116,48.1411807 C41.0603536,48.0676563 41.5552271,46.9881029 41.7478624,46.4572925 L42.4320499,46.3263832 C42.5665625,46.2994841 42.8106779,46.2403059 42.8090173,46.2098202 L42.7010751,44.9921843 C43.7821577,44.5223455 44.4347929,44.0058814 44.1524825,43.8444864 C43.8701721,43.6812981 42.7774649,43.8893183 42.6014361,43.8408998 C42.5289536,43.8209628 42.2638818,43.7386954 41.906507,43.621015 L41.5799198,43.5121014 C41.1205679,43.3569939 40.5780815,43.1656779 40.102159,42.978333 L39.0443254,43.164834 C38.5693798,43.2473248 38.5129177,42.9926793 38.3850477,42.6250573 L38.1957337,42.0763142 C37.8968168,42.4242101 37.2973224,42.5999514 36.863893,42.4744219 C36.4288029,42.3470992 35.083677,41.7822166 34.8163125,41.552677 L34.8511861,41.5096383 L35.2231715,41.0559389 C34.9906807,40.6022396 34.7116916,40.1467469 34.60541,40.0463234 C34.4991285,39.9423132 34.1404282,39.7952644 34.0474319,39.9458998 L33.9212225,40.0409435 L33.7352298,40.1826125 C33.497757,40.3009688 33.0161687,40.501816 32.6641111,40.6237589 C32.3137141,40.7457018 31.2044004,40.9555153 31.0283716,40.8030867 C30.8540034,40.6488648 30.4903212,39.972799 30.6729926,39.6930476 C30.8540034,39.4168827 32.1725589,39.8705821 32.6940028,39.883135 L32.7753746,39.5872442 C32.863389,39.2698339 32.5827393,38.5579025 32.4349415,38.5525227 L30.1050506,38.4610655 C30.4106101,37.038996 30.3857003,35.8392929 30.0485885,35.7926677 C29.7131374,35.7460425 29.1352314,36.4023823 29.0488777,36.323478 C28.9608633,36.2463671 28.7101052,36.020414 28.6802136,35.9953081 C28.6519825,35.968409 28.4626685,35.6599651 28.3264953,35.3658675 C28.190322,35.0717699 28.6519825,34.0711207 28.8064229,33.8308215 L28.8512604,33.5994886 L28.8927767,33.3842952 C28.8329933,33.1332363 28.6005024,32.9539085 28.3763147,32.9843942 L28.1753762,33.0256396 L28.0142932,33.0597119 C27.8415857,33.1135102 27.6489504,33.0292262 27.589167,32.8696244 L27.6472897,32.7943067 L27.9594918,32.3854393 C28.4958815,31.7757248 28.4327768,31.4601078 27.8199973,31.6824743 L27.4762429,31.7075802 L26.8219471,31.7559987 C26.0746549,31.7362727 25.4253411,31.5121129 25.3805035,31.2556741 L25.3937887,31.0727598 L25.5316226,29.1916111 C24.6415146,28.4115351 23.7929229,27.7157432 23.6451251,27.6422188 L23.6002875,27.5453818 L23.4209374,27.1508606 C23.4823814,26.682815 23.3163165,25.9009458 23.0539339,25.4149674 L22.6753059,25.276885 C21.7220933,24.9325756 21.742021,24.3192745 21.7901799,23.6270691 L21.808447,23.3670438 C21.8001438,22.8774789 21.3102522,22.678425 20.7207218,22.9223108 L21.107653,22.2928702 C21.4663533,21.7100549 20.8203607,21.7244011 20.6293861,21.4876884 C20.5762453,21.4213371 20.2125631,22.2354853 20.0249097,21.4805153 L20,21.3782984 C20.3005775,21.2061437 20.5978337,21.033989 20.6609384,20.9981234 C20.7240431,20.9586713 20.5463536,20.3561299 20.1145848,19.7446221 L20.2706858,19.0488302 C20.3105414,18.8677091 20.4483753,18.6883813 20.4284475,18.5216064 L20.4068591,18.3261391 C20.2723465,18.1217054 20.3072201,17.9872095 20.4815883,18.0284549 C20.6576171,18.0697003 21.4049093,17.9585171 21.7204326,17.6841455 C22.0376166,17.4115673 21.5742955,16.371466 21.8001438,16.2907685 L21.8566058,16.3356004 C22.447797,16.803646 22.9659195,16.8933099 23.4790601,16.2351768 L23.9207928,15.668501 C24.3973992,16.0701952 24.824186,16.2208306 24.8690236,16.0056372 C24.9155217,15.7904439 25.6594926,15.0480267 26.4217306,14.8328334 L26.9431745,15.8065834 L27.2138603,16.3104945 C27.9462066,15.7491985 28.4244736,15.2506672 28.2766758,15.2058352 C28.1305387,15.1610033 27.7618745,14.9189107 27.8067121,14.7754485 L27.839925,14.7772417 C28.1919827,14.791588 28.545701,14.8256603 28.896098,14.8722855 L29.0588416,14.8920115 C29.2315491,14.9511897 29.4441122,14.8507661 29.5288053,14.6732316 C29.6151591,14.4974904 30.2163141,14.5907408 30.2744368,14.4687979 C30.3325595,14.3450617 30.6696713,14.0025456 30.7825955,14.217739 C30.8971803,14.4311391 31.556458,14.6911644 31.8869272,14.1137288 L32.1459885,13.8393573 L32.2888043,13.6923085 C32.5860606,13.6510631 33.1456994,13.7568665 33.5293093,13.9290212 C33.9145799,14.1011759 35.3178286,13.7048614 35.5968176,13.8877758 C35.8758067,14.0671036 36.6961674,14.4813509 37.0050482,13.9577137 L37.2690914,13.5972648 L37.5298133,13.2421957 C38.0114016,13.2081234 38.6241812,13.2995806 38.8898851,13.4466294 C39.1555889,13.5954715 39.6936393,12.8781602 40.0141446,12.8889199 C40.3329892,12.8996796 41.243025,13.10232 41.3625918,13.199157 C41.4804979,13.295994 42.0368154,13.4412496 42.1696673,13.1435654 C42.3008586,12.8458812 42.9152988,12.1178103 43.2241796,12.2325801 C43.5330603,12.3437634 44.2803525,12.1823683 44.5228073,12.0855313 C44.7669227,11.986901 45.4610741,12.2809986 45.5839621,12.1895415 L45.6005686,12.096291 L45.6620126,11.7519816 C45.9476443,11.8004001 46.7032397,12.0801515 47.340929,12.3778357 L47.4206402,11.4381579 L47.4272828,11.3664268 C47.5651167,11.3036621 48.1994847,11.1261275 48.837174,10.9701124 C49.4732026,10.8140972 51.6121189,11.1691662 52.1667757,11.142267 L52.5669922,11.2462772 C52.9788332,11.3556671 53.2511796,11.8470253 53.2744287,11.0382569 C53.2760894,10.9539728 53.7510351,10.7925778 53.7659809,10.8123039 C54.2658363,11.4507109 55.0181104,10.9342468 55.1592656,10.7656786 C55.6126229,10.2223154 56.2486515,10.961146 56.7352217,10.4482684 L56.9195538,10.2545944 C57.7017196,10.5020668 58.4357266,10.7244333 58.5503114,10.7495391 C58.6665568,10.7728518 59.280997,10.4410953 59.7111052,10.0860263 C60.142874,9.72916391 61.6241731,10.355018 61.7055449,10.3137726 L61.7055449,10.2761137 L61.6723319,9.31670995 C62.3930537,9.51397054 63.4674937,9.42072008 64.0620062,9.10510313 L64.5768074,9.84572699 L64.8308868,10.2115557 C65.3656158,9.96229006 66.0713917,9.63591345 66.4002003,9.48348481 L66.7406334,9.40996041 L66.8485756,9.38485452 C66.9598391,9.34898895 67.3384671,9.34181584 67.6905248,9.37050829 C68.044243,9.40099402 69.2830874,9.29160406 69.6517515,9.36333518 C70.0204156,9.4350663 70.942076,9.02799218 71.0334117,9.13020903 C71.126408,9.23242588 71.5133393,9.48169153 71.5947111,9.34898895 L71.6794042,9.23959899 L71.7707399,9.12124264 C71.8853247,8.99571317 72.0098734,8.97240055 72.0480683,9.06744429 C72.0846026,9.16428131 72.2705953,9.48707137 72.3652524,9.53728315 L72.4532668,9.51397054 L73.1158658,9.3454024 C73.8664793,9.20552671 74.5888617,9.03695857 74.7233743,8.96522744 L74.8196919,8.8701837 L75.4939155,8.18694475 C76.0053955,8.81817864 76.5301606,9.17683426 76.6613519,8.9849535 C76.7925432,8.79307275 77.2259727,8.40034484 77.3555033,8.50435497 C77.4585822,8.58607722 77.6549539,8.35781853 77.7456572,7.89525539 L77.754,7.842 L77.896265,7.8307134 L77.896265,7.8307134 L78.144,7.81 L78.7554306,8.40751796 L78.9231562,8.57070626 C79.421351,8.47924908 80.0673435,8.42365746 80.3629391,8.44697007 C80.6552133,8.46848941 81.3360795,8.61912477 81.3560073,8.38599862 C81.3759351,8.15287247 82.3789672,8.12059346 82.5350683,8.28736832 C82.6674457,8.42878111 82.8864481,8.23291123 82.9327236,7.73137892 L82.938,7.637 L82.8414396,7.63640838 C82.7256094,7.62295879 82.5670433,7.58529995 82.390875,7.53203749 L82.282,7.497 L82.5180227,7.48051531 C83.1093415,7.43798141 83.6818316,7.3979581 84.2085738,7.36274634 L84.345,7.353 L84.4151793,7.32525618 C84.7221147,7.20345348 84.9980695,7.10360553 85.1530634,7.06076611 C85.4337131,6.98365515 86.8170339,6.86709207 87.5560228,6.8652988 L88.2302464,6.84377946 L88.4278637,6.83660635 C88.6404268,6.74156261 88.8463473,6.80432734 88.8845422,6.97468876 C88.9227371,7.14684346 89.7198488,7.05359299 89.8327729,6.9137173 C89.9456971,6.77563489 90.433928,6.48153728 90.6116174,6.63755248 C90.7909675,6.79536095 91.4120504,7.05359299 91.664469,6.92447697 C91.9168877,6.79715423 93.0012917,6.42773894 93.5144323,6.3900801 L93.6821579,6.6196197 C94.050822,7.12353084 94.4809301,6.12288166 94.8844679,6.75949539 L95.0555148,7.03207366 C95.6865615,6.73618277 96.3474999,6.60527347 96.5251893,6.73797605 C96.7012182,6.87426519 97.2425898,7.14863673 97.2924093,7.02310727 C97.3422288,6.89578452 97.5697377,6.59810036 97.6859832,6.64113903 C97.8022286,6.68417771 98.1841779,6.62858609 98.2755136,6.42415238 C98.3668494,6.2179254 99.8481485,6.28427669 100.724971,6.10674216 L101.688148,6.38290699 C102.46201,6.60527347 103.506559,6.69493738 104.434862,6.11032872 L104.879916,5.83057734 C105.721865,5.97583286 106.497388,6.19102623 106.600348,6.30758931 C106.704969,6.42594566 107.213128,6.47077761 107.470528,6.0870161 C107.726268,5.70146131 108.900347,6.35780109 108.981719,6.20716573 C109.06143,6.05653037 109.39356,5.70325459 109.441719,5.94893369 C109.488217,6.19461279 109.7506,6.47795073 109.939914,6.15336739 C110.129228,5.83057734 111.510888,6.30758931 112.07883,6.15874723 L112.754714,6.26275736 L113.643162,6.39904649 C114.715941,6.0134917 115.654208,5.81085128 115.728937,5.94893369 C115.802006,6.0870161 116.089298,6.36676749 116.173991,6.21075229 C116.260345,6.05294382 116.645615,5.64945625 116.859839,5.62973019 L116.93789,5.69787476 L117.570597,6.25737752 C118.415868,6.16950689 119.561716,6.13543461 120.116372,6.18026656 C120.671029,6.22330524 122.408068,5.96148664 122.814927,6.28965653 L123.294855,5.69070164 C123.376227,5.59027807 123.974061,5.87002945 124.327779,5.85747651 L125.370667,5.82699078 C126.516515,5.74987982 128.120702,5.56158562 128.932759,5.40915698 L129.540557,6.04397743 L129.663445,6.17130017 C130.062001,6.09777577 130.663156,6.04039087 131.001928,6.04577071 C131.340701,6.05115054 132.171025,6.23227163 132.205899,6.02425137 C132.242433,5.81802439 133.350086,5.93100091 133.735357,6.34345487 L134.334851,5.82699078 L134.529147,5.66021592 C135.070519,5.76601932 135.71319,5.8825824 135.957305,5.91486141 C136.203082,5.94893369 137.098171,6.05653037 137.42698,6.06191021 L137.725897,6.06191021 C137.951745,6.06191021 138.185897,6.09956905 138.396799,6.05294382 C138.630951,5.99914548 138.831889,5.83237061 139.066041,5.78753866 L139.205535,5.76243277 C139.388207,5.84851012 139.746907,5.84492356 140.002647,5.75346638 C140.260048,5.66200919 141.050517,5.9561068 141.444091,6.24123802 L141.430805,5.49523433 L141.430805,5.4898545 C141.669939,5.48447466 142.521852,5.7104277 143.323945,5.99017909 L144.064595,6.02245809 L144.644162,6.04577071 C145.298457,5.76243277 145.954414,5.47371499 146.100551,5.40377715 C146.246688,5.33204603 146.784738,5.66918231 147.015569,6.10494888 L147.721345,5.87182273 C148.088348,5.74987982 148.754268,5.63152347 148.890442,5.78574538 C149.180225,6.11122536 149.37203,6.00721523 149.55823,5.85545907 L149.682547,5.75140405 C149.82898,5.631529 149.984441,5.53408869 150.192391,5.63869658 L150.657372,5.87361601 C151.318311,5.90410174 152.166903,6.02604465 152.542209,6.144401 L152.660115,6.04218415 L153.367552,5.42170993 C154.124808,5.73194704 154.865458,5.8825824 155.011595,5.75705293 C155.159393,5.62793691 155.728995,5.39839731 155.880114,5.59386463 C156.029573,5.78753866 156.481269,6.33807504 156.511161,6.33628176 C156.539392,6.33448848 156.987767,6.13005478 157.396287,5.93638074 C157.804807,5.74270671 159.505312,5.71760082 160.048344,5.79471177 C160.593037,5.87361601 162.049426,5.72836048 162.469571,5.89334207 C162.891375,6.05832365 163.969137,5.45219566 164.341122,5.66380247 L164.352747,5.64945625 L165.379028,4.39954142 C166.7391,4.92855845 168.124081,5.35356536 168.457872,5.34639225 C168.791662,5.33742586 169.414406,5.22265606 169.372889,5.57055201 C169.333034,5.92024124 170.633322,5.24238212 170.967113,5.10609299 C171.302564,4.96980385 172.026607,5.07381398 172.274044,5.12402577 C172.52148,5.17423755 173.15917,4.99311647 173.217292,5.11685265 C173.275415,5.23879556 173.574332,5.55082595 173.690577,5.40019059 C173.806823,5.24955523 174.569061,4.87834667 175.148627,4.88193322 L175.626894,5.12761232 L177.055053,5.59386463 L177.382201,5.3750847 C177.810648,5.08636693 178.220829,4.93931812 178.295558,5.05229464 C178.368626,5.16527116 178.946532,5.57593185 179.306893,5.78933194 L180.06747,5.13299216 L180.153824,5.05767448 C180.341478,5.06126103 180.670286,5.17603083 180.882849,5.31411324 C181.095412,5.45219566 182.405665,5.39839731 183.209419,5.07381398 L183.274184,5.0146358 L183.576422,4.72950459 C183.956711,4.87655339 184.175917,5.46295533 184.064653,6.03321776 L185.039454,5.47550827 L185.778443,5.05229464 C185.728624,5.58669151 185.74357,5.71580754 185.814977,5.34101242 C185.886385,4.96442402 186.955843,5.53827301 187.012306,5.52392678 C187.068768,5.50778728 187.547035,5.42708976 187.947251,5.33742586 C188.349128,5.24776195 189.847034,5.68711509 190.248911,5.78574538 C190.650788,5.88437568 191.642196,5.38046453 191.789993,5.51137383 C191.939452,5.64048986 192.354614,5.98838581 192.389488,5.99914548 C192.424361,6.00990514 192.623639,5.87361601 192.799668,5.71939409 C192.974036,5.56517218 193.756202,5.38943092 194.068404,5.49702761 L194.36566,5.51854695 C194.538368,5.53289317 194.845588,5.24955523 194.895407,5.28900735 L195.398584,5.69608148 C195.915046,5.48806122 196.853313,5.49164778 197.48436,5.70325459 L198.072229,5.88437568 L198.306381,5.9561068 C198.596995,5.95431352 198.975623,5.84492356 199.14833,5.71580754 C199.319377,5.58669151 200.041759,5.55261923 200.269268,5.40019059 C200.496777,5.24776195 201.941542,5.58131168 202.648979,5.62614363 L203.309917,5.67276886 L203.871217,5.7104277 C204.462408,5.87540929 205.040314,5.91844796 205.156559,5.80367816 C205.272805,5.68711509 205.960313,5.45398894 206.425295,5.53468645 L206.782335,5.69070164 C207.157641,5.85568323 207.469843,6.37573388 207.491432,5.5221335 C207.493093,5.49702761 207.7671,5.45219566 207.908255,5.46295533 C208.775114,5.52392678 209.666882,5.74091343 210.498868,5.6207638 L211.139878,5.52930662 C211.646376,5.73912015 212.172802,5.9238278 212.312297,5.94355386 C212.451791,5.96148664 213.084499,5.83595717 213.434896,5.74808654 C213.783632,5.65662936 215.945797,5.81802439 216.545292,6.00093875 C217.143125,6.18743968 218.803775,5.29080063 219.187384,5.30514685 C219.572655,5.31949308 220.99085,5.13657871 221.475759,4.91779879 C221.962329,4.70081214 223.08825,5.62793691 223.21612,5.61179741 C223.34565,5.59386463 224.066372,5.12223249 224.373592,5.48268139 L224.690776,5.5472394 C225.021245,5.61179741 225.49287,5.21727623 225.791787,5.30694013 L226.412869,5.49164778 C226.741678,5.15989133 227.211642,4.90165928 227.455757,4.91959206 L227.608537,5.01642908 L227.892508,5.20113672 C228.15489,5.45757549 228.498645,5.55441251 228.656406,5.4163301 C228.812507,5.27824768 229.234312,5.10609299 229.264204,5.32307963 C229.292435,5.53827301 230.247308,5.57593185 230.403409,5.40377715 C230.55951,5.23341573 231.245359,5.00746269 231.393156,5.20472328 C231.539294,5.40019059 232.032506,5.94714041 232.128824,5.9399673 L232.162037,5.87720257 C232.638643,4.98594335 233.354383,5.72477393 233.945574,5.68352853 L234.231206,5.66200919 C234.648029,5.52392678 235.139581,5.44502255 235.323913,5.48447466 C235.509906,5.52572006 236.014743,5.57234529 236.343552,5.70504787 C236.67236,5.83595717 238.087233,5.4486091 238.686728,5.61359069 L239.350988,5.4647486 C239.717991,5.38405109 240.222828,5.7355336 240.569904,5.63511002 L241.164416,5.46295533 C241.752286,5.57593185 242.65734,5.70504787 243.175463,5.75525966 L243.658712,5.67635542 L244.505643,5.53827301 C245.455534,5.46295533 246.360588,5.38763765 246.515028,5.37149814 C246.669469,5.35535864 247.167663,5.69249492 247.403476,5.98300597 C247.639288,6.27351702 248.6938,5.81623111 248.869829,5.94893369 C249.045858,6.08342955 249.605497,6.33986831 249.723403,6.22151196 L249.701814,6.13364133 C249.635388,5.8664429 249.377988,5.40377715 249.416183,5.38763765 L249.9725,5.12761232 C250.097049,5.53289317 250.321236,5.90589502 250.469034,5.95431352 C250.618493,6.00273203 251.040297,5.85747651 251.189756,5.73732687 C251.339214,5.61359069 251.86564,5.39660404 252.036687,5.53827301 C252.207734,5.6781487 252.686001,5.55620579 252.724196,4.96442402 L253.592715,5.35715192 L253.619286,5.36970487 C253.481452,5.67456214 253.83351,5.84671684 254.401452,5.75525966 C254.969394,5.66200919 256.326144,6.35959437 256.449032,6.25020441 L256.445711,6.15336739 L256.425783,5.47550827 C256.945566,5.60103774 257.476974,5.80547144 257.608165,5.93279419 C257.737696,6.06011693 258.179429,6.3165557 258.215963,6.09956905 C258.254158,5.88078912 258.641089,5.5472394 258.999789,5.81085128 C259.35849,6.07266988 260.823182,5.66021592 261.223399,5.65124953 C261.623615,5.64407641 262.669824,6.13184805 262.751196,6.29862292 C262.834228,6.46898434 263.916972,6.15157411 264.059787,5.98121269 C264.205925,5.809058 264.984769,5.64048986 265.240509,6.2591708 L266.012711,6.06549677 C266.398943,5.96865975 266.30637,5.8134791 266.164945,5.66876007 L266.068144,5.57458565 C265.942007,5.45309975 265.852764,5.35196085 266.102386,5.31949308 L266.703541,5.24238212 C267.3037,5.25636969 268.619827,5.26901031 269.817375,5.27213247 L271.557619,5.27286785 C272.157113,5.27286785 272.756608,5.24955523 273.354441,5.28004096 L273.854297,5.30335358 C274.389026,5.39481076 275.237618,5.16885772 275.740794,4.79944243 L276.278845,5.47012844 L276.601011,5.87002945 C276.645848,5.50958056 276.924837,4.99670302 277.222093,4.73309114 L277.474512,5.0146358 L277.87971,5.46833516 C278.367941,5.33025275 279.078699,5.14733838 279.460649,5.06305431 C279.842598,4.97877024 281.10137,4.74743737 281.403608,4.56272972 C281.705846,4.3762288 282.825124,4.89807273 283.220358,4.92317862 C283.613932,4.94828451 284.778047,5.12581904 284.980647,5.02001564 C285.183246,4.91600551 286.000285,4.67391296 286.531693,4.55914317 L286.930249,4.33677668 L287.685844,3.91714961 C288.00801,4.41388764 288.300284,4.65598018 288.333497,4.45692632 C288.368371,4.25607917 288.835013,3.75037475 289.275085,3.91176978 C289.716818,4.0731648 291.194796,4.48561877 291.643171,4.48561877 C292.089886,4.48741204 293.675806,3.77189408 294.534362,3.75037475 L295.24678,3.78624031 C295.974145,3.82210587 296.65335,3.68223018 297.350823,3.70374952 L297.83075,3.71988902 C298.221003,3.5082822 298.900208,3.45089731 299.343602,3.59615283 L299.566129,3.4760032 C300.263601,3.09762152 300.469522,3.26977622 300.547573,3.90101011 L300.554215,3.95480845 C300.944468,3.9673614 301.836236,3.57822005 302.533709,3.09224169 L303.581579,3.8364521 L303.68786,3.91176978 C303.804106,3.99426057 303.907066,3.79699998 303.91869,3.47062336 C303.930315,3.14604003 305.278762,3.51724859 305.592625,3.61408561 C305.908148,3.71271591 307.032408,3.61229233 307.364538,3.52980154 C307.698328,3.44731075 308.741216,3.19087198 309.00858,3.25722327 C309.277606,3.32357456 310.323815,2.95953911 310.918327,3.0258904 C311.511179,3.09224169 313.261503,2.97926517 313.5106,3.08148202 C313.759698,3.18728543 314.291106,3.62484528 314.344246,3.48676287 C314.399048,3.35047373 314.719553,3.11914086 314.842441,3.51724859 L315.025113,3.58539316 L315.327351,3.69836968 C315.717603,3.64995117 316.599408,3.57104694 317.281935,3.52262843 L317.677169,3.26080983 L318.205256,2.9111206 C318.593848,3.1155543 319.050526,3.28412244 319.221573,3.28412244 C319.390959,3.28412244 319.849299,3.08148202 319.993775,2.99719795 C320.138252,2.91291388 321.113053,3.14245347 321.637818,3.26798294 C322.160922,3.39171913 323.675434,2.95774583 323.811608,2.91470716 C323.947781,2.8698752 324.633629,3.67147051 324.676806,3.44193091 C324.721643,3.20880476 325.19991,2.67978773 325.65991,2.67799445 L326.066769,2.70489362 L326.589874,2.7389659 C327.146191,2.98643828 327.931678,3.12810725 328.335216,3.05637612 C328.737093,2.984645 329.985902,2.60267677 330.291461,2.53991203 C330.59702,2.47535402 331.385829,2.80173064 331.432327,2.58653726 C331.480486,2.37134389 331.709655,1.81901424 331.844168,1.82977391 L331.910594,1.88715881 C332.442002,2.34444472 332.888716,2.88242815 333.79211,2.32651194 L334.052831,2.16691019 C334.56099,2.2727136 335.177091,2.33189177 335.422867,2.29781949 C335.668643,2.26374721 336.410953,2.51659942 336.575358,2.53632548 L336.716513,2.50404647 L337.256224,2.38569012 C337.847415,2.2476077 338.715935,2.18663625 339.184238,2.25119426 L339.616006,2.2888531 L339.948136,2.31575227 C340.398172,1.95171682 340.891385,1.82798063 341.044165,2.03600089 C341.196944,2.2476077 341.685175,2.50763303 341.907702,2.31216572 C342.130229,2.11490513 343.015355,1.70603772 343.249507,1.95171682 C343.485319,2.19560264 344.292395,2.41617585 344.994849,2.47356074 L345.556149,2.57039776 L346.109145,2.66723478 C346.516004,2.49508008 347.181924,2.3300985 347.588783,2.30319933 L347.942502,2.12925135 L348.113549,2.04496728 C348.375931,2.09159251 349.257736,1.93737059 350.073115,1.70245116 L350.875208,2.27450688 L351.298674,2.57757087 C352.105749,2.53273892 352.803222,2.24940098 352.846399,1.94813026 C352.889576,1.64865282 353.880983,1.85308652 354.123438,1.97144288 C354.365893,2.08979923 355.360622,2.16332363 355.68943,2.22967492 C356.0199,2.29602621 356.828636,1.87639914 356.896722,1.91047142 C356.964809,1.94454371 357.258744,2.17587658 357.429791,2.31575227 C357.600838,2.45562796 358.877877,2.74255246 358.683581,2.53991203 C358.489285,2.33727161 358.529141,2.11311185 359.103725,2.38569012 L359.724808,1.76342262 C359.98553,1.5033973 360.868995,1.69348477 361.465168,1.72755706 L361.90524,1.75445623 C362.240692,2.05214039 362.597731,2.31037244 362.699031,2.32471866 C362.80033,2.34265144 363.633976,2.35699767 364.449355,2.43948846 L365.012315,1.77418229 L365.10199,1.66837888 C365.890799,1.96426977 366.462062,2.04138072 366.369066,1.84232686 C366.27773,1.64327299 366.129932,1.13756856 366.198019,1.06583744 C366.266105,0.992313039 366.845672,0.877543241 367.372098,0.798639005 C367.900184,0.719734769 369.361556,1.20391985 369.600689,1.07480383 L369.711953,1.12860217 L370.225093,1.38145439 C370.839533,1.35276194 371.580183,1.46035862 371.869136,1.61816709 C372.159749,1.77597557 373.20928,0.870370129 373.87354,0.429223718 L374.522853,0.673109539 L375.276788,0.954654199 C375.721842,0.579859078 376.143647,0.266035411 376.213394,0.258862299 C376.283142,0.251689187 376.552167,0.176371507 376.758087,0.0311159812 C376.965668,-0.114139544 377.835849,0.289348027 378.063358,0.414877493 Z M76.073,98.958 L76.7850519,99.3123711 C77.138874,99.2613747 77.7342686,99.315068 78.3483176,99.376141 L78.8740144,99.428027 C79.1339478,99.452604 79.3856091,99.4734299 79.6114509,99.4828446 L79.613,99.482 L79.6023617,99.4881123 L79.6023617,99.4881123 C79.4661885,99.5688098 78.7521093,99.7068922 78.052976,99.8324217 L77.4335538,99.6154351 C77.1113879,99.5042518 76.8058284,99.3589963 76.495287,99.2245004 C76.4234883,99.1934873 76.3539652,99.1505789 76.2851387,99.1040734 L76.1479466,99.0087249 C76.1250802,98.9928537 76.1021742,98.9771974 76.0791701,98.9620635 L76.073,98.958 Z M72.276,98.738 L72.3060599,98.7415967 C72.5349241,98.7608471 72.9201242,98.7814383 73.4257965,98.8026605 L73.476,98.804 L73.4265361,98.8660001 C73.3732777,98.9340707 73.3175161,99.0115273 73.2586816,99.098971 L72.8435193,99.7140654 C72.666162,99.2761468 72.469674,98.9363565 72.3125234,98.7725513 L72.276,98.738 Z M83.527,99.051 L83.7424721,99.0544127 C84.3707366,99.0641226 84.9820472,99.0726024 85.5633343,99.0795935 L85.85,99.082 L85.9010828,99.1280073 C85.9257218,99.1480257 85.951147,99.1663016 85.9776643,99.1822502 L86.035,99.21 L85.8999098,99.2085259 C85.8522612,99.2081492 85.8065473,99.2080621 85.7633704,99.2083609 C85.2435872,99.2119475 83.89514,99.4450736 83.8419992,99.3123711 C83.8091184,99.2316735 83.6895516,99.1115956 83.5600608,99.0605948 L83.527,99.051 Z M86.646,99.091 L86.8940861,99.0933813 C86.999063,99.09427 87.1024207,99.0950909 87.2040547,99.0958419 L87.479,99.097 L87.4831269,99.1288963 L87.4831269,99.1288963 L87.494,99.164 C87.4374346,99.1796124 87.3984871,99.190204 87.3725395,99.1976013 C87.2514505,99.2321219 86.9003731,99.2288093 86.5259861,99.2207676 L86.389,99.217 L86.4342972,99.2047744 C86.4509037,99.1971529 86.5282277,99.1534418 86.6340681,99.0978502 L86.646,99.091 Z M78.639,98.956 L78.7279032,98.9582766 C78.9791319,98.9640196 79.233085,98.9696734 79.4889262,98.9752215 L79.592,98.977 L79.3981264,99.0900046 L79.2304008,99.1886349 C79.0958882,99.1548188 78.9223335,99.0887237 78.741894,99.0058774 L78.639,98.956 Z M74.646,98.847 L74.6807064,98.8488436 C74.8691286,98.8550611 75.0652941,98.8612888 75.2683664,98.86751 L75.449,98.872 L75.3916127,98.9044206 C75.3326027,98.9427448 75.2710955,98.9942224 75.2066232,99.0613121 C75.1617857,99.1061441 74.8462623,99.0415861 74.7549266,98.9519222 L74.6713937,98.8707264 L74.6713937,98.8707264 L74.646,98.847 Z M84.7,98.72 L80.448,98.813 L80.4992033,98.817565 C80.8677272,98.854175 81.2713314,98.9281202 81.5201483,98.9377051 L81.529,98.937 L81.4613932,98.9516085 C81.4300829,98.9601671 81.4000024,98.9703987 81.3717811,98.9821726 L81.311,99.012 L81.4300647,99.0145904 L81.4300647,99.0145904 L81.986,99.024 L81.8558627,98.9375759 L81.77,98.925 L81.9290652,98.9075847 C82.260293,98.8672912 82.6249797,98.8049472 82.8135147,98.8002536 L82.8921324,98.8030801 C83.0797858,98.828186 83.7473668,98.8586717 84.3767528,98.8676381 L84.3767528,98.8676381 L84.7,98.72 Z M78.445,98.856 L78.5603507,98.9180224 L78.5603507,98.9180224 L78.639,98.956 L78.3532081,98.9495972 C77.7324703,98.9350269 77.1313744,98.9199509 76.5629902,98.9046277 L76.423,98.9 L78.445,98.856 Z M88.824,98.631 L87.799,98.653 L87.7619417,98.7037649 C87.711948,98.7665192 87.6642636,98.8115341 87.6208495,98.8084599 C87.5554981,98.803713 87.4816653,98.8088508 87.4046443,98.816896 L87.399,98.817 L87.414795,98.8179307 C87.4503685,98.8246835 87.4749579,98.8420839 87.4845383,98.873158 L87.487,98.925 L87.641492,98.9293947 C88.1117583,98.9255774 88.5929487,98.7826543 88.8226365,98.6326059 L88.824,98.631 Z M73.5046175,98.7708586 C73.9117977,98.3001797 74.1769938,98.4109714 74.5917942,98.7954955 L74.646,98.847 L74.4039852,98.8395269 C74.1332805,98.830222 73.8809392,98.8209585 73.6497845,98.8117922 L73.476,98.804 Z M87.9984591,98.3808414 C87.6599807,98.3779548 87.2590898,98.3781958 86.8126159,98.381142 L86.658,98.382 L86.6560123,98.4103522 C86.6503466,98.4882015 86.6542425,98.5528713 86.6661317,98.6064287 L86.673,98.627 L86.6875033,98.6237523 L86.6875033,98.6237523 L86.75,98.676 L87.799,98.653 L87.8126327,98.6362216 C87.846843,98.5887494 87.8817893,98.5378893 87.9168905,98.4926338 L87.9695858,98.4300782 L88.016,98.38 Z M10.3456057,74.1454912 C10.7480782,73.7970571 10.8564362,74.1706558 11.1021767,74.2732503 L11.1021767,74.2732503 L11.3769416,74.3874592 C11.7020155,74.4590818 11.9825853,74.6913711 12,74.9023673 L12,74.9023673 L11.9187315,75.0010902 C11.8631453,75.0669055 11.8071113,75.1408478 11.7504318,75.2179372 L11.5782592,75.4536676 C11.3746708,75.7280823 11.1607533,75.980049 10.9280299,75.9960629 C9.92378356,76.0657497 10.6958342,75.1907932 10.2856218,74.919789 C9.78640111,74.5907124 10.0302066,74.4223026 10.3456057,74.1454912 Z M16.1340896,65.4529994 C16.4380896,64.9489002 16.7840896,64.8512065 16.9080896,65.2322118 L16.9080896,65.2322118 L16.8740896,65.4998924 C16.8040896,66.0704233 16.9940896,66.4006278 17.7840896,66.4475207 L17.7840896,66.4475207 L17.8840896,66.4533824 C18.0100896,66.8343876 17.7720896,67.0708062 17.3580896,66.9809281 C16.9420896,66.889096 15.8300896,65.9570986 16.1340896,65.4529994 Z M84.468008,7.34555208 L84.345,7.353 L84.2280203,7.40069193 C84.1017289,7.45236491 83.97336,7.50642892 83.8486724,7.56064053 L83.6651217,7.64178821 L83.16,7.638 L84.0014215,8.33937339 C84.1077031,8.42903729 84.6939123,8.08293462 85.0509519,7.9287127 L85.2386052,7.84801519 C85.4229373,7.74400506 86.1951392,7.4785999 86.9540559,7.25623342 C87.1989876,7.18520137 86.0853677,7.23932942 84.468008,7.34555208 Z M77.776,7.682 L77.7676251,7.76334946 L77.7676251,7.76334946 L77.754,7.842 L77.6506466,7.85018142 C76.7671408,7.92037831 76.0767063,7.97710143 75.7452205,8.0061723 L75.74,8.006 L75.8320668,7.99319229 C76.0160817,7.96550889 76.2605554,7.9235786 76.5171481,7.87704094 L76.8277827,7.81960114 C76.9829149,7.79039241 77.1354489,7.76091311 77.2749434,7.73324539 C77.3898213,7.71046021 77.5584317,7.69415317 77.7608704,7.68307266 L77.776,7.682 Z M79.7245994,7.68219373 L79.781,7.684 L79.5291502,7.70345401 C79.046396,7.74054657 78.581723,7.77671948 78.1507094,7.81064118 L78.144,7.81 L78.003,7.672 L78.2049543,7.6675095 C78.6823472,7.65817336 79.2419741,7.66640572 79.7245994,7.68219373 Z M81.4797073,7.17553591 C81.6997433,7.28402923 81.9629562,7.39028096 82.2097702,7.47389255 L82.282,7.497 L82.2209189,7.50198083 C81.8230208,7.53085206 81.4187484,7.56066868 81.0160779,7.59074892 L80.965,7.594 L80.9881551,7.57543692 L81.4797073,7.17553591 Z" id="Combined-Shape"></path>
            </g>
        </g>
    </g>
</svg>