<?xml version="1.0" encoding="UTF-8"?>
<svg width="345px" height="122px" viewBox="0 0 345 122" version="1.1" xmlns="http://www.w3.org/2000/svg" xmlns:xlink="http://www.w3.org/1999/xlink">
    <title>Combined Shape</title>
    <g id="Assets" stroke="none" stroke-width="1" fill="none" fill-rule="evenodd">
        <g id="Plain-oats-mobile" transform="translate(-16.000000, -487.000000)" fill="#FCC517">
            <g id="note" transform="translate(16.028233, 487.000000)">
                <path d="M302.605774,0.486683213 C302.792011,0.633938934 303.518066,0.922139415 303.373665,0.482475907 C303.229263,0.0428123989 304.061933,0.415159006 304.21713,0.373085943 C304.373677,0.333116533 304.98772,0.421469966 305.221192,0.680219303 C305.456013,0.941072293 306.348062,0.901102883 306.285983,0.78540196 C306.223904,0.669701037 306.999892,0.40464074 308.147005,0.455128416 L308.568063,0.861133474 L309.350799,1.61213765 C309.419626,0.810645798 309.761061,0.55820742 310.110593,1.05046226 L310.839348,0.713877753 C311.60454,0.362567677 312.560017,0.509823398 313.422377,1.03994399 C313.746267,1.23768739 314.21186,1.6500034 314.781368,1.16195587 C315.039132,0.941072293 315.731448,1.43122348 316.179497,1.7173203 C316.398123,1.85826507 315.630232,2.18853861 316.125515,2.45149525 C316.265868,2.52512311 316.535777,2.12122171 316.726063,2.15067285 C317.02971,2.19484957 317.491255,2.32527606 317.578975,2.5840254 L317.858331,3.4191757 C318.475073,3.66740677 319.306393,4.02923511 319.707208,4.2227712 C320.108022,4.41841095 321.396838,4.74026988 321.637057,4.67926394 C321.878626,4.62036165 322.614128,4.94222058 322.786869,4.8517635 C322.958261,4.76130641 323.311842,4.69188586 323.275405,5.07054342 C323.238967,5.44709734 324.129667,4.90435482 324.280816,4.83072696 C324.431965,4.7570991 325.056804,4.82651966 325.54264,4.83072696 C326.027127,4.83703792 327.239018,5.64273708 327.367225,5.58593844 C327.495432,5.52703616 327.927286,5.4891704 327.936733,5.69743206 C327.94618,5.90569372 328.388831,6.51364948 328.885463,6.3600828 C329.382096,6.20651612 330.905732,7.06901391 331.491434,7.30041576 L331.673623,8.25126698 C331.765392,8.72248529 332.63315,8.78349123 332.797794,9.70278765 L332.872019,10.119311 C333.43208,10.4369626 333.981345,10.744096 334.094707,10.8051019 C334.208069,10.8682115 334.413199,11.307875 334.295789,11.6507705 L334.305236,11.6570814 L334.799169,11.9600075 C334.606184,12.4669879 334.463133,13.2684797 334.480677,13.739698 L334.52926,14.1877762 L334.633175,15.1302128 C334.782975,16.1610028 335.002951,17.0319152 335.12441,17.0676773 L335.24317,17.0802992 L335.368677,17.0929212 C335.506331,17.0908175 335.629139,17.1749636 335.639936,17.2780426 C335.652082,17.385329 335.383522,17.6798404 335.117662,17.8628582 L334.899036,18.0669126 C334.849102,18.1131929 334.88689,18.3635277 334.932774,18.4918505 C334.953017,18.5465455 335.096069,18.5549601 335.179741,18.5423382 C335.226975,18.5339236 335.260714,18.4056007 335.310647,18.3929788 L335.595401,18.3277656 C335.911194,18.2709669 336.156811,18.3488021 336.140617,18.5002651 C336.125772,18.6496245 336.36869,19.3648666 336.718222,19.7519387 L336.947645,20.1789803 L337.094745,20.4524552 C337.119037,21.005716 336.800544,21.2560507 336.387584,21.012027 C335.974623,20.7680032 334.97596,20.963643 335.314695,22.1311705 C335.653431,23.3008016 335.726307,26.4689032 335.38892,26.616159 C335.050185,26.7634147 334.129795,27.2493586 334.248555,27.2956389 C334.367315,27.344023 334.814014,27.7458207 335.120361,28.0550577 L335.236422,28.4189897 C335.40579,28.9533176 335.544455,28.8123729 335.684302,28.605426 L335.754471,28.4992731 C335.872076,28.3225869 335.994191,28.1705833 336.139267,28.3958495 L336.339,28.7092938 C336.757359,28.9491103 336.980034,29.4245359 336.835633,29.7632241 C336.691231,30.1019122 337.114988,31.8689809 337.19866,32.6999239 L336.927402,33.4719646 C336.633201,34.3029076 337.177067,35.7249771 337.865335,35.8070196 L338.448339,35.8785438 C339.100169,36.0489397 339.378175,36.210921 339.06643,36.2424758 C338.754686,36.2719269 337.872083,36.5874749 337.872083,36.8735717 C337.872083,37.1596685 338.186527,38.0432029 338.571147,37.9464348 L338.935525,37.8749106 L339.140655,37.8328375 C339.36333,37.8307339 339.72096,37.8875325 339.936887,37.963264 C340.151465,38.0389956 341.23245,37.8749106 341.741229,37.8959471 C342.250007,37.921191 342.857302,39.6693267 342.791175,39.8186861 L342.521266,39.7639911 C341.986846,39.6546012 341.703441,40.207862 341.909922,40.7758483 C342.051624,41.1692314 342.179831,41.6677972 342.434895,41.8697479 L342.994956,42.3136188 C343.030044,43.0751412 343.174445,43.5295303 343.316148,43.3212686 L343.45785,43.2749882 C343.603601,43.2245006 343.84247,43.2665736 343.930191,43.3927928 C344.015212,43.5105974 344.023309,43.8450782 343.950434,43.9902303 C343.707516,44.4551377 343.371479,44.7307162 342.884293,44.6423628 C342.792524,44.6255336 342.588743,44.8884902 342.580646,45.0378496 C342.569849,45.1977272 342.694007,45.4543729 342.815466,45.5322081 L343.208184,45.7867501 C343.667029,46.0160483 343.652184,46.4872666 343.174445,46.836473 L342.753387,46.8722351 L342.411952,46.8995826 C341.920718,46.5209251 341.521253,46.7270831 341.525301,47.358179 L341.452426,47.7789096 L341.345812,48.388969 C340.878869,48.5761942 340.274273,48.7571083 340.003015,48.7886631 C339.730407,48.8202179 339.797884,50.1350012 339.974674,50.8460359 C340.151465,51.554967 340.474006,53.8837111 340.193301,54.0667289 C339.911246,54.2497467 340.162261,55.4782802 340.329605,55.6928528 C340.495599,55.909529 340.770906,56.6394967 340.55093,56.8393437 L340.272924,56.9950141 C340.036753,57.1275442 339.746601,56.437546 339.484789,57.0518127 L339.4524,57.1275442 C339.218929,57.0665383 338.789774,56.8624839 338.499622,56.6773624 C338.209469,56.4901373 337.067754,56.8162036 336.585967,56.9802885 C336.104179,57.1422698 334.511716,56.4585825 334.121698,56.2103515 C333.731679,55.9600167 332.293064,56.1051688 331.990766,56.0168154 C331.689818,55.9305656 330.920577,55.3226098 330.826109,55.5729445 C330.731641,55.8211756 330.538656,56.7005026 330.576443,57.0518127 C330.61423,57.4031228 331.542717,57.5924516 331.762693,57.5882443 L331.86121,57.7144635 C331.916271,57.7857072 331.944462,57.8864207 331.967534,57.993866 L332.001023,58.1572404 C332.053655,58.4013483 332.135437,58.6219794 332.494146,58.560132 L332.591314,58.5433028 C332.751909,59.033454 333.116287,59.088149 333.398342,58.663211 L333.46177,59.6161659 L333.473916,59.809702 C333.828846,59.9800979 334.434792,60.1021098 334.820762,60.0810732 L334.892288,60.6658888 L334.951668,61.1413144 C335.044786,61.6861606 334.957066,61.9785684 334.758683,61.7913433 C334.5603,61.6041181 333.828846,61.4800026 333.710086,61.629362 C333.591326,61.780825 333.019119,61.9533245 332.712773,61.6651241 C332.407776,61.3748199 331.695216,60.489182 331.587252,60.6911327 L331.614243,60.785797 C331.785635,61.4126857 332.193198,62.0648182 332.125721,62.6328045 L332.050146,63.2891443 C331.565659,64.0359412 331.29575,64.8037746 331.450948,64.995207 C331.604796,65.1866394 332.263374,65.1424627 332.51439,64.8353294 L332.687131,64.4756047 L332.799144,64.2420992 C332.830183,63.909722 332.900359,63.6635946 332.95704,63.690942 L332.981332,63.7393261 L333.34301,64.4524645 C333.780263,64.0822215 334.248555,63.855027 334.38216,63.9475877 C334.515765,64.0422521 334.473929,64.6586225 333.977296,65.1193225 L334.297138,65.8661194 L334.430743,66.1795637 C334.782975,66.0365153 335.236422,66.4740752 335.437504,67.1493478 L335.569861,67.5879227 C335.731533,68.1207204 335.874757,68.6097339 335.800532,68.7039475 C335.706063,68.8217521 335.218878,68.8701361 334.934124,68.5356552 L334.668263,68.2432475 L334.633175,68.203278 C334.486075,68.2222109 334.290391,68.4094361 334.197272,68.6198014 C334.102804,68.828063 333.998889,69.5433051 334.244506,69.5769636 C334.490123,69.6085183 335.216179,69.9009261 334.998902,70.1091878 C334.781625,70.3153458 334.235059,71.1189413 334.32278,71.3776906 C334.41185,71.6385436 334.777577,72.2801578 334.893637,72.0887254 L334.996203,72.0529633 C335.344385,71.9267441 335.862611,72.461072 336.247231,73.4624109 L336.406477,73.8789342 C336.186501,74.3501525 335.947632,74.8213709 335.877456,74.9223462 C335.80593,75.0233216 335.788386,75.4461558 335.993517,75.62707 L336.182453,75.6291737 C336.681784,75.6375883 336.84238,75.8584719 336.629152,76.4495984 C336.571122,76.615787 336.433468,76.8745363 336.472605,76.9271277 L336.69528,77.2321574 C336.627803,77.5834674 336.336301,77.8127656 336.047498,77.7433451 L335.917942,77.2574012 L335.86531,77.0638651 C335.150051,76.9755117 335.171644,77.2531939 335.916592,77.6823391 L335.625091,78.5490442 L335.471243,79.0076406 C335.353832,79.5398649 335.365978,80.1183695 335.499583,80.2929727 C335.634538,80.4675759 335.903097,81.3595248 335.712811,81.6940057 C335.521176,82.0242792 334.616981,82.4870829 334.603485,82.7984236 L334.692555,83.0150999 L334.865297,83.4295195 C335.011048,83.9617438 335.00565,84.233115 334.853151,84.0311643 C334.700652,83.8292136 334.101454,83.6440922 333.926014,83.7408602 C333.750573,83.8376282 333.113588,83.82711 332.894961,83.7471712 C332.674985,83.6672323 332.055544,83.8523538 332.164857,83.9806767 C332.274171,84.1089995 332.679034,84.6180836 332.857174,84.7926868 C333.036663,84.96729 333.607521,84.5276265 333.6696,84.5192119 C333.734378,84.5107972 333.857187,84.7379918 333.823448,85.1019238 C333.78971,85.4658558 334.711449,85.0808873 334.88554,85.0346069 C335.059631,84.9904302 335.340337,85.3080818 335.03534,85.5079288 C334.730342,85.7077759 333.890925,86.0675006 333.826147,85.8802754 C333.76002,85.6930503 333.419934,85.4216791 333.320068,85.4469229 C333.218852,85.4700631 332.80859,86.5450298 332.641247,86.5239933 C332.472554,86.5008531 331.927337,86.9236874 331.792383,87.5148139 L331.954328,88.1101478 C332.105477,88.6676159 332.318706,89.0252369 332.799144,89.0862428 L332.893612,89.0988648 C333.012372,89.2566388 332.975934,89.6731621 332.813989,90.0202648 C332.733016,90.1938162 332.498195,90.4483583 332.272315,90.6781824 L332.055444,90.895852 C331.92089,91.0302521 331.814426,91.1380059 331.784286,91.1877923 C331.753696,91.23828 331.735402,91.3383204 331.720407,91.4505932 L331.69215,91.6803906 C331.67269,91.8297182 331.648432,91.9565607 331.598049,91.972455 C331.486036,92.0124244 331.387519,92.3658381 331.349732,92.4100148 C331.311945,92.4583988 331.392918,92.7465993 331.581854,92.9885194 C331.77214,93.2262322 332.181052,94.2780588 332.154061,94.8944292 L331.946231,95.235221 C331.376723,96.1713466 331.511678,96.6572905 332.320055,97.2231732 L332.944894,97.6628367 C332.54138,98.3002436 332.079836,99.1417049 331.92059,99.5287771 C331.759994,99.9179529 331.271459,100.412311 331.715459,100.456488 L331.657428,101.329504 L331.633137,101.689229 C331.646247,101.837687 331.661229,102.00761 331.676857,102.18482 L331.724449,102.724128 C331.747986,102.990532 331.770212,103.241424 331.786985,103.42895 L332.024505,103.723461 L332.307909,104.076875 C332.214791,104.50602 332.031252,105.265439 331.898997,105.764005 L332.181052,106.275193 L332.880116,107.539488 C332.289016,108.069609 331.786985,108.526102 331.762693,108.555553 C331.738401,108.587108 332.163508,109.800915 332.877417,111.039967 L333.401041,112.276915 L333.55084,112.628225 C333.259338,112.514628 332.984031,112.413653 332.936797,112.405238 C332.892262,112.39472 332.63045,112.508317 332.463107,112.674506 C332.295763,112.840694 331.691167,113.246699 331.549465,113.269839 C331.407763,113.29298 330.742437,113.454961 330.425294,113.677948 L330.121646,113.871484 L329.75592,114.102886 C329.330813,114.008222 328.279517,114.220691 327.419857,114.572001 C326.558848,114.923311 323.769338,115.186267 323.292949,115.369285 L322.848948,115.457639 L322.392802,115.545992 C321.913714,115.712181 320.70857,115.886784 319.715305,115.930961 L318.803012,115.937272 L318.33607,115.941479 C317.871826,116.191814 317.222695,116.80608 316.890707,117.300439 L316.464251,116.490532 C316.406221,116.381142 315.658573,116.747178 315.651825,116.717727 C315.4278,115.857333 314.979752,117.348823 314.661259,116.545227 L314.550596,116.267545 C314.068809,116.703001 313.491203,116.982787 313.268528,116.888123 L313.221294,116.940714 L312.775945,117.456109 C312.203737,117.37617 311.549208,117.454006 311.322485,117.630712 C311.095761,117.807419 310.164575,117.432969 309.933803,117.493975 C309.701681,117.552877 308.601802,117.792694 308.012051,117.788486 C307.4223,117.786383 305.856827,118.390131 305.70163,118.196595 C305.547782,118.000955 304.584206,118.585771 304.141556,118.79824 L303.790674,118.676228 L303.191476,118.461655 C302.578783,118.6026 301.782551,118.762478 301.420873,118.819276 C301.060545,118.878179 300.233273,119.229489 300.165796,119.073818 C300.098319,118.918148 299.470781,119.157965 299.129346,119.545037 C298.787911,119.930005 297.414074,119.36833 297.103679,119.568177 L296.994365,119.462994 L296.503131,118.985465 C296.095569,119.366226 295.310133,119.597628 294.759519,119.50086 L294.318218,119.677567 L293.86612,119.860585 C293.442363,119.67336 292.675822,119.540829 292.162994,119.566073 L291.690654,119.65653 L291.246653,119.740677 C290.772963,119.948938 290.065802,119.860585 289.675783,119.542933 L289.154859,119.913176 L288.779685,120.18034 C288.219624,120.140371 287.157532,120.260279 286.419331,120.443297 L285.675732,120.161407 L285.181798,119.974182 C284.516473,120.245553 283.799864,120.504303 283.592034,120.548479 C283.382855,120.592656 282.681091,120.28973 282.481359,120.424364 C282.281626,120.556894 281.58661,120.510614 281.122367,120.491681 C280.659473,120.470644 279.465126,120.83668 279.420591,120.689424 C279.374706,120.542168 279.247849,120.527443 279.233004,120.962899 C279.225145,121.193435 278.958565,121.076693 278.680972,120.914205 L278.496997,120.802411 C278.316826,120.690458 278.156226,120.587954 278.08859,120.584241 C277.895605,120.575827 277.045391,120.628418 276.644577,120.708357 C276.243762,120.786192 275.160077,120.563205 274.872624,120.647351 C274.583821,120.731497 273.533875,120.500095 273.158702,120.42226 C272.782179,120.342321 271.439382,120.458022 271.038567,120.346529 C270.637752,120.232931 269.57431,121.026009 269.393471,121.057563 C269.211283,121.087015 268.648523,120.851405 268.429896,120.88296 C268.21127,120.914515 267.572935,120.847198 267.095196,120.792503 C266.618807,120.735704 265.236873,120.561101 265.06683,120.561101 C264.898137,120.558998 264.47303,120.794607 264.338076,120.516925 C264.203121,120.237139 263.060057,120.552687 262.687582,120.620004 C262.316457,120.689424 260.97366,120.838783 260.458134,121.23427 L259.825197,120.634729 L259.362303,120.195066 C258.599811,120.167718 257.440551,120.344425 256.784673,120.590552 L256.120696,120.213998 L256.02083,120.159303 C255.729328,120.615796 255.204355,120.708357 254.854823,120.369669 C254.503942,120.030981 252.781922,120.66418 252.023478,120.784088 C251.369623,120.885829 249.761529,120.361519 249.264701,120.194953 L249.120607,120.146682 L249.120607,120.146682 C249.011293,120.113023 248.267694,120.308663 247.56863,120.453815 L246.908702,120.131956 L246.522732,119.942627 C246.298708,120.57162 245.869553,120.887167 245.571303,120.649455 C245.271704,120.409638 244.445783,120.066743 244.256846,120.304456 C244.06926,120.544272 243.336457,121.103844 243.181259,120.851405 C243.024712,120.596863 242.225781,120.228724 241.580699,120.319181 L241.139398,120.598967 C240.637367,120.912411 240.18392,120.842991 239.79795,120.540065 L239.362047,120.197169 C239.021961,120.491681 238.58201,120.638936 238.384976,120.53165 C238.187943,120.42226 237.480781,120.178236 237.279699,120.121438 C237.078617,120.066743 236.401145,120.31287 236.166324,120.533754 C235.931503,120.756741 235.154165,120.53165 234.946336,120.624211 C234.737156,120.716772 233.899089,120.596863 233.639976,120.586345 C233.382213,120.575827 232.6791,120.369669 232.658857,120.13406 C232.637264,119.896347 232.492863,119.237903 232.394346,119.32205 C232.295829,119.408299 232.020522,119.43144 231.955744,119.221074 C231.892315,119.014916 231.46451,118.859246 231.248582,118.99388 L231.131172,119.378848 C231.035354,119.692292 230.57381,119.812201 230.298503,120.060432 C229.511718,120.769363 229.491475,120.77357 228.660155,119.932109 L228.529249,119.801682 C228.344361,119.662841 228.05151,119.711225 227.878768,119.908969 C227.704677,120.102505 226.970525,120.483266 226.728956,120.20348 C226.487388,119.925798 225.773478,119.332568 225.73974,119.578695 C225.704651,119.824823 225.318682,120.53165 224.957004,120.588449 C224.596675,120.643144 222.739701,120.394913 221.530509,120.754637 L220.356405,120.174029 L219.992028,119.995219 C219.373936,120.504303 218.76934,120.708357 218.64923,120.449608 C218.53047,120.188755 217.96906,120.678906 217.904281,120.763052 C217.840853,120.845094 217.288889,120.874546 216.730177,120.861924 C216.172815,120.849302 214.580352,120.455919 214.369823,120.384394 C214.157945,120.31287 213.372509,120.739912 213.116096,120.962899 C212.861032,121.181679 211.584362,121.103844 211.053991,121.646586 L210.4332,120.893478 L210.063425,120.4454 C209.626173,120.632625 209.058014,120.620004 208.798901,120.418053 C208.539789,120.216102 207.774597,121.053356 207.49794,121.112258 C207.222633,121.173264 206.395362,120.794607 206.367021,120.569516 C206.338681,120.344425 205.948662,119.887932 205.595082,120.317077 L205.337319,120.68732 L205.039069,121.112258 C204.700333,120.927137 204.29412,120.868235 204.136223,120.981832 C203.976977,121.097533 203.469548,121.270032 203.441208,121.026009 C203.412867,120.784088 203.263068,120.699942 203.165901,121.356282 L202.561304,121.000765 L202.245511,120.815643 C201.979651,120.927137 201.605827,121.05546 201.412842,121.10174 C201.336188,121.119411 201.175754,121.064043 200.996059,120.995952 L200.720136,120.891812 C200.537311,120.826077 200.367484,120.777778 200.275175,120.807229 C200.044403,120.88296 199.233327,120.794607 198.982311,120.57162 C198.731296,120.348632 197.836547,120.472748 197.439781,120.314974 L197.091599,120.216102 C196.943149,120.174029 196.626006,120.493784 196.599015,120.4454 C196.380298,120.075157 196.24577,120.211736 196.095371,120.36815 L196.011161,120.452507 C195.982165,120.47933 195.952043,120.503882 195.920194,120.523235 C195.809531,120.588449 195.557166,120.235035 195.350686,120.121438 C195.314248,120.102505 195.12936,120.33601 195.126661,120.451711 L195.125312,120.558998 C195.258917,120.681009 195.325044,120.83668 195.273762,120.9061 C195.222479,120.977625 194.970114,120.933448 194.791974,120.834576 C194.615184,120.735704 193.871584,120.811436 193.531499,121.004972 L193.223803,121.002868 C192.743365,121.000765 192.078039,120.53165 191.824325,120.792503 L191.330391,121.288965 C190.930926,120.99235 190.430245,120.779881 190.215667,120.81354 C189.99974,120.847198 189.296627,121.217441 189.106341,121.419392 C188.917405,121.623446 188.743313,120.718875 188.712274,120.674699 C188.679885,120.628418 188.234535,120.66418 187.727106,120.742015 C187.218328,120.819851 185.57998,121.061771 185.210205,121.112258 C184.840429,121.160642 183.805328,119.843756 183.670374,120.035188 C183.535419,120.224517 183.212878,121.150124 182.647419,121.244789 C182.08061,121.341557 179.921338,120.369669 179.004997,120.005737 L178.203367,120.988143 L177.983391,121.25741 C177.430078,121.105947 176.85922,120.885064 176.713469,120.771467 C176.569068,120.653662 175.976618,120.847198 175.7337,120.672595 C175.489432,120.495888 174.682404,120.965003 174.556896,120.990246 C174.430039,121.019698 173.718829,120.954484 173.264032,120.870338 C172.807886,120.786192 170.950912,121.011283 170.12634,121.25741 L169.432674,120.567412 C169.41513,120.550583 167.751141,121.103844 167.729548,121.131191 C167.643177,121.236374 167.568953,121.415184 167.469086,121.444636 L167.046679,121.568751 C166.65666,121.286862 166.367857,120.861924 166.402946,120.622107 C166.438034,120.382291 166.317924,119.6965 166.157328,119.6965 C165.996733,119.6965 165.656647,119.881621 165.779456,120.106712 L165.794301,120.348632 L165.814544,120.653662 C165.806447,121.114362 165.456915,121.38363 165.038556,121.248996 L164.674179,121.242685 L164.382677,121.236374 C164.074981,121.362593 163.467685,121.501434 163.034481,121.551922 C162.601277,121.600306 161.325957,121.236374 161.069544,121.392044 C160.81313,121.547715 159.961567,121.206923 159.718649,121.389941 C159.477081,121.572958 158.663305,121.25741 158.53105,121.352075 L158.396095,121.379422 C157.761809,121.505642 157.186903,121.482501 156.525626,121.192197 L155.94937,120.937655 C155.386921,120.955132 154.796012,120.964542 154.401439,120.966584 L154.080637,120.966197 C154.054114,120.965886 154.03094,120.965488 154.011424,120.965003 C153.759059,120.956588 153.502645,120.142474 153.186852,120.681009 L153.019508,120.981832 L152.927739,121.145917 C152.838669,121.337349 152.406815,121.610824 151.969562,121.75808 C151.532309,121.903232 150.221901,121.18799 150.003275,121.12488 C149.783299,121.059667 149.341998,121.126984 149.193548,121.023905 C149.046448,120.92293 148.432405,121.040734 148.243468,121.076496 C148.055882,121.114362 147.22861,121.181679 146.818349,121.114362 C146.409437,121.049149 145.337898,120.645247 145.319004,120.537961 C145.298761,120.430675 145.066639,120.66418 144.837217,121.282654 L144.136803,120.746223 C143.943818,120.598967 143.420194,121.316313 143.020729,121.387837 L142.673896,121.450947 C142.262285,121.21113 141.614503,121.457257 141.232582,122 L140.649579,121.354178 L140.317591,120.986039 C139.771025,120.674699 139.242003,120.59476 139.140787,120.809332 C139.039571,121.026009 138.565881,121.56244 138.42148,121.295276 C138.277079,121.030216 137.729163,120.765156 137.459254,121.171161 L137.206889,121.356282 C137.062488,121.461465 136.625235,121.326831 136.621187,121.27424 L136.560457,120.239242 C135.857344,119.946835 135.246001,119.974182 135.201466,120.298145 C135.15828,120.622107 134.762863,121.217441 134.389039,121.116466 L134.088091,121.232167 C133.85462,121.32052 133.696723,121.610824 133.668382,121.082807 C133.638692,120.523235 133.316151,120.390705 133.084029,120.645247 C132.433549,121.364697 131.693998,120.878753 131.009779,121.026009 L130.534739,121.129088 C130.008416,121.238478 129.503687,121.333142 129.411918,121.339453 L129.328246,121.32052 L128.760087,121.183783 C127.982749,120.990246 127.556293,120.725186 127.811357,120.596863 C128.066421,120.466437 127.545497,119.786957 127.499612,119.568177 C127.453728,119.349397 127.143332,119.12641 127.123089,119.595524 C127.102846,120.068846 126.839685,121.217441 126.584621,121.040734 L126.414578,120.838783 L126.212146,120.598967 C126.012414,120.125645 125.557617,119.974182 125.201337,120.260279 C124.843708,120.546376 123.855841,120.771467 123.727634,120.413846 C123.599427,120.056224 123.009676,119.41461 122.733019,119.883725 L122.73032,120.260279 L122.722223,121.375215 C122.260679,121.417288 121.510332,121.32052 121.056885,121.156435 C120.603437,120.994454 119.288981,121.253203 119.197212,121.200612 C119.105442,121.145917 118.653345,120.939759 118.414475,120.821954 C118.174256,120.708357 117.120262,120.805125 116.608784,121.057563 L116.276796,120.887167 L115.951556,120.718875 C115.745075,120.073054 115.342911,119.702811 115.059507,119.902658 C114.774753,120.098298 114.137767,120.748326 114.167457,120.920826 L114.156661,121.080704 L114.147214,121.221648 C114.085135,121.371008 113.955579,121.467776 113.861111,121.434117 C113.765293,121.404666 113.410363,120.988143 113.21063,120.683113 C113.012247,120.373876 112.170131,121.023905 112.039225,121.042838 C111.909669,121.059667 111.345559,120.927137 111.072951,120.821954 L111.043261,120.655766 L110.943394,120.102505 C111.303723,120.102505 111.858386,120.060432 112.175529,120.005737 C112.492672,119.953145 112.635724,118.825587 112.326678,118.745649 C112.017632,118.667813 111.102641,118.73513 111.098592,119.10327 L110.966337,119.441958 C110.805741,119.858481 110.531783,120.489577 110.280768,120.510614 C109.587102,120.565309 110.133667,119.648116 109.843515,119.307324 L109.801679,119.25894 C109.734202,119.202141 109.452147,119.559762 109.174141,120.056224 C108.894785,120.550583 107.430529,120.535857 106.974383,120.575827 C106.518236,120.6179 106.020254,119.423025 105.882601,119.868999 C105.744947,120.317077 106.727416,120.645247 106.786796,120.714668 C106.846176,120.788296 106.875866,121.18799 106.722018,121.434117 L106.560072,121.465672 L106.354941,121.503538 C106.113373,121.364697 105.595148,120.83668 105.205129,120.329699 L105.109311,118.537387 C105.095816,118.29757 104.616727,117.864218 104.593785,117.889462 C103.419681,119.117995 103.813748,117.639127 103.686891,117.06483 L103.673396,116.999616 C103.547888,116.862879 103.425079,117.100592 103.398088,117.52553 C103.371097,117.948364 103.090392,118.726716 102.827231,118.385924 C102.565419,118.047236 102.161905,119.572384 102.072835,119.864792 C101.985115,120.1572 101.574853,121.059667 101.412908,121.099636 C101.250962,121.139606 100.346767,121.057563 99.6625478,121.120673 L99.0471553,121.166953 L98.9162494,121.175368 C98.7745472,121.263721 98.6557872,121.200612 98.6517386,121.036527 C98.6490395,120.874546 98.6706322,120.481162 98.6611854,120.176133 C98.6530882,119.868999 99.1416234,119.216867 99.4182802,119.267355 L99.638256,119.338879 L99.8406877,119.404092 C100.022876,119.622872 100.42639,119.904761 100.738135,120.028877 L101.041783,120.087779 C101.187534,120.113023 101.453394,120.00784 101.49388,119.877414 L101.661224,119.353604 C101.802926,118.75827 102.156507,118.261808 102.448009,118.253394 L102.541127,118.074583 C102.750307,117.668578 102.748957,117.037482 103.005371,116.732453 L103.491207,116.149741 C103.211851,115.653278 102.840726,115.2052 102.665285,115.154713 C102.489845,115.102121 101.947327,115.451328 101.947327,116.069802 C101.947327,116.688276 101.592397,118.287052 101.192932,118.305985 L100.954062,118.733027 C100.657162,119.25894 100.371059,119.315739 99.9270586,118.840313 L99.7016846,118.600497 C99.2698302,118.916044 98.7475563,119.61025 98.5410759,120.140371 C98.3359451,120.670491 97.2886982,121.158539 97.449294,120.815643 C97.5429749,120.614394 97.762023,120.18408 97.9473183,119.815327 L98.0941657,119.521108 C98.1597451,119.388315 98.2107748,119.28208 98.2347292,119.225281 C98.3318964,119.000191 97.7502426,118.411168 97.6449781,118.034614 L97.4884308,117.864218 L97.1105582,117.449798 C96.8716888,116.871294 96.5963816,116.229679 96.4965153,116.01721 C96.3979985,115.802638 95.9013659,116.505258 95.7610132,116.852361 L95.7664114,117.170012 L95.7691105,117.367756 C95.812296,117.628609 95.7043324,118.29126 95.5288915,118.84452 C95.3534507,119.397781 95.304867,121.047045 95.2373898,121.080704 C95.168563,121.118569 94.9296935,121.063874 94.8554686,120.88296 C94.7825931,120.706253 94.3952737,120.077261 94.2238815,119.816408 C94.0524893,119.557659 94.8446722,118.932874 94.9391404,118.716197 C95.0309094,118.501625 95.0255112,118.137693 94.7245627,118.42379 C94.4236142,118.707783 93.5464099,117.889462 93.3561241,117.967297 C93.1658382,118.045132 93.3763673,118.985465 93.4546409,119.288391 L93.4829813,119.570281 L93.5113218,119.858481 C93.4991758,120.161407 93.0740692,120.31287 92.5679898,120.197169 L92.155029,120.228724 L92.0848527,120.232931 C92.018725,120.893478 91.870275,121.352075 91.7555637,121.251099 C91.6408524,121.14802 91.0335572,121.18799 90.6651314,121.347868 L90.654335,121.318416 L90.4316601,120.710461 C90.81763,120.620004 91.090238,120.346529 91.0376058,120.104609 C90.9863231,119.864792 90.6151982,119.328361 90.384426,119.694396 C90.1536538,120.060432 89.3128873,120.948173 88.9701029,120.948173 C88.6273184,120.948173 87.6893847,120.910308 87.685336,120.868235 C87.6839865,120.821954 87.8661751,120.676802 88.0982968,120.64104 C88.3304185,120.605278 89.0038415,120.171925 89.005191,119.768024 C89.005191,119.366226 89.9755139,118.903423 90.159052,118.852935 C90.3412406,118.800344 90.8729613,118.49321 90.9471863,118.341747 L90.9188458,118.234461 C90.8851072,118.101931 90.7218123,117.893669 90.6664809,117.916809 C89.7393435,118.303881 88.8257016,118.764581 87.8243392,118.709886 L87.1509162,118.674124 C86.8256759,119.330464 86.4235115,119.974182 86.2561679,120.102505 C86.0901739,120.232931 85.733894,119.54714 85.6502222,119.458787 C85.5679,119.372537 85.1751824,119.092751 84.9943433,118.981258 C84.8148539,118.871868 84.3816499,118.453241 84.4869144,118.320711 C84.5921789,118.18818 84.9916442,117.914706 85.1400942,118.013577 L85.1832796,118.156626 L85.41945,118.918148 C85.9349762,118.79824 86.4451042,118.613118 86.5544173,118.510039 C86.6623809,118.404857 86.858065,117.843181 86.8526668,117.57181 C86.8486181,117.300439 86.1198639,116.812391 85.8742467,116.753489 L85.8594017,116.652514 C85.644824,115.106329 84.9997415,115.983552 84.8769329,116.511569 C84.6596562,117.460317 83.9538441,117.542359 83.5219898,118.051443 L83.1373694,118.505832 C82.883655,119.094855 82.6272414,119.328361 82.5665119,119.025434 L82.5368219,118.745649 L82.4814906,118.242875 C82.0266939,117.965193 81.3465232,117.491871 80.9713497,117.193153 L80.9038725,116.831324 C80.7378784,115.937272 80.303325,115.90782 79.7378656,115.914131 C79.493598,115.916235 79.208844,115.520748 79.0131599,115.59648 C78.8215246,115.670108 78.7365032,116.132911 78.5718587,116.389557 L78.5151778,116.480014 C78.3006002,116.513673 78.2938525,116.681965 78.4989833,116.850257 C78.7041141,117.020653 79.0819867,117.628609 78.909245,117.849492 C78.7365032,118.07248 77.4598337,117.270988 77.6109827,117.008031 L77.6825086,116.749282 C77.8970862,115.983552 77.6069341,115.535474 76.9888425,115.842607 C76.5030063,116.082424 76.3721004,115.537578 76.073851,115.497608 L75.6959784,115.445017 C75.249279,115.495504 74.4071629,115.726906 73.8241595,115.962515 L73.5056669,115.720595 L73.1035024,115.419773 C72.7377758,115.482883 72.1858119,115.657486 71.8754165,115.806845 C71.5636716,115.956205 70.4853852,115.489194 70.2465157,115.417669 C70.0076462,115.346145 69.400351,115.476572 69.100752,115.440809 C68.9516273,115.422928 68.6435936,115.390848 68.339946,115.404784 L68.275,115.409 L68.3217005,115.448586 C68.4991185,115.619406 68.7034607,115.91842 68.8031715,116.107523 L68.8436986,116.191814 C68.8577165,116.225065 68.2639152,116.243681 67.2453357,116.250625 L67.241,116.25 L67.2714787,116.223368 C67.3503752,116.10168 67.5861702,115.757727 67.8062007,115.531739 L67.851,115.487 L67.7868825,115.511856 C67.7118078,115.545875 67.6493164,115.589468 67.6054562,115.644864 C67.4454601,115.847983 66.981554,116.062887 66.5417558,116.051444 L66.465,116.045 C66.4586028,116.123796 66.4562785,116.181003 66.4577093,116.226388 L66.459,116.253 L65.767,116.253 L65.7127796,116.295254 C65.6581873,116.337607 65.6203104,116.368126 65.6101888,116.374831 L65.556207,116.397972 C65.402134,116.464587 65.2900259,116.409139 65.1937054,116.303859 L65.15,116.251 L65.1172433,116.25165 C64.1887826,116.248162 63.1280012,116.24055 61.9835275,116.229602 L61.889,116.228 L61.834127,116.244668 C61.3857407,116.380617 60.926558,116.542072 60.6539499,116.652514 C60.1087338,116.86919 58.4258512,116.364313 57.7686227,116.501051 L57.311,116.172 L57.5008441,116.175946 C58.0681384,116.183913 58.6306411,116.191412 59.184083,116.198372 L59.454,116.201 L59.3588722,116.14151 C59.1633573,116.01193 58.957896,115.847416 58.8044334,115.691144 C58.535874,115.417669 57.1728335,116.141326 57.0365295,115.886784 C56.9002255,115.634346 56.361757,115.230444 56.1930639,115.489194 C56.0257203,115.750046 55.415726,115.213615 55.3172092,115.341938 L55.2362365,115.466053 C55.1363702,115.61962 55.0351543,115.918339 54.952832,115.909924 C54.8820206,115.902499 54.7989559,115.915689 54.7138343,115.930091 L54.5858838,115.950179 C54.3531531,115.979781 54.1434226,115.945191 54.1687464,115.442913 L54.1795428,115.228341 C54.5371722,114.980109 54.6964185,114.679287 54.5331235,114.563586 C54.3698286,114.445782 53.8448556,114.338495 53.7206975,114.580415 C53.5965393,114.824439 53.0499736,115.421877 53.0567213,114.832854 L53.0378277,114.548861 C53.0283809,114.412123 52.94201,114.163892 52.9177182,114.170203 L52.6194688,114.231209 C52.2969275,114.32377 52.0985444,114.037673 52.176818,113.593802 L51.6477964,113.781027 L51.54793,113.816789 C51.4588601,113.95563 51.1133765,113.938801 50.7773398,113.781027 C50.4413031,113.62115 49.1551868,113.614839 48.7840619,113.642186 C48.4115875,113.66743 47.2334347,112.947981 46.9243889,113.000572 C46.6166926,113.053163 45.7988684,113.274047 45.6787589,112.81545 C45.5572998,112.35475 44.1456758,112.077068 44.0188185,112.125452 L43.9999249,112.091794 L43.3426965,110.823291 C42.1793887,110.629755 41.1361905,110.436219 41.0255278,110.385731 C40.9148651,110.339451 40.3898921,110.362591 39.9755818,110.320518 C39.5612715,110.276341 37.8527475,110.427804 37.1064491,110.514054 L36.9579992,109.317075 C36.9431542,109.186649 36.6476038,108.963661 36.5855248,109.009942 L36.157719,109.327593 C35.724515,109.079362 35.2764661,108.707016 35.1617548,108.505065 C35.0470435,108.298907 34.2993955,107.911835 34.0794197,107.77089 C33.8580943,107.627842 33.1819723,107.354367 33.0888537,107.39644 C32.9957351,107.440617 32.6880388,107.308086 32.6151634,106.994642 L32.4748107,106.792691 C32.3965371,106.683301 32.1252786,106.666472 32.0011204,106.750618 C31.5179833,107.076685 30.9808644,107.135587 30.6353809,107.162934 C29.887733,107.219733 30.2534597,106.815832 30.2952956,106.357235 C30.3168883,106.117419 29.8526448,105.829218 30.442396,105.734554 C30.7150041,105.690377 30.9849131,105.534707 31.2345789,105.372726 C31.5166338,105.191811 31.4680502,105.002483 31.252123,104.712178 L31.0186517,104.400838 C31.2561716,104.118948 31.7190655,103.555169 32.049704,103.149164 C32.3803426,102.741055 32.7798079,101.17173 32.4154307,101.089688 L32.1495704,101.133864 L31.8378255,101.184352 C31.507187,101.346333 30.9943599,101.306364 30.7001591,101.091791 C30.4059583,100.877219 30.4761346,99.0428332 30.5881468,98.3149692 L30.6050558,98.2027555 L30.6050558,98.2027555 L30.6434624,97.936833 C30.6707261,97.7438202 30.7008017,97.5229605 30.7306488,97.295944 L30.774868,96.9535131 C30.8614435,96.2702613 30.9322808,95.6292052 30.9052899,95.6159822 C30.8607549,95.5907384 30.5004264,95.90839 30.2399642,96.3312243 L29.8863834,95.6328114 L29.7068939,95.2772941 C29.7743712,94.9407096 29.9822011,94.3411684 30.1697879,93.9456816 L29.8418484,93.7521455 L29.6677571,93.6490665 C29.2628936,93.930956 29.0213251,93.8615355 29.1333373,93.4954998 L29.1562796,93.1904701 L29.2183587,92.3490089 C28.9309056,91.5243768 28.6690939,90.5482818 28.6394039,90.1801425 C28.6083643,89.8120032 28.9767901,88.5981953 29.5220063,88.2637145 C30.0658729,87.92713 30.0618243,86.004391 29.6650581,86.1579577 L29.4342859,86.4019814 L29.1886687,86.6628344 C28.9066138,86.9005472 28.3613976,86.5071641 27.9781268,85.7856111 L28.1778595,85.173448 C28.2439872,84.9757046 28.2358899,84.7358881 28.3182122,84.5528703 C28.5138962,84.1111032 28.7433188,83.6966835 28.9565469,83.2675382 C29.1954164,82.783698 29.4720731,83.8881159 29.7514289,83.2233615 L29.8310521,83.0319291 C30.1643897,82.9393683 30.1266024,82.7311067 29.7500794,82.5649181 L29.7325353,82.3861076 C29.7041949,82.0894925 29.8890825,81.7255605 30.0469793,81.4499819 C30.1306511,81.3048299 30.3668214,81.3174518 30.5017759,81.1975435 C30.8283658,80.9093431 30.9255331,80.036327 30.6029918,79.9080042 C30.2035265,79.7460229 30.0969125,79.5419685 29.9484625,79.0896831 L29.8701889,78.8519703 C29.3047295,78.7720315 29.3600609,78.4606908 29.9916479,78.1640757 C30.6245845,77.8674606 32.3277103,76.6178906 33.1185437,77.2910596 L34.0807693,77.0849016 C34.2710551,77.0449322 34.6772681,77.5855711 34.7568913,77.9410885 L34.9539249,78.8204155 C35.4154692,78.5658735 35.662436,78.0084054 35.5045392,77.5813638 L35.5328797,77.2216391 C35.6192505,76.1298431 35.7650014,75.0401508 35.94719,73.9693913 L35.9890259,73.7295749 C36.2427403,73.5318315 36.5625825,73.3004296 36.7002361,73.2225945 C36.8392392,73.1426556 37.1860723,72.4926268 37.4357381,72.4863159 C37.5558911,72.4842801 31.4395688,72.4462895 25.104029,72.3987979 L23.835781,72.3891808 C17.4977556,72.3405399 11.3416631,72.2841616 11.3847615,72.2464994 C11.475181,72.1707679 11.7666827,71.794214 11.8719473,71.63644 C11.9785613,71.4807697 12.4819416,72.0718962 12.5602152,72.1686642 C12.6371393,72.2654323 13.0595468,72.3874442 13.094635,71.9540916 C13.1324223,71.5228427 13.4617113,70.7760458 13.7653589,71.0474171 C14.0690065,71.3187884 14.9030253,70.7381801 14.8409462,70.6498267 C14.7788672,70.5635769 14.7680708,70.2080595 14.954308,70.0523892 L15.0568734,70.1112915 C15.4819801,70.3469006 15.9718649,71.2304349 16.1108681,69.81678 L16.1135672,69.7873289 C16.244473,69.7810179 16.5656647,69.8672677 16.8261269,69.9787613 C17.0865891,70.0923586 17.9341033,69.6400731 18.1797205,69.6190366 C18.4239882,69.5980001 19.1905297,69.6926645 19.5657032,69.6926645 C19.9408767,69.6905608 20.5819106,68.8049228 20.3147007,68.6324233 C20.0474908,68.4620274 19.4712351,67.5343163 19.6156364,66.9473971 C19.7600377,66.3604779 18.2863346,64.6964882 18.4118423,64.6417933 C18.540049,64.5892019 18.6763531,64.0717033 18.2903832,63.6720092 L18.2984805,63.3354247 L18.3187237,62.5781095 C17.9314043,62.5612803 17.4685103,62.3530186 17.2890208,62.1132022 L17.1662122,61.8628675 L16.8909051,61.2990884 C17.0663459,60.6532669 17.0744432,59.5740928 16.9084492,58.9051311 L16.8058837,58.2719315 L16.7734947,58.0741881 C16.8315251,57.8112315 17.2013004,57.8596155 17.5953676,58.1835781 C17.9880851,58.505437 19.2067243,57.9269324 19.2391133,57.8175425 C19.2715024,57.7102561 19.1459947,57.2832146 18.8949794,57.1149223 L18.777569,57.2032757 L18.5063104,57.4073301 C18.1554287,57.6765977 17.9260061,57.674494 17.9948329,57.4031228 L18.0501642,57.1527881 L18.1068451,56.8919351 C18.1608269,56.6016309 18.1270883,56.4038875 18.0326201,56.4543752 C17.9368024,56.5027592 17.5211426,56.5616615 17.3187108,56.4733081 C17.1149295,56.3870583 17.5170939,55.1206591 17.6736412,54.4979778 L18.2296537,54.3444111 C18.3389668,54.3128563 18.53735,54.2434358 18.5360004,54.2076737 L18.44828,52.7792932 C19.3268338,52.228136 19.857205,51.6222839 19.6277823,51.4329552 C19.3983597,51.2415227 18.5103591,51.4855465 18.3673073,51.4287478 C18.2242555,51.3719492 17.158115,50.8839017 16.3362421,50.4168907 L15.4765819,50.6356706 C15.0906121,50.7324387 15.0447275,50.4337199 14.9408126,50.002471 L14.7869644,49.3587531 C14.5440463,49.7668619 14.0568606,49.9730199 13.7046294,49.8257641 C13.3510486,49.6764048 12.2579171,49.013754 12.0406404,48.7444864 L12.0689808,48.6939988 L12.3712789,48.1617745 C12.1823426,47.6295503 11.955619,47.0952224 11.8692482,46.9774178 C11.7828773,46.8554059 11.4913756,46.6829063 11.4158011,46.8596132 L11.3132356,46.9711068 L11.1620866,47.1372954 C10.9691017,47.2761365 10.5777336,47.5117457 10.2916301,47.6547941 C10.0068761,47.7978425 9.10538003,48.0439699 8.96232826,47.8651594 C8.82062604,47.6842452 8.52507569,46.891168 8.67352564,46.5629981 C8.82062604,46.2390355 9.89216476,46.7712598 10.3159219,46.7859853 L10.3820496,46.4388826 C10.4535755,46.066536 10.2255024,45.2313857 10.1053929,45.2250747 L8.21198125,45.1177884 C8.46029753,43.4495915 8.44005435,42.0422475 8.16609672,41.9875525 C7.89348863,41.9328575 7.42384698,42.7027946 7.35367064,42.6102338 C7.28214475,42.5197768 7.07836346,42.2547165 7.05407165,42.2252653 C7.03112939,42.1937105 6.87728126,41.8318822 6.76661857,41.4868831 C6.65595588,41.141884 7.03112939,39.9680455 7.15663707,39.686156 L7.19307479,39.4147847 L7.22681341,39.1623463 C7.17822979,38.8678349 6.98929349,38.6574696 6.80710492,38.6932317 L6.64380998,38.7416157 L6.51290411,38.7815851 C6.37255143,38.8446947 6.21600421,38.745823 6.16742059,38.5585979 L6.21465467,38.4702445 L6.46836913,37.9906115 C6.90427216,37.2753695 6.85298945,36.9051265 6.35500735,37.1659795 L5.54393081,37.2522293 C4.93663557,37.2290891 4.40896348,36.9661325 4.37252576,36.6653101 L4.38332212,36.4507374 L4.49533435,34.2440053 C3.77197824,33.3289162 3.08236075,32.5126987 2.96225125,32.426449 L2.92581353,32.3128517 L2.78006267,31.850048 C2.82999584,31.3009945 2.69504134,30.3838018 2.48181323,29.8137117 L2.17411698,29.6517305 C1.39947815,29.2478291 1.41567269,28.5283797 1.4548095,27.7163696 L1.46965449,27.4113399 C1.46290677,26.8370425 1.064791,26.603537 0.585702525,26.8896339 L0.900146507,26.1512516 C1.19164822,25.4675643 0.666675224,25.4843936 0.51147755,25.2067114 C0.468292111,25.1288762 0.172741758,26.0839347 0.0202431748,25.1982967 L0,25.0783885 C0.244267643,24.8764378 0.485836196,24.6744871 0.537118905,24.632414 C0.588401615,24.5861337 0.444000301,23.8793062 0.0931186042,23.1619605 L0.219975833,22.3457431 C0.252364913,22.1332741 0.364377147,21.9229088 0.348182607,21.727269 L0.330638522,21.4979709 C0.221325378,21.2581544 0.249665823,21.1003804 0.391368046,21.1487644 C0.534419815,21.1971485 1.14171506,21.066722 1.39812861,20.744863 C1.6558917,20.4251077 1.27936865,19.2049889 1.46290677,19.1103245 L1.5087913,19.1629159 C1.98922931,19.7119693 2.41028735,19.817152 2.82729675,19.0451113 L3.18627572,18.3803569 C3.57359513,18.8515752 3.92042819,19.0282821 3.9568659,18.7758437 C3.99465316,18.5234053 4.59924932,17.6524929 5.21869047,17.4000545 L5.64244759,18.5423382 L5.86242343,19.1334647 C6.45757277,18.4750213 6.84624172,17.8902057 6.72613222,17.8376144 C6.60737226,17.785023 6.30777327,17.5010299 6.34421099,17.3327376 L6.37120189,17.3348413 C6.65730543,17.3516705 6.94475851,17.3916399 7.2295125,17.4463349 L7.36176791,17.4694751 C7.50212059,17.5388956 7.67486235,17.4210911 7.74368914,17.2128294 C7.81386548,17.0066714 8.30240077,17.1160613 8.34963484,16.9730129 C8.39686891,16.8278609 8.67082655,16.4260631 8.76259561,16.6785015 C8.85571421,16.9288362 9.39148357,17.2338659 9.66004302,16.5564896 L9.87057204,16.2346307 L9.98663291,16.0621311 C10.2282015,16.0137471 10.6829981,16.1378626 10.994743,16.3398133 C11.3078375,16.541764 12.448203,16.0768567 12.6749265,16.2914293 C12.9016501,16.5017946 13.5683253,16.9877385 13.8193407,16.3734718 L14.0339183,15.9506375 L14.2457969,15.5341142 C14.6371649,15.4941448 15.135147,15.6014311 15.3510742,15.7739306 C15.5670014,15.9485339 16.004254,15.1070726 16.2647162,15.1196945 C16.5238288,15.1323164 17.2633795,15.3700292 17.3605467,15.4836265 C17.4563644,15.5972238 17.908462,15.7676197 18.0164256,15.4184133 C18.1230396,15.0692068 18.6223713,14.2151237 18.8733867,14.3497575 C19.124402,14.480184 19.7316973,14.2908552 19.9287308,14.1772579 C20.1271139,14.061557 20.6912238,14.4065561 20.7910901,14.2992698 L20.8045855,14.1898798 L20.8545187,13.7859784 C21.0866404,13.842777 21.7006834,14.1709469 22.2189087,14.5201534 L22.2836868,13.4178391 L22.289085,13.333693 C22.4010973,13.2600651 22.9166234,13.0518035 23.4348487,12.8687856 C23.9517244,12.6857678 25.6899384,13.1022911 26.1406864,13.0707363 L26.4659268,13.1927482 C26.8006139,13.3210711 27.0219393,13.897472 27.0408329,12.9487245 C27.0421825,12.8498528 27.4281523,12.660524 27.4402982,12.6836642 C27.8465113,13.4325647 28.4578552,12.8267126 28.5725665,12.6289692 C28.9409923,11.9915623 29.457868,12.8582674 29.8532847,12.2566226 L30.0030842,12.029428 C30.6387199,12.3197322 31.2352187,12.5805852 31.3283373,12.6100363 C31.4228055,12.6373838 31.9221371,12.248208 32.2716693,11.8316846 C32.622551,11.4130577 33.8263451,12.1472326 33.8924728,12.0988486 L33.8924728,12.0546719 L33.8654819,10.9292174 C34.4511844,11.1606193 35.3243401,11.0512293 35.8074772,10.6809864 L36.2258361,11.5497951 L36.4323165,11.9789404 C36.86687,11.6865326 37.4404266,11.3036677 37.7076365,11.1248572 L37.9842932,11.0386074 L38.0720137,11.0091563 C38.1624332,10.9670832 38.4701294,10.9586686 38.756233,10.992327 C39.043686,11.0280891 40.0504466,10.8997663 40.3500456,10.9839124 C40.6496446,11.0680585 41.398642,10.5905293 41.472867,10.7104375 C41.5484415,10.8303457 41.8628855,11.1227535 41.9290132,10.9670832 L41.99784,10.8387604 L42.072065,10.6999192 C42.1651836,10.5526635 42.2663995,10.525316 42.297439,10.6368097 C42.327129,10.7504069 42.478278,11.1290645 42.5552021,11.1879668 L42.626728,11.1606193 L43.1651964,10.9628759 C43.7751908,10.7987909 44.3622428,10.6010475 44.471556,10.5169014 L44.5498296,10.4054078 L45.0977449,9.60391596 C45.5134047,10.3444019 45.9398609,10.7651325 46.046475,10.5400416 C46.153089,10.3149507 46.5053203,9.85425068 46.6105848,9.97626256 C46.7171988,10.0982744 46.9466215,9.63126345 46.9655151,8.75824739 L47.7482512,9.86266529 L47.8845553,10.0540977 C48.2894188,9.94681142 48.8143918,9.88159817 49.0546108,9.90894566 C49.2921307,9.9341895 49.8454441,10.1108964 49.8616387,9.83742146 C49.8778332,9.56394655 50.6929584,9.52608079 50.8198156,9.72172053 C50.9453233,9.91525662 51.1666487,9.57025751 51.1491046,8.74562547 L52.0114638,9.78272647 C52.0618468,9.84408302 52.2449445,9.73149375 52.4463727,9.59110656 L52.6208467,9.46737572 C52.7076604,9.40551517 52.7918382,9.34621845 52.8643763,9.3009899 L53.0168748,9.20632551 C53.1666743,9.08431363 53.7942128,8.77297296 54.4109548,8.51211997 C55.0290464,8.25337064 56.6228591,9.41037987 56.7497163,9.41669083 C56.8779231,9.42089813 57.6377169,9.22315474 58.1667385,9.07169171 C58.6957602,8.92022868 60.626959,9.01278942 61.0169775,9.08220998 L61.1843211,8.88657023 L61.5837864,8.41745558 C61.9414159,8.67199761 62.439398,8.91602138 62.6904133,8.95809444 L62.9279332,8.96019809 L63.3597876,8.9644054 C63.7970402,8.68041222 64.3422564,8.37327886 64.5689799,8.28282178 C64.797053,8.19236469 65.921224,8.05562724 66.5217715,8.05352359 L67.0696868,8.02827975 L67.2302827,8.01986514 C67.4030244,7.90837152 67.570368,7.98199938 67.6014075,8.18184643 C67.6324471,8.38379713 68.2802287,8.27440717 68.3719977,8.11032222 C68.4637668,7.94834093 68.860533,7.60334181 69.0049343,7.78635964 C69.1506852,7.97148111 69.655415,8.27440717 69.8605458,8.12294414 C70.0656767,7.97358477 70.9469296,7.54023222 71.363939,7.4960555 L71.500243,7.76532311 C71.799842,8.35644964 72.1493741,7.18261118 72.4773136,7.92940805 L72.6163167,8.24916333 C73.1291438,7.90206056 73.6662627,7.74849388 73.810664,7.90416421 C73.9537158,8.06404185 74.3936675,8.38590078 74.4341538,8.23864506 C74.4746402,8.08928569 74.6595278,7.74007927 74.753996,7.79056694 C74.8484641,7.84105462 75.1588595,7.77584137 75.2330844,7.53602491 C75.3073094,7.2941048 76.5111035,7.37193997 77.2236633,7.1636783 L78.0063994,7.48764089 C78.6352874,7.74849388 79.4841511,7.85367654 80.2385468,7.16788561 L80.6002249,6.83971572 C81.2844442,7.01011163 81.9146817,7.26255 81.9983535,7.39928746 C82.0833748,7.53812857 82.4963356,7.59071989 82.705515,7.14053812 C82.913345,6.68825269 83.8674733,7.45818975 83.933601,7.28148288 C83.9983791,7.10477602 84.2682881,6.69035635 84.3074249,6.97855683 C84.3452122,7.26675731 84.5584403,7.59913451 84.7122884,7.21837329 C84.8661366,6.83971572 85.988958,7.39928746 86.4505024,7.22468425 L86.9997672,7.34669613 L87.7217738,7.50657377 C88.5935798,7.05428834 89.3560727,6.81657554 89.4168023,6.97855683 C89.4761822,7.14053812 89.7096535,7.46870801 89.7784803,7.28569019 C89.8486567,7.10056871 90.1617511,6.62724675 90.3358424,6.60410657 L90.399271,6.68404539 L90.9134477,7.34038517 C91.6003661,7.23730617 92.5315521,7.19733676 92.9823001,7.24992808 C93.4330481,7.30041576 94.8446722,6.9932824 95.1753107,7.37825093 L95.5653292,6.67563077 C95.6314569,6.5578262 96.1172931,6.88599609 96.4047462,6.87127052 L97.2522605,6.83550841 C98.1834465,6.74505133 99.487107,6.52416775 100.147034,6.34535723 L100.640968,7.09005044 L100.740834,7.23940982 C101.064725,7.15316004 101.55326,7.08584314 101.828568,7.0921541 C102.103875,7.09846506 102.778647,7.31093403 102.806988,7.06691026 C102.836678,6.82499015 103.736824,6.9575203 104.049919,7.44136052 L104.537104,6.83550841 L104.695001,6.63986867 C105.134953,6.76398421 105.657227,6.90072166 105.85561,6.93858742 C106.055342,6.97855683 106.782747,7.10477602 107.049957,7.11108698 L107.292875,7.11108698 C107.476413,7.11108698 107.666699,7.15526369 107.838091,7.10056871 C108.028377,7.03745912 108.191672,6.84181937 108.381958,6.78922804 L108.49532,6.7597769 C108.64377,6.86075225 108.935271,6.85654495 109.143101,6.74925863 C109.352281,6.64197232 109.994664,6.98697144 110.314506,7.32145229 L110.30371,6.44633258 L110.30371,6.44002162 C110.498045,6.43371066 111.190361,6.69877096 111.842191,7.02694085 L112.444088,7.06480661 L112.91508,7.0921541 C113.4468,6.7597769 113.979871,6.42108874 114.098631,6.33904627 C114.217391,6.25490014 114.654643,6.65038694 114.84223,7.16157465 L115.415786,6.88809974 C115.714036,6.74505133 116.255203,6.60621022 116.365866,6.78712439 C116.836857,7.55075048 116.989356,6.29907686 117.423909,6.61462483 L117.801782,6.8902034 C118.338901,6.9259655 119.028518,7.06901391 119.333516,7.20785502 L119.429333,7.08794679 L120.004239,6.3600828 C120.619632,6.7240148 121.221529,6.90072166 121.340289,6.75346594 C121.460398,6.60200291 121.923292,6.33273531 122.046101,6.5620335 C122.16756,6.78922804 122.534636,7.43504956 122.558928,7.43294591 C122.58187,7.43084225 122.946247,7.1910258 123.278236,6.96383126 C123.610224,6.73663672 124.992158,6.70718557 125.433459,6.79764266 C125.87611,6.8902034 127.059661,6.71980749 127.401095,6.91334358 C127.74388,7.10687967 128.619735,6.39584491 128.922033,6.64407598 L128.93148,6.62724675 L129.765498,5.16100051 C130.870776,5.78157819 131.996296,6.28014398 132.267555,6.27172937 C132.538813,6.2612111 133.044893,6.1265773 133.011154,6.53468601 C132.985962,6.85374007 133.619599,6.44360562 134.030088,6.17034425 L134.189779,6.06413718 C134.236741,6.03321146 134.276577,6.00760403 134.306717,5.98983985 C134.579325,5.82996221 135.167727,5.95197409 135.368809,6.01087638 C135.569891,6.06977867 136.088117,5.8573097 136.135351,6.00246177 C136.182585,6.14551018 136.425503,6.51154583 136.519971,6.33483896 C136.614439,6.1581321 137.23388,5.7226759 137.704871,5.7268832 L138.09354,6.01508369 L139.254149,6.5620335 L139.520009,6.30538782 C139.868192,5.96669966 140.20153,5.79420011 140.262259,5.92673025 C140.321639,6.0592604 140.791281,6.54099697 141.084132,6.7913317 L141.702224,6.02139465 L141.7724,5.93304121 C141.924899,5.93724852 142.192109,6.07188232 142.36485,6.23386361 C142.537592,6.39584491 143.602383,6.33273531 144.255563,5.95197409 L144.308195,5.88255354 L144.553812,5.54807269 C144.862858,5.72057225 145.040998,6.40846682 144.950579,7.07742853 L145.742761,6.4231924 L146.343309,5.92673025 C146.302823,6.55361889 146.314968,6.70508192 146.372999,6.26541841 C146.431029,5.82365125 147.300136,6.49682026 147.346021,6.47999103 C147.391905,6.46105815 147.780574,6.36639376 148.105815,6.2612111 C148.432405,6.15602845 149.649694,6.67142347 149.976284,6.78712439 C150.302874,6.90282531 151.108552,6.31169878 151.228662,6.46526546 C151.350121,6.61672849 151.687507,7.0248372 151.715848,7.03745912 C151.744188,7.05008103 151.906133,6.8902034 152.049185,6.70928922 C152.190887,6.52837505 152.826523,6.32221705 153.080238,6.44843623 L153.321806,6.47368007 C153.462159,6.4905093 153.711825,6.1581321 153.752311,6.20441247 L154.161223,6.68194173 C154.580932,6.43791797 155.343424,6.44212528 155.856252,6.69035635 L156.33399,6.90282531 L156.524276,6.98697144 C156.760447,6.98486779 157.068143,6.85654495 157.208496,6.70508192 C157.347499,6.55361889 157.934551,6.51364948 158.119439,6.33483896 C158.304326,6.15602845 159.47843,6.54730793 160.053336,6.59989926 L160.590455,6.65459424 L161.046602,6.69877096 C161.52704,6.89230705 161.996681,6.94279472 162.091149,6.80816092 C162.185618,6.67142347 162.744329,6.39794856 163.122202,6.49261295 L163.412354,6.67563077 C163.717351,6.86916686 163.971066,7.47922628 163.98861,6.47788738 C163.989959,6.44843623 164.212634,6.39584491 164.327345,6.40846682 C165.031808,6.47999103 165.756514,6.73453306 166.432636,6.5935883 L166.95356,6.48630199 C167.365171,6.73242941 167.792977,6.94910568 167.906339,6.97224587 C168.019701,6.9932824 168.533877,6.84602668 168.818631,6.74294768 C169.102036,6.63566136 170.859143,6.82499015 171.346329,7.03956277 C171.832165,7.2583427 173.18171,6.20651612 173.493455,6.22334535 C173.806549,6.24017457 174.959061,6.02560195 175.353128,5.76895627 C175.748545,5.51441424 176.663536,6.60200291 176.767451,6.58307004 C176.872716,6.5620335 177.458418,6.00877273 177.708084,6.43160701 L177.965847,6.50733852 C178.234407,6.58307004 178.617677,6.12026634 178.860595,6.225449 L179.365325,6.44212528 C179.632535,6.05294944 180.014456,5.75002339 180.212839,5.77105992 L180.336998,5.88465719 L180.56777,6.10133347 C180.780998,6.40215587 181.060354,6.51575314 181.188561,6.35377184 C181.315418,6.19179055 181.658202,5.98983985 181.682494,6.24438188 C181.705436,6.49682026 182.481425,6.54099697 182.608282,6.33904627 C182.735139,6.13919922 183.292501,5.87413893 183.412611,6.10554077 C183.531371,6.33483896 183.932185,6.97645317 184.010459,6.96803856 L184.03745,6.8944107 C184.29005,6.21255269 184.625306,6.34402107 184.961236,6.50454933 L185.095449,6.56845149 C185.22931,6.6301855 185.36153,6.67983808 185.486861,6.66721616 L185.718983,6.64197232 C186.057719,6.47999103 186.457184,6.38743029 186.606984,6.43371066 C186.758133,6.48209468 187.168394,6.53678967 187.435604,6.69246 C187.702814,6.84602668 188.852627,6.3916376 189.339812,6.58517369 L189.87963,6.41057048 C190.17788,6.31590609 190.588141,6.7282221 190.870196,6.61041753 L191.353333,6.40846682 C191.831072,6.54099697 192.566574,6.69246 192.987632,6.75136229 L193.38035,6.65880155 L194.068618,6.49682026 C194.840558,6.40846682 195.57606,6.32011339 195.701567,6.30118051 C195.827075,6.28224764 196.231939,6.67773443 196.423574,7.01852624 C196.615209,7.35931805 197.47217,6.82288649 197.615222,6.97855683 C197.758274,7.13633081 198.213071,7.43715321 198.308888,7.29831211 L198.291344,7.1952331 C198.237362,6.88178878 198.028183,6.33904627 198.059222,6.32011339 L198.51132,6.01508369 C198.612536,6.4905093 198.794724,6.92806915 198.914834,6.98486779 C199.036293,7.04166642 199.379077,6.87127052 199.500536,6.73032576 C199.621996,6.58517369 200.049801,6.33063166 200.188804,6.49682026 C200.327808,6.6609052 200.716476,6.51785679 200.747516,5.82365125 L201.453328,6.28435129 L201.474921,6.29907686 C201.362909,6.6566979 201.649012,6.8586486 202.110556,6.75136229 C202.572101,6.64197232 203.674679,7.4602934 203.774545,7.33197056 L203.771846,7.21837329 L203.755652,6.4231924 C204.178059,6.57044812 204.609914,6.81026458 204.716528,6.95962395 C204.821792,7.10898332 205.180771,7.40980572 205.210461,7.15526369 C205.241501,6.89861801 205.555945,6.50733852 205.847447,6.81657554 C206.138948,7.1237089 207.329247,6.63986867 207.654487,6.62935041 C207.979728,6.62093579 208.829941,7.19312945 208.896069,7.38876919 C208.963546,7.58861624 209.843449,7.21626963 209.95951,7.01642258 C210.07827,6.81447188 210.711207,6.61672849 210.919037,7.34248882 L211.546575,7.11529428 C212.209202,6.87547782 211.137663,6.33063166 211.61945,6.24017457 L212.107986,6.14971749 C212.630549,6.16729802 213.82104,6.18306468 214.845298,6.18522737 L216.052706,6.18547959 C216.539891,6.18547959 217.027077,6.1581321 217.512913,6.1938942 L217.919126,6.22124169 C218.35368,6.32852801 219.043297,6.06346771 219.45221,5.63011516 L219.889462,6.41688144 L220.151274,6.88599609 C220.187712,6.46316181 220.414435,5.86151701 220.656004,5.55227999 L220.861135,5.88255354 L221.190424,6.41477778 C221.58719,6.25279649 222.164795,6.03822387 222.47519,5.93935217 C222.785586,5.84048047 223.808541,5.56910922 224.054158,5.35243294 C224.299775,5.13365302 225.209368,5.74581608 225.53056,5.77526723 C225.850402,5.80471837 226.796433,6.01298003 226.961078,5.8888645 C227.125722,5.76685261 227.789698,5.48285944 228.221553,5.34822564 L228.545444,5.08737265 L229.159487,4.59511781 C229.402598,5.13620745 229.624763,5.41972838 229.676871,5.27051313 L229.685809,5.22831741 C229.71415,4.99270826 230.093372,4.39947807 230.451001,4.58880685 C230.80998,4.77813564 232.011075,5.26197586 232.375452,5.26197586 C232.73848,5.26407951 234.027295,4.42472191 234.72501,4.39947807 L235.303965,4.44155113 C235.895066,4.48362419 236.44703,4.31953925 237.013838,4.34478309 L237.403857,4.36371596 C237.721,4.11548489 238.272964,4.04816799 238.633292,4.2185639 L238.814132,4.07761914 C239.38094,3.63374832 239.548284,3.83569902 239.611713,4.57618493 L239.617111,4.63929453 C239.934254,4.6540201 240.65896,4.19752737 241.225768,3.62743736 L242.077331,4.50045342 L242.163702,4.58880685 C242.25817,4.6855749 242.341842,4.45417305 242.351289,4.07130818 C242.360736,3.69054696 243.456566,4.12600316 243.71163,4.23960043 C243.968044,4.35530135 244.881686,4.23749678 245.151595,4.14072873 C245.422853,4.04396069 246.270368,3.74313829 246.487644,3.82097345 C246.706271,3.89880862 247.556484,3.47176703 248.039621,3.5496022 C248.521409,3.62743736 249.943829,3.49490721 250.146261,3.61481544 C250.348693,3.73893098 250.780547,4.25222235 250.823732,4.09024106 C250.868267,3.93036342 251.12873,3.65899216 251.228596,4.12600316 L251.377046,4.20594198 L251.622663,4.33847213 C251.939806,4.28167349 252.656414,4.18911275 253.211077,4.13231412 L253.532269,3.82518076 L253.961424,3.4149684 C254.277218,3.65478485 254.648343,3.85252825 254.787346,3.85252825 C254.925,3.85252825 255.297474,3.61481544 255.414884,3.51594375 C255.532295,3.41707205 256.324478,3.68633965 256.750934,3.83359537 C257.176041,3.97874744 258.406826,3.46966338 258.517488,3.4191757 C258.628151,3.36658437 259.185513,4.30691733 259.220601,4.03764973 C259.257039,3.76417482 259.645708,3.14359714 260.019532,3.14149349 L260.35017,3.17304828 L260.775277,3.21301769 C261.227375,3.50332183 261.865709,3.66951043 262.193649,3.5853643 C262.520239,3.50121817 263.535097,3.05314005 263.783413,2.97951219 C264.031729,2.90378068 264.672763,3.28664555 264.71055,3.03420718 C264.749687,2.7817688 264.935924,2.13384363 265.045237,2.14646555 L265.099219,2.21378245 C265.531074,2.750214 265.894101,3.38130994 266.628254,2.72917747 L266.840132,2.54195234 C267.253093,2.66606787 267.753774,2.73548843 267.953507,2.69551902 C268.15324,2.65554961 268.756486,2.9521647 268.890091,2.97530489 L269.004802,2.93743913 L269.443405,2.79859802 C269.923843,2.63661673 270.629655,2.56509252 271.010226,2.64082404 L271.361108,2.68500075 L271.631017,2.71655555 C271.996744,2.28951396 272.397559,2.14436189 272.521717,2.38838566 C272.645875,2.63661673 273.042641,2.94164644 273.22348,2.71234824 C273.404319,2.4809464 274.123627,2.00131348 274.313912,2.28951396 C274.505548,2.57561079 275.161427,2.83436013 275.732284,2.90167703 L276.18843,3.0152743 L276.637829,3.12887157 C276.968467,2.92692086 277.509635,2.73338478 277.840273,2.70182998 L278.127727,2.49777562 L278.26673,2.39890392 C278.479958,2.45359891 279.196566,2.27268474 279.859193,1.99710617 L280.511023,2.66817153 L280.855157,3.02368891 C281.511036,2.97109758 282.077845,2.63872038 282.112933,2.28530665 C282.148021,1.93399658 282.953699,2.17381304 283.150733,2.31265415 C283.347767,2.45149525 284.156144,2.53774503 284.423354,2.6155802 C284.691913,2.69341537 285.349142,2.20116053 285.404473,2.24112994 C285.459804,2.28109935 285.698674,2.5524706 285.837677,2.71655555 C285.97668,2.8806405 287.01448,3.217225 286.856584,2.97951219 C286.698687,2.74179939 286.731076,2.47884274 287.198018,2.79859802 L287.702748,2.06863038 C287.914627,1.76360067 288.632585,1.98658791 289.117071,2.02655732 L289.474701,2.05811211 C289.747309,2.40731854 290.037461,2.71024459 290.119783,2.72707382 C290.202106,2.74811035 290.879577,2.76493957 291.542204,2.86170762 L291.999699,2.0812523 L292.072575,1.95713676 C292.713609,2.30423953 293.177852,2.39469662 293.102278,2.16119112 C293.028053,1.92768562 292.907943,1.33445543 292.963275,1.25030931 C293.018606,1.16405953 293.489597,1.02942573 293.917403,0.936864987 C294.346558,0.844304248 295.534158,1.4122906 295.728492,1.26082757 L295.818912,1.32393717 L296.235921,1.62055226 C296.735253,1.58689381 297.33715,1.713113 297.571971,1.89823448 C297.808141,2.08335595 298.661054,1.02101111 299.200872,0.503512438 L299.728544,0.789609266 L300.341237,1.11988281 C300.702915,0.680219303 301.0457,0.312080002 301.10238,0.303665389 C301.159061,0.295250777 301.377688,0.206897344 301.545031,0.0365014395 C301.713724,-0.133894465 302.420886,0.339427493 302.605774,0.486683213 Z M45.355,115.936 L45.4351009,115.938397 C46.6868278,115.974416 48.2374153,116.011142 49.9403107,116.046201 L50.06,116.048 L50.0261022,116.05377 C49.9183746,116.077615 49.8184532,116.135316 49.7590732,116.217057 C49.6565078,116.360106 49.2948298,116.62727 49.1774194,116.480014 C49.0600089,116.332758 48.5471818,116.612544 48.4365192,116.707209 C48.3258565,116.801873 47.7455521,116.963854 47.1773937,117.11111 L46.6740134,116.856568 C46.4122017,116.726142 46.1638854,116.555746 45.9115205,116.397972 C45.8380453,116.352159 45.7675024,116.284219 45.6973297,116.213589 L45.5920282,116.108057 C45.5215853,116.039597 45.4502316,115.978167 45.3754049,115.943205 L45.355,115.936 Z M42.473,115.816 L42.5210063,115.82018 C42.6903605,115.834594 42.9593985,115.849742 43.3137117,115.86539 L43.477,115.872 L43.4648415,115.893367 C43.407538,115.991716 43.3467396,116.110229 43.2812573,116.250716 L42.943,116.971 L42.8983776,116.815584 C42.7607013,116.357391 42.6137109,116.008732 42.4965575,115.844863 L42.473,115.816 Z M50.225,116.052 L50.3359235,116.054261 C51.6632006,116.081022 53.0739302,116.106688 54.5014065,116.13018 L55.343,116.144 L55.2359479,116.183483 C54.9941742,116.27251 54.8185174,116.338649 54.7510402,116.366417 C54.582347,116.435837 53.8643891,116.374831 53.4433311,116.379039 C53.0209235,116.383246 51.925093,116.656721 51.8819075,116.501051 C51.8373725,116.343277 51.5971535,116.05718 51.4500531,116.231783 C51.3029527,116.406386 50.7766302,116.631477 50.5890434,116.370624 L50.397408,116.185503 L50.2678517,116.061387 L50.225,116.052 Z M65.8159595,115.693248 L65.1398375,115.954101 L64.99,116.01 L65.0317246,116.076139 C65.0664444,116.131769 65.1011771,116.18636 65.1375981,116.235289 L65.15,116.251 L65.4217627,116.252659 C65.5215911,116.252944 65.6197192,116.253176 65.7160803,116.253356 L65.767,116.253 C65.8800504,116.167885 66.0237756,116.064592 66.1526001,115.994991 L66.18,115.98 L66.0873118,115.93772 C65.9839779,115.881116 65.8913091,115.801235 65.8159595,115.693248 Z M64.3024797,115.741632 L63.9381026,115.979345 C63.426625,115.968826 62.8841079,115.933064 62.7316093,115.903613 C62.5804603,115.874162 62.0433414,116.031936 61.6951588,116.061387 C61.3456266,116.088735 60.3172734,115.691144 60.1283371,116.042454 L59.931,116.207 L60.0069167,116.208401 C60.5502307,116.214806 61.0823492,116.220639 61.5990033,116.22583 L61.889,116.228 L62.0565067,116.179173 C62.3493767,116.095626 62.6228283,116.029084 62.8183811,116.002218 L62.949526,115.989863 C63.4097208,115.975137 64.1843596,116.040351 64.6715454,116.132911 L64.6715454,116.132911 L64.99,116.01 L64.9794452,115.992493 C64.8213798,115.742684 64.6466137,115.518645 64.3024797,115.741632 Z M44.372,115.905 L44.6180688,115.913602 C44.7882206,115.919074 44.9662465,115.924575 45.1516128,115.930098 L45.158,115.93 L45.1379443,115.937156 C45.0536097,115.974566 44.9632402,116.057881 44.8642736,116.206539 C44.8278359,116.259131 44.5714223,116.183399 44.4971973,116.078216 C44.4548334,116.018217 44.4144389,115.961812 44.3756615,115.909538 L44.372,115.905 Z M56.6282572,115.680626 L57.1113943,116.029832 L57.311,116.172 L57.0745416,116.169883 L57.0745416,116.169883 L56.2181472,116.157257 C55.932107,116.152941 55.6456695,116.148521 55.3593682,116.144005 L55.343,116.144 L55.3621497,116.137134 C55.668568,116.024871 56.0554368,115.884967 56.4559621,115.742009 L56.6282572,115.680626 Z M43.521024,115.801673 C43.8149207,115.347767 44.0206788,115.450233 44.3186644,115.834294 L44.372,115.905 C44.0445248,115.894537 43.7527999,115.883793 43.4979079,115.873254 L43.477,115.872 Z M4.17280286,87.2182367 C4.37403912,86.6955857 4.42821812,87.2559838 4.55108834,87.4098754 L4.55108834,87.4098754 L4.68847079,87.5811888 C4.85100777,87.6886227 4.99129266,88.0370567 5,88.3535509 L5,88.3535509 L4.95936575,88.5016353 C4.92660958,88.6179874 4.89354242,88.7512723 4.86000246,88.8892618 L4.79224416,89.1678905 C4.68951725,89.5843733 4.58156402,89.9698284 4.46401495,89.9940944 C4.18505763,90.0521667 4.18022022,89.6729042 4.19585388,89.2546081 L4.20566142,89.0021328 C4.2138671,88.7513464 4.21117965,88.5151856 4.14281092,88.3796834 C3.89320055,87.8860686 4.01510329,87.6334539 4.17280286,87.2182367 Z M8.0670448,76.6794991 C8.2190448,75.9233503 8.3920448,75.7768098 8.4540448,76.3483176 L8.4540448,76.3483176 L8.4370448,76.7498385 C8.4020448,77.6056349 8.4970448,78.1009417 8.8920448,78.1712811 L8.8920448,78.1712811 L8.9420448,78.1800735 C9.0050448,78.7515814 8.8860448,79.1062093 8.6790448,78.9713921 C8.4710448,78.833644 7.9150448,77.4356479 8.0670448,76.6794991 Z" id="Combined-Shape"></path>
            </g>
        </g>
    </g>
</svg>