<?xml version="1.0" encoding="UTF-8"?>
<svg width="419px" height="104px" viewBox="0 0 419 104" version="1.1" xmlns="http://www.w3.org/2000/svg" xmlns:xlink="http://www.w3.org/1999/xlink">
    <title>Combined Shape</title>
    <g id="Assets" stroke="none" stroke-width="1" fill="none" fill-rule="evenodd">
        <g id="Plain-Oats" transform="translate(-830.000000, -397.000000)" fill="#FCC517">
            <g id="add-ons" transform="translate(816.000000, 397.000000)">
                <path d="M382.063358,0.414877493 C382.292527,0.54040696 383.185956,0.786086059 383.008267,0.411290937 C382.830577,0.0364958155 383.855198,0.353906038 384.046173,0.318040476 C384.238808,0.283968192 384.994403,0.359285872 385.281696,0.579859078 C385.570649,0.802225561 386.668338,0.768153278 386.591948,0.669522982 C386.515558,0.570892687 387.470431,0.344939648 388.881983,0.387978322 L389.400106,0.734080994 L390.363282,1.37428127 C390.447976,0.69104232 390.86812,0.475848948 391.298228,0.895476022 L392.194979,0.608551527 C393.136567,0.309074086 394.312306,0.434603552 395.373461,0.886509632 C395.772017,1.05507777 396.344941,1.40656028 397.045735,0.990519761 C397.362919,0.802225561 398.214832,1.22005936 398.766168,1.46394518 C399.035193,1.58409481 398.090283,1.86563947 398.699742,2.08979923 C398.872449,2.15256397 399.204579,1.80825457 399.43873,1.83336047 C399.812377,1.87101931 400.380319,1.98220255 400.488261,2.20277575 L400.832015,2.91470716 C401.590932,3.12631397 402.613892,3.4347578 403.107105,3.59973939 C403.600317,3.76651425 405.186237,4.0408858 405.481833,3.98888073 C405.779089,3.93866895 406.684143,4.21304049 406.896706,4.13592954 C407.107609,4.05881858 407.542699,3.9996404 407.497861,4.32243046 C407.453024,4.64342724 408.549052,4.18076149 408.735045,4.11799676 C408.85904,4.0761536 409.242096,4.08850729 409.660826,4.10245501 L409.978072,4.11239276 C410.083723,4.11525703 410.188113,4.117399 410.287752,4.11799676 C410.883925,4.12337659 412.375188,4.8102021 412.53295,4.76178359 C412.690711,4.7115718 413.222119,4.6792928 413.233744,4.85682733 C413.245368,5.03436186 413.790061,5.55261923 414.40118,5.42170993 C415.012299,5.29080063 416.887172,6.02604465 417.607894,6.22330524 L417.832081,7.03386694 C417.945006,7.43556123 419.012803,7.48756629 419.215402,8.27122882 L419.306738,8.62629788 C419.995907,8.89708287 420.671792,9.15890148 420.811286,9.21090654 C420.950781,9.26470488 421.203199,9.63950001 421.058723,9.93180433 L421.070347,9.93718417 L421.678145,10.1954162 C421.440672,10.6275962 421.264643,11.3108352 421.286232,11.7125295 L421.346015,12.0944977 L421.473885,12.8978863 C421.658217,13.7765926 421.928903,14.5190097 422.078362,14.5494954 L422.224499,14.5602551 L422.378939,14.5710148 C422.548325,14.5692215 422.699444,14.6409526 422.71273,14.7288232 C422.727675,14.8202804 422.397206,15.0713394 422.070058,15.2273545 L421.801033,15.4013025 C421.739589,15.4407546 421.786087,15.6541547 421.842549,15.7635447 C421.867459,15.8101699 422.043488,15.817343 422.146448,15.8065834 C422.204571,15.7994103 422.246087,15.6900203 422.307531,15.6792606 L422.657928,15.623669 C423.04652,15.5752505 423.348758,15.6416018 423.32883,15.7707178 C423.310563,15.8980406 423.60948,16.5077551 424.039588,16.8377183 L424.321899,17.2017537 L424.502909,17.4348799 C424.532801,17.906512 424.140888,18.1199121 423.632729,17.9118919 C423.124571,17.7038716 421.89569,17.8706465 422.312513,18.8659158 C422.729336,19.8629784 422.819011,22.5636552 422.403849,22.6891847 C421.987026,22.8147142 420.854463,23.2289614 421.0006,23.2684135 C421.146737,23.3096589 421.696412,23.652175 422.07338,23.9157869 L422.216195,24.226024 C422.424607,24.6815167 422.595239,24.561367 422.767323,24.3849533 L422.861568,24.2862694 C423.003858,24.139239 423.151896,24.0177592 423.32717,24.206298 L423.572946,24.4734964 C424.087747,24.6779301 424.361754,25.0832109 424.184065,25.3719287 C424.006375,25.6606465 424.527819,27.1670001 424.630779,27.8753449 L424.296989,28.533478 C423.934967,29.2418228 424.604209,30.4540788 425.45114,30.5240167 L426.168541,30.5849881 C426.970634,30.7302437 427.312728,30.8683261 426.929118,30.8952252 C426.545508,30.9203311 425.459443,31.1893229 425.459443,31.4332087 C425.459443,31.6770945 425.846375,32.4302713 426.31966,32.3477805 L426.768035,32.286809 L427.020454,32.2509435 C427.294461,32.2491502 427.734533,32.2975687 428.000237,32.3621267 C428.14106,32.3965577 428.585139,32.3728386 429.063922,32.3459229 L429.42532,32.3259955 C429.724913,32.3103209 430.011836,32.2987642 430.220525,32.3047418 C430.846589,32.3262612 431.593882,33.8164753 431.51251,33.943798 L431.18038,33.8971728 C430.522763,33.8039223 430.174027,34.2755545 430.428106,34.7597395 C430.602474,35.0950825 430.760236,35.5200894 431.074098,35.6922441 L431.763268,36.0706258 C431.806445,36.7197925 431.984134,37.1071406 432.158502,36.929606 L432.332871,36.8901539 C432.512221,36.8471152 432.806156,36.8829808 432.914098,36.9905775 C433.018719,37.0910011 433.028683,37.3761323 432.939008,37.4998685 C432.640091,37.8961829 432.226589,38.1311024 431.627095,38.0557847 C431.51417,38.0414384 431.263412,38.2655982 431.253449,38.392921 C431.240163,38.5292101 431.392943,38.74799 431.542402,38.8143413 L432.02565,39.031328 C432.590271,39.2267953 432.572004,39.6284896 431.984134,39.9261737 L431.466012,39.9566595 L431.045867,39.9799721 C430.441391,39.657182 429.949839,39.8329233 429.954821,40.3709067 L429.865146,40.7295623 L429.733954,41.249613 C429.15937,41.4092147 428.415399,41.5634366 428.081609,41.5903358 C427.746157,41.617235 427.82919,42.7380338 428.046735,43.3441618 C428.26428,43.9484965 428.661175,45.9336553 428.31576,46.0896705 C427.968684,46.2456857 428.277565,47.2929601 428.483486,47.4758745 C428.687745,47.6605821 429.026518,48.2828496 428.755832,48.4532111 L428.413738,48.5859136 C428.123125,48.6988902 427.766085,48.1106949 427.443919,48.6343321 L427.404064,48.6988902 C427.116771,48.6468851 426.588685,48.4729371 426.231645,48.3151286 C425.874606,48.1555269 424.469696,48.433485 423.876845,48.5733607 C423.666305,48.6223979 423.283399,48.5805174 422.85561,48.4966326 L422.836622,48.8110027 C422.572513,48.7836004 421.870403,48.4858782 421.421816,48.1235972 C421.168468,48.0429863 420.962078,47.9688633 420.844499,47.9170209 C420.364572,47.7036208 418.594319,47.827357 418.222334,47.7520393 C417.852009,47.6785149 416.905439,47.1602576 416.789194,47.3736576 C416.672948,47.5852645 416.435475,48.3348547 416.481974,48.6343321 C416.528472,48.9338096 417.670998,49.0952046 417.941684,49.0916181 L418.062912,49.1992147 C418.142311,49.2703855 418.176303,49.3760558 418.207963,49.4850316 L418.247593,49.6153927 C418.313631,49.8073252 418.427943,49.9695398 418.841756,49.9201125 L418.961323,49.9057663 C419.15894,50.3236001 419.607315,50.3702253 419.954391,50.0079832 L420.032442,50.8203381 L420.047388,50.9853197 C420.484138,51.1305753 421.22977,51.2345854 421.704715,51.2166526 L421.79273,51.7151839 L421.865798,52.1204648 C421.980383,52.5849238 421.872441,52.8341894 421.628326,52.6745877 C421.38421,52.5149859 420.484138,52.4091825 420.338001,52.5365053 C420.191864,52.6656213 419.487749,52.8126701 419.110781,52.566991 C419.040411,52.5205899 418.95241,52.4563471 418.854987,52.3837194 L418.650012,52.2300859 L418.650012,52.2300859 L418.434509,52.0709044 C418.110655,51.8363773 417.800529,51.6398662 417.7258,51.7367032 L417.759013,51.8174008 C417.969915,52.3517976 418.471431,52.9077138 418.388399,53.3918989 L418.295403,53.9514017 C417.699229,54.5880154 417.3671,55.2425619 417.558074,55.4057502 C417.747388,55.5689385 418.557785,55.5312797 418.866666,55.2694611 L419.079229,54.9628105 L419.217063,54.7637567 C419.255258,54.4804187 419.341612,54.2706052 419.411359,54.2939178 L419.441251,54.3351632 L419.886305,54.9430845 C420.424355,54.6274675 421.0006,54.4337935 421.165004,54.5126977 C421.329409,54.5933952 421.277929,55.1188257 420.66681,55.5115536 L421.060384,56.1481674 L421.224788,56.4153658 C421.658217,56.2934229 422.216195,56.6664247 422.463632,57.242067 C422.709408,57.8177093 423.026592,58.4650827 422.910347,58.5672995 C422.794101,58.6677231 422.194607,58.7089685 421.84421,58.4238373 L421.517062,58.1745716 L421.473885,58.1404993 C421.292874,58.1566388 421.05208,58.3162406 420.937495,58.4955684 C420.82125,58.6731029 420.69338,59.2828175 420.995618,59.3115099 C421.297856,59.3384091 422.191286,59.5876747 421.923921,59.7652093 C421.656557,59.9409505 420.983994,60.6259828 421.091936,60.846556 C421.201539,61.0689224 421.651575,61.6158723 421.79439,61.452684 L421.9206,61.4221982 C422.349047,61.3146015 422.986737,61.7700942 423.460022,62.6236946 L423.655978,62.9787636 C423.385292,63.3804579 423.091358,63.7821522 423.005004,63.8682295 C422.916989,63.9543069 422.895401,64.3147558 423.14782,64.4689777 L423.380311,64.470771 C423.994751,64.4779441 424.192368,64.6662383 423.929985,65.1701494 C423.858577,65.3118184 423.689191,65.5323916 423.73735,65.5772236 L424.011357,65.8372489 C423.928325,66.1367263 423.569625,66.3321936 423.214246,66.2730155 L423.054823,65.8587682 L422.990058,65.6937866 C422.109914,65.618469 422.136484,65.8551817 423.053163,66.2210104 L422.694462,66.959841 L422.505148,67.3507756 C422.360672,67.804475 422.375618,68.2976264 422.540022,68.4464685 C422.706087,68.5953106 423.036556,69.3556605 422.802405,69.6407917 C422.566592,69.9223364 421.453957,70.3168576 421.437351,70.5822627 L421.546954,70.7669704 L421.759517,71.1202462 C421.938867,71.5739455 421.932224,71.8052784 421.744571,71.6331237 C421.556918,71.460969 420.819589,71.3031605 420.603705,71.3856513 C420.387821,71.4681421 419.603994,71.4591757 419.334969,71.3910312 C419.064283,71.3228866 418.302045,71.4806951 418.436558,71.590085 C418.57107,71.699475 419.069265,72.1334483 419.288471,72.2822904 C419.509337,72.4311324 420.211792,72.0563373 420.288182,72.0491642 C420.367893,72.0419911 420.519012,72.2356651 420.477496,72.5459022 C420.443764,72.7979699 421.186204,72.6285892 421.580709,72.5350484 L421.73399,72.4990717 C421.754055,72.4945767 421.771038,72.4909831 421.784427,72.4885173 C421.99865,72.4508585 422.344065,72.7216435 421.968759,72.8920049 C421.593452,73.0623663 420.560528,73.3690169 420.480817,73.2094151 C420.399445,73.0498134 419.980962,72.8184805 419.858073,72.8399998 C419.733525,72.8597259 419.228687,73.776091 419.022767,73.7581582 C418.815186,73.7384322 418.144283,74.0988811 417.978219,74.6027922 L418.177496,75.1102899 C418.363489,75.5855086 418.625872,75.8903659 419.217063,75.942371 L419.333308,75.9531306 C419.479445,76.0876265 419.434608,76.4426955 419.23533,76.7385864 C419.036052,77.0344773 418.079518,77.606533 417.968255,77.7338558 C417.855331,77.8629718 417.87858,78.3722628 417.739085,78.4027485 C417.601251,78.4368208 417.480024,78.7380915 417.433526,78.7757503 C417.387027,78.8169957 417.486666,79.0626748 417.719157,79.2689018 C417.953309,79.4715422 418.456486,80.3681813 418.423273,80.8936118 L418.167533,81.1841228 C417.466739,81.9821316 417.632804,82.3963788 418.627532,82.8787706 L419.396413,83.2535657 C418.899879,83.796929 418.331937,84.5142402 418.13598,84.8442034 C417.938363,85.1759599 417.337208,85.5973802 417.883562,85.635039 L417.812154,86.3792495 L417.782262,86.6859 C417.798394,86.8124542 417.816831,86.9573072 417.836061,87.1083712 L417.894624,87.5681092 C417.923587,87.7952072 417.950936,88.0090831 417.971576,88.168941 L418.26385,88.4199999 L418.612587,88.7212706 C418.498002,89.0870994 418.272153,89.7344728 418.10941,90.1594797 L418.456486,90.5952463 L419.316702,91.6730064 C418.589337,92.1249125 417.971576,92.5140538 417.941684,92.5391597 C417.911793,92.5660589 418.434897,93.6007803 419.313381,94.6570211 L419.957712,95.7114687 L420.142045,96.0109461 C419.783344,95.9141091 419.444572,95.8280317 419.386449,95.8208586 C419.331648,95.8118922 419.009482,95.9087292 418.803561,96.0503982 C418.597641,96.1920672 417.85367,96.5381699 417.679302,96.5578959 C417.504934,96.577622 416.686233,96.7157044 416.295981,96.9057919 L415.922335,97.0707734 L415.472299,97.268034 C414.949194,97.1873365 413.655549,97.3684576 412.597715,97.6679351 C411.538221,97.9674125 408.105659,98.1915723 407.51945,98.3475874 L406.973096,98.4229051 L406.411797,98.4982228 C405.822266,98.6398918 404.339306,98.7887339 403.117069,98.8263927 L401.99447,98.8317725 L401.419885,98.8353591 C400.848622,99.0487592 400.049849,99.5723964 399.64133,99.9938167 L399.116565,99.3034047 C399.045157,99.2101542 398.125157,99.5221846 398.116854,99.4970787 C397.841186,98.763628 397.28985,100.035062 396.897937,99.3500299 L396.761764,99.1133172 C396.168912,99.4845258 395.458154,99.7230317 395.184147,99.6423342 L395.126024,99.6871662 L394.57801,100.126519 C393.873895,100.058375 393.06848,100.124726 392.789491,100.275361 C392.510502,100.425997 391.364654,100.106793 391.080683,100.158798 C390.795051,100.20901 389.441622,100.413444 388.715918,100.409857 C387.990215,100.408064 386.063862,100.922735 385.872887,100.757753 C385.683573,100.590978 384.497869,101.08951 383.953176,101.270631 L383.521408,101.166621 L382.784079,100.983706 C382.030145,101.103856 381.050361,101.240145 380.605308,101.288564 C380.45751,101.305301 380.245869,101.349734 380.026294,101.396625 L379.762575,101.452459 C379.415412,101.524168 379.105188,101.576325 379.060904,101.50555 C378.977871,101.372848 378.205669,101.577281 377.785525,101.907244 C377.365381,102.235414 375.67484,101.756609 375.292891,101.926971 L375.158378,101.837307 L374.553902,101.430232 C374.052386,101.754816 373.085888,101.952076 372.408343,101.869586 L371.865311,102.020221 L371.308993,102.176236 C370.787549,102.016634 369.8443,101.903658 369.213254,101.925177 L368.632027,102.002288 L368.085673,102.074019 C367.502785,102.251554 366.632605,102.176236 366.152677,101.905451 L365.511667,102.221068 L365.050006,102.448814 C364.360837,102.414742 363.053906,102.516959 362.145531,102.672974 L361.230513,102.432675 L360.622715,102.273073 C359.804015,102.504406 358.92221,102.724979 358.66647,102.762638 C358.40907,102.800297 357.545532,102.542065 357.299756,102.656835 C357.05398,102.769811 356.198746,102.730359 355.627482,102.71422 C355.05788,102.696287 353.588205,103.008317 353.533404,102.882788 C353.476942,102.757258 353.320841,102.744705 353.302573,103.115914 C353.284306,103.487122 352.130155,102.80209 351.894343,102.793124 C351.65687,102.785951 350.610661,102.830783 350.117448,102.898927 C349.927751,102.924447 349.613751,102.912032 349.279002,102.891169 L348.873971,102.863965 C348.472236,102.836481 348.10027,102.813816 347.937016,102.846922 C347.581637,102.918653 346.289652,102.721393 345.827991,102.655041 C345.36467,102.586897 343.712324,102.685527 343.219111,102.590483 C342.725898,102.493646 341.417307,103.169712 341.19478,103.196611 C340.970592,103.221717 340.278101,103.02087 340.009076,103.047769 C339.847661,103.063909 339.50032,103.049706 339.121293,103.02569 L338.737418,102.999164 C338.609747,102.989739 338.484268,102.979983 338.366694,102.970658 C337.780485,102.92224 336.07998,102.773398 335.870738,102.773398 C335.663157,102.771605 335.140053,102.972452 334.973988,102.735739 C334.807923,102.497233 333.401353,102.766225 332.943014,102.82361 C332.486335,102.882788 330.833989,103.01011 330.199621,103.347247 L329.420777,102.836163 L328.851174,102.461367 C327.912907,102.438055 326.48641,102.58869 325.679334,102.798504 L324.862295,102.477507 L324.739407,102.430882 C324.380706,102.820023 323.734714,102.898927 323.304606,102.610209 C322.872837,102.321492 320.753848,102.861268 319.820564,102.963485 C318.888939,103.063909 316.38302,102.448814 316.248507,102.420122 C316.113994,102.39143 315.198977,102.558204 314.33876,102.681941 L313.526703,102.407569 L313.051757,102.246174 C312.776089,102.782364 312.248003,103.051356 311.881,102.848715 C311.512335,102.644282 310.496018,102.351977 310.263527,102.554618 C310.032697,102.759052 309.130964,103.236064 308.93999,103.02087 C308.747354,102.803884 307.76425,102.49006 306.97046,102.567171 L306.427427,102.805677 C305.809666,103.072875 305.251688,103.013697 304.776742,102.755465 L304.240352,102.463161 C303.821869,102.71422 303.280497,102.839749 303.038042,102.748292 C302.795588,102.655041 301.925407,102.447021 301.677971,102.398603 C301.430534,102.351977 300.596888,102.561791 300.307935,102.750085 C300.018982,102.940173 299.062448,102.748292 298.806708,102.827196 C298.549307,102.9061 297.518044,102.803884 297.1992,102.794917 C296.882016,102.785951 296.016817,102.610209 295.991908,102.409362 C295.965337,102.206722 295.787648,101.645426 295.66642,101.717157 C295.545193,101.790681 295.206421,101.810407 295.126709,101.63108 C295.048659,101.455338 294.522233,101.322636 294.256529,101.437406 L294.112053,101.765575 C293.994147,102.032774 293.426205,102.134991 293.087432,102.346598 C292.119274,102.950932 292.094364,102.954519 291.071404,102.237208 L290.910321,102.126024 C290.682812,102.007668 290.322451,102.048913 290.109888,102.217482 C289.895664,102.382463 288.992271,102.707046 288.695015,102.468541 C288.397759,102.231828 287.519275,101.726123 287.477759,101.935937 C287.434582,102.14575 286.959636,102.748292 286.514582,102.79671 C286.071189,102.843336 283.786136,102.631729 282.298194,102.938379 L280.853429,102.443435 L280.405054,102.291006 C279.644477,102.724979 278.900506,102.898927 278.752708,102.678354 C278.606571,102.455988 277.915741,102.873821 277.83603,102.945552 C277.757979,103.01549 277.078773,103.040596 276.391265,103.029837 C276.124546,103.025652 275.665197,102.97238 275.188142,102.905246 L274.778982,102.845129 C274.170977,102.752327 273.61632,102.653248 273.486789,102.622762 C273.226067,102.561791 272.259569,102.925826 271.944046,103.115914 C271.630183,103.302415 270.059209,103.236064 269.406574,103.698729 L268.642675,103.056736 L268.187657,102.674767 C267.649607,102.834369 266.950474,102.82361 266.631629,102.651455 C266.312785,102.4793 265.371196,103.193025 265.030763,103.243237 C264.691991,103.295242 263.674013,102.972452 263.639139,102.780571 C263.604266,102.58869 263.124338,102.199549 262.689248,102.565378 L262.372064,102.880994 L262.00506,103.243237 C261.588237,103.085428 261.088382,103.035216 260.894086,103.132053 C260.698129,103.230684 260.073725,103.377733 260.038852,103.169712 C260.003978,102.963485 259.819646,102.891754 259.700079,103.451257 L258.956108,103.148193 L258.567516,102.990384 C258.240369,103.085428 257.780369,103.194818 257.542896,103.23427 C257.307084,103.271929 256.42694,102.920447 256.142969,102.983211 C255.858998,103.047769 254.860947,102.972452 254.552067,102.782364 C254.243186,102.592277 253.142175,102.69808 252.653945,102.563584 L252.225497,102.4793 C252.042826,102.443435 251.652573,102.716013 251.61936,102.674767 C251.252357,102.244381 251.077988,102.617383 250.784053,102.741119 C250.64788,102.79671 250.337339,102.49544 250.08326,102.398603 C250.038422,102.382463 249.810913,102.581517 249.807592,102.680147 L249.805931,102.771605 C249.970335,102.875615 250.051707,103.008317 249.988603,103.067495 C249.925498,103.128467 249.614956,103.090808 249.395751,103.006524 C249.178206,102.92224 248.263188,102.986798 247.844704,103.151779 L247.466076,103.149986 C246.874885,103.148193 246.056185,102.748292 245.743983,102.970658 L245.136185,103.393872 C244.644633,103.14102 244.028532,102.959899 243.764489,102.988591 C243.498785,103.017284 242.633587,103.332901 242.399436,103.505055 C242.166945,103.679003 241.952721,102.907894 241.914526,102.870235 C241.87467,102.830783 241.326656,102.861268 240.702252,102.92762 C240.076187,102.993971 238.060159,103.200198 237.605141,103.243237 C237.150123,103.284482 235.876405,102.16189 235.71034,102.325078 C235.544275,102.486473 235.14738,103.275516 234.451568,103.356213 C233.754096,103.438704 231.097057,102.610209 229.969476,102.299972 L228.98305,103.137433 L228.712365,103.366973 C228.031498,103.237857 227.329044,103.049563 227.149694,102.952726 C226.972004,102.852302 226.242979,103.017284 225.944062,102.868442 C225.643485,102.717806 224.650416,103.117707 224.495976,103.139227 C224.339875,103.164332 223.464713,103.108741 222.905074,103.03701 C222.343775,102.965279 220.058721,103.157159 219.044065,103.366973 L218.190491,102.778778 C218.168903,102.764431 216.121322,103.236064 216.094752,103.259376 C215.98847,103.34904 215.897134,103.501469 215.774246,103.526575 L215.254463,103.632378 C214.774535,103.392079 214.419157,103.029837 214.462333,102.825403 C214.50551,102.620969 214.357713,102.03636 214.160095,102.03636 C213.962478,102.03636 213.543994,102.194169 213.695113,102.38605 L213.713381,102.592277 L213.73829,102.852302 C213.728326,103.24503 213.298218,103.47457 212.783417,103.3598 L212.335042,103.35442 L211.976342,103.34904 C211.597713,103.456637 210.850421,103.574993 210.317353,103.618032 C209.784285,103.659277 208.214971,103.34904 207.899448,103.481743 C207.583924,103.614445 206.536055,103.323934 206.237138,103.479949 C205.939882,103.635965 204.93851,103.366973 204.775766,103.44767 L204.609701,103.470983 C203.829196,103.57858 203.12176,103.558854 202.308042,103.311381 L201.598944,103.094395 C200.865823,103.110175 200.093407,103.118241 199.610462,103.119299 L199.377721,103.119185 C199.311027,103.118919 199.255879,103.118424 199.214252,103.117707 C199.110738,103.115316 199.006671,103.036611 198.899528,102.949737 L198.76932,102.845928 C198.59331,102.713917 198.406844,102.630772 198.199595,102.875615 L197.993675,103.132053 L197.880751,103.271929 C197.771148,103.435117 197.23974,103.668244 196.70169,103.793773 C196.163639,103.917509 194.551149,103.307795 194.282124,103.253996 C194.011438,103.198405 193.468406,103.25579 193.285734,103.167919 C193.104724,103.081842 192.349128,103.182265 192.116637,103.212751 C191.885807,103.24503 190.867829,103.302415 190.362992,103.24503 C189.859815,103.189438 188.541259,102.845129 188.51801,102.753672 C188.493101,102.662215 188.207469,102.861268 187.925159,103.388492 L187.063282,102.931206 C186.825809,102.805677 186.181477,103.417185 185.689925,103.478156 L185.263138,103.531954 C184.75664,103.327521 183.959528,103.537334 183.489565,104 L182.772164,103.449464 L182.363644,103.13564 C181.691081,102.870235 181.040107,102.80209 180.915558,102.985005 C180.79101,103.169712 180.208122,103.626998 180.030432,103.399252 C179.852743,103.173299 179.178519,102.947346 178.846389,103.293448 L178.535848,103.451257 C178.358158,103.540921 177.820108,103.426151 177.815126,103.381319 L177.740397,102.499026 C176.875199,102.249761 176.122925,102.273073 176.068123,102.549238 C176.014982,102.825403 175.528412,103.332901 175.068412,103.246823 L174.698087,103.345453 C174.410795,103.420771 174.216499,103.668244 174.181626,103.218131 C174.145091,102.741119 173.748196,102.628142 173.462564,102.845129 C172.662132,103.45843 171.752096,103.044183 170.910147,103.169712 L170.325598,103.257583 C169.677945,103.350833 169.056862,103.431531 168.943938,103.436911 L168.840978,103.420771 L168.141844,103.304208 C167.18531,103.139227 166.660545,102.913273 166.974408,102.803884 C167.288271,102.6927 166.64726,102.113471 166.590798,101.926971 C166.534336,101.74047 166.152386,101.550382 166.127477,101.950283 C166.102567,102.353771 165.77874,103.332901 165.464878,103.182265 L165.255636,103.01011 L165.006539,102.805677 C164.760762,102.402189 164.201124,102.273073 163.762712,102.516959 C163.32264,102.760845 162.107045,102.952726 161.949283,102.647868 C161.791522,102.343011 161.065818,101.796061 160.725385,102.195962 L160.722063,102.516959 L160.7121,103.467396 C160.144158,103.503262 159.220837,103.420771 158.662858,103.280895 C158.10488,103.142813 156.487408,103.363386 156.374484,103.318554 C156.26156,103.271929 155.705242,103.096188 155.411307,102.995764 C155.115712,102.898927 153.818745,102.981418 153.189359,103.196611 L152.780839,103.051356 L152.380622,102.907894 C152.126543,102.357357 151.63167,102.04174 151.282933,102.212102 C150.932536,102.378877 150.14871,102.933 150.185244,103.080048 L150.171959,103.216337 L150.160334,103.336487 C150.083944,103.46381 149.924522,103.546301 149.808277,103.517608 C149.690371,103.492502 149.25362,103.137433 149.007844,102.877408 C148.763728,102.613796 147.727483,103.167919 147.5664,103.184058 C147.406978,103.198405 146.712827,103.085428 146.377375,102.995764 L146.340841,102.854095 L146.217953,102.382463 C146.661346,102.382463 147.343873,102.346598 147.734126,102.299972 C148.124378,102.25514 148.300407,101.293943 147.920119,101.225799 C147.53983,101.159448 146.41391,101.216832 146.408928,101.530656 L146.246184,101.819374 C146.048567,102.174443 145.711455,102.712426 145.402574,102.730359 C144.549001,102.776984 145.221564,101.995115 144.864524,101.704604 L144.813044,101.663359 C144.730011,101.61494 144.382936,101.919797 144.040842,102.343011 C143.697088,102.764431 141.895283,102.751878 141.333984,102.785951 C140.772684,102.821816 140.159905,101.803234 139.990518,102.183409 C139.821132,102.565378 141.030085,102.845129 141.103153,102.904307 C141.176222,102.967072 141.212756,103.307795 141.023442,103.517608 L140.824164,103.544507 L140.571746,103.576786 C140.274489,103.45843 139.6368,103.008317 139.156873,102.576137 L139.038966,101.048264 C139.02236,100.843831 138.432829,100.474415 138.404598,100.495935 C137.393263,101.229027 137.327468,100.831224 137.325469,100.358643 L137.325176,100.087756 C137.32287,99.9775776 137.314659,99.8745637 137.288642,99.7929696 L137.272036,99.737378 C137.117595,99.6208149 136.966476,99.8234553 136.933263,100.185697 C136.90005,100.546146 136.554635,101.209659 136.230809,100.919148 C135.908643,100.63043 135.412108,101.930557 135.302506,102.179823 C135.194563,102.429088 134.689726,103.198405 134.490448,103.232477 C134.29117,103.266549 133.178535,103.196611 132.336586,103.25041 L131.57933,103.289862 L131.418247,103.297035 C131.243879,103.372353 131.097742,103.318554 131.09276,103.178679 C131.089439,103.040596 131.116009,102.705253 131.104384,102.445228 C131.09442,102.183409 131.695576,101.627493 132.036009,101.670532 L132.306694,101.731503 L132.555792,101.787095 C132.779979,101.973596 133.276514,102.213895 133.660124,102.319698 L134.03377,102.36991 C134.21312,102.39143 134.540268,102.301766 134.590087,102.190582 L134.796008,101.744056 C134.970376,101.236558 135.405466,100.813345 135.764166,100.806172 L135.878751,100.653743 C136.136152,100.30764 136.134491,99.769657 136.450014,99.5096317 L137.047848,99.0128936 C136.704094,98.58968 136.247415,98.2077118 136.031531,98.1646731 C135.815646,98.1198411 135.148065,98.4175253 135.148065,98.9447491 C135.148065,99.4719728 134.711315,100.834864 134.219762,100.851004 L133.925827,101.215039 C133.560485,101.663359 133.208427,101.711777 132.662073,101.306496 L132.384745,101.102063 C131.853337,101.371054 131.210666,101.962836 130.956587,102.414742 C130.704168,102.866648 129.415504,103.282689 129.613121,102.990384 C129.810739,102.696287 130.461713,101.82834 130.579619,101.634666 C130.699186,101.442785 129.983446,100.940668 129.853916,100.619671 L129.66128,100.474415 L129.196298,100.121139 C128.902363,99.627988 128.563591,99.0810382 128.440703,98.8999171 C128.319476,98.7170027 127.708357,99.3159576 127.535649,99.6118485 L127.542292,99.8826335 L127.545613,100.051202 C127.598754,100.273568 127.465902,100.838451 127.250018,101.310083 C127.034133,101.781715 126.97435,103.187645 126.891317,103.216337 C126.806624,103.248616 126.512689,103.201991 126.421354,103.047769 C126.331678,102.897134 125.855072,102.360944 125.64417,102.138577 C125.433267,101.918004 126.408068,101.385401 126.524314,101.200693 C126.637238,101.017779 126.630595,100.707541 126.260271,100.951427 C125.889946,101.19352 124.810524,100.495935 124.576372,100.562286 C124.342221,100.628637 124.601282,101.430232 124.6976,101.688465 L124.732473,101.928764 L124.767347,102.174443 C124.752401,102.432675 124.229297,102.561791 123.606553,102.463161 L123.098394,102.49006 L123.012041,102.493646 C122.930669,103.056736 122.747997,103.44767 122.606842,103.361593 C122.465687,103.273722 121.718395,103.307795 121.265038,103.444084 L121.251752,103.418978 L120.977745,102.900721 C121.452691,102.82361 121.788142,102.590483 121.723377,102.384256 C121.660272,102.179823 121.203594,101.722537 120.919623,102.034567 C120.635652,102.346598 119.601067,103.103361 119.179262,103.103361 C118.757457,103.103361 117.603306,103.071082 117.598324,103.035216 C117.596663,102.995764 117.820851,102.872028 118.106483,102.841542 C118.392114,102.811057 119.220778,102.441641 119.222439,102.097332 C119.222439,101.754816 120.416446,101.360295 120.642294,101.317256 C120.866482,101.272424 121.520778,101.010605 121.612113,100.881489 L121.57724,100.790032 C121.535723,100.677056 121.334785,100.499521 121.266698,100.519247 C120.125832,100.84921 119.001573,101.241938 117.769371,101.195313 L116.940707,101.164827 C116.540491,101.72433 116.045617,102.273073 115.839697,102.382463 C115.635437,102.493646 115.197025,101.909038 115.094065,101.83372 C114.992765,101.760196 114.509517,101.52169 114.28699,101.426646 C114.066123,101.333395 113.533055,100.976533 113.662585,100.863557 C113.792116,100.75058 114.283668,100.517454 114.46634,100.601738 L114.51948,100.723681 L114.810094,101.372848 C115.444462,101.270631 116.072187,101.112822 116.2067,101.024952 C116.339552,100.935288 116.580346,100.456482 116.573704,100.22515 C116.568722,99.9938167 115.671971,99.5777762 115.369733,99.5275644 L115.351466,99.4414871 C115.087422,98.1234277 114.293632,98.8712247 114.142513,99.3213375 C113.875149,100.130106 113.006629,100.200044 112.475221,100.634017 L112.001936,101.021365 C111.689734,101.523483 111.374211,101.722537 111.299482,101.464305 L111.262947,101.225799 L111.194861,100.797205 C110.635222,100.560493 109.798255,100.157005 109.336594,99.9023596 L109.253562,99.5939157 C109.049302,98.8317725 108.514573,98.8066666 107.818761,98.8120465 C107.518183,98.8138398 107.167786,98.4767035 106.926992,98.5412615 C106.69118,98.6040262 106.586559,98.9985474 106.38396,99.2173273 L106.314213,99.2944383 C106.050169,99.3231307 106.041866,99.466593 106.294285,99.6100552 C106.546703,99.7553108 107.011685,100.273568 106.799122,100.461862 C106.586559,100.65195 105.015585,99.9687108 105.201578,99.7445511 L105.289592,99.5239779 C105.553635,98.8712247 105.196596,98.4892564 104.436018,98.751075 C103.838185,98.9555087 103.677102,98.4910497 103.310098,98.4569774 L102.845116,98.4121455 C102.295441,98.4551841 101.259196,98.6524447 100.541796,98.8532919 L100.149883,98.6470649 L99.6550092,98.3906261 C99.2049732,98.4444245 98.5257677,98.5932665 98.1438183,98.7205893 C97.7602084,98.847912 96.4333496,98.4498043 96.1394147,98.3888328 C95.8454798,98.3278614 95.0981876,98.4390446 94.7295235,98.4085589 C94.5460218,98.393316 94.1669786,98.3659686 93.7933325,98.377849 L93.714,98.381 L93.770881,98.4151884 C93.9891982,98.5608055 94.2406465,98.8157019 94.3633432,98.9769051 L94.4132128,99.0487592 C94.4341931,99.0832356 93.8281228,99.0992552 92.8247179,99.1013643 L92.435,99.101 L92.412782,99.1155336 C92.3344718,99.1409125 92.2221695,99.126463 92.1084116,99.1051281 L92.084,99.1 L92.0693965,99.1006579 C91.979046,99.1003449 91.8866581,99.0999558 91.7923373,99.0994926 L91.745,99.099 L91.7862118,99.0885226 L91.7862118,99.0885226 L91.884,99.063 L91.7953075,99.0534109 C91.739219,99.0519694 91.6969442,99.0621091 91.6781235,99.0935911 L91.675,99.098 L91.5036809,99.0978832 L91.5036809,99.0978832 L91.479,99.097 L91.4771926,99.078232 C91.475432,99.0395437 91.478292,98.9907765 91.4871488,98.9304028 L91.487,98.925 C91.382257,98.9189507 91.2809922,98.9049739 91.1845867,98.8819551 L91.138,98.868 L91.1017481,98.8809756 C90.9749306,98.9284414 90.8363783,98.9942884 90.7182922,99.0543071 L90.646,99.091 L90.5744024,99.0905138 C90.3581809,99.0884692 90.135901,99.0861615 89.9083991,99.0836074 L89.85,99.082 L89.8292186,99.0633091 C89.7824736,99.0174715 89.73765,98.9670028 89.6923003,98.9165808 L89.672,98.894 L89.2792727,98.9985474 C88.6797784,98.9196432 87.7265657,98.8640515 87.1602843,98.8766045 C86.9431225,98.8821223 86.5743896,98.9391039 86.1646317,99.0178588 L86.117,99.026 L86.208778,99.0288798 C86.5969935,99.0357872 86.9828697,99.0423264 87.3635836,99.0484413 L87.371,99.048 C87.3479395,99.0569903 87.3286925,99.0679473 87.3105915,99.0828315 C87.1295807,99.2316735 86.4819275,99.4235543 86.2510973,99.2011878 L86.019,99.046 L85.9147384,99.067487 C85.3242941,99.1882741 84.696775,99.3400979 84.33552,99.4414871 C84.2097258,99.4761198 84.0347154,99.489128 83.8280363,99.4881719 L83.613,99.482 L83.6570785,99.4596907 C83.8373452,99.374058 84.2715187,99.220826 84.4570995,99.2671787 L84.5140582,99.2944383 C84.6585346,99.4199677 85.1035886,99.1922214 85.229798,99.0702785 C85.2480651,99.0528581 85.2694502,99.0367186 85.2933239,99.0219907 L85.311,99.012 L85.0399371,99.0071084 L85.0399371,99.0071084 L84.2612771,98.9915319 C84.1318868,98.9888719 84.0027593,98.9861813 83.8739993,98.9834622 L83.592,98.977 L83.68874,98.9214364 C83.7197388,98.8815061 83.7691007,98.8529252 83.8323973,98.8333219 L83.867,98.825 L82.445,98.856 L82.3813637,98.8224506 C82.2644791,98.7569306 82.1540629,98.6885665 82.0596431,98.621959 L82.029,98.608 L82.2421945,98.5990157 C83.2278375,98.5553543 84.4327165,98.5137467 85.6776303,98.4786905 L86.3595675,98.4602458 C86.4735264,98.4572889 86.5875469,98.454393 86.7014944,98.4515614 L87.3832255,98.4353699 C88.5143928,98.4097599 89.6113286,98.3912539 90.5393963,98.383231 L90.658,98.382 L90.6692975,98.2274378 C91.1093695,98.015831 91.3053261,97.7593922 91.1043876,97.6607619 C90.903449,97.5603384 90.2574565,97.4688812 90.1046768,97.6751082 C89.951897,97.8831284 89.2793341,98.3924194 89.2876373,97.8903015 L89.2643882,97.648209 C89.2527637,97.5316459 89.1464821,97.3200391 89.1165905,97.3254189 L88.749587,97.377424 C88.3526918,97.4563282 88.1085764,97.2124424 88.204894,96.8340607 L87.5539195,96.9936625 L87.4310315,97.0241482 C87.3214286,97.1425046 86.8963024,97.1281583 86.4828008,96.9936625 C86.0692991,96.8573734 84.4867004,96.8519935 84.0300218,96.8753061 C83.5716827,96.8968255 82.1219359,96.2835244 81.7416472,96.3283563 C81.3630192,96.3731883 80.3566657,96.5614825 80.208868,96.1705478 C80.0594095,95.7778199 78.3223704,95.5411072 78.1662694,95.5823526 L78.1430203,95.5536602 L77.3342841,94.4723135 C75.9028045,94.3073319 74.6191226,94.1423503 74.4829494,94.0993116 C74.3467762,94.0598595 73.7007836,94.0795856 73.1909643,94.04372 C72.681145,94.0060612 70.578763,94.1351772 69.660424,94.2087016 L69.4777526,93.1883264 C69.4594855,93.0771431 69.0958033,92.8870557 69.0194134,92.9265078 L68.4929876,93.1972928 C67.9599192,92.985686 67.4085836,92.6682757 67.2674285,92.496121 C67.1262733,92.3203798 66.2062736,91.9904166 65.9355878,91.870267 C65.6632413,91.7483241 64.831256,91.5151979 64.7166712,91.5510635 C64.6020864,91.5887223 64.2234584,91.4757458 64.1337834,91.2085474 L63.9610758,91.0363927 C63.8647582,90.9431422 63.5309677,90.928796 63.378188,91.0005271 C62.7836755,91.2784852 62.1227371,91.328697 61.6976109,91.3520096 C60.7776112,91.4004281 61.2276472,91.0561187 61.2791273,90.6651841 C61.2853792,90.6170821 61.258533,90.5666965 61.2232716,90.516714 L61.1671537,90.4423781 C61.0640129,90.3078812 60.9905651,90.1865898 61.4601381,90.1343738 C61.7955892,90.0967149 62.1277191,89.9640124 62.4349392,89.82593 C62.7820149,89.671708 62.7222315,89.510313 62.4565276,89.2628406 L62.1692353,88.9974355 C62.4615096,88.7571362 63.0311123,88.2765377 63.4379713,87.930435 C63.8448304,87.5825391 64.3363826,86.2447536 63.8880073,86.1748158 L63.5608594,86.2124746 L63.1772494,86.2555133 C62.7703903,86.3935957 62.1393436,86.3595234 61.7773221,86.176609 C61.4153006,85.9936947 61.5016543,84.4299562 61.6394882,83.8094819 C61.7773221,83.1872144 62.0878635,81.5284322 62.0297408,81.5087062 C61.9749393,81.4871868 61.531546,81.7579718 61.2110407,82.1184207 L60.7759506,81.5230524 L60.5550843,81.2199884 C60.6381167,80.9330639 60.8938567,80.4219796 61.1246869,80.0848433 L60.7211492,79.9198618 L60.5069254,79.8319911 C60.0087307,80.0722904 59.7114744,80.0131122 59.8493083,79.7010818 L59.8775394,79.4410565 L59.9539292,78.7237453 C59.6002109,78.0207803 59.278045,77.1886992 59.2415107,76.8748756 C59.2033158,76.5610519 59.656673,75.5263304 60.3275753,75.2411992 C60.9968169,74.9542747 60.991835,73.3152185 60.5036041,73.4461278 L60.2196331,73.6541481 L59.9173949,73.8765146 C59.5703193,74.079155 58.899417,73.743812 58.4277926,73.1287176 L58.6735687,72.6068737 C58.7549405,72.4383056 58.7449766,72.2338719 58.8462762,72.0778567 C59.0870703,71.7012683 59.3693807,71.3479925 59.6317633,70.9821637 C59.9256982,70.5697098 60.2661313,71.5111808 60.6098857,70.9445049 L60.707864,70.7813166 C61.1180443,70.7024124 61.0715462,70.5248778 60.608225,70.3832089 L60.5866366,70.2307802 C60.551763,69.977928 60.7792719,69.6676909 60.9735679,69.4327715 C61.0765281,69.3090353 61.3671417,69.319795 61.5332067,69.2175781 C61.9350838,68.971899 62.0546505,68.2276886 61.6577553,68.1182986 C61.1662032,67.9802162 61.0350119,67.8062682 60.8523405,67.4207135 L60.7560228,67.218073 C60.0602108,67.1499285 60.1282974,66.8845233 60.9054812,66.6316711 C61.6843257,66.3788189 63.7800651,65.3136117 64.7532055,65.8874607 L65.9372484,65.7117194 C66.1714,65.6776471 66.6712554,66.1385196 66.7692337,66.4415836 L67.0116885,67.1911739 C67.5796305,66.9741872 67.8835293,66.4989685 67.6892334,66.1349331 L67.724107,65.8282825 C67.8303886,64.8975712 68.0097387,63.9686531 68.2339263,63.0558746 L68.2854064,62.8514409 C68.5976085,62.6828727 68.9911824,62.4856121 69.1605686,62.4192608 C69.3126103,62.3586879 69.6667181,61.914132 69.9593021,61.8123112 L70.0656224,61.7916135 C70.0747892,61.7915059 70.0544566,61.7912805 70.0063893,61.7909426 L69.8737978,61.7901186 C67.20548,61.7747477 37.9051142,61.6502135 38.009237,61.5871798 C38.1205005,61.5226218 38.4792007,61.201625 38.6087313,61.0671292 C38.7399226,60.9344266 39.3593448,61.4383377 39.4556624,61.5208285 C39.5503194,61.6033193 40.0701027,61.7073294 40.1132795,61.3379142 C40.1597777,60.9702921 40.5649761,60.3336784 40.9386222,60.5650113 C41.3122683,60.7963442 42.3385495,60.3013994 42.2621596,60.2260817 C42.1857698,60.1525573 42.1724846,59.8494933 42.4016542,59.7167908 L42.5278635,59.7670025 C43.050968,59.9678497 43.6537837,60.7210265 43.8248306,59.5159436 L43.8281519,59.4908377 C43.9892349,59.4854579 44.3844694,59.5589823 44.7049747,59.654026 C45.02548,59.750863 46.0683677,59.3653083 46.3706059,59.3473755 C46.6711834,59.3294427 47.6144321,59.4101402 48.0760926,59.4101402 C48.5377531,59.4083469 49.3265615,58.6533769 48.9977529,58.506328 C48.6689444,58.3610725 47.9598472,57.5702369 48.1375366,57.0699123 C48.3152261,56.5695877 46.5017971,55.1511047 46.6562375,55.1044795 C46.8139992,55.0596476 46.9817248,54.6185011 46.5067791,54.2777783 L46.516743,53.9908538 L46.5416527,53.3452737 C46.0650464,53.3309275 45.4954437,53.1533929 45.2745774,52.9489592 L45.1234583,52.7355591 L44.7846858,52.2549606 C45.0005702,51.7044242 45.0105341,50.7844726 44.8062743,50.2142101 L44.6800649,49.6744334 L44.6402094,49.5058653 C44.7116173,49.2817055 45.1666352,49.3229509 45.6515447,49.5991158 C46.1347937,49.8734873 47.6343599,49.3803358 47.6742155,49.2870854 C47.7140711,49.1956282 47.5596307,48.8315927 47.2507499,48.6881305 L47.1062735,48.7634482 L46.772483,48.9373961 C46.3407142,49.1669357 46.0584038,49.1651425 46.1430969,48.9338096 L46.2111835,48.7204095 L46.2809308,48.498043 C46.3473568,48.2505706 46.3058405,48.0820025 46.1895951,48.1250412 C46.071689,48.1662866 45.560209,48.2164983 45.3111116,48.1411807 C45.0603536,48.0676563 45.5552271,46.9881029 45.7478624,46.4572925 L46.4320499,46.3263832 C46.5665625,46.2994841 46.8106779,46.2403059 46.8090173,46.2098202 L46.7010751,44.9921843 C47.7821577,44.5223455 48.4347929,44.0058814 48.1524825,43.8444864 C47.8701721,43.6812981 46.7774649,43.8893183 46.6014361,43.8408998 C46.5289536,43.8209628 46.2638818,43.7386954 45.906507,43.621015 L45.5799198,43.5121014 C45.1205679,43.3569939 44.5780815,43.1656779 44.102159,42.978333 L43.0443254,43.164834 C42.5693798,43.2473248 42.5129177,42.9926793 42.3850477,42.6250573 L42.1957337,42.0763142 C41.8968168,42.4242101 41.2973224,42.5999514 40.863893,42.4744219 C40.4288029,42.3470992 39.083677,41.7822166 38.8163125,41.552677 L38.8511861,41.5096383 L39.2231715,41.0559389 C38.9906807,40.6022396 38.7116916,40.1467469 38.60541,40.0463234 C38.4991285,39.9423132 38.1404282,39.7952644 38.0474319,39.9458998 L37.9212225,40.0409435 L37.7352298,40.1826125 C37.497757,40.3009688 37.0161687,40.501816 36.6641111,40.6237589 C36.3137141,40.7457018 35.2044004,40.9555153 35.0283716,40.8030867 C34.8540034,40.6488648 34.4903212,39.972799 34.6729926,39.6930476 C34.8540034,39.4168827 36.1725589,39.8705821 36.6940028,39.883135 L36.7753746,39.5872442 C36.863389,39.2698339 36.5827393,38.5579025 36.4349415,38.5525227 L34.1050506,38.4610655 C34.4106101,37.038996 34.3857003,35.8392929 34.0485885,35.7926677 C33.7131374,35.7460425 33.1352314,36.4023823 33.0488777,36.323478 C32.9608633,36.2463671 32.7101052,36.020414 32.6802136,35.9953081 C32.6519825,35.968409 32.4626685,35.6599651 32.3264953,35.3658675 C32.190322,35.0717699 32.6519825,34.0711207 32.8064229,33.8308215 L32.8512604,33.5994886 L32.8927767,33.3842952 C32.8329933,33.1332363 32.6005024,32.9539085 32.3763147,32.9843942 L32.1753762,33.0256396 L32.0142932,33.0597119 C31.8415857,33.1135102 31.6489504,33.0292262 31.589167,32.8696244 L31.6472897,32.7943067 L31.9594918,32.3854393 C32.4958815,31.7757248 32.4327768,31.4601078 31.8199973,31.6824743 L31.4762429,31.7075802 L30.8219471,31.7559987 C30.0746549,31.7362727 29.4253411,31.5121129 29.3805035,31.2556741 L29.3937887,31.0727598 L29.5316226,29.1916111 C28.6415146,28.4115351 27.7929229,27.7157432 27.6451251,27.6422188 L27.6002875,27.5453818 L27.4209374,27.1508606 C27.4823814,26.682815 27.3163165,25.9009458 27.0539339,25.4149674 L26.6753059,25.276885 C25.7220933,24.9325756 25.742021,24.3192745 25.7901799,23.6270691 L25.808447,23.3670438 C25.8001438,22.8774789 25.3102522,22.678425 24.7207218,22.9223108 L25.107653,22.2928702 C25.4663533,21.7100549 24.8203607,21.7244011 24.6293861,21.4876884 C24.5762453,21.4213371 24.2125631,22.2354853 24.0249097,21.4805153 L24,21.3782984 C24.3005775,21.2061437 24.5978337,21.033989 24.6609384,20.9981234 C24.7240431,20.9586713 24.5463536,20.3561299 24.1145848,19.7446221 L24.2706858,19.0488302 C24.3105414,18.8677091 24.4483753,18.6883813 24.4284475,18.5216064 L24.4068591,18.3261391 C24.2723465,18.1217054 24.3072201,17.9872095 24.4815883,18.0284549 C24.6576171,18.0697003 25.4049093,17.9585171 25.7204326,17.6841455 C26.0376166,17.4115673 25.5742955,16.371466 25.8001438,16.2907685 L25.8566058,16.3356004 C26.447797,16.803646 26.9659195,16.8933099 27.4790601,16.2351768 L27.9207928,15.668501 C28.3973992,16.0701952 28.824186,16.2208306 28.8690236,16.0056372 C28.9155217,15.7904439 29.6594926,15.0480267 30.4217306,14.8328334 L30.9431745,15.8065834 L31.2138603,16.3104945 C31.9462066,15.7491985 32.4244736,15.2506672 32.2766758,15.2058352 C32.1305387,15.1610033 31.7618745,14.9189107 31.8067121,14.7754485 L31.839925,14.7772417 C32.1919827,14.791588 32.545701,14.8256603 32.896098,14.8722855 L33.0588416,14.8920115 C33.2315491,14.9511897 33.4441122,14.8507661 33.5288053,14.6732316 C33.6151591,14.4974904 34.2163141,14.5907408 34.2744368,14.4687979 C34.3325595,14.3450617 34.6696713,14.0025456 34.7825955,14.217739 C34.8971803,14.4311391 35.556458,14.6911644 35.8869272,14.1137288 L36.1459885,13.8393573 L36.2888043,13.6923085 C36.5860606,13.6510631 37.1456994,13.7568665 37.5293093,13.9290212 C37.9145799,14.1011759 39.3178286,13.7048614 39.5968176,13.8877758 C39.8758067,14.0671036 40.6961674,14.4813509 41.0050482,13.9577137 L41.2690914,13.5972648 L41.5298133,13.2421957 C42.0114016,13.2081234 42.6241812,13.2995806 42.8898851,13.4466294 C43.1555889,13.5954715 43.6936393,12.8781602 44.0141446,12.8889199 C44.3329892,12.8996796 45.243025,13.10232 45.3625918,13.199157 C45.4804979,13.295994 46.0368154,13.4412496 46.1696673,13.1435654 C46.3008586,12.8458812 46.9152988,12.1178103 47.2241796,12.2325801 C47.5330603,12.3437634 48.2803525,12.1823683 48.5228073,12.0855313 C48.7669227,11.986901 49.4610741,12.2809986 49.5839621,12.1895415 L49.6005686,12.096291 L49.6620126,11.7519816 C49.9476443,11.8004001 50.7032397,12.0801515 51.340929,12.3778357 L51.4206402,11.4381579 L51.4272828,11.3664268 C51.5651167,11.3036621 52.1994847,11.1261275 52.837174,10.9701124 C53.4732026,10.8140972 55.6121189,11.1691662 56.1667757,11.142267 L56.5669922,11.2462772 C56.9788332,11.3556671 57.2511796,11.8470253 57.2744287,11.0382569 C57.2760894,10.9539728 57.7510351,10.7925778 57.7659809,10.8123039 C58.2658363,11.4507109 59.0181104,10.9342468 59.1592656,10.7656786 C59.6126229,10.2223154 60.2486515,10.961146 60.7352217,10.4482684 L60.9195538,10.2545944 C61.7017196,10.5020668 62.4357266,10.7244333 62.5503114,10.7495391 C62.6665568,10.7728518 63.280997,10.4410953 63.7111052,10.0860263 C64.142874,9.72916391 65.6241731,10.355018 65.7055449,10.3137726 L65.7055449,10.2761137 L65.6723319,9.31670995 C66.3930537,9.51397054 67.4674937,9.42072008 68.0620062,9.10510313 L68.5768074,9.84572699 L68.8308868,10.2115557 C69.3656158,9.96229006 70.0713917,9.63591345 70.4002003,9.48348481 L70.7406334,9.40996041 L70.8485756,9.38485452 C70.9598391,9.34898895 71.3384671,9.34181584 71.6905248,9.37050829 C72.044243,9.40099402 73.2830874,9.29160406 73.6517515,9.36333518 C74.0204156,9.4350663 74.942076,9.02799218 75.0334117,9.13020903 C75.126408,9.23242588 75.5133393,9.48169153 75.5947111,9.34898895 L75.6794042,9.23959899 L75.7707399,9.12124264 C75.8853247,8.99571317 76.0098734,8.97240055 76.0480683,9.06744429 C76.0846026,9.16428131 76.2705953,9.48707137 76.3652524,9.53728315 L76.4532668,9.51397054 L77.1158658,9.3454024 C77.8664793,9.20552671 78.5888617,9.03695857 78.7233743,8.96522744 L78.8196919,8.8701837 L79.4939155,8.18694475 C80.0053955,8.81817864 80.5301606,9.17683426 80.6613519,8.9849535 C80.7925432,8.79307275 81.2259727,8.40034484 81.3555033,8.50435497 C81.4585822,8.58607722 81.6549539,8.35781853 81.7456572,7.89525539 L81.754,7.842 L81.896265,7.8307134 L81.896265,7.8307134 L82.144,7.81 L82.7554306,8.40751796 L82.9231562,8.57070626 C83.421351,8.47924908 84.0673435,8.42365746 84.3629391,8.44697007 C84.6552133,8.46848941 85.3360795,8.61912477 85.3560073,8.38599862 C85.3759351,8.15287247 86.3789672,8.12059346 86.5350683,8.28736832 C86.6674457,8.42878111 86.8864481,8.23291123 86.9327236,7.73137892 L86.938,7.637 L86.8414396,7.63640838 C86.7256094,7.62295879 86.5670433,7.58529995 86.390875,7.53203749 L86.282,7.497 L86.5180227,7.48051531 C87.1093415,7.43798141 87.6818316,7.3979581 88.2085738,7.36274634 L88.345,7.353 L88.4151793,7.32525618 C88.7221147,7.20345348 88.9980695,7.10360553 89.1530634,7.06076611 C89.4337131,6.98365515 90.8170339,6.86709207 91.5560228,6.8652988 L92.2302464,6.84377946 L92.4278637,6.83660635 C92.6404268,6.74156261 92.8463473,6.80432734 92.8845422,6.97468876 C92.9227371,7.14684346 93.7198488,7.05359299 93.8327729,6.9137173 C93.9456971,6.77563489 94.433928,6.48153728 94.6116174,6.63755248 C94.7909675,6.79536095 95.4120504,7.05359299 95.664469,6.92447697 C95.9168877,6.79715423 97.0012917,6.42773894 97.5144323,6.3900801 L97.6821579,6.6196197 C98.050822,7.12353084 98.4809301,6.12288166 98.8844679,6.75949539 L99.0555148,7.03207366 C99.6865615,6.73618277 100.3475,6.60527347 100.525189,6.73797605 C100.701218,6.87426519 101.24259,7.14863673 101.292409,7.02310727 C101.342229,6.89578452 101.569738,6.59810036 101.685983,6.64113903 C101.802229,6.68417771 102.184178,6.62858609 102.275514,6.42415238 C102.366849,6.2179254 103.848148,6.28427669 104.724971,6.10674216 L105.688148,6.38290699 C106.46201,6.60527347 107.506559,6.69493738 108.434862,6.11032872 L108.879916,5.83057734 C109.721865,5.97583286 110.497388,6.19102623 110.600348,6.30758931 C110.704969,6.42594566 111.213128,6.47077761 111.470528,6.0870161 C111.726268,5.70146131 112.900347,6.35780109 112.981719,6.20716573 C113.06143,6.05653037 113.39356,5.70325459 113.441719,5.94893369 C113.488217,6.19461279 113.7506,6.47795073 113.939914,6.15336739 C114.129228,5.83057734 115.510888,6.30758931 116.07883,6.15874723 L116.754714,6.26275736 L117.643162,6.39904649 C118.715941,6.0134917 119.654208,5.81085128 119.728937,5.94893369 C119.802006,6.0870161 120.089298,6.36676749 120.173991,6.21075229 C120.260345,6.05294382 120.645615,5.64945625 120.859839,5.62973019 L120.93789,5.69787476 L121.570597,6.25737752 C122.415868,6.16950689 123.561716,6.13543461 124.116372,6.18026656 C124.671029,6.22330524 126.408068,5.96148664 126.814927,6.28965653 L127.294855,5.69070164 C127.376227,5.59027807 127.974061,5.87002945 128.327779,5.85747651 L129.370667,5.82699078 C130.516515,5.74987982 132.120702,5.56158562 132.932759,5.40915698 L133.540557,6.04397743 L133.663445,6.17130017 C134.062001,6.09777577 134.663156,6.04039087 135.001928,6.04577071 C135.340701,6.05115054 136.171025,6.23227163 136.205899,6.02425137 C136.242433,5.81802439 137.350086,5.93100091 137.735357,6.34345487 L138.334851,5.82699078 L138.529147,5.66021592 C139.070519,5.76601932 139.71319,5.8825824 139.957305,5.91486141 C140.203082,5.94893369 141.098171,6.05653037 141.42698,6.06191021 L141.725897,6.06191021 C141.951745,6.06191021 142.185897,6.09956905 142.396799,6.05294382 C142.630951,5.99914548 142.831889,5.83237061 143.066041,5.78753866 L143.205535,5.76243277 C143.388207,5.84851012 143.746907,5.84492356 144.002647,5.75346638 C144.260048,5.66200919 145.050517,5.9561068 145.444091,6.24123802 L145.430805,5.49523433 L145.430805,5.4898545 C145.669939,5.48447466 146.521852,5.7104277 147.323945,5.99017909 L148.064595,6.02245809 L148.644162,6.04577071 C149.298457,5.76243277 149.954414,5.47371499 150.100551,5.40377715 C150.246688,5.33204603 150.784738,5.66918231 151.015569,6.10494888 L151.721345,5.87182273 C152.088348,5.74987982 152.754268,5.63152347 152.890442,5.78574538 C153.180225,6.11122536 153.37203,6.00721523 153.55823,5.85545907 L153.682547,5.75140405 C153.82898,5.631529 153.984441,5.53408869 154.192391,5.63869658 L154.657372,5.87361601 C155.318311,5.90410174 156.166903,6.02604465 156.542209,6.144401 L156.660115,6.04218415 L157.367552,5.42170993 C158.124808,5.73194704 158.865458,5.8825824 159.011595,5.75705293 C159.159393,5.62793691 159.728995,5.39839731 159.880114,5.59386463 C160.029573,5.78753866 160.481269,6.33807504 160.511161,6.33628176 C160.539392,6.33448848 160.987767,6.13005478 161.396287,5.93638074 C161.804807,5.74270671 163.505312,5.71760082 164.048344,5.79471177 C164.593037,5.87361601 166.049426,5.72836048 166.469571,5.89334207 C166.891375,6.05832365 167.969137,5.45219566 168.341122,5.66380247 L168.352747,5.64945625 L169.379028,4.39954142 C170.7391,4.92855845 172.124081,5.35356536 172.457872,5.34639225 C172.791662,5.33742586 173.414406,5.22265606 173.372889,5.57055201 C173.333034,5.92024124 174.633322,5.24238212 174.967113,5.10609299 C175.302564,4.96980385 176.026607,5.07381398 176.274044,5.12402577 C176.52148,5.17423755 177.15917,4.99311647 177.217292,5.11685265 C177.275415,5.23879556 177.574332,5.55082595 177.690577,5.40019059 C177.806823,5.24955523 178.569061,4.87834667 179.148627,4.88193322 L179.626894,5.12761232 L181.055053,5.59386463 L181.382201,5.3750847 C181.810648,5.08636693 182.220829,4.93931812 182.295558,5.05229464 C182.368626,5.16527116 182.946532,5.57593185 183.306893,5.78933194 L184.06747,5.13299216 L184.153824,5.05767448 C184.341478,5.06126103 184.670286,5.17603083 184.882849,5.31411324 C185.095412,5.45219566 186.405665,5.39839731 187.209419,5.07381398 L187.274184,5.0146358 L187.576422,4.72950459 C187.956711,4.87655339 188.175917,5.46295533 188.064653,6.03321776 L189.039454,5.47550827 L189.778443,5.05229464 C189.728624,5.58669151 189.74357,5.71580754 189.814977,5.34101242 C189.886385,4.96442402 190.955843,5.53827301 191.012306,5.52392678 C191.068768,5.50778728 191.547035,5.42708976 191.947251,5.33742586 C192.349128,5.24776195 193.847034,5.68711509 194.248911,5.78574538 C194.650788,5.88437568 195.642196,5.38046453 195.789993,5.51137383 C195.939452,5.64048986 196.354614,5.98838581 196.389488,5.99914548 C196.424361,6.00990514 196.623639,5.87361601 196.799668,5.71939409 C196.974036,5.56517218 197.756202,5.38943092 198.068404,5.49702761 L198.36566,5.51854695 C198.538368,5.53289317 198.845588,5.24955523 198.895407,5.28900735 L199.398584,5.69608148 C199.915046,5.48806122 200.853313,5.49164778 201.48436,5.70325459 L202.072229,5.88437568 L202.306381,5.9561068 C202.596995,5.95431352 202.975623,5.84492356 203.14833,5.71580754 C203.319377,5.58669151 204.041759,5.55261923 204.269268,5.40019059 C204.496777,5.24776195 205.941542,5.58131168 206.648979,5.62614363 L207.309917,5.67276886 L207.871217,5.7104277 C208.462408,5.87540929 209.040314,5.91844796 209.156559,5.80367816 C209.272805,5.68711509 209.960313,5.45398894 210.425295,5.53468645 L210.782335,5.69070164 C211.157641,5.85568323 211.469843,6.37573388 211.491432,5.5221335 C211.493093,5.49702761 211.7671,5.45219566 211.908255,5.46295533 C212.775114,5.52392678 213.666882,5.74091343 214.498868,5.6207638 L215.139878,5.52930662 C215.646376,5.73912015 216.172802,5.9238278 216.312297,5.94355386 C216.451791,5.96148664 217.084499,5.83595717 217.434896,5.74808654 C217.783632,5.65662936 219.945797,5.81802439 220.545292,6.00093875 C221.143125,6.18743968 222.803775,5.29080063 223.187384,5.30514685 C223.572655,5.31949308 224.99085,5.13657871 225.475759,4.91779879 C225.962329,4.70081214 227.08825,5.62793691 227.21612,5.61179741 C227.34565,5.59386463 228.066372,5.12223249 228.373592,5.48268139 L228.690776,5.5472394 C229.021245,5.61179741 229.49287,5.21727623 229.791787,5.30694013 L230.412869,5.49164778 C230.741678,5.15989133 231.211642,4.90165928 231.455757,4.91959206 L231.608537,5.01642908 L231.892508,5.20113672 C232.15489,5.45757549 232.498645,5.55441251 232.656406,5.4163301 C232.812507,5.27824768 233.234312,5.10609299 233.264204,5.32307963 C233.292435,5.53827301 234.247308,5.57593185 234.403409,5.40377715 C234.55951,5.23341573 235.245359,5.00746269 235.393156,5.20472328 C235.539294,5.40019059 236.032506,5.94714041 236.128824,5.9399673 L236.162037,5.87720257 C236.638643,4.98594335 237.354383,5.72477393 237.945574,5.68352853 L238.231206,5.66200919 C238.648029,5.52392678 239.139581,5.44502255 239.323913,5.48447466 C239.509906,5.52572006 240.014743,5.57234529 240.343552,5.70504787 C240.67236,5.83595717 242.087233,5.4486091 242.686728,5.61359069 L243.350988,5.4647486 C243.717991,5.38405109 244.222828,5.7355336 244.569904,5.63511002 L245.164416,5.46295533 C245.752286,5.57593185 246.65734,5.70504787 247.175463,5.75525966 L247.658712,5.67635542 L248.505643,5.53827301 C249.455534,5.46295533 250.360588,5.38763765 250.515028,5.37149814 C250.669469,5.35535864 251.167663,5.69249492 251.403476,5.98300597 C251.639288,6.27351702 252.6938,5.81623111 252.869829,5.94893369 C253.045858,6.08342955 253.605497,6.33986831 253.723403,6.22151196 L253.701814,6.13364133 C253.635388,5.8664429 253.377988,5.40377715 253.416183,5.38763765 L253.9725,5.12761232 C254.097049,5.53289317 254.321236,5.90589502 254.469034,5.95431352 C254.618493,6.00273203 255.040297,5.85747651 255.189756,5.73732687 C255.339214,5.61359069 255.86564,5.39660404 256.036687,5.53827301 C256.207734,5.6781487 256.686001,5.55620579 256.724196,4.96442402 L257.592715,5.35715192 L257.619286,5.36970487 C257.481452,5.67456214 257.83351,5.84671684 258.401452,5.75525966 C258.969394,5.66200919 260.326144,6.35959437 260.449032,6.25020441 L260.445711,6.15336739 L260.425783,5.47550827 C260.945566,5.60103774 261.476974,5.80547144 261.608165,5.93279419 C261.737696,6.06011693 262.179429,6.3165557 262.215963,6.09956905 C262.254158,5.88078912 262.641089,5.5472394 262.999789,5.81085128 C263.35849,6.07266988 264.823182,5.66021592 265.223399,5.65124953 C265.623615,5.64407641 266.669824,6.13184805 266.751196,6.29862292 C266.834228,6.46898434 267.916972,6.15157411 268.059787,5.98121269 C268.205925,5.809058 268.984769,5.64048986 269.240509,6.2591708 L270.012711,6.06549677 C270.398943,5.96865975 270.30637,5.8134791 270.164945,5.66876007 L270.068144,5.57458565 C269.942007,5.45309975 269.852764,5.35196085 270.102386,5.31949308 L270.703541,5.24238212 C271.3037,5.25636969 272.619827,5.26901031 273.817375,5.27213247 L275.557619,5.27286785 C276.157113,5.27286785 276.756608,5.24955523 277.354441,5.28004096 L277.854297,5.30335358 C278.389026,5.39481076 279.237618,5.16885772 279.740794,4.79944243 L280.278845,5.47012844 L280.601011,5.87002945 C280.645848,5.50958056 280.924837,4.99670302 281.222093,4.73309114 L281.474512,5.0146358 L281.87971,5.46833516 C282.367941,5.33025275 283.078699,5.14733838 283.460649,5.06305431 C283.842598,4.97877024 285.10137,4.74743737 285.403608,4.56272972 C285.705846,4.3762288 286.825124,4.89807273 287.220358,4.92317862 C287.613932,4.94828451 288.778047,5.12581904 288.980647,5.02001564 C289.183246,4.91600551 290.000285,4.67391296 290.531693,4.55914317 L290.930249,4.33677668 L291.685844,3.91714961 C292.00801,4.41388764 292.300284,4.65598018 292.333497,4.45692632 C292.368371,4.25607917 292.835013,3.75037475 293.275085,3.91176978 C293.716818,4.0731648 295.194796,4.48561877 295.643171,4.48561877 C296.089886,4.48741204 297.675806,3.77189408 298.534362,3.75037475 L299.24678,3.78624031 C299.974145,3.82210587 300.65335,3.68223018 301.350823,3.70374952 L301.83075,3.71988902 C302.221003,3.5082822 302.900208,3.45089731 303.343602,3.59615283 L303.566129,3.4760032 C304.263601,3.09762152 304.469522,3.26977622 304.547573,3.90101011 L304.554215,3.95480845 C304.944468,3.9673614 305.836236,3.57822005 306.533709,3.09224169 L307.581579,3.8364521 L307.68786,3.91176978 C307.804106,3.99426057 307.907066,3.79699998 307.91869,3.47062336 C307.930315,3.14604003 309.278762,3.51724859 309.592625,3.61408561 C309.908148,3.71271591 311.032408,3.61229233 311.364538,3.52980154 C311.698328,3.44731075 312.741216,3.19087198 313.00858,3.25722327 C313.277606,3.32357456 314.323815,2.95953911 314.918327,3.0258904 C315.511179,3.09224169 317.261503,2.97926517 317.5106,3.08148202 C317.759698,3.18728543 318.291106,3.62484528 318.344246,3.48676287 C318.399048,3.35047373 318.719553,3.11914086 318.842441,3.51724859 L319.025113,3.58539316 L319.327351,3.69836968 C319.717603,3.64995117 320.599408,3.57104694 321.281935,3.52262843 L321.677169,3.26080983 L322.205256,2.9111206 C322.593848,3.1155543 323.050526,3.28412244 323.221573,3.28412244 C323.390959,3.28412244 323.849299,3.08148202 323.993775,2.99719795 C324.138252,2.91291388 325.113053,3.14245347 325.637818,3.26798294 C326.160922,3.39171913 327.675434,2.95774583 327.811608,2.91470716 C327.947781,2.8698752 328.633629,3.67147051 328.676806,3.44193091 C328.721643,3.20880476 329.19991,2.67978773 329.65991,2.67799445 L330.066769,2.70489362 L330.589874,2.7389659 C331.146191,2.98643828 331.931678,3.12810725 332.335216,3.05637612 C332.737093,2.984645 333.985902,2.60267677 334.291461,2.53991203 C334.59702,2.47535402 335.385829,2.80173064 335.432327,2.58653726 C335.480486,2.37134389 335.709655,1.81901424 335.844168,1.82977391 L335.910594,1.88715881 C336.442002,2.34444472 336.888716,2.88242815 337.79211,2.32651194 L338.052831,2.16691019 C338.56099,2.2727136 339.177091,2.33189177 339.422867,2.29781949 C339.668643,2.26374721 340.410953,2.51659942 340.575358,2.53632548 L340.716513,2.50404647 L341.256224,2.38569012 C341.847415,2.2476077 342.715935,2.18663625 343.184238,2.25119426 L343.616006,2.2888531 L343.948136,2.31575227 C344.398172,1.95171682 344.891385,1.82798063 345.044165,2.03600089 C345.196944,2.2476077 345.685175,2.50763303 345.907702,2.31216572 C346.130229,2.11490513 347.015355,1.70603772 347.249507,1.95171682 C347.485319,2.19560264 348.292395,2.41617585 348.994849,2.47356074 L349.556149,2.57039776 L350.109145,2.66723478 C350.516004,2.49508008 351.181924,2.3300985 351.588783,2.30319933 L351.942502,2.12925135 L352.113549,2.04496728 C352.375931,2.09159251 353.257736,1.93737059 354.073115,1.70245116 L354.875208,2.27450688 L355.298674,2.57757087 C356.105749,2.53273892 356.803222,2.24940098 356.846399,1.94813026 C356.889576,1.64865282 357.880983,1.85308652 358.123438,1.97144288 C358.365893,2.08979923 359.360622,2.16332363 359.68943,2.22967492 C360.0199,2.29602621 360.828636,1.87639914 360.896722,1.91047142 C360.964809,1.94454371 361.258744,2.17587658 361.429791,2.31575227 C361.600838,2.45562796 362.877877,2.74255246 362.683581,2.53991203 C362.489285,2.33727161 362.529141,2.11311185 363.103725,2.38569012 L363.724808,1.76342262 C363.98553,1.5033973 364.868995,1.69348477 365.465168,1.72755706 L365.90524,1.75445623 C366.240692,2.05214039 366.597731,2.31037244 366.699031,2.32471866 C366.80033,2.34265144 367.633976,2.35699767 368.449355,2.43948846 L369.012315,1.77418229 L369.10199,1.66837888 C369.890799,1.96426977 370.462062,2.04138072 370.369066,1.84232686 C370.27773,1.64327299 370.129932,1.13756856 370.198019,1.06583744 C370.266105,0.992313039 370.845672,0.877543241 371.372098,0.798639005 C371.900184,0.719734769 373.361556,1.20391985 373.600689,1.07480383 L373.711953,1.12860217 L374.225093,1.38145439 C374.839533,1.35276194 375.580183,1.46035862 375.869136,1.61816709 C376.159749,1.77597557 377.20928,0.870370129 377.87354,0.429223718 L378.522853,0.673109539 L379.276788,0.954654199 C379.721842,0.579859078 380.143647,0.266035411 380.213394,0.258862299 C380.283142,0.251689187 380.552167,0.176371507 380.758087,0.0311159812 C380.965668,-0.114139544 381.835849,0.289348027 382.063358,0.414877493 Z M80.073,98.958 L80.7850519,99.3123711 C81.138874,99.2613747 81.7342686,99.315068 82.3483176,99.376141 L82.8740144,99.428027 C83.1339478,99.452604 83.3856091,99.4734299 83.6114509,99.4828446 L83.613,99.482 L83.6023617,99.4881123 L83.6023617,99.4881123 C83.4661885,99.5688098 82.7521093,99.7068922 82.052976,99.8324217 L81.4335538,99.6154351 C81.1113879,99.5042518 80.8058284,99.3589963 80.495287,99.2245004 C80.4234883,99.1934873 80.3539652,99.1505789 80.2851387,99.1040734 L80.1479466,99.0087249 C80.1250802,98.9928537 80.1021742,98.9771974 80.0791701,98.9620635 L80.073,98.958 Z M76.276,98.738 L76.3060599,98.7415967 C76.5349241,98.7608471 76.9201242,98.7814383 77.4257965,98.8026605 L77.476,98.804 L77.4265361,98.8660001 C77.3732777,98.9340707 77.3175161,99.0115273 77.2586816,99.098971 L76.8435193,99.7140654 C76.666162,99.2761468 76.469674,98.9363565 76.3125234,98.7725513 L76.276,98.738 Z M87.527,99.051 L87.7424721,99.0544127 C88.3707366,99.0641226 88.9820472,99.0726024 89.5633343,99.0795935 L89.85,99.082 L89.9010828,99.1280073 C89.9257218,99.1480257 89.951147,99.1663016 89.9776643,99.1822502 L90.035,99.21 L89.8999098,99.2085259 C89.8522612,99.2081492 89.8065473,99.2080621 89.7633704,99.2083609 C89.2435872,99.2119475 87.89514,99.4450736 87.8419992,99.3123711 C87.8091184,99.2316735 87.6895516,99.1115956 87.5600608,99.0605948 L87.527,99.051 Z M90.646,99.091 L90.8940861,99.0933813 C90.999063,99.09427 91.1024207,99.0950909 91.2040547,99.0958419 L91.479,99.097 L91.4831269,99.1288963 L91.4831269,99.1288963 L91.494,99.164 C91.4374346,99.1796124 91.3984871,99.190204 91.3725395,99.1976013 C91.2514505,99.2321219 90.9003731,99.2288093 90.5259861,99.2207676 L90.389,99.217 L90.4342972,99.2047744 C90.4509037,99.1971529 90.5282277,99.1534418 90.6340681,99.0978502 L90.646,99.091 Z M82.639,98.956 L82.7279032,98.9582766 C82.9791319,98.9640196 83.233085,98.9696734 83.4889262,98.9752215 L83.592,98.977 L83.3981264,99.0900046 L83.2304008,99.1886349 C83.0958882,99.1548188 82.9223335,99.0887237 82.741894,99.0058774 L82.639,98.956 Z M78.646,98.847 L78.6807064,98.8488436 C78.8691286,98.8550611 79.0652941,98.8612888 79.2683664,98.86751 L79.449,98.872 L79.3916127,98.9044206 C79.3326027,98.9427448 79.2710955,98.9942224 79.2066232,99.0613121 C79.1617857,99.1061441 78.8462623,99.0415861 78.7549266,98.9519222 L78.6713937,98.8707264 L78.6713937,98.8707264 L78.646,98.847 Z M88.7,98.72 L84.448,98.813 L84.4992033,98.817565 C84.8677272,98.854175 85.2713314,98.9281202 85.5201483,98.9377051 L85.529,98.937 L85.4613932,98.9516085 C85.4300829,98.9601671 85.4000024,98.9703987 85.3717811,98.9821726 L85.311,99.012 L85.4300647,99.0145904 L85.4300647,99.0145904 L85.986,99.024 L85.8558627,98.9375759 L85.77,98.925 L85.9290652,98.9075847 C86.260293,98.8672912 86.6249797,98.8049472 86.8135147,98.8002536 L86.8921324,98.8030801 C87.0797858,98.828186 87.7473668,98.8586717 88.3767528,98.8676381 L88.3767528,98.8676381 L88.7,98.72 Z M82.445,98.856 L82.5603507,98.9180224 L82.5603507,98.9180224 L82.639,98.956 L82.3532081,98.9495972 C81.7324703,98.9350269 81.1313744,98.9199509 80.5629902,98.9046277 L80.423,98.9 L82.445,98.856 Z M92.824,98.631 L91.799,98.653 L91.7619417,98.7037649 C91.711948,98.7665192 91.6642636,98.8115341 91.6208495,98.8084599 C91.5554981,98.803713 91.4816653,98.8088508 91.4046443,98.816896 L91.399,98.817 L91.414795,98.8179307 C91.4503685,98.8246835 91.4749579,98.8420839 91.4845383,98.873158 L91.487,98.925 L91.641492,98.9293947 C92.1117583,98.9255774 92.5929487,98.7826543 92.8226365,98.6326059 L92.824,98.631 Z M77.5046175,98.7708586 C77.9117977,98.3001797 78.1769938,98.4109714 78.5917942,98.7954955 L78.646,98.847 L78.4039852,98.8395269 C78.1332805,98.830222 77.8809392,98.8209585 77.6497845,98.8117922 L77.476,98.804 Z M91.9984591,98.3808414 C91.6599807,98.3779548 91.2590898,98.3781958 90.8126159,98.381142 L90.658,98.382 L90.6560123,98.4103522 C90.6503466,98.4882015 90.6542425,98.5528713 90.6661317,98.6064287 L90.673,98.627 L90.6875033,98.6237523 L90.6875033,98.6237523 L90.75,98.676 L91.799,98.653 L91.8126327,98.6362216 C91.846843,98.5887494 91.8817893,98.5378893 91.9168905,98.4926338 L91.9695858,98.4300782 L92.016,98.38 Z M14.3456057,74.1454912 C14.7480782,73.7970571 14.8564362,74.1706558 15.1021767,74.2732503 L15.1021767,74.2732503 L15.3769416,74.3874592 C15.7020155,74.4590818 15.9825853,74.6913711 16,74.9023673 L16,74.9023673 L15.9187315,75.0010902 C15.8631453,75.0669055 15.8071113,75.1408478 15.7504318,75.2179372 L15.5782592,75.4536676 C15.3746708,75.7280823 15.1607533,75.980049 14.9280299,75.9960629 C13.9237836,76.0657497 14.6958342,75.1907932 14.2856218,74.919789 C13.7864011,74.5907124 14.0302066,74.4223026 14.3456057,74.1454912 Z M20.1340896,65.4529994 C20.4380896,64.9489002 20.7840896,64.8512065 20.9080896,65.2322118 L20.9080896,65.2322118 L20.8740896,65.4998924 C20.8040896,66.0704233 20.9940896,66.4006278 21.7840896,66.4475207 L21.7840896,66.4475207 L21.8840896,66.4533824 C22.0100896,66.8343876 21.7720896,67.0708062 21.3580896,66.9809281 C20.9420896,66.889096 19.8300896,65.9570986 20.1340896,65.4529994 Z M88.468008,7.34555208 L88.345,7.353 L88.2280203,7.40069193 C88.1017289,7.45236491 87.97336,7.50642892 87.8486724,7.56064053 L87.6651217,7.64178821 L87.16,7.638 L88.0014215,8.33937339 C88.1077031,8.42903729 88.6939123,8.08293462 89.0509519,7.9287127 L89.2386052,7.84801519 C89.4229373,7.74400506 90.1951392,7.4785999 90.9540559,7.25623342 C91.1989876,7.18520137 90.0853677,7.23932942 88.468008,7.34555208 Z M81.776,7.682 L81.7676251,7.76334946 L81.7676251,7.76334946 L81.754,7.842 L81.6506466,7.85018142 C80.7671408,7.92037831 80.0767063,7.97710143 79.7452205,8.0061723 L79.74,8.006 L79.8320668,7.99319229 C80.0160817,7.96550889 80.2605554,7.9235786 80.5171481,7.87704094 L80.8277827,7.81960114 C80.9829149,7.79039241 81.1354489,7.76091311 81.2749434,7.73324539 C81.3898213,7.71046021 81.5584317,7.69415317 81.7608704,7.68307266 L81.776,7.682 Z M83.7245994,7.68219373 L83.781,7.684 L83.5291502,7.70345401 C83.046396,7.74054657 82.581723,7.77671948 82.1507094,7.81064118 L82.144,7.81 L82.003,7.672 L82.2049543,7.6675095 C82.6823472,7.65817336 83.2419741,7.66640572 83.7245994,7.68219373 Z M85.4797073,7.17553591 C85.6997433,7.28402923 85.9629562,7.39028096 86.2097702,7.47389255 L86.282,7.497 L86.2209189,7.50198083 C85.8230208,7.53085206 85.4187484,7.56066868 85.0160779,7.59074892 L84.965,7.594 L84.9881551,7.57543692 L85.4797073,7.17553591 Z" id="Combined-Shape"></path>
            </g>
        </g>
    </g>
</svg>