<?xml version="1.0" encoding="UTF-8"?>
<svg width="419px" height="104px" viewBox="0 0 419 104" version="1.1" xmlns="http://www.w3.org/2000/svg" xmlns:xlink="http://www.w3.org/1999/xlink">
    <title>Combined Shape</title>
    <g id="Assets" stroke="none" stroke-width="1" fill="none" fill-rule="evenodd">
        <g id="Masala-Coriander" transform="translate(-830.000000, -397.000000)" fill="#FCC517">
            <g id="add-ons" transform="translate(822.000000, 396.000000)">
                <path d="M376.063358,1.41487749 C376.292527,1.54040696 377.185956,1.78608606 377.008267,1.41129094 C376.830577,1.03649582 377.855198,1.35390604 378.046173,1.31804048 C378.238808,1.28396819 378.994403,1.35928587 379.281696,1.57985908 C379.570649,1.80222556 380.668338,1.76815328 380.591948,1.66952298 C380.515558,1.57089269 381.470431,1.34493965 382.881983,1.38797832 L383.400106,1.73408099 L384.363282,2.37428127 C384.447976,1.69104232 384.86812,1.47584895 385.298228,1.89547602 L386.194979,1.60855153 C387.136567,1.30907409 388.312306,1.43460355 389.373461,1.88650963 C389.772017,2.05507777 390.344941,2.40656028 391.045735,1.99051976 C391.362919,1.80222556 392.214832,2.22005936 392.766168,2.46394518 C393.035193,2.58409481 392.090283,2.86563947 392.699742,3.08979923 C392.872449,3.15256397 393.204579,2.80825457 393.43873,2.83336047 C393.812377,2.87101931 394.380319,2.98220255 394.488261,3.20277575 L394.832015,3.91470716 C395.590932,4.12631397 396.613892,4.4347578 397.107105,4.59973939 C397.600317,4.76651425 399.186237,5.0408858 399.481833,4.98888073 C399.779089,4.93866895 400.684143,5.21304049 400.896706,5.13592954 C401.107609,5.05881858 401.542699,4.9996404 401.497861,5.32243046 C401.453024,5.64342724 402.549052,5.18076149 402.735045,5.11799676 C402.85904,5.0761536 403.242096,5.08850729 403.660826,5.10245501 L403.978072,5.11239276 C404.083723,5.11525703 404.188113,5.117399 404.287752,5.11799676 C404.883925,5.12337659 406.375188,5.8102021 406.53295,5.76178359 C406.690711,5.7115718 407.222119,5.6792928 407.233744,5.85682733 C407.245368,6.03436186 407.790061,6.55261923 408.40118,6.42170993 C409.012299,6.29080063 410.887172,7.02604465 411.607894,7.22330524 L411.832081,8.03386694 C411.945006,8.43556123 413.012803,8.48756629 413.215402,9.27122882 L413.306738,9.62629788 C413.995907,9.89708287 414.671792,10.1589015 414.811286,10.2109065 C414.950781,10.2647049 415.203199,10.6395 415.058723,10.9318043 L415.070347,10.9371842 L415.678145,11.1954162 C415.440672,11.6275962 415.264643,12.3108352 415.286232,12.7125295 L415.346015,13.0944977 L415.473885,13.8978863 C415.658217,14.7765926 415.928903,15.5190097 416.078362,15.5494954 L416.224499,15.5602551 L416.378939,15.5710148 C416.548325,15.5692215 416.699444,15.6409526 416.71273,15.7288232 C416.727675,15.8202804 416.397206,16.0713394 416.070058,16.2273545 L415.801033,16.4013025 C415.739589,16.4407546 415.786087,16.6541547 415.842549,16.7635447 C415.867459,16.8101699 416.043488,16.817343 416.146448,16.8065834 C416.204571,16.7994103 416.246087,16.6900203 416.307531,16.6792606 L416.657928,16.623669 C417.04652,16.5752505 417.348758,16.6416018 417.32883,16.7707178 C417.310563,16.8980406 417.60948,17.5077551 418.039588,17.8377183 L418.321899,18.2017537 L418.502909,18.4348799 C418.532801,18.906512 418.140888,19.1199121 417.632729,18.9118919 C417.124571,18.7038716 415.89569,18.8706465 416.312513,19.8659158 C416.729336,20.8629784 416.819011,23.5636552 416.403849,23.6891847 C415.987026,23.8147142 414.854463,24.2289614 415.0006,24.2684135 C415.146737,24.3096589 415.696412,24.652175 416.07338,24.9157869 L416.216195,25.226024 C416.424607,25.6815167 416.595239,25.561367 416.767323,25.3849533 L416.861568,25.2862694 C417.003858,25.139239 417.151896,25.0177592 417.32717,25.206298 L417.572946,25.4734964 C418.087747,25.6779301 418.361754,26.0832109 418.184065,26.3719287 C418.006375,26.6606465 418.527819,28.1670001 418.630779,28.8753449 L418.296989,29.533478 C417.934967,30.2418228 418.604209,31.4540788 419.45114,31.5240167 L420.168541,31.5849881 C420.970634,31.7302437 421.312728,31.8683261 420.929118,31.8952252 C420.545508,31.9203311 419.459443,32.1893229 419.459443,32.4332087 C419.459443,32.6770945 419.846375,33.4302713 420.31966,33.3477805 L420.768035,33.286809 L421.020454,33.2509435 C421.294461,33.2491502 421.734533,33.2975687 422.000237,33.3621267 C422.14106,33.3965577 422.585139,33.3728386 423.063922,33.3459229 L423.42532,33.3259955 C423.724913,33.3103209 424.011836,33.2987642 424.220525,33.3047418 C424.846589,33.3262612 425.593882,34.8164753 425.51251,34.943798 L425.18038,34.8971728 C424.522763,34.8039223 424.174027,35.2755545 424.428106,35.7597395 C424.602474,36.0950825 424.760236,36.5200894 425.074098,36.6922441 L425.763268,37.0706258 C425.806445,37.7197925 425.984134,38.1071406 426.158502,37.929606 L426.332871,37.8901539 C426.512221,37.8471152 426.806156,37.8829808 426.914098,37.9905775 C427.018719,38.0910011 427.028683,38.3761323 426.939008,38.4998685 C426.640091,38.8961829 426.226589,39.1311024 425.627095,39.0557847 C425.51417,39.0414384 425.263412,39.2655982 425.253449,39.392921 C425.240163,39.5292101 425.392943,39.74799 425.542402,39.8143413 L426.02565,40.031328 C426.590271,40.2267953 426.572004,40.6284896 425.984134,40.9261737 L425.466012,40.9566595 L425.045867,40.9799721 C424.441391,40.657182 423.949839,40.8329233 423.954821,41.3709067 L423.865146,41.7295623 L423.733954,42.249613 C423.15937,42.4092147 422.415399,42.5634366 422.081609,42.5903358 C421.746157,42.617235 421.82919,43.7380338 422.046735,44.3441618 C422.26428,44.9484965 422.661175,46.9336553 422.31576,47.0896705 C421.968684,47.2456857 422.277565,48.2929601 422.483486,48.4758745 C422.687745,48.6605821 423.026518,49.2828496 422.755832,49.4532111 L422.413738,49.5859136 C422.123125,49.6988902 421.766085,49.1106949 421.443919,49.6343321 L421.404064,49.6988902 C421.116771,49.6468851 420.588685,49.4729371 420.231645,49.3151286 C419.874606,49.1555269 418.469696,49.433485 417.876845,49.5733607 C417.666305,49.6223979 417.283399,49.5805174 416.85561,49.4966326 L416.836622,49.8110027 C416.572513,49.7836004 415.870403,49.4858782 415.421816,49.1235972 C415.168468,49.0429863 414.962078,48.9688633 414.844499,48.9170209 C414.364572,48.7036208 412.594319,48.827357 412.222334,48.7520393 C411.852009,48.6785149 410.905439,48.1602576 410.789194,48.3736576 C410.672948,48.5852645 410.435475,49.3348547 410.481974,49.6343321 C410.528472,49.9338096 411.670998,50.0952046 411.941684,50.0916181 L412.062912,50.1992147 C412.142311,50.2703855 412.176303,50.3760558 412.207963,50.4850316 L412.247593,50.6153927 C412.313631,50.8073252 412.427943,50.9695398 412.841756,50.9201125 L412.961323,50.9057663 C413.15894,51.3236001 413.607315,51.3702253 413.954391,51.0079832 L414.032442,51.8203381 L414.047388,51.9853197 C414.484138,52.1305753 415.22977,52.2345854 415.704715,52.2166526 L415.79273,52.7151839 L415.865798,53.1204648 C415.980383,53.5849238 415.872441,53.8341894 415.628326,53.6745877 C415.38421,53.5149859 414.484138,53.4091825 414.338001,53.5365053 C414.191864,53.6656213 413.487749,53.8126701 413.110781,53.566991 C413.040411,53.5205899 412.95241,53.4563471 412.854987,53.3837194 L412.650012,53.2300859 L412.650012,53.2300859 L412.434509,53.0709044 C412.110655,52.8363773 411.800529,52.6398662 411.7258,52.7367032 L411.759013,52.8174008 C411.969915,53.3517976 412.471431,53.9077138 412.388399,54.3918989 L412.295403,54.9514017 C411.699229,55.5880154 411.3671,56.2425619 411.558074,56.4057502 C411.747388,56.5689385 412.557785,56.5312797 412.866666,56.2694611 L413.079229,55.9628105 L413.217063,55.7637567 C413.255258,55.4804187 413.341612,55.2706052 413.411359,55.2939178 L413.441251,55.3351632 L413.886305,55.9430845 C414.424355,55.6274675 415.0006,55.4337935 415.165004,55.5126977 C415.329409,55.5933952 415.277929,56.1188257 414.66681,56.5115536 L415.060384,57.1481674 L415.224788,57.4153658 C415.658217,57.2934229 416.216195,57.6664247 416.463632,58.242067 C416.709408,58.8177093 417.026592,59.4650827 416.910347,59.5672995 C416.794101,59.6677231 416.194607,59.7089685 415.84421,59.4238373 L415.517062,59.1745716 L415.473885,59.1404993 C415.292874,59.1566388 415.05208,59.3162406 414.937495,59.4955684 C414.82125,59.6731029 414.69338,60.2828175 414.995618,60.3115099 C415.297856,60.3384091 416.191286,60.5876747 415.923921,60.7652093 C415.656557,60.9409505 414.983994,61.6259828 415.091936,61.846556 C415.201539,62.0689224 415.651575,62.6158723 415.79439,62.452684 L415.9206,62.4221982 C416.349047,62.3146015 416.986737,62.7700942 417.460022,63.6236946 L417.655978,63.9787636 C417.385292,64.3804579 417.091358,64.7821522 417.005004,64.8682295 C416.916989,64.9543069 416.895401,65.3147558 417.14782,65.4689777 L417.380311,65.470771 C417.994751,65.4779441 418.192368,65.6662383 417.929985,66.1701494 C417.858577,66.3118184 417.689191,66.5323916 417.73735,66.5772236 L418.011357,66.8372489 C417.928325,67.1367263 417.569625,67.3321936 417.214246,67.2730155 L417.054823,66.8587682 L416.990058,66.6937866 C416.109914,66.618469 416.136484,66.8551817 417.053163,67.2210104 L416.694462,67.959841 L416.505148,68.3507756 C416.360672,68.804475 416.375618,69.2976264 416.540022,69.4464685 C416.706087,69.5953106 417.036556,70.3556605 416.802405,70.6407917 C416.566592,70.9223364 415.453957,71.3168576 415.437351,71.5822627 L415.546954,71.7669704 L415.759517,72.1202462 C415.938867,72.5739455 415.932224,72.8052784 415.744571,72.6331237 C415.556918,72.460969 414.819589,72.3031605 414.603705,72.3856513 C414.387821,72.4681421 413.603994,72.4591757 413.334969,72.3910312 C413.064283,72.3228866 412.302045,72.4806951 412.436558,72.590085 C412.57107,72.699475 413.069265,73.1334483 413.288471,73.2822904 C413.509337,73.4311324 414.211792,73.0563373 414.288182,73.0491642 C414.367893,73.0419911 414.519012,73.2356651 414.477496,73.5459022 C414.443764,73.7979699 415.186204,73.6285892 415.580709,73.5350484 L415.73399,73.4990717 C415.754055,73.4945767 415.771038,73.4909831 415.784427,73.4885173 C415.99865,73.4508585 416.344065,73.7216435 415.968759,73.8920049 C415.593452,74.0623663 414.560528,74.3690169 414.480817,74.2094151 C414.399445,74.0498134 413.980962,73.8184805 413.858073,73.8399998 C413.733525,73.8597259 413.228687,74.776091 413.022767,74.7581582 C412.815186,74.7384322 412.144283,75.0988811 411.978219,75.6027922 L412.177496,76.1102899 C412.363489,76.5855086 412.625872,76.8903659 413.217063,76.942371 L413.333308,76.9531306 C413.479445,77.0876265 413.434608,77.4426955 413.23533,77.7385864 C413.036052,78.0344773 412.079518,78.606533 411.968255,78.7338558 C411.855331,78.8629718 411.87858,79.3722628 411.739085,79.4027485 C411.601251,79.4368208 411.480024,79.7380915 411.433526,79.7757503 C411.387027,79.8169957 411.486666,80.0626748 411.719157,80.2689018 C411.953309,80.4715422 412.456486,81.3681813 412.423273,81.8936118 L412.167533,82.1841228 C411.466739,82.9821316 411.632804,83.3963788 412.627532,83.8787706 L413.396413,84.2535657 C412.899879,84.796929 412.331937,85.5142402 412.13598,85.8442034 C411.938363,86.1759599 411.337208,86.5973802 411.883562,86.635039 L411.812154,87.3792495 L411.782262,87.6859 C411.798394,87.8124542 411.816831,87.9573072 411.836061,88.1083712 L411.894624,88.5681092 C411.923587,88.7952072 411.950936,89.0090831 411.971576,89.168941 L412.26385,89.4199999 L412.612587,89.7212706 C412.498002,90.0870994 412.272153,90.7344728 412.10941,91.1594797 L412.456486,91.5952463 L413.316702,92.6730064 C412.589337,93.1249125 411.971576,93.5140538 411.941684,93.5391597 C411.911793,93.5660589 412.434897,94.6007803 413.313381,95.6570211 L413.957712,96.7114687 L414.142045,97.0109461 C413.783344,96.9141091 413.444572,96.8280317 413.386449,96.8208586 C413.331648,96.8118922 413.009482,96.9087292 412.803561,97.0503982 C412.597641,97.1920672 411.85367,97.5381699 411.679302,97.5578959 C411.504934,97.577622 410.686233,97.7157044 410.295981,97.9057919 L409.922335,98.0707734 L409.472299,98.268034 C408.949194,98.1873365 407.655549,98.3684576 406.597715,98.6679351 C405.538221,98.9674125 402.105659,99.1915723 401.51945,99.3475874 L400.973096,99.4229051 L400.411797,99.4982228 C399.822266,99.6398918 398.339306,99.7887339 397.117069,99.8263927 L395.99447,99.8317725 L395.419885,99.8353591 C394.848622,100.048759 394.049849,100.572396 393.64133,100.993817 L393.116565,100.303405 C393.045157,100.210154 392.125157,100.522185 392.116854,100.497079 C391.841186,99.763628 391.28985,101.035062 390.897937,100.35003 L390.761764,100.113317 C390.168912,100.484526 389.458154,100.723032 389.184147,100.642334 L389.126024,100.687166 L388.57801,101.126519 C387.873895,101.058375 387.06848,101.124726 386.789491,101.275361 C386.510502,101.425997 385.364654,101.106793 385.080683,101.158798 C384.795051,101.20901 383.441622,101.413444 382.715918,101.409857 C381.990215,101.408064 380.063862,101.922735 379.872887,101.757753 C379.683573,101.590978 378.497869,102.08951 377.953176,102.270631 L377.521408,102.166621 L376.784079,101.983706 C376.030145,102.103856 375.050361,102.240145 374.605308,102.288564 C374.45751,102.305301 374.245869,102.349734 374.026294,102.396625 L373.762575,102.452459 C373.415412,102.524168 373.105188,102.576325 373.060904,102.50555 C372.977871,102.372848 372.205669,102.577281 371.785525,102.907244 C371.365381,103.235414 369.67484,102.756609 369.292891,102.926971 L369.158378,102.837307 L368.553902,102.430232 C368.052386,102.754816 367.085888,102.952076 366.408343,102.869586 L365.865311,103.020221 L365.308993,103.176236 C364.787549,103.016634 363.8443,102.903658 363.213254,102.925177 L362.632027,103.002288 L362.085673,103.074019 C361.502785,103.251554 360.632605,103.176236 360.152677,102.905451 L359.511667,103.221068 L359.050006,103.448814 C358.360837,103.414742 357.053906,103.516959 356.145531,103.672974 L355.230513,103.432675 L354.622715,103.273073 C353.804015,103.504406 352.92221,103.724979 352.66647,103.762638 C352.40907,103.800297 351.545532,103.542065 351.299756,103.656835 C351.05398,103.769811 350.198746,103.730359 349.627482,103.71422 C349.05788,103.696287 347.588205,104.008317 347.533404,103.882788 C347.476942,103.757258 347.320841,103.744705 347.302573,104.115914 C347.284306,104.487122 346.130155,103.80209 345.894343,103.793124 C345.65687,103.785951 344.610661,103.830783 344.117448,103.898927 C343.927751,103.924447 343.613751,103.912032 343.279002,103.891169 L342.873971,103.863965 C342.472236,103.836481 342.10027,103.813816 341.937016,103.846922 C341.581637,103.918653 340.289652,103.721393 339.827991,103.655041 C339.36467,103.586897 337.712324,103.685527 337.219111,103.590483 C336.725898,103.493646 335.417307,104.169712 335.19478,104.196611 C334.970592,104.221717 334.278101,104.02087 334.009076,104.047769 C333.847661,104.063909 333.50032,104.049706 333.121293,104.02569 L332.737418,103.999164 C332.609747,103.989739 332.484268,103.979983 332.366694,103.970658 C331.780485,103.92224 330.07998,103.773398 329.870738,103.773398 C329.663157,103.771605 329.140053,103.972452 328.973988,103.735739 C328.807923,103.497233 327.401353,103.766225 326.943014,103.82361 C326.486335,103.882788 324.833989,104.01011 324.199621,104.347247 L323.420777,103.836163 L322.851174,103.461367 C321.912907,103.438055 320.48641,103.58869 319.679334,103.798504 L318.862295,103.477507 L318.739407,103.430882 C318.380706,103.820023 317.734714,103.898927 317.304606,103.610209 C316.872837,103.321492 314.753848,103.861268 313.820564,103.963485 C312.888939,104.063909 310.38302,103.448814 310.248507,103.420122 C310.113994,103.39143 309.198977,103.558204 308.33876,103.681941 L307.526703,103.407569 L307.051757,103.246174 C306.776089,103.782364 306.248003,104.051356 305.881,103.848715 C305.512335,103.644282 304.496018,103.351977 304.263527,103.554618 C304.032697,103.759052 303.130964,104.236064 302.93999,104.02087 C302.747354,103.803884 301.76425,103.49006 300.97046,103.567171 L300.427427,103.805677 C299.809666,104.072875 299.251688,104.013697 298.776742,103.755465 L298.240352,103.463161 C297.821869,103.71422 297.280497,103.839749 297.038042,103.748292 C296.795588,103.655041 295.925407,103.447021 295.677971,103.398603 C295.430534,103.351977 294.596888,103.561791 294.307935,103.750085 C294.018982,103.940173 293.062448,103.748292 292.806708,103.827196 C292.549307,103.9061 291.518044,103.803884 291.1992,103.794917 C290.882016,103.785951 290.016817,103.610209 289.991908,103.409362 C289.965337,103.206722 289.787648,102.645426 289.66642,102.717157 C289.545193,102.790681 289.206421,102.810407 289.126709,102.63108 C289.048659,102.455338 288.522233,102.322636 288.256529,102.437406 L288.112053,102.765575 C287.994147,103.032774 287.426205,103.134991 287.087432,103.346598 C286.119274,103.950932 286.094364,103.954519 285.071404,103.237208 L284.910321,103.126024 C284.682812,103.007668 284.322451,103.048913 284.109888,103.217482 C283.895664,103.382463 282.992271,103.707046 282.695015,103.468541 C282.397759,103.231828 281.519275,102.726123 281.477759,102.935937 C281.434582,103.14575 280.959636,103.748292 280.514582,103.79671 C280.071189,103.843336 277.786136,103.631729 276.298194,103.938379 L274.853429,103.443435 L274.405054,103.291006 C273.644477,103.724979 272.900506,103.898927 272.752708,103.678354 C272.606571,103.455988 271.915741,103.873821 271.83603,103.945552 C271.757979,104.01549 271.078773,104.040596 270.391265,104.029837 C270.124546,104.025652 269.665197,103.97238 269.188142,103.905246 L268.778982,103.845129 C268.170977,103.752327 267.61632,103.653248 267.486789,103.622762 C267.226067,103.561791 266.259569,103.925826 265.944046,104.115914 C265.630183,104.302415 264.059209,104.236064 263.406574,104.698729 L262.642675,104.056736 L262.187657,103.674767 C261.649607,103.834369 260.950474,103.82361 260.631629,103.651455 C260.312785,103.4793 259.371196,104.193025 259.030763,104.243237 C258.691991,104.295242 257.674013,103.972452 257.639139,103.780571 C257.604266,103.58869 257.124338,103.199549 256.689248,103.565378 L256.372064,103.880994 L256.00506,104.243237 C255.588237,104.085428 255.088382,104.035216 254.894086,104.132053 C254.698129,104.230684 254.073725,104.377733 254.038852,104.169712 C254.003978,103.963485 253.819646,103.891754 253.700079,104.451257 L252.956108,104.148193 L252.567516,103.990384 C252.240369,104.085428 251.780369,104.194818 251.542896,104.23427 C251.307084,104.271929 250.42694,103.920447 250.142969,103.983211 C249.858998,104.047769 248.860947,103.972452 248.552067,103.782364 C248.243186,103.592277 247.142175,103.69808 246.653945,103.563584 L246.225497,103.4793 C246.042826,103.443435 245.652573,103.716013 245.61936,103.674767 C245.252357,103.244381 245.077988,103.617383 244.784053,103.741119 C244.64788,103.79671 244.337339,103.49544 244.08326,103.398603 C244.038422,103.382463 243.810913,103.581517 243.807592,103.680147 L243.805931,103.771605 C243.970335,103.875615 244.051707,104.008317 243.988603,104.067495 C243.925498,104.128467 243.614956,104.090808 243.395751,104.006524 C243.178206,103.92224 242.263188,103.986798 241.844704,104.151779 L241.466076,104.149986 C240.874885,104.148193 240.056185,103.748292 239.743983,103.970658 L239.136185,104.393872 C238.644633,104.14102 238.028532,103.959899 237.764489,103.988591 C237.498785,104.017284 236.633587,104.332901 236.399436,104.505055 C236.166945,104.679003 235.952721,103.907894 235.914526,103.870235 C235.87467,103.830783 235.326656,103.861268 234.702252,103.92762 C234.076187,103.993971 232.060159,104.200198 231.605141,104.243237 C231.150123,104.284482 229.876405,103.16189 229.71034,103.325078 C229.544275,103.486473 229.14738,104.275516 228.451568,104.356213 C227.754096,104.438704 225.097057,103.610209 223.969476,103.299972 L222.98305,104.137433 L222.712365,104.366973 C222.031498,104.237857 221.329044,104.049563 221.149694,103.952726 C220.972004,103.852302 220.242979,104.017284 219.944062,103.868442 C219.643485,103.717806 218.650416,104.117707 218.495976,104.139227 C218.339875,104.164332 217.464713,104.108741 216.905074,104.03701 C216.343775,103.965279 214.058721,104.157159 213.044065,104.366973 L212.190491,103.778778 C212.168903,103.764431 210.121322,104.236064 210.094752,104.259376 C209.98847,104.34904 209.897134,104.501469 209.774246,104.526575 L209.254463,104.632378 C208.774535,104.392079 208.419157,104.029837 208.462333,103.825403 C208.50551,103.620969 208.357713,103.03636 208.160095,103.03636 C207.962478,103.03636 207.543994,103.194169 207.695113,103.38605 L207.713381,103.592277 L207.73829,103.852302 C207.728326,104.24503 207.298218,104.47457 206.783417,104.3598 L206.335042,104.35442 L205.976342,104.34904 C205.597713,104.456637 204.850421,104.574993 204.317353,104.618032 C203.784285,104.659277 202.214971,104.34904 201.899448,104.481743 C201.583924,104.614445 200.536055,104.323934 200.237138,104.479949 C199.939882,104.635965 198.93851,104.366973 198.775766,104.44767 L198.609701,104.470983 C197.829196,104.57858 197.12176,104.558854 196.308042,104.311381 L195.598944,104.094395 C194.865823,104.110175 194.093407,104.118241 193.610462,104.119299 L193.377721,104.119185 C193.311027,104.118919 193.255879,104.118424 193.214252,104.117707 C193.110738,104.115316 193.006671,104.036611 192.899528,103.949737 L192.76932,103.845928 C192.59331,103.713917 192.406844,103.630772 192.199595,103.875615 L191.993675,104.132053 L191.880751,104.271929 C191.771148,104.435117 191.23974,104.668244 190.70169,104.793773 C190.163639,104.917509 188.551149,104.307795 188.282124,104.253996 C188.011438,104.198405 187.468406,104.25579 187.285734,104.167919 C187.104724,104.081842 186.349128,104.182265 186.116637,104.212751 C185.885807,104.24503 184.867829,104.302415 184.362992,104.24503 C183.859815,104.189438 182.541259,103.845129 182.51801,103.753672 C182.493101,103.662215 182.207469,103.861268 181.925159,104.388492 L181.063282,103.931206 C180.825809,103.805677 180.181477,104.417185 179.689925,104.478156 L179.263138,104.531954 C178.75664,104.327521 177.959528,104.537334 177.489565,105 L176.772164,104.449464 L176.363644,104.13564 C175.691081,103.870235 175.040107,103.80209 174.915558,103.985005 C174.79101,104.169712 174.208122,104.626998 174.030432,104.399252 C173.852743,104.173299 173.178519,103.947346 172.846389,104.293448 L172.535848,104.451257 C172.358158,104.540921 171.820108,104.426151 171.815126,104.381319 L171.740397,103.499026 C170.875199,103.249761 170.122925,103.273073 170.068123,103.549238 C170.014982,103.825403 169.528412,104.332901 169.068412,104.246823 L168.698087,104.345453 C168.410795,104.420771 168.216499,104.668244 168.181626,104.218131 C168.145091,103.741119 167.748196,103.628142 167.462564,103.845129 C166.662132,104.45843 165.752096,104.044183 164.910147,104.169712 L164.325598,104.257583 C163.677945,104.350833 163.056862,104.431531 162.943938,104.436911 L162.840978,104.420771 L162.141844,104.304208 C161.18531,104.139227 160.660545,103.913273 160.974408,103.803884 C161.288271,103.6927 160.64726,103.113471 160.590798,102.926971 C160.534336,102.74047 160.152386,102.550382 160.127477,102.950283 C160.102567,103.353771 159.77874,104.332901 159.464878,104.182265 L159.255636,104.01011 L159.006539,103.805677 C158.760762,103.402189 158.201124,103.273073 157.762712,103.516959 C157.32264,103.760845 156.107045,103.952726 155.949283,103.647868 C155.791522,103.343011 155.065818,102.796061 154.725385,103.195962 L154.722063,103.516959 L154.7121,104.467396 C154.144158,104.503262 153.220837,104.420771 152.662858,104.280895 C152.10488,104.142813 150.487408,104.363386 150.374484,104.318554 C150.26156,104.271929 149.705242,104.096188 149.411307,103.995764 C149.115712,103.898927 147.818745,103.981418 147.189359,104.196611 L146.780839,104.051356 L146.380622,103.907894 C146.126543,103.357357 145.63167,103.04174 145.282933,103.212102 C144.932536,103.378877 144.14871,103.933 144.185244,104.080048 L144.171959,104.216337 L144.160334,104.336487 C144.083944,104.46381 143.924522,104.546301 143.808277,104.517608 C143.690371,104.492502 143.25362,104.137433 143.007844,103.877408 C142.763728,103.613796 141.727483,104.167919 141.5664,104.184058 C141.406978,104.198405 140.712827,104.085428 140.377375,103.995764 L140.340841,103.854095 L140.217953,103.382463 C140.661346,103.382463 141.343873,103.346598 141.734126,103.299972 C142.124378,103.25514 142.300407,102.293943 141.920119,102.225799 C141.53983,102.159448 140.41391,102.216832 140.408928,102.530656 L140.246184,102.819374 C140.048567,103.174443 139.711455,103.712426 139.402574,103.730359 C138.549001,103.776984 139.221564,102.995115 138.864524,102.704604 L138.813044,102.663359 C138.730011,102.61494 138.382936,102.919797 138.040842,103.343011 C137.697088,103.764431 135.895283,103.751878 135.333984,103.785951 C134.772684,103.821816 134.159905,102.803234 133.990518,103.183409 C133.821132,103.565378 135.030085,103.845129 135.103153,103.904307 C135.176222,103.967072 135.212756,104.307795 135.023442,104.517608 L134.824164,104.544507 L134.571746,104.576786 C134.274489,104.45843 133.6368,104.008317 133.156873,103.576137 L133.038966,102.048264 C133.02236,101.843831 132.432829,101.474415 132.404598,101.495935 C131.393263,102.229027 131.327468,101.831224 131.325469,101.358643 L131.325176,101.087756 C131.32287,100.977578 131.314659,100.874564 131.288642,100.79297 L131.272036,100.737378 C131.117595,100.620815 130.966476,100.823455 130.933263,101.185697 C130.90005,101.546146 130.554635,102.209659 130.230809,101.919148 C129.908643,101.63043 129.412108,102.930557 129.302506,103.179823 C129.194563,103.429088 128.689726,104.198405 128.490448,104.232477 C128.29117,104.266549 127.178535,104.196611 126.336586,104.25041 L125.57933,104.289862 L125.418247,104.297035 C125.243879,104.372353 125.097742,104.318554 125.09276,104.178679 C125.089439,104.040596 125.116009,103.705253 125.104384,103.445228 C125.09442,103.183409 125.695576,102.627493 126.036009,102.670532 L126.306694,102.731503 L126.555792,102.787095 C126.779979,102.973596 127.276514,103.213895 127.660124,103.319698 L128.03377,103.36991 C128.21312,103.39143 128.540268,103.301766 128.590087,103.190582 L128.796008,102.744056 C128.970376,102.236558 129.405466,101.813345 129.764166,101.806172 L129.878751,101.653743 C130.136152,101.30764 130.134491,100.769657 130.450014,100.509632 L131.047848,100.012894 C130.704094,99.58968 130.247415,99.2077118 130.031531,99.1646731 C129.815646,99.1198411 129.148065,99.4175253 129.148065,99.9447491 C129.148065,100.471973 128.711315,101.834864 128.219762,101.851004 L127.925827,102.215039 C127.560485,102.663359 127.208427,102.711777 126.662073,102.306496 L126.384745,102.102063 C125.853337,102.371054 125.210666,102.962836 124.956587,103.414742 C124.704168,103.866648 123.415504,104.282689 123.613121,103.990384 C123.810739,103.696287 124.461713,102.82834 124.579619,102.634666 C124.699186,102.442785 123.983446,101.940668 123.853916,101.619671 L123.66128,101.474415 L123.196298,101.121139 C122.902363,100.627988 122.563591,100.081038 122.440703,99.8999171 C122.319476,99.7170027 121.708357,100.315958 121.535649,100.611849 L121.542292,100.882633 L121.545613,101.051202 C121.598754,101.273568 121.465902,101.838451 121.250018,102.310083 C121.034133,102.781715 120.97435,104.187645 120.891317,104.216337 C120.806624,104.248616 120.512689,104.201991 120.421354,104.047769 C120.331678,103.897134 119.855072,103.360944 119.64417,103.138577 C119.433267,102.918004 120.408068,102.385401 120.524314,102.200693 C120.637238,102.017779 120.630595,101.707541 120.260271,101.951427 C119.889946,102.19352 118.810524,101.495935 118.576372,101.562286 C118.342221,101.628637 118.601282,102.430232 118.6976,102.688465 L118.732473,102.928764 L118.767347,103.174443 C118.752401,103.432675 118.229297,103.561791 117.606553,103.463161 L117.098394,103.49006 L117.012041,103.493646 C116.930669,104.056736 116.747997,104.44767 116.606842,104.361593 C116.465687,104.273722 115.718395,104.307795 115.265038,104.444084 L115.251752,104.418978 L114.977745,103.900721 C115.452691,103.82361 115.788142,103.590483 115.723377,103.384256 C115.660272,103.179823 115.203594,102.722537 114.919623,103.034567 C114.635652,103.346598 113.601067,104.103361 113.179262,104.103361 C112.757457,104.103361 111.603306,104.071082 111.598324,104.035216 C111.596663,103.995764 111.820851,103.872028 112.106483,103.841542 C112.392114,103.811057 113.220778,103.441641 113.222439,103.097332 C113.222439,102.754816 114.416446,102.360295 114.642294,102.317256 C114.866482,102.272424 115.520778,102.010605 115.612113,101.881489 L115.57724,101.790032 C115.535723,101.677056 115.334785,101.499521 115.266698,101.519247 C114.125832,101.84921 113.001573,102.241938 111.769371,102.195313 L110.940707,102.164827 C110.540491,102.72433 110.045617,103.273073 109.839697,103.382463 C109.635437,103.493646 109.197025,102.909038 109.094065,102.83372 C108.992765,102.760196 108.509517,102.52169 108.28699,102.426646 C108.066123,102.333395 107.533055,101.976533 107.662585,101.863557 C107.792116,101.75058 108.283668,101.517454 108.46634,101.601738 L108.51948,101.723681 L108.810094,102.372848 C109.444462,102.270631 110.072187,102.112822 110.2067,102.024952 C110.339552,101.935288 110.580346,101.456482 110.573704,101.22515 C110.568722,100.993817 109.671971,100.577776 109.369733,100.527564 L109.351466,100.441487 C109.087422,99.1234277 108.293632,99.8712247 108.142513,100.321337 C107.875149,101.130106 107.006629,101.200044 106.475221,101.634017 L106.001936,102.021365 C105.689734,102.523483 105.374211,102.722537 105.299482,102.464305 L105.262947,102.225799 L105.194861,101.797205 C104.635222,101.560493 103.798255,101.157005 103.336594,100.90236 L103.253562,100.593916 C103.049302,99.8317725 102.514573,99.8066666 101.818761,99.8120465 C101.518183,99.8138398 101.167786,99.4767035 100.926992,99.5412615 C100.69118,99.6040262 100.586559,99.9985474 100.38396,100.217327 L100.314213,100.294438 C100.050169,100.323131 100.041866,100.466593 100.294285,100.610055 C100.546703,100.755311 101.011685,101.273568 100.799122,101.461862 C100.586559,101.65195 99.0155849,100.968711 99.2015776,100.744551 L99.289592,100.523978 C99.5536352,99.8712247 99.1965956,99.4892564 98.4360183,99.751075 C97.8381846,99.9555087 97.6771016,99.4910497 97.3100981,99.4569774 L96.8451163,99.4121455 C96.2954414,99.4551841 95.2591963,99.6524447 94.5417958,99.8532919 L94.1498826,99.6470649 L93.6550092,99.3906261 C93.2049732,99.4444245 92.5257677,99.5932665 92.1438183,99.7205893 C91.7602084,99.847912 90.4333496,99.4498043 90.1394147,99.3888328 C89.8454798,99.3278614 89.0981876,99.4390446 88.7295235,99.4085589 C88.5460218,99.393316 88.1669786,99.3659686 87.7933325,99.377849 L87.714,99.381 L87.770881,99.4151884 C87.9891982,99.5608055 88.2406465,99.8157019 88.3633432,99.9769051 L88.4132128,100.048759 C88.4341931,100.083236 87.8281228,100.099255 86.8247179,100.101364 L86.435,100.101 L86.412782,100.115534 C86.3344718,100.140913 86.2221695,100.126463 86.1084116,100.105128 L86.084,100.1 L86.0693965,100.100658 C85.979046,100.100345 85.8866581,100.099956 85.7923373,100.099493 L85.745,100.099 L85.7862118,100.088523 L85.7862118,100.088523 L85.884,100.063 L85.7953075,100.053411 C85.739219,100.051969 85.6969442,100.062109 85.6781235,100.093591 L85.675,100.098 L85.5036809,100.097883 L85.5036809,100.097883 L85.479,100.097 L85.4771926,100.078232 C85.475432,100.039544 85.478292,99.9907765 85.4871488,99.9304028 L85.487,99.925 C85.382257,99.9189507 85.2809922,99.9049739 85.1845867,99.8819551 L85.138,99.868 L85.1017481,99.8809756 C84.9749306,99.9284414 84.8363783,99.9942884 84.7182922,100.054307 L84.646,100.091 L84.5744024,100.090514 C84.3581809,100.088469 84.135901,100.086162 83.9083991,100.083607 L83.85,100.082 L83.8292186,100.063309 C83.7824736,100.017472 83.73765,99.9670028 83.6923003,99.9165808 L83.672,99.894 L83.2792727,99.9985474 C82.6797784,99.9196432 81.7265657,99.8640515 81.1602843,99.8766045 C80.9431225,99.8821223 80.5743896,99.9391039 80.1646317,100.017859 L80.117,100.026 L80.208778,100.02888 C80.5969935,100.035787 80.9828697,100.042326 81.3635836,100.048441 L81.371,100.048 C81.3479395,100.05699 81.3286925,100.067947 81.3105915,100.082831 C81.1295807,100.231674 80.4819275,100.423554 80.2510973,100.201188 L80.019,100.046 L79.9147384,100.067487 C79.3242941,100.188274 78.696775,100.340098 78.33552,100.441487 C78.2097258,100.47612 78.0347154,100.489128 77.8280363,100.488172 L77.613,100.482 L77.6570785,100.459691 C77.8373452,100.374058 78.2715187,100.220826 78.4570995,100.267179 L78.5140582,100.294438 C78.6585346,100.419968 79.1035886,100.192221 79.229798,100.070279 C79.2480651,100.052858 79.2694502,100.036719 79.2933239,100.021991 L79.311,100.012 L79.0399371,100.007108 L79.0399371,100.007108 L78.2612771,99.9915319 C78.1318868,99.9888719 78.0027593,99.9861813 77.8739993,99.9834622 L77.592,99.977 L77.68874,99.9214364 C77.7197388,99.8815061 77.7691007,99.8529252 77.8323973,99.8333219 L77.867,99.825 L76.445,99.856 L76.3813637,99.8224506 C76.2644791,99.7569306 76.1540629,99.6885665 76.0596431,99.621959 L76.029,99.608 L76.2421945,99.5990157 C77.2278375,99.5553543 78.4327165,99.5137467 79.6776303,99.4786905 L80.3595675,99.4602458 C80.4735264,99.4572889 80.5875469,99.454393 80.7014944,99.4515614 L81.3832255,99.4353699 C82.5143928,99.4097599 83.6113286,99.3912539 84.5393963,99.383231 L84.658,99.382 L84.6692975,99.2274378 C85.1093695,99.015831 85.3053261,98.7593922 85.1043876,98.6607619 C84.903449,98.5603384 84.2574565,98.4688812 84.1046768,98.6751082 C83.951897,98.8831284 83.2793341,99.3924194 83.2876373,98.8903015 L83.2643882,98.648209 C83.2527637,98.5316459 83.1464821,98.3200391 83.1165905,98.3254189 L82.749587,98.377424 C82.3526918,98.4563282 82.1085764,98.2124424 82.204894,97.8340607 L81.5539195,97.9936625 L81.4310315,98.0241482 C81.3214286,98.1425046 80.8963024,98.1281583 80.4828008,97.9936625 C80.0692991,97.8573734 78.4867004,97.8519935 78.0300218,97.8753061 C77.5716827,97.8968255 76.1219359,97.2835244 75.7416472,97.3283563 C75.3630192,97.3731883 74.3566657,97.5614825 74.208868,97.1705478 C74.0594095,96.7778199 72.3223704,96.5411072 72.1662694,96.5823526 L72.1430203,96.5536602 L71.3342841,95.4723135 C69.9028045,95.3073319 68.6191226,95.1423503 68.4829494,95.0993116 C68.3467762,95.0598595 67.7007836,95.0795856 67.1909643,95.04372 C66.681145,95.0060612 64.578763,95.1351772 63.660424,95.2087016 L63.4777526,94.1883264 C63.4594855,94.0771431 63.0958033,93.8870557 63.0194134,93.9265078 L62.4929876,94.1972928 C61.9599192,93.985686 61.4085836,93.6682757 61.2674285,93.496121 C61.1262733,93.3203798 60.2062736,92.9904166 59.9355878,92.870267 C59.6632413,92.7483241 58.831256,92.5151979 58.7166712,92.5510635 C58.6020864,92.5887223 58.2234584,92.4757458 58.1337834,92.2085474 L57.9610758,92.0363927 C57.8647582,91.9431422 57.5309677,91.928796 57.378188,92.0005271 C56.7836755,92.2784852 56.1227371,92.328697 55.6976109,92.3520096 C54.7776112,92.4004281 55.2276472,92.0561187 55.2791273,91.6651841 C55.2853792,91.6170821 55.258533,91.5666965 55.2232716,91.516714 L55.1671537,91.4423781 C55.0640129,91.3078812 54.9905651,91.1865898 55.4601381,91.1343738 C55.7955892,91.0967149 56.1277191,90.9640124 56.4349392,90.82593 C56.7820149,90.671708 56.7222315,90.510313 56.4565276,90.2628406 L56.1692353,89.9974355 C56.4615096,89.7571362 57.0311123,89.2765377 57.4379713,88.930435 C57.8448304,88.5825391 58.3363826,87.2447536 57.8880073,87.1748158 L57.5608594,87.2124746 L57.1772494,87.2555133 C56.7703903,87.3935957 56.1393436,87.3595234 55.7773221,87.176609 C55.4153006,86.9936947 55.5016543,85.4299562 55.6394882,84.8094819 C55.7773221,84.1872144 56.0878635,82.5284322 56.0297408,82.5087062 C55.9749393,82.4871868 55.531546,82.7579718 55.2110407,83.1184207 L54.7759506,82.5230524 L54.5550843,82.2199884 C54.6381167,81.9330639 54.8938567,81.4219796 55.1246869,81.0848433 L54.7211492,80.9198618 L54.5069254,80.8319911 C54.0087307,81.0722904 53.7114744,81.0131122 53.8493083,80.7010818 L53.8775394,80.4410565 L53.9539292,79.7237453 C53.6002109,79.0207803 53.278045,78.1886992 53.2415107,77.8748756 C53.2033158,77.5610519 53.656673,76.5263304 54.3275753,76.2411992 C54.9968169,75.9542747 54.991835,74.3152185 54.5036041,74.4461278 L54.2196331,74.6541481 L53.9173949,74.8765146 C53.5703193,75.079155 52.899417,74.743812 52.4277926,74.1287176 L52.6735687,73.6068737 C52.7549405,73.4383056 52.7449766,73.2338719 52.8462762,73.0778567 C53.0870703,72.7012683 53.3693807,72.3479925 53.6317633,71.9821637 C53.9256982,71.5697098 54.2661313,72.5111808 54.6098857,71.9445049 L54.707864,71.7813166 C55.1180443,71.7024124 55.0715462,71.5248778 54.608225,71.3832089 L54.5866366,71.2307802 C54.551763,70.977928 54.7792719,70.6676909 54.9735679,70.4327715 C55.0765281,70.3090353 55.3671417,70.319795 55.5332067,70.2175781 C55.9350838,69.971899 56.0546505,69.2276886 55.6577553,69.1182986 C55.1662032,68.9802162 55.0350119,68.8062682 54.8523405,68.4207135 L54.7560228,68.218073 C54.0602108,68.1499285 54.1282974,67.8845233 54.9054812,67.6316711 C55.6843257,67.3788189 57.7800651,66.3136117 58.7532055,66.8874607 L59.9372484,66.7117194 C60.1714,66.6776471 60.6712554,67.1385196 60.7692337,67.4415836 L61.0116885,68.1911739 C61.5796305,67.9741872 61.8835293,67.4989685 61.6892334,67.1349331 L61.724107,66.8282825 C61.8303886,65.8975712 62.0097387,64.9686531 62.2339263,64.0558746 L62.2854064,63.8514409 C62.5976085,63.6828727 62.9911824,63.4856121 63.1605686,63.4192608 C63.3126103,63.3586879 63.6667181,62.914132 63.9593021,62.8123112 L64.0656224,62.7916135 C64.0747892,62.7915059 64.0544566,62.7912805 64.0063893,62.7909426 L63.8737978,62.7901186 C61.20548,62.7747477 31.9051142,62.6502135 32.009237,62.5871798 C32.1205005,62.5226218 32.4792007,62.201625 32.6087313,62.0671292 C32.7399226,61.9344266 33.3593448,62.4383377 33.4556624,62.5208285 C33.5503194,62.6033193 34.0701027,62.7073294 34.1132795,62.3379142 C34.1597777,61.9702921 34.5649761,61.3336784 34.9386222,61.5650113 C35.3122683,61.7963442 36.3385495,61.3013994 36.2621596,61.2260817 C36.1857698,61.1525573 36.1724846,60.8494933 36.4016542,60.7167908 L36.5278635,60.7670025 C37.050968,60.9678497 37.6537837,61.7210265 37.8248306,60.5159436 L37.8281519,60.4908377 C37.9892349,60.4854579 38.3844694,60.5589823 38.7049747,60.654026 C39.02548,60.750863 40.0683677,60.3653083 40.3706059,60.3473755 C40.6711834,60.3294427 41.6144321,60.4101402 42.0760926,60.4101402 C42.5377531,60.4083469 43.3265615,59.6533769 42.9977529,59.506328 C42.6689444,59.3610725 41.9598472,58.5702369 42.1375366,58.0699123 C42.3152261,57.5695877 40.5017971,56.1511047 40.6562375,56.1044795 C40.8139992,56.0596476 40.9817248,55.6185011 40.5067791,55.2777783 L40.516743,54.9908538 L40.5416527,54.3452737 C40.0650464,54.3309275 39.4954437,54.1533929 39.2745774,53.9489592 L39.1234583,53.7355591 L38.7846858,53.2549606 C39.0005702,52.7044242 39.0105341,51.7844726 38.8062743,51.2142101 L38.6800649,50.6744334 L38.6402094,50.5058653 C38.7116173,50.2817055 39.1666352,50.3229509 39.6515447,50.5991158 C40.1347937,50.8734873 41.6343599,50.3803358 41.6742155,50.2870854 C41.7140711,50.1956282 41.5596307,49.8315927 41.2507499,49.6881305 L41.1062735,49.7634482 L40.772483,49.9373961 C40.3407142,50.1669357 40.0584038,50.1651425 40.1430969,49.9338096 L40.2111835,49.7204095 L40.2809308,49.498043 C40.3473568,49.2505706 40.3058405,49.0820025 40.1895951,49.1250412 C40.071689,49.1662866 39.560209,49.2164983 39.3111116,49.1411807 C39.0603536,49.0676563 39.5552271,47.9881029 39.7478624,47.4572925 L40.4320499,47.3263832 C40.5665625,47.2994841 40.8106779,47.2403059 40.8090173,47.2098202 L40.7010751,45.9921843 C41.7821577,45.5223455 42.4347929,45.0058814 42.1524825,44.8444864 C41.8701721,44.6812981 40.7774649,44.8893183 40.6014361,44.8408998 C40.5289536,44.8209628 40.2638818,44.7386954 39.906507,44.621015 L39.5799198,44.5121014 C39.1205679,44.3569939 38.5780815,44.1656779 38.102159,43.978333 L37.0443254,44.164834 C36.5693798,44.2473248 36.5129177,43.9926793 36.3850477,43.6250573 L36.1957337,43.0763142 C35.8968168,43.4242101 35.2973224,43.5999514 34.863893,43.4744219 C34.4288029,43.3470992 33.083677,42.7822166 32.8163125,42.552677 L32.8511861,42.5096383 L33.2231715,42.0559389 C32.9906807,41.6022396 32.7116916,41.1467469 32.60541,41.0463234 C32.4991285,40.9423132 32.1404282,40.7952644 32.0474319,40.9458998 L31.9212225,41.0409435 L31.7352298,41.1826125 C31.497757,41.3009688 31.0161687,41.501816 30.6641111,41.6237589 C30.3137141,41.7457018 29.2044004,41.9555153 29.0283716,41.8030867 C28.8540034,41.6488648 28.4903212,40.972799 28.6729926,40.6930476 C28.8540034,40.4168827 30.1725589,40.8705821 30.6940028,40.883135 L30.7753746,40.5872442 C30.863389,40.2698339 30.5827393,39.5579025 30.4349415,39.5525227 L28.1050506,39.4610655 C28.4106101,38.038996 28.3857003,36.8392929 28.0485885,36.7926677 C27.7131374,36.7460425 27.1352314,37.4023823 27.0488777,37.323478 C26.9608633,37.2463671 26.7101052,37.020414 26.6802136,36.9953081 C26.6519825,36.968409 26.4626685,36.6599651 26.3264953,36.3658675 C26.190322,36.0717699 26.6519825,35.0711207 26.8064229,34.8308215 L26.8512604,34.5994886 L26.8927767,34.3842952 C26.8329933,34.1332363 26.6005024,33.9539085 26.3763147,33.9843942 L26.1753762,34.0256396 L26.0142932,34.0597119 C25.8415857,34.1135102 25.6489504,34.0292262 25.589167,33.8696244 L25.6472897,33.7943067 L25.9594918,33.3854393 C26.4958815,32.7757248 26.4327768,32.4601078 25.8199973,32.6824743 L25.4762429,32.7075802 L24.8219471,32.7559987 C24.0746549,32.7362727 23.4253411,32.5121129 23.3805035,32.2556741 L23.3937887,32.0727598 L23.5316226,30.1916111 C22.6415146,29.4115351 21.7929229,28.7157432 21.6451251,28.6422188 L21.6002875,28.5453818 L21.4209374,28.1508606 C21.4823814,27.682815 21.3163165,26.9009458 21.0539339,26.4149674 L20.6753059,26.276885 C19.7220933,25.9325756 19.742021,25.3192745 19.7901799,24.6270691 L19.808447,24.3670438 C19.8001438,23.8774789 19.3102522,23.678425 18.7207218,23.9223108 L19.107653,23.2928702 C19.4663533,22.7100549 18.8203607,22.7244011 18.6293861,22.4876884 C18.5762453,22.4213371 18.2125631,23.2354853 18.0249097,22.4805153 L18,22.3782984 C18.3005775,22.2061437 18.5978337,22.033989 18.6609384,21.9981234 C18.7240431,21.9586713 18.5463536,21.3561299 18.1145848,20.7446221 L18.2706858,20.0488302 C18.3105414,19.8677091 18.4483753,19.6883813 18.4284475,19.5216064 L18.4068591,19.3261391 C18.2723465,19.1217054 18.3072201,18.9872095 18.4815883,19.0284549 C18.6576171,19.0697003 19.4049093,18.9585171 19.7204326,18.6841455 C20.0376166,18.4115673 19.5742955,17.371466 19.8001438,17.2907685 L19.8566058,17.3356004 C20.447797,17.803646 20.9659195,17.8933099 21.4790601,17.2351768 L21.9207928,16.668501 C22.3973992,17.0701952 22.824186,17.2208306 22.8690236,17.0056372 C22.9155217,16.7904439 23.6594926,16.0480267 24.4217306,15.8328334 L24.9431745,16.8065834 L25.2138603,17.3104945 C25.9462066,16.7491985 26.4244736,16.2506672 26.2766758,16.2058352 C26.1305387,16.1610033 25.7618745,15.9189107 25.8067121,15.7754485 L25.839925,15.7772417 C26.1919827,15.791588 26.545701,15.8256603 26.896098,15.8722855 L27.0588416,15.8920115 C27.2315491,15.9511897 27.4441122,15.8507661 27.5288053,15.6732316 C27.6151591,15.4974904 28.2163141,15.5907408 28.2744368,15.4687979 C28.3325595,15.3450617 28.6696713,15.0025456 28.7825955,15.217739 C28.8971803,15.4311391 29.556458,15.6911644 29.8869272,15.1137288 L30.1459885,14.8393573 L30.2888043,14.6923085 C30.5860606,14.6510631 31.1456994,14.7568665 31.5293093,14.9290212 C31.9145799,15.1011759 33.3178286,14.7048614 33.5968176,14.8877758 C33.8758067,15.0671036 34.6961674,15.4813509 35.0050482,14.9577137 L35.2690914,14.5972648 L35.5298133,14.2421957 C36.0114016,14.2081234 36.6241812,14.2995806 36.8898851,14.4466294 C37.1555889,14.5954715 37.6936393,13.8781602 38.0141446,13.8889199 C38.3329892,13.8996796 39.243025,14.10232 39.3625918,14.199157 C39.4804979,14.295994 40.0368154,14.4412496 40.1696673,14.1435654 C40.3008586,13.8458812 40.9152988,13.1178103 41.2241796,13.2325801 C41.5330603,13.3437634 42.2803525,13.1823683 42.5228073,13.0855313 C42.7669227,12.986901 43.4610741,13.2809986 43.5839621,13.1895415 L43.6005686,13.096291 L43.6620126,12.7519816 C43.9476443,12.8004001 44.7032397,13.0801515 45.340929,13.3778357 L45.4206402,12.4381579 L45.4272828,12.3664268 C45.5651167,12.3036621 46.1994847,12.1261275 46.837174,11.9701124 C47.4732026,11.8140972 49.6121189,12.1691662 50.1667757,12.142267 L50.5669922,12.2462772 C50.9788332,12.3556671 51.2511796,12.8470253 51.2744287,12.0382569 C51.2760894,11.9539728 51.7510351,11.7925778 51.7659809,11.8123039 C52.2658363,12.4507109 53.0181104,11.9342468 53.1592656,11.7656786 C53.6126229,11.2223154 54.2486515,11.961146 54.7352217,11.4482684 L54.9195538,11.2545944 C55.7017196,11.5020668 56.4357266,11.7244333 56.5503114,11.7495391 C56.6665568,11.7728518 57.280997,11.4410953 57.7111052,11.0860263 C58.142874,10.7291639 59.6241731,11.355018 59.7055449,11.3137726 L59.7055449,11.2761137 L59.6723319,10.3167099 C60.3930537,10.5139705 61.4674937,10.4207201 62.0620062,10.1051031 L62.5768074,10.845727 L62.8308868,11.2115557 C63.3656158,10.9622901 64.0713917,10.6359134 64.4002003,10.4834848 L64.7406334,10.4099604 L64.8485756,10.3848545 C64.9598391,10.348989 65.3384671,10.3418158 65.6905248,10.3705083 C66.044243,10.400994 67.2830874,10.2916041 67.6517515,10.3633352 C68.0204156,10.4350663 68.942076,10.0279922 69.0334117,10.130209 C69.126408,10.2324259 69.5133393,10.4816915 69.5947111,10.348989 L69.6794042,10.239599 L69.7707399,10.1212426 C69.8853247,9.99571317 70.0098734,9.97240055 70.0480683,10.0674443 C70.0846026,10.1642813 70.2705953,10.4870714 70.3652524,10.5372832 L70.4532668,10.5139705 L71.1158658,10.3454024 C71.8664793,10.2055267 72.5888617,10.0369586 72.7233743,9.96522744 L72.8196919,9.8701837 L73.4939155,9.18694475 C74.0053955,9.81817864 74.5301606,10.1768343 74.6613519,9.9849535 C74.7925432,9.79307275 75.2259727,9.40034484 75.3555033,9.50435497 C75.4585822,9.58607722 75.6549539,9.35781853 75.7456572,8.89525539 L75.754,8.842 L75.896265,8.8307134 L75.896265,8.8307134 L76.144,8.81 L76.7554306,9.40751796 L76.9231562,9.57070626 C77.421351,9.47924908 78.0673435,9.42365746 78.3629391,9.44697007 C78.6552133,9.46848941 79.3360795,9.61912477 79.3560073,9.38599862 C79.3759351,9.15287247 80.3789672,9.12059346 80.5350683,9.28736832 C80.6674457,9.42878111 80.8864481,9.23291123 80.9327236,8.73137892 L80.938,8.637 L80.8414396,8.63640838 C80.7256094,8.62295879 80.5670433,8.58529995 80.390875,8.53203749 L80.282,8.497 L80.5180227,8.48051531 C81.1093415,8.43798141 81.6818316,8.3979581 82.2085738,8.36274634 L82.345,8.353 L82.4151793,8.32525618 C82.7221147,8.20345348 82.9980695,8.10360553 83.1530634,8.06076611 C83.4337131,7.98365515 84.8170339,7.86709207 85.5560228,7.8652988 L86.2302464,7.84377946 L86.4278637,7.83660635 C86.6404268,7.74156261 86.8463473,7.80432734 86.8845422,7.97468876 C86.9227371,8.14684346 87.7198488,8.05359299 87.8327729,7.9137173 C87.9456971,7.77563489 88.433928,7.48153728 88.6116174,7.63755248 C88.7909675,7.79536095 89.4120504,8.05359299 89.664469,7.92447697 C89.9168877,7.79715423 91.0012917,7.42773894 91.5144323,7.3900801 L91.6821579,7.6196197 C92.050822,8.12353084 92.4809301,7.12288166 92.8844679,7.75949539 L93.0555148,8.03207366 C93.6865615,7.73618277 94.3474999,7.60527347 94.5251893,7.73797605 C94.7012182,7.87426519 95.2425898,8.14863673 95.2924093,8.02310727 C95.3422288,7.89578452 95.5697377,7.59810036 95.6859832,7.64113903 C95.8022286,7.68417771 96.1841779,7.62858609 96.2755136,7.42415238 C96.3668494,7.2179254 97.8481485,7.28427669 98.7249713,7.10674216 L99.6881478,7.38290699 C100.46201,7.60527347 101.506559,7.69493738 102.434862,7.11032872 L102.879916,6.83057734 C103.721865,6.97583286 104.497388,7.19102623 104.600348,7.30758931 C104.704969,7.42594566 105.213128,7.47077761 105.470528,7.0870161 C105.726268,6.70146131 106.900347,7.35780109 106.981719,7.20716573 C107.06143,7.05653037 107.39356,6.70325459 107.441719,6.94893369 C107.488217,7.19461279 107.7506,7.47795073 107.939914,7.15336739 C108.129228,6.83057734 109.510888,7.30758931 110.07883,7.15874723 L110.754714,7.26275736 L111.643162,7.39904649 C112.715941,7.0134917 113.654208,6.81085128 113.728937,6.94893369 C113.802006,7.0870161 114.089298,7.36676749 114.173991,7.21075229 C114.260345,7.05294382 114.645615,6.64945625 114.859839,6.62973019 L114.93789,6.69787476 L115.570597,7.25737752 C116.415868,7.16950689 117.561716,7.13543461 118.116372,7.18026656 C118.671029,7.22330524 120.408068,6.96148664 120.814927,7.28965653 L121.294855,6.69070164 C121.376227,6.59027807 121.974061,6.87002945 122.327779,6.85747651 L123.370667,6.82699078 C124.516515,6.74987982 126.120702,6.56158562 126.932759,6.40915698 L127.540557,7.04397743 L127.663445,7.17130017 C128.062001,7.09777577 128.663156,7.04039087 129.001928,7.04577071 C129.340701,7.05115054 130.171025,7.23227163 130.205899,7.02425137 C130.242433,6.81802439 131.350086,6.93100091 131.735357,7.34345487 L132.334851,6.82699078 L132.529147,6.66021592 C133.070519,6.76601932 133.71319,6.8825824 133.957305,6.91486141 C134.203082,6.94893369 135.098171,7.05653037 135.42698,7.06191021 L135.725897,7.06191021 C135.951745,7.06191021 136.185897,7.09956905 136.396799,7.05294382 C136.630951,6.99914548 136.831889,6.83237061 137.066041,6.78753866 L137.205535,6.76243277 C137.388207,6.84851012 137.746907,6.84492356 138.002647,6.75346638 C138.260048,6.66200919 139.050517,6.9561068 139.444091,7.24123802 L139.430805,6.49523433 L139.430805,6.4898545 C139.669939,6.48447466 140.521852,6.7104277 141.323945,6.99017909 L142.064595,7.02245809 L142.644162,7.04577071 C143.298457,6.76243277 143.954414,6.47371499 144.100551,6.40377715 C144.246688,6.33204603 144.784738,6.66918231 145.015569,7.10494888 L145.721345,6.87182273 C146.088348,6.74987982 146.754268,6.63152347 146.890442,6.78574538 C147.180225,7.11122536 147.37203,7.00721523 147.55823,6.85545907 L147.682547,6.75140405 C147.82898,6.631529 147.984441,6.53408869 148.192391,6.63869658 L148.657372,6.87361601 C149.318311,6.90410174 150.166903,7.02604465 150.542209,7.144401 L150.660115,7.04218415 L151.367552,6.42170993 C152.124808,6.73194704 152.865458,6.8825824 153.011595,6.75705293 C153.159393,6.62793691 153.728995,6.39839731 153.880114,6.59386463 C154.029573,6.78753866 154.481269,7.33807504 154.511161,7.33628176 C154.539392,7.33448848 154.987767,7.13005478 155.396287,6.93638074 C155.804807,6.74270671 157.505312,6.71760082 158.048344,6.79471177 C158.593037,6.87361601 160.049426,6.72836048 160.469571,6.89334207 C160.891375,7.05832365 161.969137,6.45219566 162.341122,6.66380247 L162.352747,6.64945625 L163.379028,5.39954142 C164.7391,5.92855845 166.124081,6.35356536 166.457872,6.34639225 C166.791662,6.33742586 167.414406,6.22265606 167.372889,6.57055201 C167.333034,6.92024124 168.633322,6.24238212 168.967113,6.10609299 C169.302564,5.96980385 170.026607,6.07381398 170.274044,6.12402577 C170.52148,6.17423755 171.15917,5.99311647 171.217292,6.11685265 C171.275415,6.23879556 171.574332,6.55082595 171.690577,6.40019059 C171.806823,6.24955523 172.569061,5.87834667 173.148627,5.88193322 L173.626894,6.12761232 L175.055053,6.59386463 L175.382201,6.3750847 C175.810648,6.08636693 176.220829,5.93931812 176.295558,6.05229464 C176.368626,6.16527116 176.946532,6.57593185 177.306893,6.78933194 L178.06747,6.13299216 L178.153824,6.05767448 C178.341478,6.06126103 178.670286,6.17603083 178.882849,6.31411324 C179.095412,6.45219566 180.405665,6.39839731 181.209419,6.07381398 L181.274184,6.0146358 L181.576422,5.72950459 C181.956711,5.87655339 182.175917,6.46295533 182.064653,7.03321776 L183.039454,6.47550827 L183.778443,6.05229464 C183.728624,6.58669151 183.74357,6.71580754 183.814977,6.34101242 C183.886385,5.96442402 184.955843,6.53827301 185.012306,6.52392678 C185.068768,6.50778728 185.547035,6.42708976 185.947251,6.33742586 C186.349128,6.24776195 187.847034,6.68711509 188.248911,6.78574538 C188.650788,6.88437568 189.642196,6.38046453 189.789993,6.51137383 C189.939452,6.64048986 190.354614,6.98838581 190.389488,6.99914548 C190.424361,7.00990514 190.623639,6.87361601 190.799668,6.71939409 C190.974036,6.56517218 191.756202,6.38943092 192.068404,6.49702761 L192.36566,6.51854695 C192.538368,6.53289317 192.845588,6.24955523 192.895407,6.28900735 L193.398584,6.69608148 C193.915046,6.48806122 194.853313,6.49164778 195.48436,6.70325459 L196.072229,6.88437568 L196.306381,6.9561068 C196.596995,6.95431352 196.975623,6.84492356 197.14833,6.71580754 C197.319377,6.58669151 198.041759,6.55261923 198.269268,6.40019059 C198.496777,6.24776195 199.941542,6.58131168 200.648979,6.62614363 L201.309917,6.67276886 L201.871217,6.7104277 C202.462408,6.87540929 203.040314,6.91844796 203.156559,6.80367816 C203.272805,6.68711509 203.960313,6.45398894 204.425295,6.53468645 L204.782335,6.69070164 C205.157641,6.85568323 205.469843,7.37573388 205.491432,6.5221335 C205.493093,6.49702761 205.7671,6.45219566 205.908255,6.46295533 C206.775114,6.52392678 207.666882,6.74091343 208.498868,6.6207638 L209.139878,6.52930662 C209.646376,6.73912015 210.172802,6.9238278 210.312297,6.94355386 C210.451791,6.96148664 211.084499,6.83595717 211.434896,6.74808654 C211.783632,6.65662936 213.945797,6.81802439 214.545292,7.00093875 C215.143125,7.18743968 216.803775,6.29080063 217.187384,6.30514685 C217.572655,6.31949308 218.99085,6.13657871 219.475759,5.91779879 C219.962329,5.70081214 221.08825,6.62793691 221.21612,6.61179741 C221.34565,6.59386463 222.066372,6.12223249 222.373592,6.48268139 L222.690776,6.5472394 C223.021245,6.61179741 223.49287,6.21727623 223.791787,6.30694013 L224.412869,6.49164778 C224.741678,6.15989133 225.211642,5.90165928 225.455757,5.91959206 L225.608537,6.01642908 L225.892508,6.20113672 C226.15489,6.45757549 226.498645,6.55441251 226.656406,6.4163301 C226.812507,6.27824768 227.234312,6.10609299 227.264204,6.32307963 C227.292435,6.53827301 228.247308,6.57593185 228.403409,6.40377715 C228.55951,6.23341573 229.245359,6.00746269 229.393156,6.20472328 C229.539294,6.40019059 230.032506,6.94714041 230.128824,6.9399673 L230.162037,6.87720257 C230.638643,5.98594335 231.354383,6.72477393 231.945574,6.68352853 L232.231206,6.66200919 C232.648029,6.52392678 233.139581,6.44502255 233.323913,6.48447466 C233.509906,6.52572006 234.014743,6.57234529 234.343552,6.70504787 C234.67236,6.83595717 236.087233,6.4486091 236.686728,6.61359069 L237.350988,6.4647486 C237.717991,6.38405109 238.222828,6.7355336 238.569904,6.63511002 L239.164416,6.46295533 C239.752286,6.57593185 240.65734,6.70504787 241.175463,6.75525966 L241.658712,6.67635542 L242.505643,6.53827301 C243.455534,6.46295533 244.360588,6.38763765 244.515028,6.37149814 C244.669469,6.35535864 245.167663,6.69249492 245.403476,6.98300597 C245.639288,7.27351702 246.6938,6.81623111 246.869829,6.94893369 C247.045858,7.08342955 247.605497,7.33986831 247.723403,7.22151196 L247.701814,7.13364133 C247.635388,6.8664429 247.377988,6.40377715 247.416183,6.38763765 L247.9725,6.12761232 C248.097049,6.53289317 248.321236,6.90589502 248.469034,6.95431352 C248.618493,7.00273203 249.040297,6.85747651 249.189756,6.73732687 C249.339214,6.61359069 249.86564,6.39660404 250.036687,6.53827301 C250.207734,6.6781487 250.686001,6.55620579 250.724196,5.96442402 L251.592715,6.35715192 L251.619286,6.36970487 C251.481452,6.67456214 251.83351,6.84671684 252.401452,6.75525966 C252.969394,6.66200919 254.326144,7.35959437 254.449032,7.25020441 L254.445711,7.15336739 L254.425783,6.47550827 C254.945566,6.60103774 255.476974,6.80547144 255.608165,6.93279419 C255.737696,7.06011693 256.179429,7.3165557 256.215963,7.09956905 C256.254158,6.88078912 256.641089,6.5472394 256.999789,6.81085128 C257.35849,7.07266988 258.823182,6.66021592 259.223399,6.65124953 C259.623615,6.64407641 260.669824,7.13184805 260.751196,7.29862292 C260.834228,7.46898434 261.916972,7.15157411 262.059787,6.98121269 C262.205925,6.809058 262.984769,6.64048986 263.240509,7.2591708 L264.012711,7.06549677 C264.398943,6.96865975 264.30637,6.8134791 264.164945,6.66876007 L264.068144,6.57458565 C263.942007,6.45309975 263.852764,6.35196085 264.102386,6.31949308 L264.703541,6.24238212 C265.3037,6.25636969 266.619827,6.26901031 267.817375,6.27213247 L269.557619,6.27286785 C270.157113,6.27286785 270.756608,6.24955523 271.354441,6.28004096 L271.854297,6.30335358 C272.389026,6.39481076 273.237618,6.16885772 273.740794,5.79944243 L274.278845,6.47012844 L274.601011,6.87002945 C274.645848,6.50958056 274.924837,5.99670302 275.222093,5.73309114 L275.474512,6.0146358 L275.87971,6.46833516 C276.367941,6.33025275 277.078699,6.14733838 277.460649,6.06305431 C277.842598,5.97877024 279.10137,5.74743737 279.403608,5.56272972 C279.705846,5.3762288 280.825124,5.89807273 281.220358,5.92317862 C281.613932,5.94828451 282.778047,6.12581904 282.980647,6.02001564 C283.183246,5.91600551 284.000285,5.67391296 284.531693,5.55914317 L284.930249,5.33677668 L285.685844,4.91714961 C286.00801,5.41388764 286.300284,5.65598018 286.333497,5.45692632 C286.368371,5.25607917 286.835013,4.75037475 287.275085,4.91176978 C287.716818,5.0731648 289.194796,5.48561877 289.643171,5.48561877 C290.089886,5.48741204 291.675806,4.77189408 292.534362,4.75037475 L293.24678,4.78624031 C293.974145,4.82210587 294.65335,4.68223018 295.350823,4.70374952 L295.83075,4.71988902 C296.221003,4.5082822 296.900208,4.45089731 297.343602,4.59615283 L297.566129,4.4760032 C298.263601,4.09762152 298.469522,4.26977622 298.547573,4.90101011 L298.554215,4.95480845 C298.944468,4.9673614 299.836236,4.57822005 300.533709,4.09224169 L301.581579,4.8364521 L301.68786,4.91176978 C301.804106,4.99426057 301.907066,4.79699998 301.91869,4.47062336 C301.930315,4.14604003 303.278762,4.51724859 303.592625,4.61408561 C303.908148,4.71271591 305.032408,4.61229233 305.364538,4.52980154 C305.698328,4.44731075 306.741216,4.19087198 307.00858,4.25722327 C307.277606,4.32357456 308.323815,3.95953911 308.918327,4.0258904 C309.511179,4.09224169 311.261503,3.97926517 311.5106,4.08148202 C311.759698,4.18728543 312.291106,4.62484528 312.344246,4.48676287 C312.399048,4.35047373 312.719553,4.11914086 312.842441,4.51724859 L313.025113,4.58539316 L313.327351,4.69836968 C313.717603,4.64995117 314.599408,4.57104694 315.281935,4.52262843 L315.677169,4.26080983 L316.205256,3.9111206 C316.593848,4.1155543 317.050526,4.28412244 317.221573,4.28412244 C317.390959,4.28412244 317.849299,4.08148202 317.993775,3.99719795 C318.138252,3.91291388 319.113053,4.14245347 319.637818,4.26798294 C320.160922,4.39171913 321.675434,3.95774583 321.811608,3.91470716 C321.947781,3.8698752 322.633629,4.67147051 322.676806,4.44193091 C322.721643,4.20880476 323.19991,3.67978773 323.65991,3.67799445 L324.066769,3.70489362 L324.589874,3.7389659 C325.146191,3.98643828 325.931678,4.12810725 326.335216,4.05637612 C326.737093,3.984645 327.985902,3.60267677 328.291461,3.53991203 C328.59702,3.47535402 329.385829,3.80173064 329.432327,3.58653726 C329.480486,3.37134389 329.709655,2.81901424 329.844168,2.82977391 L329.910594,2.88715881 C330.442002,3.34444472 330.888716,3.88242815 331.79211,3.32651194 L332.052831,3.16691019 C332.56099,3.2727136 333.177091,3.33189177 333.422867,3.29781949 C333.668643,3.26374721 334.410953,3.51659942 334.575358,3.53632548 L334.716513,3.50404647 L335.256224,3.38569012 C335.847415,3.2476077 336.715935,3.18663625 337.184238,3.25119426 L337.616006,3.2888531 L337.948136,3.31575227 C338.398172,2.95171682 338.891385,2.82798063 339.044165,3.03600089 C339.196944,3.2476077 339.685175,3.50763303 339.907702,3.31216572 C340.130229,3.11490513 341.015355,2.70603772 341.249507,2.95171682 C341.485319,3.19560264 342.292395,3.41617585 342.994849,3.47356074 L343.556149,3.57039776 L344.109145,3.66723478 C344.516004,3.49508008 345.181924,3.3300985 345.588783,3.30319933 L345.942502,3.12925135 L346.113549,3.04496728 C346.375931,3.09159251 347.257736,2.93737059 348.073115,2.70245116 L348.875208,3.27450688 L349.298674,3.57757087 C350.105749,3.53273892 350.803222,3.24940098 350.846399,2.94813026 C350.889576,2.64865282 351.880983,2.85308652 352.123438,2.97144288 C352.365893,3.08979923 353.360622,3.16332363 353.68943,3.22967492 C354.0199,3.29602621 354.828636,2.87639914 354.896722,2.91047142 C354.964809,2.94454371 355.258744,3.17587658 355.429791,3.31575227 C355.600838,3.45562796 356.877877,3.74255246 356.683581,3.53991203 C356.489285,3.33727161 356.529141,3.11311185 357.103725,3.38569012 L357.724808,2.76342262 C357.98553,2.5033973 358.868995,2.69348477 359.465168,2.72755706 L359.90524,2.75445623 C360.240692,3.05214039 360.597731,3.31037244 360.699031,3.32471866 C360.80033,3.34265144 361.633976,3.35699767 362.449355,3.43948846 L363.012315,2.77418229 L363.10199,2.66837888 C363.890799,2.96426977 364.462062,3.04138072 364.369066,2.84232686 C364.27773,2.64327299 364.129932,2.13756856 364.198019,2.06583744 C364.266105,1.99231304 364.845672,1.87754324 365.372098,1.79863901 C365.900184,1.71973477 367.361556,2.20391985 367.600689,2.07480383 L367.711953,2.12860217 L368.225093,2.38145439 C368.839533,2.35276194 369.580183,2.46035862 369.869136,2.61816709 C370.159749,2.77597557 371.20928,1.87037013 371.87354,1.42922372 L372.522853,1.67310954 L373.276788,1.9546542 C373.721842,1.57985908 374.143647,1.26603541 374.213394,1.2588623 C374.283142,1.25168919 374.552167,1.17637151 374.758087,1.03111598 C374.965668,0.885860456 375.835849,1.28934803 376.063358,1.41487749 Z M74.073,99.958 L74.7850519,100.312371 C75.138874,100.261375 75.7342686,100.315068 76.3483176,100.376141 L76.8740144,100.428027 C77.1339478,100.452604 77.3856091,100.47343 77.6114509,100.482845 L77.613,100.482 L77.6023617,100.488112 L77.6023617,100.488112 C77.4661885,100.56881 76.7521093,100.706892 76.052976,100.832422 L75.4335538,100.615435 C75.1113879,100.504252 74.8058284,100.358996 74.495287,100.2245 C74.4234883,100.193487 74.3539652,100.150579 74.2851387,100.104073 L74.1479466,100.008725 C74.1250802,99.9928537 74.1021742,99.9771974 74.0791701,99.9620635 L74.073,99.958 Z M70.276,99.738 L70.3060599,99.7415967 C70.5349241,99.7608471 70.9201242,99.7814383 71.4257965,99.8026605 L71.476,99.804 L71.4265361,99.8660001 C71.3732777,99.9340707 71.3175161,100.011527 71.2586816,100.098971 L70.8435193,100.714065 C70.666162,100.276147 70.469674,99.9363565 70.3125234,99.7725513 L70.276,99.738 Z M81.527,100.051 L81.7424721,100.054413 C82.3707366,100.064123 82.9820472,100.072602 83.5633343,100.079593 L83.85,100.082 L83.9010828,100.128007 C83.9257218,100.148026 83.951147,100.166302 83.9776643,100.18225 L84.035,100.21 L83.8999098,100.208526 C83.8522612,100.208149 83.8065473,100.208062 83.7633704,100.208361 C83.2435872,100.211947 81.89514,100.445074 81.8419992,100.312371 C81.8091184,100.231674 81.6895516,100.111596 81.5600608,100.060595 L81.527,100.051 Z M84.646,100.091 L84.8940861,100.093381 C84.999063,100.09427 85.1024207,100.095091 85.2040547,100.095842 L85.479,100.097 L85.4831269,100.128896 L85.4831269,100.128896 L85.494,100.164 C85.4374346,100.179612 85.3984871,100.190204 85.3725395,100.197601 C85.2514505,100.232122 84.9003731,100.228809 84.5259861,100.220768 L84.389,100.217 L84.4342972,100.204774 C84.4509037,100.197153 84.5282277,100.153442 84.6340681,100.09785 L84.646,100.091 Z M76.639,99.956 L76.7279032,99.9582766 C76.9791319,99.9640196 77.233085,99.9696734 77.4889262,99.9752215 L77.592,99.977 L77.3981264,100.090005 L77.2304008,100.188635 C77.0958882,100.154819 76.9223335,100.088724 76.741894,100.005877 L76.639,99.956 Z M72.646,99.847 L72.6807064,99.8488436 C72.8691286,99.8550611 73.0652941,99.8612888 73.2683664,99.86751 L73.449,99.872 L73.3916127,99.9044206 C73.3326027,99.9427448 73.2710955,99.9942224 73.2066232,100.061312 C73.1617857,100.106144 72.8462623,100.041586 72.7549266,99.9519222 L72.6713937,99.8707264 L72.6713937,99.8707264 L72.646,99.847 Z M82.7,99.72 L78.448,99.813 L78.4992033,99.817565 C78.8677272,99.854175 79.2713314,99.9281202 79.5201483,99.9377051 L79.529,99.937 L79.4613932,99.9516085 C79.4300829,99.9601671 79.4000024,99.9703987 79.3717811,99.9821726 L79.311,100.012 L79.4300647,100.01459 L79.4300647,100.01459 L79.986,100.024 L79.8558627,99.9375759 L79.77,99.925 L79.9290652,99.9075847 C80.260293,99.8672912 80.6249797,99.8049472 80.8135147,99.8002536 L80.8921324,99.8030801 C81.0797858,99.828186 81.7473668,99.8586717 82.3767528,99.8676381 L82.3767528,99.8676381 L82.7,99.72 Z M76.445,99.856 L76.5603507,99.9180224 L76.5603507,99.9180224 L76.639,99.956 L76.3532081,99.9495972 C75.7324703,99.9350269 75.1313744,99.9199509 74.5629902,99.9046277 L74.423,99.9 L76.445,99.856 Z M86.824,99.631 L85.799,99.653 L85.7619417,99.7037649 C85.711948,99.7665192 85.6642636,99.8115341 85.6208495,99.8084599 C85.5554981,99.803713 85.4816653,99.8088508 85.4046443,99.816896 L85.399,99.817 L85.414795,99.8179307 C85.4503685,99.8246835 85.4749579,99.8420839 85.4845383,99.873158 L85.487,99.925 L85.641492,99.9293947 C86.1117583,99.9255774 86.5929487,99.7826543 86.8226365,99.6326059 L86.824,99.631 Z M71.5046175,99.7708586 C71.9117977,99.3001797 72.1769938,99.4109714 72.5917942,99.7954955 L72.646,99.847 L72.4039852,99.8395269 C72.1332805,99.830222 71.8809392,99.8209585 71.6497845,99.8117922 L71.476,99.804 Z M85.9984591,99.3808414 C85.6599807,99.3779548 85.2590898,99.3781958 84.8126159,99.381142 L84.658,99.382 L84.6560123,99.4103522 C84.6503466,99.4882015 84.6542425,99.5528713 84.6661317,99.6064287 L84.673,99.627 L84.6875033,99.6237523 L84.6875033,99.6237523 L84.75,99.676 L85.799,99.653 L85.8126327,99.6362216 C85.846843,99.5887494 85.8817893,99.5378893 85.9168905,99.4926338 L85.9695858,99.4300782 L86.016,99.38 Z M8.34560572,75.1454912 C8.74807825,74.7970571 8.85643624,75.1706558 9.10217667,75.2732503 L9.10217667,75.2732503 L9.37694157,75.3874592 C9.70201553,75.4590818 9.98258532,75.6913711 10,75.9023673 L10,75.9023673 L9.91873151,76.0010902 C9.86314527,76.0669055 9.80711127,76.1408478 9.75043179,76.2179372 L9.57825924,76.4536676 C9.37467079,76.7280823 9.16075331,76.980049 8.92802991,76.9960629 C7.92378356,77.0657497 8.69583422,76.1907932 8.28562184,75.919789 C7.78640111,75.5907124 8.03020658,75.4223026 8.34560572,75.1454912 Z M14.1340896,66.4529994 C14.4380896,65.9489002 14.7840896,65.8512065 14.9080896,66.2322118 L14.9080896,66.2322118 L14.8740896,66.4998924 C14.8040896,67.0704233 14.9940896,67.4006278 15.7840896,67.4475207 L15.7840896,67.4475207 L15.8840896,67.4533824 C16.0100896,67.8343876 15.7720896,68.0708062 15.3580896,67.9809281 C14.9420896,67.889096 13.8300896,66.9570986 14.1340896,66.4529994 Z M82.468008,8.34555208 L82.345,8.353 L82.2280203,8.40069193 C82.1017289,8.45236491 81.97336,8.50642892 81.8486724,8.56064053 L81.6651217,8.64178821 L81.16,8.638 L82.0014215,9.33937339 C82.1077031,9.42903729 82.6939123,9.08293462 83.0509519,8.9287127 L83.2386052,8.84801519 C83.4229373,8.74400506 84.1951392,8.4785999 84.9540559,8.25623342 C85.1989876,8.18520137 84.0853677,8.23932942 82.468008,8.34555208 Z M75.776,8.682 L75.7676251,8.76334946 L75.7676251,8.76334946 L75.754,8.842 L75.6506466,8.85018142 C74.7671408,8.92037831 74.0767063,8.97710143 73.7452205,9.0061723 L73.74,9.006 L73.8320668,8.99319229 C74.0160817,8.96550889 74.2605554,8.9235786 74.5171481,8.87704094 L74.8277827,8.81960114 C74.9829149,8.79039241 75.1354489,8.76091311 75.2749434,8.73324539 C75.3898213,8.71046021 75.5584317,8.69415317 75.7608704,8.68307266 L75.776,8.682 Z M77.7245994,8.68219373 L77.781,8.684 L77.5291502,8.70345401 C77.046396,8.74054657 76.581723,8.77671948 76.1507094,8.81064118 L76.144,8.81 L76.003,8.672 L76.2049543,8.6675095 C76.6823472,8.65817336 77.2419741,8.66640572 77.7245994,8.68219373 Z M79.4797073,8.17553591 C79.6997433,8.28402923 79.9629562,8.39028096 80.2097702,8.47389255 L80.282,8.497 L80.2209189,8.50198083 C79.8230208,8.53085206 79.4187484,8.56066868 79.0160779,8.59074892 L78.965,8.594 L78.9881551,8.57543692 L79.4797073,8.17553591 Z" id="Combined-Shape"></path>
            </g>
        </g>
    </g>
</svg>