<?xml version="1.0" encoding="UTF-8"?>
<svg width="25px" height="25px" viewBox="0 0 25 25" version="1.1" xmlns="http://www.w3.org/2000/svg" xmlns:xlink="http://www.w3.org/1999/xlink">
    <title>hamburger icon</title>
    <g id="Design-v3" stroke="none" stroke-width="1" fill="none" fill-rule="evenodd">
        <g id="ipad-2" transform="translate(-760.000000, -51.000000)" fill="#DB0812">
            <g id="nav-bar" transform="translate(25.000000, 20.000000)">
                <path d="M757.061798,51 C758.44251,51 759.561798,52.1192881 759.561798,53.5 C759.561798,54.8807119 758.44251,56 757.061798,56 L738.061798,56 C736.681086,56 735.561798,54.8807119 735.561798,53.5 C735.561798,52.1192881 736.681086,51 738.061798,51 L757.061798,51 Z M757.061798,41 C758.44251,41 759.561798,42.1192881 759.561798,43.5 C759.561798,44.8807119 758.44251,46 757.061798,46 L738.061798,46 C736.681086,46 735.561798,44.8807119 735.561798,43.5 C735.561798,42.1192881 736.681086,41 738.061798,41 L757.061798,41 Z M757.061798,31 C758.44251,31 759.561798,32.1192881 759.561798,33.5 C759.561798,34.8807119 758.44251,36 757.061798,36 L738.061798,36 C736.681086,36 735.561798,34.8807119 735.561798,33.5 C735.561798,32.1192881 736.681086,31 738.061798,31 L757.061798,31 Z" id="hamburger-icon"></path>
            </g>
        </g>
    </g>
</svg>