<?xml version="1.0" encoding="UTF-8"?>
<svg width="1440px" height="13px" viewBox="0 0 1440 13" version="1.1" xmlns="http://www.w3.org/2000/svg" xmlns:xlink="http://www.w3.org/1999/xlink">
    <title>top</title>
    <g id="Design-v3" stroke="none" stroke-width="1" fill="none" fill-rule="evenodd">
        <g id="Saffola-Masala-Oats_Landing-Page_Desktop_v3.2" transform="translate(0.000000, -737.000000)" fill="#FFF1BE">
            <g id="header" transform="translate(-87.000000, -1.000000)">
                <path d="M107,738 L127,751 L87,751 L107,738 Z M267,738 L287,751 L247,751 L267,738 Z M187,738 L207,751 L167,751 L187,738 Z M347,738 L367,751 L327,751 L347,738 Z M147,738 L167,751 L127,751 L147,738 Z M307,738 L327,751 L287,751 L307,738 Z M227,738 L247,751 L207,751 L227,738 Z M387,738 L407,751 L367,751 L387,738 Z M747,738 L767,751 L727,751 L747,738 Z M907,738 L927,751 L887,751 L907,738 Z M827,738 L847,751 L807,751 L827,738 Z M987,738 L1007,751 L967,751 L987,738 Z M787,738 L807,751 L767,751 L787,738 Z M947,738 L967,751 L927,751 L947,738 Z M867,738 L887,751 L847,751 L867,738 Z M1027,738 L1047,751 L1007,751 L1027,738 Z M427,738 L447,751 L407,751 L427,738 Z M587,738 L607,751 L567,751 L587,738 Z M507,738 L527,751 L487,751 L507,738 Z M667,738 L687,751 L647,751 L667,738 Z M467,738 L487,751 L447,751 L467,738 Z M627,738 L647,751 L607,751 L627,738 Z M547,738 L567,751 L527,751 L547,738 Z M707,738 L727,751 L687,751 L707,738 Z M1067,738 L1087,751 L1047,751 L1067,738 Z M1227,738 L1247,751 L1207,751 L1227,738 Z M1427,738 L1447,751 L1407,751 L1427,738 Z M1147,738 L1167,751 L1127,751 L1147,738 Z M1307,738 L1327,751 L1287,751 L1307,738 Z M1507,738 L1527,751 L1487,751 L1507,738 Z M1107,738 L1127,751 L1087,751 L1107,738 Z M1267,738 L1287,751 L1247,751 L1267,738 Z M1467,738 L1487,751 L1447,751 L1467,738 Z M1187,738 L1207,751 L1167,751 L1187,738 Z M1387,738 L1407,751 L1367,751 L1387,738 Z M1347,738 L1367,751 L1327,751 L1347,738 Z" id="top"></path>
            </g>
        </g>
    </g>
</svg>