<?xml version="1.0" encoding="UTF-8"?>
<svg width="42px" height="39px" viewBox="0 0 42 39" version="1.1" xmlns="http://www.w3.org/2000/svg" xmlns:xlink="http://www.w3.org/1999/xlink">
    <title>“</title>
    <g id="Design-v3" stroke="none" stroke-width="1" fill="none" fill-rule="evenodd">
        <g id="ipad-3" transform="translate(-535.000000, -4714.000000)" fill="#FCC517" fill-rule="nonzero">
            <g id="testimonials" transform="translate(0.000000, 4535.000000)">
                <g id="2" transform="translate(426.000000, 179.000000)">
                    <path d="M119.173913,39 C121.347826,39 123.195652,38.2288136 124.717391,36.6864407 C126.23913,35.1440678 127,33.0949153 127,30.5389831 C127,28.3355932 126.304348,26.5949153 124.913043,25.3169492 C123.521739,24.0389831 121.913043,23.4 120.086957,23.4 C119.565217,23.4 119.065217,23.4440678 118.586957,23.5322034 C118.108696,23.620339 117.565217,23.7966102 116.956522,24.0610169 C116.695652,21.4169492 116.934783,18.7067797 117.673913,15.9305085 C118.413043,13.1542373 119.326087,10.620339 120.413043,8.32881356 C121.5,6.03728814 122.521739,4.27457627 123.478261,3.04067797 L123.478261,3.04067797 L119.434783,0 C117.26087,2.5559322 115.391304,5.39830508 113.826087,8.52711864 C112.26087,11.6559322 111.065217,14.8067797 110.23913,17.979661 C109.413043,21.1525424 109,23.9288136 109,26.3084746 C109,29.9220339 109.847826,32.940678 111.543478,35.3644068 C113.23913,37.7881356 115.782609,39 119.173913,39 Z M143.173913,39 C145.347826,39 147.195652,38.2288136 148.717391,36.6864407 C150.23913,35.1440678 151,33.0949153 151,30.5389831 C151,28.3355932 150.304348,26.5949153 148.913043,25.3169492 C147.521739,24.0389831 145.913043,23.4 144.086957,23.4 C143.565217,23.4 143.065217,23.4440678 142.586957,23.5322034 C142.108696,23.620339 141.565217,23.7966102 140.956522,24.0610169 C140.695652,21.4169492 140.934783,18.7067797 141.673913,15.9305085 C142.413043,13.1542373 143.326087,10.620339 144.413043,8.32881356 C145.5,6.03728814 146.521739,4.27457627 147.478261,3.04067797 L147.478261,3.04067797 L143.434783,0 C141.26087,2.5559322 139.391304,5.39830508 137.826087,8.52711864 C136.26087,11.6559322 135.065217,14.8067797 134.23913,17.979661 C133.413043,21.1525424 133,23.9288136 133,26.3084746 C133,29.9220339 133.847826,32.940678 135.543478,35.3644068 C137.23913,37.7881356 139.782609,39 143.173913,39 Z" id="“"></path>
                </g>
            </g>
        </g>
    </g>
</svg>